<svg xmlns="http://www.w3.org/2000/svg" width="24" height="24" fill="none" stroke="currentColor" stroke-width="2" stroke-linecap="round" stroke-linejoin="round"><path d="M8.664 2.061a.996.996 0 0 0-.519.43c-.052.093-.72 2.046-1.484 4.339L5.273 11H3.564c-1.942 0-1.97.004-2.265.299a.984.984 0 0 0 .001 1.403c.305.305.271.301 2.764.289l2.198-.011.199-.102c.374-.193.354-.147 1.484-3.535C8.514 7.636 8.989 6.24 9 6.24c.011 0 1.16 3.421 2.554 7.603 2.073 6.216 2.558 7.632 2.661 7.767.378.497 1.191.497 1.57.001.101-.133.401-.99 1.534-4.388L18.727 13h1.709c1.942 0 1.97-.004 2.265-.299a.984.984 0 0 0-.001-1.403c-.305-.305-.271-.301-2.764-.289l-2.198.011-.199.102c-.375.193-.356.147-1.485 3.536-.568 1.706-1.043 3.102-1.054 3.102-.011 0-1.16-3.421-2.554-7.602-2.076-6.227-2.557-7.632-2.66-7.768-.244-.319-.754-.469-1.122-.329" fill="#000" fill-rule="evenodd" stroke="none"/></svg>