<svg xmlns="http://www.w3.org/2000/svg" width="24" height="24" fill="none" stroke="currentColor" stroke-width="2" stroke-linecap="round" stroke-linejoin="round"><path d="M3.62 2.025c-.408.08-.533.114-.75.202-.881.358-1.549 1.137-1.794 2.093-.083.326-.084 11.032 0 11.357.283 1.105 1.058 1.897 2.184 2.232.136.041.463.066 1.026.08.975.024 1.136-.009 1.414-.287a.984.984 0 0 0 .001-1.403C5.447 16.045 5.266 16 4.5 16s-.947-.045-1.202-.3c-.321-.321-.3.088-.289-5.782L3.02 4.7l.111-.189c.125-.213.318-.375.539-.454.123-.044 1.598-.054 8.313-.055 9.163-.002 8.393-.028 8.718.297.32.32.299-.082.299 5.701 0 5.783.021 5.381-.299 5.701-.254.254-.435.299-1.201.299s-.947.045-1.201.299a.984.984 0 0 0 0 1.402c.257.257.432.299 1.238.299.743-.001 1.06-.038 1.437-.168a3.069 3.069 0 0 0 1.95-2.152c.083-.327.083-11.033 0-11.357-.307-1.197-1.264-2.09-2.444-2.28-.246-.04-16.66-.057-16.86-.018m8.035 12.038a1.113 1.113 0 0 0-.307.189c-.227.206-5.159 6.153-5.244 6.322a.99.99 0 0 0 .194 1.126c.321.321-.082.3 5.702.3s5.381.021 5.702-.3a.99.99 0 0 0 .194-1.126c-.043-.085-1.243-1.552-2.667-3.261-2.273-2.726-2.614-3.118-2.779-3.198-.233-.113-.571-.135-.795-.052m1.787 4.227 1.408 1.69-1.425.011c-.784.005-2.066.005-2.85 0L9.15 19.98l1.408-1.69c.775-.93 1.424-1.69 1.442-1.69.018 0 .667.76 1.442 1.69" fill-rule="evenodd" fill="#000" stroke="none"/></svg>