<svg xmlns="http://www.w3.org/2000/svg" width="24" height="24" fill="none" stroke="currentColor" stroke-width="2" stroke-linecap="round" stroke-linejoin="round"><path d="M4.64 2.068c-.152.053-.431.312-1.811 1.687-1.145 1.14-1.657 1.677-1.717 1.801-.416.859.473 1.748 1.332 1.332.124-.06.66-.572 1.801-1.717 1.453-1.459 1.631-1.652 1.69-1.828.129-.389.044-.766-.234-1.044a1.005 1.005 0 0 0-1.061-.231m14.003.001C18.291 2.193 18 2.614 18 3c0 .08.029.234.065.343.059.176.237.369 1.69 1.828 1.141 1.145 1.677 1.657 1.801 1.717.859.416 1.748-.473 1.332-1.332-.06-.124-.572-.66-1.717-1.801-1.459-1.453-1.652-1.631-1.828-1.69a1.032 1.032 0 0 0-.7.004M11.1 4.045c-3.05.288-5.812 2.217-7.183 5.015a8.973 8.973 0 0 0 0 7.88c.271.553.64 1.157.913 1.493l.14.173-.919.927c-.795.802-.928.954-.985 1.124-.13.388-.046.765.233 1.044s.656.363 1.044.233c.17-.057.322-.19 1.124-.985l.927-.919.173.14c.748.607 2.072 1.253 3.138 1.531.817.212 1.324.273 2.275.275 1.191.001 1.99-.129 3.04-.496.749-.262 1.875-.873 2.413-1.31l.173-.14.927.919c.802.795.954.928 1.124.985.388.13.765.046 1.044-.233s.363-.656.233-1.044c-.057-.17-.19-.322-.985-1.124l-.919-.927.14-.173c.447-.551 1.045-1.661 1.322-2.453.169-.486.318-1.091.414-1.68.1-.614.1-1.986 0-2.6-.164-1.008-.399-1.76-.826-2.64-1.64-3.382-5.203-5.372-8.98-5.015m1.64 1.997c2.449.28 4.51 1.737 5.562 3.931a6.974 6.974 0 0 1-1.802 8.38 6.983 6.983 0 0 1-8.369.472C4.95 16.703 4.05 12.429 6.11 9.22c1.42-2.212 4.05-3.473 6.63-3.178m-4.097 6.027C8.291 12.193 8 12.614 8 13c0 .242.119.521.299.701.311.312.157.299 3.701.299s3.39.013 3.701-.299a.984.984 0 0 0 0-1.402c-.312-.312-.154-.299-3.718-.296-2.757.003-3.186.011-3.34.066" fill-rule="evenodd" fill="#000" stroke="none"/></svg>