<svg xmlns="http://www.w3.org/2000/svg" width="24" height="24" fill="none" stroke="currentColor" stroke-width="2" stroke-linecap="round" stroke-linejoin="round"><path d="M1.643 1.069C1.291 1.193 1 1.614 1 2c0 .364.088.496.854 1.27l.721.73-.721.73C1.088 5.504 1 5.636 1 6c0 .527.473 1 1 1 .364 0 .495-.088 1.271-.855l.731-.722.699.698c.384.384.699.712.699.729 0 .018-.128.18-.285.361C4.108 8.374 3.412 9.9 3.113 11.6c-.118.671-.128 1.99-.02 2.679.236 1.501.815 2.914 1.655 4.035l.22.294-.918.926c-.794.801-.927.953-.984 1.123-.13.388-.046.765.233 1.044s.656.363 1.044.233c.17-.057.322-.19 1.123-.984l.926-.918.294.22c1.115.836 2.544 1.421 4.034 1.653.636.098 1.925.099 2.559.001a9.228 9.228 0 0 0 3.641-1.377c.431-.282.944-.679 1.118-.866l.098-.105 1.662 1.656c1.487 1.482 1.683 1.662 1.859 1.721.39.129.766.044 1.045-.235a.986.986 0 0 0 .185-1.144c-.063-.13-2.761-2.85-10.216-10.301C3.299 1.888 2.525 1.125 2.343 1.065a1.038 1.038 0 0 0-.7.004m17 1C18.291 2.193 18 2.614 18 3c0 .08.029.234.065.343.059.176.237.369 1.69 1.828 1.141 1.145 1.677 1.657 1.801 1.717.859.416 1.748-.473 1.332-1.332-.06-.124-.572-.66-1.717-1.801-1.459-1.453-1.652-1.631-1.828-1.69a1.032 1.032 0 0 0-.7.004M11.02 4.047c-.572.064-1.305.231-1.512.343a.983.983 0 0 0-.496.951.965.965 0 0 0 .588.816c.236.106.439.103 1.02-.02.854-.179 1.914-.177 2.818.007.417.085 1.173.34 1.57.531a7.042 7.042 0 0 1 3.605 4.029c.307.885.408 1.635.369 2.741-.023.675-.018.807.037.94.081.194.273.396.481.507.224.12.656.119.883 0 .203-.108.434-.359.491-.537.069-.213.125-.811.126-1.341a9.029 9.029 0 0 0-3.131-6.837 9.09 9.09 0 0 0-4.957-2.135 11.833 11.833 0 0 0-1.892.005m.78 9.173 4.94 4.941-.12.099c-1.193.994-2.443 1.536-3.908 1.697-2.428.267-4.892-.833-6.358-2.837a7 7 0 0 1 .266-8.597c.11-.133.209-.243.22-.243a874.6 874.6 0 0 1 4.96 4.94" fill-rule="evenodd" fill="#000" stroke="none"/></svg>