<svg xmlns="http://www.w3.org/2000/svg" width="24" height="24" fill="none" stroke="currentColor" stroke-width="2" stroke-linecap="round" stroke-linejoin="round"><path d="M4.62 2.025c-.408.08-.533.114-.75.202-.881.358-1.549 1.137-1.794 2.093-.083.327-.084 15.031 0 15.357.281 1.099 1.041 1.876 2.184 2.238.179.056.983.064 7.56.075 4.998.008 7.448-.001 7.633-.03 1.19-.183 2.167-1.084 2.471-2.28.083-.328.084-15.032 0-15.357-.307-1.197-1.264-2.09-2.444-2.28-.246-.04-14.661-.057-14.86-.018M10 7.573c0 4.022-.015 3.814.299 4.128.278.278.655.363 1.044.233.174-.057.342-.21 1.427-1.288L14 9.423l1.23 1.223c1.085 1.078 1.253 1.231 1.427 1.288.389.13.766.045 1.044-.233.314-.314.299-.106.299-4.128V4h.573c.686 0 .881.052 1.128.299.324.324.299-.322.299 7.701s.025 7.377-.299 7.701c-.324.324.322.299-7.701.299-8.025 0-7.377.025-7.702-.3-.324-.324-.3.328-.288-7.782L4.02 4.7l.111-.189c.125-.213.318-.375.539-.454.119-.043.681-.054 2.74-.055L10 4v3.573m6-1.285v2.287l-.73-.721C14.496 7.088 14.364 7 14 7s-.496.088-1.27.854l-.73.721V4h4v2.288" fill="#000" fill-rule="evenodd" stroke="none"/></svg>