<svg xmlns="http://www.w3.org/2000/svg" width="24" height="24" fill="none" stroke="currentColor" stroke-width="2" stroke-linecap="round" stroke-linejoin="round"><path d="M2.643 5.069C2.291 5.193 2 5.614 2 6c0 .242.119.521.299.701C2.625 7.027 1.736 7 12 7c10.264 0 9.375.027 9.701-.299a.984.984 0 0 0 0-1.402c-.326-.327.567-.299-9.718-.296-8.192.003-9.182.01-9.34.066m0 6C2.291 11.193 2 11.614 2 12c0 .242.119.521.299.701.322.322-.202.299 6.701.299s6.379.023 6.701-.299a.984.984 0 0 0 0-1.402c-.323-.323.205-.299-6.718-.296-5.475.003-6.183.01-6.34.066m0 6C2.291 17.193 2 17.614 2 18c0 .242.119.521.299.701.324.324-.322.299 7.701.299s7.377.025 7.701-.299a.984.984 0 0 0 0-1.402c-.324-.324.325-.299-7.718-.296-6.381.003-7.182.01-7.34.066" fill="#000" fill-rule="evenodd" stroke="none"/></svg>