<svg xmlns="http://www.w3.org/2000/svg" width="24" height="24" fill="none" stroke="currentColor" stroke-width="2" stroke-linecap="round" stroke-linejoin="round"><path d="M2.643 5.069C2.291 5.193 2 5.614 2 6c0 .242.119.521.299.701C2.625 7.027 1.736 7 12 7c10.264 0 9.375.027 9.701-.299a.984.984 0 0 0 0-1.402c-.326-.327.567-.299-9.718-.296-8.192.003-9.182.01-9.34.066m4 6C6.291 11.193 6 11.614 6 12c0 .242.119.521.299.701.32.32-.082.299 5.701.299 5.783 0 5.381.021 5.701-.299a.984.984 0 0 0 0-1.402c-.32-.32.085-.299-5.718-.296-4.569.003-5.183.01-5.34.066m-2 6C4.291 17.193 4 17.614 4 18c0 .242.119.521.299.701.324.324-.322.299 7.701.299s7.377.025 7.701-.299a.984.984 0 0 0 0-1.402c-.324-.324.325-.299-7.718-.296-6.381.003-7.182.01-7.34.066" fill="#000" fill-rule="evenodd" stroke="none"/></svg>