<svg xmlns="http://www.w3.org/2000/svg" width="24" height="24" fill="none" stroke="currentColor" stroke-width="2" stroke-linecap="round" stroke-linejoin="round"><path d="M11.31 1.063a3.918 3.918 0 0 0-2.131 1.116A3.903 3.903 0 0 0 8.014 5.18c.091 1.754 1.194 3.144 2.916 3.676.066.02.07.344.07 6.056v6.035l-.25-.033c-.858-.113-1.859-.424-2.708-.842a8.934 8.934 0 0 1-4.124-4.132c-.419-.86-.719-1.823-.829-2.67L3.054 13H4.1c1.205 0 1.324-.022 1.601-.299a.984.984 0 0 0 0-1.402C5.407 11.005 5.371 11 3.5 11s-1.907.005-2.202.3c-.265.264-.315.473-.284 1.167.104 2.283.828 4.295 2.222 6.173.396.533 1.454 1.614 1.964 2.007a11.163 11.163 0 0 0 5.34 2.259c.671.098 2.249.098 2.92 0 1.945-.283 3.631-.98 5.177-2.136.533-.4 1.615-1.46 2.009-1.97 1.442-1.867 2.235-4.009 2.339-6.321.032-.707-.017-.913-.283-1.179-.295-.295-.331-.3-2.202-.3s-1.907.005-2.201.299a.984.984 0 0 0 0 1.402c.277.277.396.299 1.602.299h1.046l-.033.25c-.157 1.186-.691 2.619-1.354 3.63a9.323 9.323 0 0 1-2.68 2.68c-1.011.663-2.444 1.197-3.63 1.354l-.25.033v-6.035c0-5.712.004-6.036.07-6.056 1.451-.454 2.461-1.505 2.821-2.936.116-.461.123-1.316.014-1.78-.49-2.102-2.51-3.454-4.595-3.077m1.098 1.981C13.31 3.232 14 4.08 14 5c0 1.08-.92 2-2 2s-2-.92-2-2c0-.898.657-1.731 1.534-1.943.263-.064.604-.069.874-.013" fill-rule="evenodd" fill="#000" stroke="none"/></svg>