<svg xmlns="http://www.w3.org/2000/svg" width="24" height="24" fill="none" stroke="currentColor" stroke-width="2" stroke-linecap="round" stroke-linejoin="round"><path d="M11.16 1.025c-2.737.259-5.005 1.305-6.884 3.174-.68.678-.969 1.021-1.396 1.659-.933 1.392-1.505 2.867-1.768 4.562-.116.751-.126 2.31-.019 3.04.29 1.97.962 3.594 2.143 5.18.396.533 1.457 1.616 1.964 2.007 1.558 1.199 3.192 1.905 5.18 2.238.705.118 2.348.129 3.08.022 1.952-.287 3.634-.982 5.177-2.138.507-.38 1.557-1.4 1.959-1.902a13.82 13.82 0 0 0 1.139-1.748 11.353 11.353 0 0 0 1.171-3.659c.098-.673.098-2.25 0-2.92-.296-2.015-1.025-3.737-2.259-5.34-.388-.503-1.474-1.567-2.01-1.969-1.486-1.113-3.047-1.779-4.914-2.095-.467-.079-.761-.101-1.483-.113a20.271 20.271 0 0 0-1.08.002m.167 2.145c-.089.146-2.851 4.927-3.639 6.299a7.574 7.574 0 0 1-.312.52c-.005-.005-.505-.87-1.112-1.922L5.16 6.155l.23-.258c1.098-1.23 2.863-2.265 4.525-2.654.479-.112 1.006-.194 1.278-.199l.214-.004-.08.13m2.813.087c2.06.502 3.947 1.784 5.197 3.533l.151.21h-4.024c-2.213 0-4.024-.007-4.024-.016 0-.016 1.971-3.44 2.127-3.694.044-.071.101-.13.126-.13.026 0 .227.044.447.097M5.96 11.54a704.96 704.96 0 0 0 1.951 3.37l.059.091-2.233-.011-2.233-.01-.112-.351C3.155 13.887 3 12.844 3 12c0-1.217.295-2.605.777-3.658l.146-.318.072.118c.039.065.923 1.594 1.965 3.398m8.62-1.078c.462.804.84 1.495.84 1.538 0 .043-.378.734-.84 1.538l-.84 1.46h-3.48l-.84-1.46c-.462-.804-.84-1.495-.84-1.537 0-.042.378-.734.84-1.538l.84-1.461h3.48l.84 1.46m6.03-1.082c.536 1.717.512 3.683-.066 5.431-.168.51-.449 1.179-.48 1.145a705.927 705.927 0 0 1-2.312-3.996 308.785 308.785 0 0 0-1.663-2.87l-.059-.091 2.234.011 2.233.01.113.36m-2.874 6.553 1.104 1.912-.23.258c-.426.477-1.039.995-1.69 1.427-1.126.748-2.732 1.32-3.977 1.415l-.358.028.084-.137c.103-.17 2.562-4.426 3.723-6.445a4.07 4.07 0 0 1 .232-.38c.005.005.505.87 1.112 1.922m-5.176 1.083c0 .026-2.162 3.761-2.199 3.799-.049.049-.568-.072-1.201-.281-1.769-.582-3.399-1.787-4.497-3.324L4.512 17h4.024c2.213 0 4.024.007 4.024.016" fill="#000" fill-rule="evenodd" stroke="none"/></svg>