<svg xmlns="http://www.w3.org/2000/svg" width="24" height="24" fill="none" stroke="currentColor" stroke-width="2" stroke-linecap="round" stroke-linejoin="round"><path d="M3.62 3.025c-.408.08-.533.114-.75.202-.881.358-1.549 1.137-1.794 2.093-.079.308-.079 2.05 0 2.357.238.927.915 1.735 1.733 2.067l.189.076.012 4.36c.011 3.856.02 4.383.077 4.56.36 1.132 1.048 1.82 2.173 2.175.178.056.9.064 6.56.075 4.306.008 6.448-.001 6.633-.03a3.034 3.034 0 0 0 2.306-1.8c.231-.547.217-.25.231-4.987l.012-4.367.114-.025c.188-.041.728-.398.98-.647a3.25 3.25 0 0 0 .828-1.454c.079-.309.079-2.051 0-2.357-.307-1.197-1.264-2.09-2.444-2.28-.246-.04-16.66-.057-16.86-.018m16.72 2.041c.253.087.507.341.594.594.051.149.066.344.066.84 0 .766-.045.947-.299 1.201-.325.325.443.299-8.701.299-9.146 0-8.376.027-8.702-.3-.267-.266-.307-.446-.291-1.29.013-.693.016-.715.124-.899.125-.213.318-.375.539-.454.123-.044 1.598-.054 8.313-.055 7.496-.002 8.179.003 8.357.064M19 14.073c0 4.581.017 4.312-.299 4.628-.322.322.202.299-6.701.299s-6.379.023-6.701-.299C4.983 18.385 5 18.654 5 14.073V10h14v4.073m-9.357-2.004C9.291 12.193 9 12.614 9 13c0 .242.119.521.299.701.302.302.274.299 2.701.299s2.399.003 2.701-.299a.984.984 0 0 0 0-1.402c-.303-.303-.271-.299-2.718-.296-1.851.003-2.188.012-2.34.066" fill-rule="evenodd" fill="#000" stroke="none"/></svg>