<svg xmlns="http://www.w3.org/2000/svg" width="24" height="24" fill="none" stroke="currentColor" stroke-width="2" stroke-linecap="round" stroke-linejoin="round"><path d="M11.64 2.068c-.156.053-.66.541-3.811 3.687C5.2 8.379 4.174 9.429 4.113 9.556a.986.986 0 0 0 .185 1.144c.294.294.339.3 2.129.3H8v5.073c0 5.701-.021 5.308.299 5.628.311.312.157.299 3.701.299s3.39.013 3.701-.299c.32-.32.299.073.299-5.628V11h1.573c1.79 0 1.835-.006 2.129-.3a.986.986 0 0 0 .185-1.144c-.061-.127-1.087-1.176-3.716-3.801-3.321-3.316-3.648-3.631-3.828-3.69a1.06 1.06 0 0 0-.703.003M14.3 6.72 16.58 9h-.863c-1.003 0-1.15.031-1.418.299-.32.32-.299-.073-.299 5.628V20h-4v-5.073c0-5.701.021-5.308-.299-5.628C9.433 9.031 9.286 9 8.283 9H7.42L9.7 6.72A187.994 187.994 0 0 1 12 4.44c.011 0 1.046 1.026 2.3 2.28" fill-rule="evenodd" fill="#000" stroke="none"/></svg>