<svg xmlns="http://www.w3.org/2000/svg" width="24" height="24" fill="none" stroke="currentColor" stroke-width="2" stroke-linecap="round" stroke-linejoin="round"><path d="M11.58 4.096c-.161.077-.908.805-3.825 3.73-3.314 3.322-3.631 3.651-3.69 3.831-.128.39-.044.766.234 1.044s.654.363 1.044.234c.179-.059.445-.312 2.927-2.789L11 7.421v5.863c0 6.585-.023 6.095.299 6.417a.984.984 0 0 0 1.402 0c.322-.322.299.168.299-6.417V7.421l2.73 2.725c2.482 2.477 2.748 2.73 2.927 2.789.39.129.766.044 1.044-.234s.362-.654.234-1.044c-.059-.18-.376-.509-3.69-3.831-2.917-2.925-3.664-3.653-3.825-3.73a.967.967 0 0 0-.84 0" fill="#000" fill-rule="evenodd" stroke="none"/></svg>