<svg xmlns="http://www.w3.org/2000/svg" width="24" height="24" fill="none" stroke="currentColor" stroke-width="2" stroke-linecap="round" stroke-linejoin="round"><path d="M13.643 4.069a1.066 1.066 0 0 0-.577.591c-.057.168-.066.408-.066 1.767V8H7.927c-5.701 0-5.308-.021-5.628.299C1.987 8.61 2 8.456 2 12s-.013 3.39.299 3.701c.32.32-.073.299 5.628.299H13v1.573c0 1.79.006 1.835.3 2.129a.986.986 0 0 0 1.144.185c.127-.061 1.177-1.087 3.801-3.716 3.448-3.453 3.629-3.642 3.695-3.845a1.013 1.013 0 0 0-.053-.77c-.061-.127-1.087-1.176-3.716-3.801-3.321-3.316-3.648-3.631-3.828-3.69a1.038 1.038 0 0 0-.7.004M17.29 14.29 15 16.58v-.863c0-1.003-.031-1.15-.299-1.418-.32-.32.073-.299-5.628-.299H4v-4h5.073c5.701 0 5.308.021 5.628-.299.268-.268.299-.415.299-1.418V7.42l2.29 2.29L19.58 12l-2.29 2.29" fill-rule="evenodd" fill="#000" stroke="none"/></svg>