<svg xmlns="http://www.w3.org/2000/svg" width="24" height="24" fill="none" stroke="currentColor" stroke-width="2" stroke-linecap="round" stroke-linejoin="round"><path d="M6.58 6.095a.951.951 0 0 0-.497.505c-.08.178-.081.235-.082 5.363-.001 5.824-.022 5.418.298 5.738a.984.984 0 0 0 1.402 0c.315-.315.299-.072.299-4.418V9.421l4.23 4.225c3.879 3.874 4.246 4.23 4.427 4.289.39.128.766.044 1.044-.234s.362-.654.234-1.044c-.059-.181-.415-.548-4.289-4.427L9.421 8h3.862c4.346 0 4.103.016 4.418-.299a.984.984 0 0 0 0-1.402c-.32-.32.086-.299-5.738-.299l-5.183.001-.2.094" fill="#000" fill-rule="evenodd" stroke="none"/></svg>