<svg xmlns="http://www.w3.org/2000/svg" width="24" height="24" fill="none" stroke="currentColor" stroke-width="2" stroke-linecap="round" stroke-linejoin="round"><path d="M8.643 2.069a1.118 1.118 0 0 0-.343.229c-.321.321-.3-.073-.3 5.629V13H6.427c-1.79 0-1.835.006-2.129.3a.986.986 0 0 0-.185 1.144c.061.127 1.087 1.177 3.716 3.801 3.453 3.448 3.642 3.629 3.845 3.695.261.084.526.066.77-.053.127-.061 1.176-1.087 3.801-3.716 3.316-3.321 3.631-3.648 3.69-3.828.128-.39.044-.766-.234-1.044-.292-.293-.339-.299-2.128-.299H16V7.927c0-5.701.021-5.308-.299-5.628-.312-.312-.154-.299-3.718-.296-2.757.003-3.186.011-3.34.066M14 9.073c0 5.701-.021 5.308.299 5.628.268.268.415.299 1.418.299h.863l-2.29 2.29L12 19.58l-2.29-2.29L7.42 15h.863c1.003 0 1.15-.031 1.418-.299.32-.32.299.073.299-5.628V4h4v5.073" fill-rule="evenodd" fill="#000" stroke="none"/></svg>