<svg xmlns="http://www.w3.org/2000/svg" width="24" height="24" fill="none" stroke="currentColor" stroke-width="2" stroke-linecap="round" stroke-linejoin="round"><path d="M11.643 4.069a1.118 1.118 0 0 0-.343.229c-.323.323-.3-.168-.3 6.418v5.863l-2.73-2.725c-2.482-2.477-2.748-2.73-2.927-2.789-.39-.129-.766-.044-1.044.234s-.362.654-.234 1.044c.059.18.376.509 3.69 3.831 3.935 3.945 3.802 3.825 4.245 3.825.443 0 .31.12 4.245-3.825 3.314-3.322 3.631-3.651 3.69-3.831.128-.39.044-.766-.234-1.044s-.654-.363-1.044-.234c-.179.059-.445.312-2.927 2.789L13 16.579v-5.863c0-6.585.023-6.095-.299-6.417a.998.998 0 0 0-1.058-.23" fill="#000" fill-rule="evenodd" stroke="none"/></svg>