<svg xmlns="http://www.w3.org/2000/svg" width="24" height="24" fill="none" stroke="currentColor" stroke-width="2" stroke-linecap="round" stroke-linejoin="round"><path d="M11.16 1.025c-1.859.175-3.545.734-5.012 1.662a11.748 11.748 0 0 0-3.461 3.461C1.869 7.442 1.33 8.925 1.093 10.54c-.052.356-.07.733-.07 1.46s.018 1.104.07 1.46c.366 2.489 1.384 4.537 3.126 6.282.686.689 1.053.991 1.781 1.469 1.357.891 2.852 1.449 4.54 1.695.671.098 2.249.098 2.92 0 1.945-.283 3.631-.98 5.177-2.136.533-.4 1.615-1.46 2.009-1.97a11.152 11.152 0 0 0 2.26-5.34c.052-.355.07-.736.07-1.46s-.018-1.105-.07-1.46c-.292-2-1.028-3.742-2.259-5.34-.388-.503-1.474-1.567-2.01-1.969A10.98 10.98 0 0 0 13.6 1.118c-.525-.079-1.991-.135-2.44-.093m1.703 2.018a9.005 9.005 0 0 1 7.22 5.017c2.183 4.452.329 9.831-4.143 12.023-4.45 2.182-9.836.326-12.023-4.143a8.973 8.973 0 0 1 1.07-9.571 9.028 9.028 0 0 1 7.876-3.326M11.58 7.096c-.158.076-.641.539-2.325 2.23-1.917 1.926-2.131 2.153-2.19 2.331-.129.39-.044.766.234 1.044s.655.363 1.044.233c.174-.057.342-.21 1.427-1.288L11 10.423v2.861c0 3.227-.01 3.108.299 3.417a.984.984 0 0 0 1.402 0c.309-.309.299-.19.299-3.417v-2.861l1.23 1.223c1.085 1.078 1.253 1.231 1.427 1.288.389.13.766.045 1.044-.233s.363-.654.234-1.044c-.059-.178-.273-.405-2.19-2.331C12.431 7.001 12.43 7.001 12 7.001a.945.945 0 0 0-.42.095" fill="#000" fill-rule="evenodd" stroke="none"/></svg>