<svg xmlns="http://www.w3.org/2000/svg" width="24" height="24" fill="none" stroke="currentColor" stroke-width="2" stroke-linecap="round" stroke-linejoin="round"><path d="M11.643 4.069C11.291 4.193 11 4.614 11 5c0 .08.029.234.065.343.059.179.312.445 2.789 2.927L16.579 11h-5.863c-6.585 0-6.095-.023-6.417.299a.984.984 0 0 0 0 1.402c.322.322-.168.299 6.417.299h5.863l-2.725 2.73c-2.477 2.482-2.73 2.748-2.789 2.927-.129.39-.044.766.234 1.044s.654.362 1.044.234c.18-.059.509-.376 3.831-3.69 3.945-3.935 3.825-3.802 3.825-4.245 0-.443.12-.31-3.825-4.245-3.322-3.314-3.651-3.631-3.831-3.69a1.038 1.038 0 0 0-.7.004" fill="#000" fill-rule="evenodd" stroke="none"/></svg>