<svg xmlns="http://www.w3.org/2000/svg" width="24" height="24" fill="none" stroke="currentColor" stroke-width="2" stroke-linecap="round" stroke-linejoin="round"><path d="M11.64 4.068c-.156.053-.662.542-3.814 3.687C3.881 11.69 4.001 11.557 4.001 12c0 .443-.12.31 3.825 4.245 3.322 3.314 3.651 3.631 3.831 3.69.39.128.766.044 1.044-.234s.363-.654.234-1.044c-.059-.179-.312-.445-2.789-2.927L7.421 13h5.863c6.585 0 6.095.023 6.417-.299a.984.984 0 0 0 0-1.402c-.322-.322.168-.299-6.417-.299H7.421l2.725-2.73c2.477-2.482 2.73-2.748 2.789-2.927.129-.39.044-.766-.234-1.044a1.006 1.006 0 0 0-1.061-.231" fill="#000" fill-rule="evenodd" stroke="none"/></svg>