<svg xmlns="http://www.w3.org/2000/svg" width="24" height="24" fill="none" stroke="currentColor" stroke-width="2" stroke-linecap="round" stroke-linejoin="round"><path d="M6.643 6.069C6.291 6.193 6 6.614 6 7c0 .08.029.234.065.343.059.181.415.548 4.289 4.427L14.579 16h-3.862c-4.346 0-4.103-.016-4.418.299a.984.984 0 0 0 0 1.402c.32.32-.086.299 5.738.299l5.183-.001.2-.094a.951.951 0 0 0 .497-.505c.08-.178.081-.235.082-5.363.001-5.824.022-5.418-.298-5.738a.984.984 0 0 0-1.402 0c-.315.315-.299.072-.299 4.418v3.862l-4.23-4.225C7.891 6.48 7.524 6.124 7.343 6.065a1.038 1.038 0 0 0-.7.004" fill="#000" fill-rule="evenodd" stroke="none"/></svg>