<svg xmlns="http://www.w3.org/2000/svg" width="24" height="24" fill="none" stroke="currentColor" stroke-width="2" stroke-linecap="round" stroke-linejoin="round"><path d="M9.64 4.068c-.156.053-.66.541-3.811 3.687-2.629 2.624-3.655 3.674-3.716 3.801a1.013 1.013 0 0 0-.053.77c.066.203.247.392 3.695 3.845 2.624 2.629 3.674 3.655 3.801 3.716a.986.986 0 0 0 1.144-.185c.294-.294.3-.339.3-2.129V16h5.073c5.701 0 5.308.021 5.628-.299.312-.311.299-.157.299-3.701s.013-3.39-.299-3.701c-.32-.32.073-.299-5.628-.299H11V6.427c0-1.789-.006-1.836-.299-2.128a1.006 1.006 0 0 0-1.061-.231M9.114 9.45c.051.105.158.244.237.309.309.254.003.241 5.576.241H20v4h-5.073c-5.701 0-5.308-.021-5.628.299-.268.268-.299.415-.299 1.418v.863l-2.29-2.29L4.42 12 6.7 9.72l2.28-2.281.02.911c.019.851.026.922.114 1.1" fill-rule="evenodd" fill="#000" stroke="none"/></svg>