<svg xmlns="http://www.w3.org/2000/svg" width="24" height="24" fill="none" stroke="currentColor" stroke-width="2" stroke-linecap="round" stroke-linejoin="round"><path d="M11.643 5.069a1.118 1.118 0 0 0-.343.229c-.304.304-.3.268-.3 2.749 0 1.206-.01 2.193-.023 2.193-.012 0-.867-.487-1.9-1.083-1.032-.596-1.944-1.102-2.026-1.125-.698-.192-1.376.469-1.215 1.185.097.434.118.45 2.219 1.661C9.103 11.482 9.96 11.987 9.96 12c0 .013-.857.518-1.905 1.122-2.101 1.211-2.122 1.227-2.219 1.661-.161.716.517 1.377 1.215 1.185.082-.023.994-.529 2.026-1.125a109.304 109.304 0 0 1 1.9-1.083c.013 0 .023.987.023 2.193 0 2.48-.004 2.445.299 2.748a.984.984 0 0 0 1.402 0c.303-.303.299-.268.299-2.748 0-1.206.011-2.193.025-2.193.013 0 .868.487 1.9 1.083 1.031.596 1.942 1.102 2.024 1.125.698.192 1.376-.468 1.215-1.185-.097-.435-.117-.45-2.218-1.662-1.049-.605-1.906-1.109-1.906-1.121 0-.012.857-.516 1.906-1.121 2.101-1.212 2.121-1.227 2.218-1.662.161-.717-.517-1.377-1.215-1.185-.082.023-.993.529-2.024 1.125a101.149 101.149 0 0 1-1.9 1.083c-.014 0-.025-.987-.025-2.193 0-2.48.004-2.445-.299-2.748a.998.998 0 0 0-1.058-.23" fill-rule="evenodd" fill="#000" stroke="none"/></svg>