<svg xmlns="http://www.w3.org/2000/svg" width="24" height="24" fill="none" stroke="currentColor" stroke-width="2" stroke-linecap="round" stroke-linejoin="round"><path d="M11.22 1.026c-1.948.158-3.735.773-5.32 1.832a10.966 10.966 0 0 0-3.918 4.611c-1.307 2.928-1.307 6.134 0 9.062A11.18 11.18 0 0 0 3.353 18.8c.335.436 1.407 1.507 1.847 1.846 1.572 1.212 3.246 1.929 5.236 2.243.444.07.724.086 1.524.087 1.031.002 1.364-.028 2.24-.203a10.871 10.871 0 0 0 3.846-1.593c.863-.568 1.012-.751 1.012-1.24 0-.331-.088-.529-.33-.748-.205-.186-.393-.244-.724-.225-.267.015-.276.019-.887.429-2.44 1.636-5.274 2.036-7.99 1.126a8.983 8.983 0 0 1-5.207-4.58c-.428-.884-.662-1.634-.826-2.642-.108-.663-.099-2.028.017-2.7.443-2.57 1.797-4.675 3.918-6.093a8.945 8.945 0 0 1 5.291-1.494 8.975 8.975 0 0 1 6.039 2.628 8.637 8.637 0 0 1 1.72 2.419c.426.874.671 1.655.822 2.62.088.562.128 2.342.061 2.69C20.781 14.299 19.938 15 19 15c-.92 0-1.768-.69-1.956-1.592-.03-.142-.044-1.087-.044-2.883 0-3.014.009-2.918-.299-3.226a.984.984 0 0 0-1.402 0c-.156.156-.299.455-.299.624 0 .055-.057.032-.27-.109a5.15 5.15 0 0 0-1.77-.721c-.471-.1-1.449-.1-1.92 0-1.034.22-1.824.647-2.562 1.385-.993.992-1.457 2.115-1.457 3.522 0 .446.02.715.072.96.22 1.035.648 1.826 1.385 2.561.744.741 1.529 1.166 2.562 1.386.471.1 1.449.1 1.92 0 .963-.205 1.773-.623 2.453-1.267l.329-.312.208.254c.517.632 1.328 1.122 2.19 1.323.464.109 1.319.102 1.78-.014a4.039 4.039 0 0 0 2.968-2.951c.069-.267.086-.481.101-1.294.021-1.044-.021-1.721-.152-2.499A10.913 10.913 0 0 0 19.636 4.1a10.83 10.83 0 0 0-5.676-2.915c-.896-.162-1.951-.223-2.74-.159m1.372 8.037c1.621.333 2.675 1.918 2.345 3.529-.333 1.621-1.92 2.676-3.529 2.344-1.852-.381-2.9-2.357-2.173-4.097a3.015 3.015 0 0 1 3.357-1.776" fill-rule="evenodd" fill="#000" stroke="none"/></svg>