<svg xmlns="http://www.w3.org/2000/svg" width="24" height="24" fill="none" stroke="currentColor" stroke-width="2" stroke-linecap="round" stroke-linejoin="round"><path d="M11.04.061A7.823 7.823 0 0 0 8.5.817c-2.507 1.229-4.161 3.6-4.459 6.391-.221 2.077.454 4.278 1.806 5.892.306.364.784.842 1.112 1.109l.179.145-.392 2.953-.577 4.361-.185 1.407.071.227c.165.522.746.821 1.25.643.085-.03 1.178-.667 2.428-1.416l2.274-1.361 2.266 1.361c1.247.748 2.337 1.385 2.422 1.416a.978.978 0 0 0 1.006-.244c.16-.16.297-.452.3-.638.001-.046-.255-2.024-.569-4.397l-.57-4.315.159-.124c.263-.205.85-.787 1.118-1.107a8.022 8.022 0 0 0 1.818-5.903c-.188-1.911-1.05-3.667-2.461-5.018A7.988 7.988 0 0 0 11.04.061m2.124 2.055a6.012 6.012 0 0 1 1.597.568c1.64.848 2.781 2.391 3.146 4.256.108.55.097 1.663-.022 2.22-.526 2.464-2.382 4.288-4.825 4.745-.552.103-1.568.103-2.12 0A6.036 6.036 0 0 1 6.095 9.06c-.101-.538-.101-1.606-.002-2.12a6.156 6.156 0 0 1 .569-1.653 5.897 5.897 0 0 1 2.584-2.606c.675-.35 1.257-.526 2.174-.657.281-.041 1.374.017 1.744.092M9.449 15.579a8.044 8.044 0 0 0 5.045.018c.264-.087.483-.153.488-.147.022.025.743 5.558.726 5.575-.01.01-.727-.408-1.593-.929-.866-.522-1.661-.982-1.765-1.022a.923.923 0 0 0-.634-.028c-.075.025-.871.486-1.769 1.024-.898.538-1.642.969-1.653.957-.011-.011.143-1.251.343-2.756.2-1.504.363-2.757.363-2.783 0-.063-.027-.068.449.091" fill="#000" fill-rule="evenodd" stroke="none"/></svg>