<svg xmlns="http://www.w3.org/2000/svg" width="24" height="24" fill="none" stroke="currentColor" stroke-width="2" stroke-linecap="round" stroke-linejoin="round"><path d="M12.64 2.068c-.154.053-.488.369-2.311 2.187-1.516 1.511-2.156 2.176-2.217 2.301a1.01 1.01 0 0 0-.051.77c.062.189.153.298.793.945l.723.731-4.003 4.009c-2.202 2.205-4.057 4.09-4.123 4.189a3.223 3.223 0 0 0-.558 1.64c-.086 1.45.858 2.756 2.289 3.167.412.119 1.179.129 1.578.021a4.127 4.127 0 0 0 1.03-.471c.104-.07 1.994-1.93 4.2-4.132L14 13.421v1.362c0 1.164.01 1.391.066 1.557.128.374.538.66.947.66.166 0 1.827-.532 2.527-.809a8.67 8.67 0 0 0 5.12-5.591c.126-.421.34-1.438.34-1.615 0-.227-.123-.51-.299-.686-.287-.287-.362-.299-1.918-.299h-1.362l-2.94-2.935c-2.679-2.673-2.959-2.941-3.138-3a1.053 1.053 0 0 0-.703.003m3.08 5.07c1.899 1.899 2.747 2.72 2.86 2.77.135.061.315.075 1.165.092l1.006.02-.114.334c-.314.925-.823 1.72-1.594 2.487-.795.791-1.513 1.242-2.544 1.598a15.46 15.46 0 0 1-.483.161c-.009 0-.016-.393-.016-.873 0-.698-.013-.912-.065-1.07-.059-.179-.312-.445-2.79-2.927L10.421 7 11.7 5.72a61.489 61.489 0 0 1 1.299-1.28c.011 0 1.235 1.214 2.721 2.698M11.8 11.22l.78.78-3.96 3.961c-2.757 2.758-4.011 3.986-4.128 4.043-.428.208-.931.12-1.275-.223-.32-.319-.408-.684-.274-1.144.062-.211.165-.318 4.05-4.207 2.192-2.194 3.995-3.99 4.007-3.99.011 0 .371.351.8.78" fill-rule="evenodd" fill="#000" stroke="none"/></svg>