<svg xmlns="http://www.w3.org/2000/svg" width="24" height="24" fill="none" stroke="currentColor" stroke-width="2" stroke-linecap="round" stroke-linejoin="round"><path d="M3.62 6.025c-.408.08-.533.114-.75.202-.881.358-1.549 1.137-1.794 2.093-.083.323-.083 7.034 0 7.357.282 1.102 1.049 1.886 2.184 2.234.157.048.487.065 1.53.078 1.531.02 1.616.007 1.91-.287a.984.984 0 0 0 .001-1.403C6.421 16.018 6.316 16 5 16s-1.421-.018-1.701-.299c-.312-.312-.299-.154-.297-3.718.001-2.538.012-3.193.055-3.313.079-.221.241-.414.454-.539L3.7 8.02 5.48 8c1.766-.02 1.782-.021 1.97-.114.601-.296.73-1.108.251-1.587-.296-.296-.321-.3-2.278-.294-.948.002-1.759.011-1.803.02m7.044.038a1.33 1.33 0 0 0-.289.158c-.093.071-.596.876-1.708 2.73-.866 1.446-1.596 2.69-1.621 2.765-.159.471.135 1.055.614 1.218.164.056.382.066 1.385.066h1.191l-1.063 1.77c-.584.973-1.087 1.84-1.118 1.925-.218.614.284 1.305.947 1.305.191 0 .457-.095.624-.222.092-.07.602-.885 1.707-2.729.866-1.446 1.596-2.69 1.621-2.765.159-.471-.135-1.055-.614-1.218-.164-.056-.382-.066-1.385-.066H9.764l1.063-1.77c.584-.974 1.087-1.84 1.118-1.925.27-.758-.518-1.522-1.281-1.242m2.979.006C13.291 6.193 13 6.614 13 7c0 .396.291.808.66.934.163.055.378.066 1.34.066 1.316 0 1.421.018 1.701.299.312.311.299.157.299 3.701s.013 3.39-.299 3.701c-.294.294-.33.299-2.201.299s-1.907.005-2.201.299a.984.984 0 0 0 0 1.402c.295.295.326.299 2.238.299.964 0 1.792-.018 1.937-.042 1.186-.192 2.147-1.086 2.45-2.278.083-.324.083-7.036 0-7.357-.307-1.197-1.264-2.089-2.448-2.281-.141-.023-.796-.04-1.456-.039-.979.003-1.232.015-1.377.066m8 4a1.066 1.066 0 0 0-.577.591c-.098.288-.098 2.392 0 2.68.126.369.538.66.934.66s.808-.291.934-.66c.098-.288.098-2.392 0-2.68-.173-.508-.762-.778-1.291-.591" fill-rule="evenodd" fill="#000" stroke="none"/></svg>