<svg xmlns="http://www.w3.org/2000/svg" width="24" height="24" fill="none" stroke="currentColor" stroke-width="2" stroke-linecap="round" stroke-linejoin="round"><path d="M3.62 6.025c-.408.08-.533.114-.75.202-.881.358-1.549 1.137-1.794 2.093-.083.323-.083 7.034 0 7.357.281 1.099 1.042 1.877 2.184 2.238.178.056.9.064 6.56.075 4.306.008 6.448-.001 6.633-.03 1.19-.183 2.167-1.084 2.471-2.28.083-.324.083-7.036 0-7.357-.307-1.197-1.264-2.09-2.444-2.28-.246-.04-12.661-.057-12.86-.018m12.72 2.041c.115.039.263.135.361.233.312.311.299.157.299 3.701s.013 3.39-.299 3.701c-.322.322.202.299-6.701.299-6.905 0-6.379.024-6.702-.3-.314-.314-.301-.151-.289-3.783L3.02 8.7l.111-.189c.125-.213.318-.375.539-.454.123-.044 1.269-.054 6.313-.055 5.634-.002 6.179.004 6.357.064M5.643 9.069a1.118 1.118 0 0 0-.343.229C4.997 9.601 5 9.572 5 12c0 2.427-.003 2.399.299 2.701a.984.984 0 0 0 1.402 0C7.003 14.399 7 14.427 7 12s.003-2.399-.299-2.701a.998.998 0 0 0-1.058-.23m16 1a1.066 1.066 0 0 0-.577.591c-.098.288-.098 2.392 0 2.68.126.369.538.66.934.66s.808-.291.934-.66c.098-.288.098-2.392 0-2.68-.173-.508-.762-.778-1.291-.591" fill="#000" fill-rule="evenodd" stroke="none"/></svg>