<svg xmlns="http://www.w3.org/2000/svg" width="24" height="24" fill="none" stroke="currentColor" stroke-width="2" stroke-linecap="round" stroke-linejoin="round"><path d="M4.24 2.037c-.289.089-.552.317-.658.572A1.256 1.256 0 0 0 3.52 3c0 .286.076.49.252.674.222.231.402.299.837.318l.39.017.011 7.766c.011 7.002.018 7.785.076 7.965.364 1.133 1.054 1.823 2.174 2.174.175.055.735.065 4.56.076 2.923.009 4.45-.001 4.633-.03a3.032 3.032 0 0 0 2.306-1.8c.236-.559.218.082.231-8.385l.011-7.766.39-.017c.435-.019.615-.087.837-.318.176-.184.252-.388.252-.674 0-.399-.181-.7-.54-.894l-.16-.086-7.72-.007c-4.246-.003-7.765.007-7.82.024M17 8.5V13H7V4h10v4.5m0 8.573c0 2.346.002 2.327-.299 2.628-.317.317-.038.299-4.701.299-4.663 0-4.384.018-4.701-.299C6.998 19.4 7 19.419 7 17.073V15h10v2.073" fill-rule="evenodd" fill="#000" stroke="none"/></svg>