<svg width="24" height="24" xmlns="http://www.w3.org/2000/svg" fill="none" stroke="currentColor" stroke-width="2" stroke-linecap="round" stroke-linejoin="round"><path d="M11.42 1.026c-1.048.125-1.777.33-2.541.715C6.46 2.959 5.001 5.356 5 8.112c-.001 2.414-.448 4.662-1.245 6.259-.353.708-.665 1.148-1.176 1.655-.356.353-.462.485-.514.637a.978.978 0 0 0 .234 1.038c.326.326-.563.299 9.701.299 10.264 0 9.375.027 9.701-.299a.977.977 0 0 0 .234-1.036c-.051-.15-.162-.288-.531-.658-.54-.541-.776-.879-1.18-1.69-.66-1.324-1.044-2.945-1.182-4.984-.042-.623-.093-.797-.294-1.007-.213-.222-.409-.304-.728-.304-.329 0-.534.09-.739.323-.234.266-.254.361-.227 1.055a16.24 16.24 0 0 0 .937 4.813c.082.224.304.718.492 1.097l.344.69H5.164l.258-.493c.694-1.331 1.123-2.733 1.373-4.493.112-.783.162-1.436.205-2.654.024-.694.059-1.164.101-1.36a5.04 5.04 0 0 1 3.923-3.9 5.242 5.242 0 0 1 1.569-.061c.579.058.735.034.998-.157a.996.996 0 0 0 .121-1.49 1.165 1.165 0 0 0-.301-.218c-.3-.126-1.456-.211-1.991-.148m3.223 3.043C14.291 4.193 14 4.614 14 5c0 .242.119.521.299.701.311.312.157.299 3.701.299s3.39.013 3.701-.299a.984.984 0 0 0 0-1.402c-.312-.312-.154-.299-3.718-.296-2.757.003-3.186.011-3.34.066M10 20.035a1 1 0 0 0-.719.969c-.001.345.172.656.616 1.1.307.309.421.393.743.55.524.256.802.322 1.36.322s.836-.066 1.36-.322c.322-.157.436-.241.743-.55.586-.586.745-1.037.534-1.504-.176-.388-.467-.576-.897-.578-.421-.003-.615.114-.951.576-.377.516-1.201.516-1.578 0-.203-.279-.345-.417-.515-.498-.171-.082-.538-.116-.696-.065" fill-rule="evenodd" fill="#000" stroke="none"/></svg>