<svg xmlns="http://www.w3.org/2000/svg" width="24" height="24" fill="none" stroke="currentColor" stroke-width="2" stroke-linecap="round" stroke-linejoin="round"><path d="M1.643 1.069C1.291 1.193 1 1.614 1 2c0 .08.029.234.065.343.059.177.266.398 2.074 2.217l2.008 2.02-.052.28c-.03.154-.072.793-.094 1.42-.099 2.785-.456 4.516-1.264 6.129-.337.674-.656 1.118-1.158 1.617-.356.353-.462.485-.514.637a.978.978 0 0 0 .234 1.038c.324.324-.288.299 7.417.299h6.863l2.44 2.435c2.213 2.207 2.459 2.441 2.638 2.5.39.129.766.044 1.045-.235a.986.986 0 0 0 .185-1.144c-.063-.13-2.761-2.85-10.216-10.301C3.299 1.888 2.525 1.125 2.343 1.065a1.038 1.038 0 0 0-.7.004m9.375-.007a7.179 7.179 0 0 0-2.598.917c-.412.247-.529.356-.645.601a.988.988 0 0 0 .804 1.408c.266.028.415-.022.872-.292 1.169-.691 2.619-.882 3.9-.512.872.251 1.475.606 2.134 1.256C16.561 5.501 16.999 6.62 17 8.305c.001 1.475.184 2.976.54 4.445.076.314.173.638.216.72.351.683 1.369.697 1.731.024.177-.328.176-.446-.001-1.199-.33-1.402-.436-2.263-.485-3.935-.039-1.301-.084-1.654-.307-2.4-.161-.536-.554-1.375-.856-1.825-1.139-1.696-2.875-2.791-4.878-3.074-.508-.072-1.447-.072-1.942.001M10.8 12.22 14.58 16H5.164l.258-.493c.946-1.812 1.418-3.799 1.56-6.557.014-.28.029-.51.032-.51.003 0 1.707 1.701 3.786 3.78m-.8 7.815a1 1 0 0 0-.719.969c-.001.345.172.656.616 1.1.307.309.421.393.743.55.524.256.802.322 1.36.322s.836-.066 1.36-.322c.322-.157.436-.241.743-.55.586-.586.745-1.037.534-1.504-.176-.388-.467-.576-.897-.578-.421-.003-.615.114-.951.576-.377.516-1.201.516-1.578 0-.203-.279-.345-.417-.515-.498-.171-.082-.538-.116-.696-.065" fill-rule="evenodd" fill="#000" stroke="none"/></svg>