<svg width="24" height="24" xmlns="http://www.w3.org/2000/svg" fill="none" stroke="currentColor" stroke-width="2" stroke-linecap="round" stroke-linejoin="round"><path d="M11.42 1.026c-1.048.125-1.777.33-2.541.715C6.46 2.959 5.001 5.356 5 8.112c-.001 2.414-.448 4.662-1.245 6.259-.353.708-.665 1.148-1.176 1.655-.356.353-.462.485-.514.637a.978.978 0 0 0 .234 1.038c.326.326-.563.299 9.701.299 10.264 0 9.375.027 9.701-.299a.978.978 0 0 0 .234-1.038c-.052-.152-.158-.284-.514-.637-.914-.907-1.497-2.041-1.945-3.781-.177-.686-.215-.775-.399-.956-.207-.202-.382-.269-.697-.267-.43.002-.721.19-.897.578-.112.248-.104.497.035 1.067.249 1.019.57 1.888 1.022 2.763l.294.57H5.164l.258-.493c.694-1.331 1.123-2.733 1.373-4.493.112-.783.162-1.436.205-2.654.024-.694.059-1.164.101-1.36a5.04 5.04 0 0 1 3.923-3.9 5.242 5.242 0 0 1 1.569-.061c.579.058.735.034.998-.157a.996.996 0 0 0 .121-1.49 1.165 1.165 0 0 0-.301-.218c-.3-.126-1.456-.211-1.991-.148m6.223.043a1.066 1.066 0 0 0-.577.591c-.055.162-.066.373-.066 1.267V4h-1.073c-1.235 0-1.35.021-1.628.299a.984.984 0 0 0 0 1.402c.278.278.393.299 1.628.299H17v1.073c0 1.235.021 1.35.299 1.628a.984.984 0 0 0 1.402 0c.278-.278.299-.393.299-1.628V6h1.073c1.235 0 1.35-.021 1.628-.299a.984.984 0 0 0 0-1.402C21.423 4.021 21.308 4 20.073 4H19V2.927c0-1.235-.021-1.35-.299-1.628a.998.998 0 0 0-1.058-.23M10 20.035a1 1 0 0 0-.719.969c-.001.345.172.656.616 1.1.307.309.421.393.743.55.524.256.802.322 1.36.322s.836-.066 1.36-.322c.322-.157.436-.241.743-.55.586-.586.745-1.037.534-1.504-.176-.388-.467-.576-.897-.578-.421-.003-.615.114-.951.576-.377.516-1.201.516-1.578 0-.203-.279-.345-.417-.515-.498-.171-.082-.538-.116-.696-.065" fill-rule="evenodd" fill="#000" stroke="none"/></svg>