<svg xmlns="http://www.w3.org/2000/svg" width="24" height="24" fill="none" stroke="currentColor" stroke-width="2" stroke-linecap="round" stroke-linejoin="round"><path d="M14.534 3.057C13.657 3.269 13 4.102 13 5c0 1.08.92 2 2 2s2-.92 2-2c0-1.096-.934-2.013-2.032-1.997a2.342 2.342 0 0 0-.434.054M12.66 7.064c-.088.032-1.123.782-2.299 1.667-1.942 1.461-2.148 1.627-2.236 1.8-.13.257-.152.526-.065.795.065.198.175.32 1.503 1.654l1.434 1.44.011 1.68c.012 1.641.014 1.684.1 1.844.102.19.33.403.518.481.176.074.581.07.765-.007.188-.078.391-.271.503-.478.084-.157.086-.198.097-2.115.011-1.737.004-1.978-.055-2.16-.06-.184-.184-.324-1.238-1.385l-1.171-1.18.963-.72 1.115-.832.151-.112.759 1.137c.419.628.813 1.176.88 1.223.265.189.383.204 1.603.204 1.318 0 1.422-.018 1.703-.299a.984.984 0 0 0 0-1.402c-.265-.265-.42-.299-1.362-.299h-.806l-.897-1.346c-.493-.74-.951-1.387-1.019-1.439a1.035 1.035 0 0 0-.957-.151m-7.8 5.98c-2.285.33-3.971 2.388-3.847 4.696a4.497 4.497 0 0 0 4.247 4.247c3.083.166 5.415-2.771 4.556-5.739a4.506 4.506 0 0 0-4.369-3.243c-.191.003-.455.02-.587.039m13 0c-2.285.33-3.971 2.388-3.847 4.696a4.497 4.497 0 0 0 4.247 4.247c3.083.166 5.415-2.771 4.556-5.739a4.506 4.506 0 0 0-4.369-3.243c-.191.003-.455.02-.587.039M6.02 15.06a2.527 2.527 0 0 1 1.92 1.92c.369 1.765-1.195 3.329-2.96 2.96-1.335-.279-2.202-1.615-1.92-2.96.279-1.336 1.614-2.202 2.96-1.92m13 0a2.527 2.527 0 0 1 1.92 1.92c.369 1.765-1.195 3.329-2.96 2.96a2.527 2.527 0 0 1-1.92-1.92 2.5 2.5 0 0 1 2.96-2.96" fill-rule="evenodd" fill="#000" stroke="none"/></svg>