<svg xmlns="http://www.w3.org/2000/svg" width="24" height="24" fill="none" stroke="currentColor" stroke-width="2" stroke-linecap="round" stroke-linejoin="round"><path d="M5.643 3.069a1.118 1.118 0 0 0-.343.229C4.987 3.611 5 3.455 5 7c0 3.544-.013 3.39.299 3.701.302.302.274.299 2.701.299s2.399.003 2.701-.299C11.013 10.39 11 10.544 11 7s.013-3.39-.299-3.701c-.303-.303-.271-.299-2.718-.296-1.851.003-2.188.012-2.34.066m8 0C13.291 3.193 13 3.614 13 4c0 .242.119.521.299.701.247.247.442.299 1.128.299H15v4h-.573c-.686 0-.881.052-1.128.299-.18.18-.299.459-.299.701 0 .242.119.521.299.701.302.302.274.299 2.701.299s2.399.003 2.701-.299a.984.984 0 0 0 0-1.402C18.454 9.052 18.259 9 17.573 9H17V6.427c0-2.904.008-2.821-.299-3.128-.282-.282-.383-.299-1.718-.296-.945.003-1.196.015-1.34.066M9 7v2H7V5h2v2m-3.357 6.069C5.291 13.193 5 13.614 5 14c0 .242.119.521.299.701.247.247.442.299 1.128.299H7v4h-.573c-.686 0-.881.052-1.128.299-.18.18-.299.459-.299.701 0 .242.119.521.299.701.302.302.274.299 2.701.299s2.399.003 2.701-.299a.984.984 0 0 0 0-1.402c-.247-.247-.442-.299-1.128-.299H9v-2.573c0-2.904.008-2.821-.299-3.128-.282-.282-.383-.299-1.718-.296-.945.003-1.196.015-1.34.066m8 0a1.118 1.118 0 0 0-.343.229c-.313.313-.3.157-.3 3.702 0 3.544-.013 3.39.299 3.701.302.302.274.299 2.701.299s2.399.003 2.701-.299c.312-.311.299-.157.299-3.701s.013-3.39-.299-3.701c-.303-.303-.271-.299-2.718-.296-1.851.003-2.188.012-2.34.066M17 17v2h-2v-4h2v2" fill-rule="evenodd" fill="#000" stroke="none"/></svg>