<svg xmlns="http://www.w3.org/2000/svg" width="24" height="24" fill="none" stroke="currentColor" stroke-width="2" stroke-linecap="round" stroke-linejoin="round"><path d="M10.265 1.696a1.028 1.028 0 0 0-.534.468c-.049.098-.13.41-.183.706a4.99 4.99 0 0 1-.117.553c-.013.012-.227-.015-.476-.06-.807-.148-1.124-.092-1.417.25-.134.157-.258.467-.258.647s.124.49.258.647c.192.225.395.308 1.012.415.393.068.53.107.53.15 0 .113-2.051 11.709-2.075 11.733-.014.014-.286-.02-.606-.076-.564-.097-.588-.098-.812-.033a1.018 1.018 0 0 0-.625.519c-.1.208-.11.6-.02.816.092.221.363.478.576.546.139.045 1.045.223 1.134.223.009 0-.029.258-.084.573-.115.662-.103.845.073 1.122a.994.994 0 0 0 1.387.293c.296-.199.392-.398.505-1.04.054-.303.106-.56.117-.571.018-.019 1.912.299 1.944.326.007.006-.027.238-.075.515-.112.638-.097.906.064 1.168a.93.93 0 0 0 .757.447c.292.018.47-.031.692-.192.224-.162.347-.444.446-1.021.124-.722.095-.66.313-.661a4.985 4.985 0 0 0 1.052-.158c2.186-.562 3.589-2.777 3.216-5.078-.123-.758-.417-1.413-.935-2.085l-.079-.102.307-.204c1.034-.686 1.718-1.767 1.932-3.052.058-.347.045-1.184-.023-1.544-.173-.908-.668-1.812-1.312-2.398a5.213 5.213 0 0 0-1.27-.824c-.196-.083-.318-.157-.318-.194-.001-.033.045-.312.1-.62.084-.471.093-.593.057-.767-.144-.697-.98-1.027-1.552-.612-.258.186-.357.402-.472 1.026a6.989 6.989 0 0 1-.118.57c-.021.022-1.897-.305-1.928-.335-.012-.013.017-.252.065-.532.108-.625.108-.78.004-1.01-.164-.361-.454-.56-.856-.586a1.072 1.072 0 0 0-.396.042m2.475 4.365c.814.143 1.579.288 1.7.322.916.259 1.608.927 1.819 1.755.08.312.079.961-.002 1.276a2.438 2.438 0 0 1-1.74 1.773c-.507.135-.927.102-2.667-.205-.864-.153-1.586-.287-1.606-.3-.028-.017.712-4.403.816-4.833.017-.069.043-.085.111-.07.049.012.755.138 1.569.282m-1.279 6.881c1.749.309 1.857.334 2.299.546.44.211.916.673 1.113 1.081.462.953.26 2.142-.492 2.894-.498.497-1.103.719-1.881.688-.482-.019-3.5-.544-3.5-.608 0-.024.189-1.114.42-2.423.231-1.309.42-2.393.42-2.41 0-.052.103-.037 1.621.232" fill-rule="evenodd" fill="#000" stroke="none"/></svg>