<svg xmlns="http://www.w3.org/2000/svg" width="24" height="24" fill="none" stroke="currentColor" stroke-width="2" stroke-linecap="round" stroke-linejoin="round"><path d="M1.643 1.069C1.291 1.193 1 1.614 1 2c0 .08.029.234.065.343.059.181.45.583 4.789 4.927L10.579 12l-2.224 2.23c-2.012 2.017-2.231 2.249-2.29 2.427-.129.39-.044.766.234 1.044s.655.363 1.044.234c.177-.059.376-.244 1.927-1.789L11 14.422v3.862c0 4.345-.016 4.102.299 4.417.278.278.654.363 1.044.234.178-.059.41-.278 2.427-2.289L17 18.422l2.23 2.224c2.017 2.011 2.249 2.23 2.427 2.289.39.129.766.044 1.045-.235a.986.986 0 0 0 .185-1.144c-.063-.13-2.761-2.85-10.216-10.301C3.299 1.888 2.525 1.125 2.343 1.065a1.038 1.038 0 0 0-.7.004m10 0a1.06 1.06 0 0 0-.579.599c-.06.179-.065.453-.055 2.656.011 2.431.012 2.458.097 2.616.194.359.495.54.894.54s.7-.181.894-.54c.081-.151.087-.227.106-1.33l.02-1.171 1.279 1.28 1.279 1.279-.963.971c-1.083 1.092-1.118 1.142-1.088 1.605.033.515.392.87.911.899.482.027.494.019 2.05-1.545 1.278-1.284 1.387-1.404 1.452-1.602.084-.26.066-.525-.053-.77-.061-.126-.829-.919-2.716-2.801-2.39-2.384-2.649-2.631-2.828-2.69a1.032 1.032 0 0 0-.7.004M14.29 18.29 13 19.58v-5.16l1.29 1.29L15.58 17l-1.29 1.29" fill-rule="evenodd" fill="#000" stroke="none"/></svg>