<svg xmlns="http://www.w3.org/2000/svg" width="24" height="24" fill="none" stroke="currentColor" stroke-width="2" stroke-linecap="round" stroke-linejoin="round"><path d="M11.643 1.069a1.118 1.118 0 0 0-.343.229c-.317.317-.3.072-.3 4.418v3.862L9.27 7.854c-1.551-1.545-1.75-1.73-1.927-1.789-.389-.129-.766-.044-1.044.234s-.363.654-.234 1.044c.059.178.278.41 2.289 2.427L10.578 12l-2.224 2.23c-2.011 2.017-2.23 2.249-2.289 2.427-.129.39-.044.766.234 1.044s.655.363 1.044.234c.177-.059.376-.244 1.927-1.789L11 14.422v3.862c0 4.345-.016 4.102.299 4.417.278.278.654.363 1.044.234.179-.059.438-.306 2.828-2.69 1.887-1.882 2.655-2.675 2.716-2.801.119-.244.137-.509.053-.77-.065-.201-.201-.346-2.294-2.444L13.422 12l2.224-2.23c2.093-2.098 2.229-2.243 2.294-2.444a1.013 1.013 0 0 0-.053-.77c-.061-.126-.829-.919-2.716-2.801-2.39-2.384-2.649-2.631-2.828-2.69a1.032 1.032 0 0 0-.7.004M14.29 8.29 13 9.58V4.42l1.29 1.29L15.58 7l-1.29 1.29m6.23-.069c-.508.158-.795.727-.635 1.26.025.083.178.31.34.505.545.654.752 1.21.752 2.014 0 .805-.207 1.36-.754 2.016-.33.397-.403.577-.375.922a.985.985 0 0 0 .792.868c.185.039.258.035.46-.023.209-.06.279-.109.542-.376a4.786 4.786 0 0 0 1.115-1.881c.179-.553.223-.854.223-1.526 0-.676-.044-.972-.227-1.54-.332-1.024-1.101-2.078-1.633-2.236-.256-.076-.361-.077-.6-.003m-2.877 2.845c-.355.131-.643.549-.643.934 0 .729.814 1.222 1.465.887.711-.365.708-1.41-.004-1.776-.211-.109-.588-.129-.818-.045M14.29 18.29 13 19.58v-5.16l1.29 1.29L15.58 17l-1.29 1.29" fill-rule="evenodd" fill="#000" stroke="none"/></svg>