<svg xmlns="http://www.w3.org/2000/svg" width="24" height="24" fill="none" stroke="currentColor" stroke-width="2" stroke-linecap="round" stroke-linejoin="round"><path d="M5.643 3.068a1.14 1.14 0 0 0-.343.23C4.973 3.624 5 2.855 5 12c0 9.146-.027 8.376.3 8.702.322.322-.053.302 5.484.287 4.547-.012 4.938-.018 5.216-.084.981-.233 1.749-.638 2.429-1.281.448-.423.77-.865 1.054-1.444.794-1.62.664-3.448-.355-5-.254-.386-.955-1.079-1.356-1.339l-.329-.212.251-.271a5.031 5.031 0 0 0 1.295-3.594c-.07-1.29-.552-2.371-1.467-3.286-.726-.726-1.469-1.133-2.522-1.383-.277-.066-.645-.072-4.74-.081-3.957-.008-4.459-.002-4.617.054m8.949 1.995c1.621.333 2.675 1.918 2.345 3.529a3.01 3.01 0 0 1-2.345 2.345c-.268.055-.788.063-3.95.063H7V5h3.642c3.162 0 3.682.008 3.95.063m1 8c1.621.333 2.675 1.918 2.345 3.529a3.01 3.01 0 0 1-2.345 2.345c-.27.055-.832.063-4.45.063H7v-6h4.142c3.618 0 4.18.008 4.45.063" fill-rule="evenodd" fill="#000" stroke="none"/></svg>