<svg xmlns="http://www.w3.org/2000/svg" width="24" height="24" fill="none" stroke="currentColor" stroke-width="2" stroke-linecap="round" stroke-linejoin="round"><path d="M6.62 2.025c-.408.08-.533.114-.75.202-.706.287-1.342.91-1.62 1.588-.247.602-.227-.147-.24 8.983-.013 9.366-.038 8.576.288 8.902.27.27.666.366 1.009.244.087-.03 1.63-.896 3.428-1.924l3.271-1.869 3.287 1.879c1.808 1.033 3.348 1.899 3.423 1.924.475.16 1.059-.137 1.219-.62.061-.182.065-.877.055-8.536-.013-9.088.005-8.375-.227-8.953-.367-.916-1.287-1.641-2.283-1.802-.246-.04-10.662-.057-10.86-.018m10.72 2.041c.115.039.263.135.361.233.324.324.299-.33.299 7.765v7.211l-2.767-1.582c-1.522-.87-2.839-1.607-2.925-1.637a.918.918 0 0 0-.592-.009c-.106.036-5 2.806-5.586 3.161l-.131.079.011-7.293.01-7.294.111-.189c.125-.213.318-.375.539-.454.122-.044 1.104-.054 5.313-.055 4.703-.002 5.18.004 5.357.064M8.643 9.069C8.291 9.193 8 9.614 8 10c0 .242.119.521.299.701.311.312.157.299 3.701.299s3.39.013 3.701-.299a.984.984 0 0 0 0-1.402c-.312-.312-.154-.299-3.718-.296-2.757.003-3.186.011-3.34.066" fill-rule="evenodd" fill="#000" stroke="none"/></svg>