<svg xmlns="http://www.w3.org/2000/svg" width="24" height="24" fill="none" stroke="currentColor" stroke-width="2" stroke-linecap="round" stroke-linejoin="round"><path d="M5.936 1.044c-1.257.21-2.376 1.17-2.756 2.365a4.848 4.848 0 0 0-.139.56c-.056.346-.056 15.716 0 16.062a3.58 3.58 0 0 0 1.947 2.623c.114.058.366.155.56.216l.352.11 7.117.011c8 .012 7.358.036 7.683-.289.328-.328.3.686.3-10.702 0-11.385.028-10.374-.299-10.701-.324-.324.306-.3-7.558-.294-3.852.002-7.095.02-7.207.039M19 9.5V16h-6.39c-4.169 0-6.478.015-6.642.042-.221.035-.689.17-.899.257-.067.029-.07-.257-.06-6.065L5.02 4.14l.112-.24a1.6 1.6 0 0 1 .968-.844c.126-.04 1.502-.051 6.53-.053L19 3v6.5m0 10v1.501l-6.43-.011-6.43-.01-.24-.112a1.698 1.698 0 0 1-.767-.764c-.098-.21-.113-.293-.113-.604 0-.31.015-.393.112-.6a1.6 1.6 0 0 1 .968-.844c.126-.04 1.502-.051 6.53-.053L19 18v1.5" fill-rule="evenodd" fill="#000" stroke="none"/></svg>