<svg xmlns="http://www.w3.org/2000/svg" width="24" height="24" fill="none" stroke="currentColor" stroke-width="2" stroke-linecap="round" stroke-linejoin="round"><path d="M1.643 2.068a1.14 1.14 0 0 0-.343.23C.974 2.624 1 1.915 1 10.5c0 8.583-.026 7.876.299 8.201.314.315.094.299 4.226.299 2.526 0 3.737.014 3.883.044.907.189 1.591 1.034 1.592 1.968a.997.997 0 0 0 1 .986.997.997 0 0 0 1-.986c.001-.934.685-1.779 1.592-1.968.146-.03 1.357-.044 3.883-.044 4.132 0 3.912.016 4.226-.299.325-.325.299.382.299-8.201 0-8.586.026-7.876-.3-8.202-.317-.317-.128-.303-3.985-.287-3.095.012-3.443.02-3.715.084-1.059.25-1.8.66-2.55 1.41l-.45.451-.45-.451c-.753-.754-1.486-1.159-2.55-1.41-.273-.064-.612-.071-3.74-.08-3.052-.009-3.46-.003-3.617.053m6.949 1.995a3.01 3.01 0 0 1 2.345 2.345c.056.272.063.944.063 5.714 0 2.972-.013 5.398-.03 5.389a4.44 4.44 0 0 0-1.311-.45C9.366 17.01 8.8 17 6.155 17H3V4h2.642c2.251 0 2.687.009 2.95.063M21 10.5V17h-3.155c-2.645 0-3.211.01-3.504.061a4.44 4.44 0 0 0-1.311.45c-.017.009-.03-2.417-.03-5.389 0-5.92-.008-5.7.235-6.283a3.087 3.087 0 0 1 1.596-1.598c.544-.231.586-.234 3.499-.238L21 4v6.5" fill-rule="evenodd" fill="#000" stroke="none"/></svg>