<svg xmlns="http://www.w3.org/2000/svg" width="24" height="24" fill="none" stroke="currentColor" stroke-width="2" stroke-linecap="round" stroke-linejoin="round"><path d="M11.62 2.025c-.408.08-.533.114-.75.202-.881.358-1.551 1.139-1.793 2.093-.073.285-.073 1.074-.001 1.357.236.929.914 1.736 1.734 2.067l.19.076v2.177l-3.27.013c-2.848.012-3.296.022-3.47.077-1.154.365-1.901 1.129-2.184 2.233-.083.323-.083 7.034 0 7.357.281 1.099 1.041 1.876 2.184 2.238.179.056.983.064 7.56.075 4.998.008 7.448-.001 7.633-.03 1.19-.183 2.167-1.084 2.471-2.28.083-.324.083-7.036 0-7.357-.307-1.197-1.264-2.09-2.444-2.28-.165-.027-1.391-.043-3.37-.043H13V7.806l.115-.025c.189-.041.728-.397.981-.647.385-.381.694-.923.828-1.454.072-.285.072-1.075 0-1.357-.304-1.194-1.264-2.09-2.444-2.28-.252-.041-.697-.05-.86-.018m.72 2.041c.369.126.66.538.66.934 0 .527-.473 1-1 1a1.03 1.03 0 0 1-.94-.679.99.99 0 0 1 1.28-1.255m7 8c.115.039.263.135.361.233.312.311.299.157.299 3.701s.013 3.39-.299 3.701c-.324.324.322.299-7.701.299-8.025 0-7.377.025-7.702-.3-.314-.314-.301-.151-.289-3.783L4.02 12.7l.111-.189c.125-.213.318-.375.539-.454.123-.044 1.434-.054 7.313-.055 6.565-.002 7.179.004 7.357.064M7.643 15.069C7.291 15.193 7 15.614 7 16c0 .242.119.521.299.701a.984.984 0 0 0 1.402 0c.753-.753-.048-1.989-1.058-1.632m8 0c-.352.124-.643.545-.643.931 0 .527.473 1 1 1 .242 0 .521-.119.701-.299.753-.753-.048-1.989-1.058-1.632" fill-rule="evenodd" fill="#000" stroke="none"/></svg>