<svg xmlns="http://www.w3.org/2000/svg" width="24" height="24" fill="none" stroke="currentColor" stroke-width="2" stroke-linecap="round" stroke-linejoin="round"><path d="M18.86 1.987c-.758.092-1.303.292-1.912.699-.161.107-1.723 1.637-4.46 4.37-3.437 3.432-4.23 4.243-4.314 4.414-.088.178-.101.251-.088.484.03.527.382.886.9.919.513.033.179.332 4.874-4.353 3.938-3.93 4.258-4.239 4.5-4.353.663-.31 1.404-.232 1.963.207.711.56.901 1.574.447 2.386-.064.115-1.617 1.7-4.293 4.38-3.253 3.258-4.211 4.24-4.274 4.38-.112.247-.111.622.002.862a.996.996 0 0 0 1.335.457c.184-.089 8.474-8.37 8.709-8.699.721-1.014.948-2.181.644-3.32a4.933 4.933 0 0 0-.588-1.234 5.022 5.022 0 0 0-.958-.942 5.26 5.26 0 0 0-1.167-.537c-.427-.113-.972-.163-1.32-.12M6.28 14.018a4.184 4.184 0 0 0-2.233 1.313 4.065 4.065 0 0 0-.955 2.296c-.023.317-.031.342-.158.453-.073.064-.401.253-.728.418-.326.165-.676.374-.777.463-.403.354-.524.935-.291 1.395.176.347.997 1.098 1.722 1.575 1.592 1.048 3.225 1.325 4.768.809 1.737-.581 2.966-1.988 3.355-3.84.083-.394.096-1.337.023-1.68-.178-.838-.545-1.525-1.123-2.103a4.056 4.056 0 0 0-1.792-1.044c-.397-.108-1.412-.139-1.811-.055m1.648 2.131a2.024 2.024 0 0 1 1.133 2.022c-.11 1.299-.938 2.329-2.181 2.715-.381.118-1.156.129-1.542.023-.51-.141-1.252-.511-1.583-.788l-.12-.101.307-.2c.401-.261.735-.622.916-.989.116-.235.153-.367.185-.672.066-.613.116-.845.241-1.099a1.99 1.99 0 0 1 1.147-1.008c.231-.081.332-.093.712-.083.431.011.453.016.785.18" fill-rule="evenodd" fill="#000" stroke="none"/></svg>