<svg xmlns="http://www.w3.org/2000/svg" width="24" height="24" fill="none" stroke="currentColor" stroke-width="2" stroke-linecap="round" stroke-linejoin="round"><path d="M9.643 3.069c-.245.086-.496.349-.582.609-.115.344-.074.521.283 1.249.294.599.311.647.242.688-.705.427-1.38 1.051-1.744 1.612l-.212.327-1.079-.72c-.594-.396-1.152-.746-1.241-.777-.761-.269-1.52.499-1.249 1.265.033.095.103.228.154.295.052.068.699.526 1.439 1.019L7 9.533V12H5.427c-1.789 0-1.836.006-2.128.299-.18.18-.299.459-.299.701 0 .242.119.521.299.701.292.293.339.299 2.128.299H7v2.467l-1.346.897c-.74.493-1.387.951-1.439 1.019a1.28 1.28 0 0 0-.154.295c-.271.766.488 1.534 1.249 1.265.089-.031.647-.381 1.241-.777l1.079-.72.212.327c.258.397.948 1.096 1.338 1.353.908.6 1.745.853 2.82.853 1.072 0 1.914-.254 2.82-.851.381-.251 1.075-.955 1.336-1.355l.213-.327 1.08.72c.594.396 1.152.746 1.241.777.761.269 1.52-.499 1.249-1.265a1.28 1.28 0 0 0-.154-.295c-.052-.068-.699-.526-1.439-1.019L17 16.467V14h1.573c1.789 0 1.836-.006 2.128-.299a.984.984 0 0 0 0-1.402c-.292-.293-.339-.299-2.128-.299H17V9.533l1.346-.897c.74-.493 1.387-.951 1.439-1.019.051-.067.121-.2.154-.295.271-.766-.488-1.534-1.249-1.265-.089.031-.647.381-1.241.777l-1.079.72-.212-.327c-.364-.561-1.039-1.185-1.744-1.612-.069-.041-.052-.089.242-.688.357-.728.398-.905.283-1.249A1.03 1.03 0 0 0 14 3c-.243 0-.521.119-.697.298-.115.116-.276.394-.542.934L12.382 5h-.764l-.379-.768c-.423-.859-.575-1.055-.899-1.166a1.018 1.018 0 0 0-.697.003m2.949 3.994a3.01 3.01 0 0 1 2.345 2.345c.095.463.095 6.721 0 7.184-.333 1.621-1.92 2.676-3.529 2.344a3.008 3.008 0 0 1-2.345-2.344c-.095-.463-.095-6.721 0-7.184.333-1.622 1.917-2.675 3.529-2.345" fill-rule="evenodd" fill="#000" stroke="none"/></svg>