<svg xmlns="http://www.w3.org/2000/svg" width="24" height="24" fill="none" stroke="currentColor" stroke-width="2" stroke-linecap="round" stroke-linejoin="round"><path d="M3.62 4.025c-.408.08-.533.114-.75.202-.712.289-1.357.928-1.633 1.618-.229.57-.214.157-.227 5.952-.014 6.006-.034 5.581.288 5.903.25.25.441.3 1.142.3h.585l.069.29c.244 1.027.925 1.877 1.894 2.364.542.273 1.395.406 2 .311 1.419-.222 2.567-1.258 2.899-2.615l.086-.35h3.052l.069.29c.244 1.027.925 1.877 1.894 2.364.542.273 1.395.406 2 .311 1.419-.222 2.567-1.258 2.899-2.615l.086-.35h.586c.655 0 .849-.043 1.09-.241a1.01 1.01 0 0 0 .225-.289c.109-.227.789-2.945.87-3.473.048-.318.059-.602.043-1.197-.024-.938-.009-.863-.784-3.92-.607-2.396-.693-2.648-1.1-3.218a5.142 5.142 0 0 0-1.023-.987 4.208 4.208 0 0 0-1.653-.632c-.296-.041-14.405-.058-14.607-.018M18.045 6.04c.341.063.774.298 1.031.559.385.391.42.492 1.091 3.161l.609 2.42.002.8.002.8-.279 1.11-.278 1.11h-.285c-.272 0-.287-.005-.335-.11-.094-.207-.372-.59-.598-.823a3.463 3.463 0 0 0-2.305-1.054 3.47 3.47 0 0 0-1.94.456c-.446.25-1.03.825-1.26 1.24l-.16.289L11.6 16c-.957 0-1.778.011-1.824.024-.071.019-.107-.017-.216-.21-.605-1.073-1.652-1.732-2.86-1.801a3.47 3.47 0 0 0-1.94.456c-.446.25-1.03.825-1.26 1.24-.159.288-.161.289-.331.29l-.17.001.01-4.65.011-4.65.111-.189c.125-.213.318-.375.539-.454.123-.044 1.407-.054 7.155-.055 4.501-.001 7.081.012 7.22.038M7.123 16.147c.325.154.573.401.732.733.111.232.125.299.125.62s-.014.388-.125.62a1.528 1.528 0 0 1-.735.736c-.231.11-.3.124-.62.124-.31 0-.393-.015-.6-.112a1.698 1.698 0 0 1-.767-.764c-.098-.21-.113-.293-.113-.604 0-.31.015-.393.112-.6.36-.773 1.243-1.106 1.991-.753m10 0c.325.154.573.401.732.733.111.232.125.299.125.62s-.014.388-.125.62a1.528 1.528 0 0 1-.735.736c-.231.11-.3.124-.62.124-.31 0-.393-.015-.6-.112a1.698 1.698 0 0 1-.767-.764c-.098-.21-.113-.293-.113-.604 0-.31.015-.393.112-.6.36-.773 1.243-1.106 1.991-.753" fill-rule="evenodd" fill="#000" stroke="none"/></svg>