<svg xmlns="http://www.w3.org/2000/svg" width="24" height="24" fill="none" stroke="currentColor" stroke-width="2" stroke-linecap="round" stroke-linejoin="round"><path d="M1.643 1.069C1.291 1.193 1 1.614 1 2c0 .08.029.234.065.343.059.177.244.376 1.784 1.921l1.717 1.725-.553.023c-.304.013-.643.049-.753.081-1.114.321-1.901 1.123-2.184 2.227-.083.325-.084 10.032 0 10.357.241.939.927 1.749 1.769 2.086.578.232-.108.214 8.674.227l8.059.011.941.934c.815.809.967.942 1.138.999.389.13.765.046 1.045-.234a.986.986 0 0 0 .185-1.144c-.063-.13-2.761-2.85-10.216-10.301C3.299 1.888 2.525 1.125 2.343 1.065a1.038 1.038 0 0 0-.7.004M9.24 3.037a1.075 1.075 0 0 0-.658.572A1.256 1.256 0 0 0 8.52 4c0 .399.181.7.54.894.158.085.186.086 2.568.097l2.407.011 1.163 1.396c.985 1.182 1.192 1.41 1.353 1.489.187.092.206.093 1.949.113 1.911.022 1.887.019 2.167.255.07.059.169.192.22.296l.093.189.02 4.02.02 4.02.088.164c.102.19.33.403.518.481.176.074.581.07.765-.007.188-.078.391-.271.503-.478l.086-.16v-4.12c0-3.39-.01-4.158-.056-4.337-.307-1.197-1.264-2.089-2.448-2.281-.141-.023-.877-.042-1.636-.043l-1.38-.001-1.14-1.369c-.627-.752-1.201-1.408-1.275-1.458a1.178 1.178 0 0 0-.28-.13c-.171-.048-5.37-.051-5.525-.004M7.77 9.19l1.19 1.19-.218.29a4.177 4.177 0 0 0-.647 1.31c-.127.446-.172 1.258-.096 1.729a4.02 4.02 0 0 0 3.292 3.292c.438.071 1.281.031 1.689-.08a4.371 4.371 0 0 0 1.34-.654l.3-.227 1.47 1.47 1.47 1.47-6.849.01c-7.697.011-7.088.035-7.412-.289-.321-.321-.302.029-.29-5.283L3.02 8.7l.111-.189c.061-.103.173-.236.25-.294.269-.206.335-.213 1.819-.215L6.581 8 7.77 9.19m5.337 5.491c-.542.423-1.439.477-2.126.129-.256-.129-.662-.536-.792-.793-.338-.666-.299-1.498.097-2.078l.094-.138 1.407 1.406c1.394 1.394 1.406 1.407 1.32 1.474" fill-rule="evenodd" fill="#000" stroke="none"/></svg>