<svg xmlns="http://www.w3.org/2000/svg" width="24" height="24" fill="none" stroke="currentColor" stroke-width="2" stroke-linecap="round" stroke-linejoin="round"><path d="M9.182 3.06a1.286 1.286 0 0 0-.26.13c-.056.041-.613.686-1.238 1.432L6.549 5.98l-1.545.024c-1.225.018-1.585.036-1.744.085-1.141.351-1.901 1.127-2.184 2.231-.083.325-.084 10.032 0 10.357.281 1.096 1.042 1.877 2.184 2.238.179.057 1.066.065 8.56.075 5.689.008 8.447-.001 8.633-.03 1.19-.182 2.167-1.084 2.471-2.28.083-.326.083-10.034 0-10.357-.307-1.197-1.264-2.09-2.444-2.28-.144-.024-.875-.043-1.64-.044l-1.38-.001-1.24-1.497-1.24-1.496-2.82-.001c-2.321 0-2.848.009-2.978.056m6.015 3.337c.986 1.183 1.193 1.411 1.354 1.49.187.092.206.093 1.949.113 1.745.02 1.762.021 1.95.114.105.051.244.158.309.237.253.308.241.046.241 5.149 0 5.223.02 4.883-.299 5.201-.325.325.443.299-8.701.299s-8.376.026-8.701-.299c-.319-.319-.299.024-.297-5.218.001-3.791.012-4.691.055-4.813.079-.221.241-.414.454-.539L3.7 8.02 5.48 8c1.764-.02 1.782-.021 1.969-.113.161-.079.368-.307 1.354-1.49L9.967 5h4.066l1.164 1.397M11.31 9.063a3.918 3.918 0 0 0-2.131 1.116 3.903 3.903 0 0 0-1.165 3.001c.096 1.833 1.332 3.307 3.126 3.725.464.109 1.319.102 1.78-.014a4.03 4.03 0 0 0 2.971-2.971c.116-.461.123-1.316.014-1.78-.49-2.102-2.51-3.454-4.595-3.077m1.098 1.981C13.31 11.232 14 12.08 14 13c0 1.08-.92 2-2 2s-2-.92-2-2c0-.898.657-1.731 1.534-1.943.263-.064.604-.069.874-.013" fill-rule="evenodd" fill="#000" stroke="none"/></svg>