<svg xmlns="http://www.w3.org/2000/svg" width="24" height="24" fill="none" stroke="currentColor" stroke-width="2" stroke-linecap="round" stroke-linejoin="round"><path d="M4.622 6.065c-.716.155-1.364.561-1.771 1.109-.276.372-1.294 2.456-1.484 3.04-.334 1.023-.366 1.37-.367 3.889 0 2.313-.002 2.297.299 2.598.248.249.441.299 1.141.299h.585l.069.29c.244 1.027.925 1.877 1.894 2.364.542.273 1.395.406 2 .311 1.419-.222 2.567-1.258 2.899-2.615l.086-.35h3.052l.069.29c.244 1.027.925 1.877 1.894 2.364.542.273 1.395.406 2 .311 1.419-.222 2.567-1.258 2.899-2.615l.086-.35h1.086c1.251 0 1.364-.021 1.643-.3.303-.303.304-.315.29-2.427-.013-1.845-.013-1.854-.108-2.093-.211-.531-.542-.895-1.028-1.127-.264-.127-.456-.165-2.776-.553-1.371-.229-2.512-.436-2.536-.46-.024-.024-.629-.82-1.344-1.77-1.16-1.542-1.326-1.745-1.546-1.894a3.189 3.189 0 0 0-.48-.262l-.234-.094-4.02-.007c-3.444-.007-4.06.001-4.298.052m9.298 3.824c1.261 1.678 1.441 1.9 1.604 1.982.144.073.738.186 2.8.53 1.439.241 2.629.438 2.646.438.017.001.03.487.03 1.081V15h-1.347l-.05-.11c-.094-.207-.372-.59-.598-.823a3.463 3.463 0 0 0-2.305-1.054 3.47 3.47 0 0 0-1.94.456c-.446.25-1.03.825-1.26 1.24l-.16.289-1.844.001L9.653 15l-.05-.11c-.094-.207-.372-.59-.598-.823A3.463 3.463 0 0 0 6.7 13.013a3.47 3.47 0 0 0-1.94.456c-.446.25-1.03.825-1.26 1.24-.159.288-.161.289-.33.29L3 15v-1.45c.001-2.155.048-2.378.858-4.03.502-1.024.622-1.226.804-1.345.265-.173.219-.171 4.118-.173L12.5 8l1.42 1.889m-6.797 5.258c.325.154.573.401.732.733.111.232.125.299.125.62s-.014.388-.125.62a1.528 1.528 0 0 1-.735.736c-.231.11-.3.124-.62.124-.31 0-.393-.015-.6-.112a1.698 1.698 0 0 1-.767-.764c-.098-.21-.113-.293-.113-.604 0-.31.015-.393.112-.6.36-.773 1.243-1.106 1.991-.753m10 0c.325.154.573.401.732.733.111.232.125.299.125.62s-.014.388-.125.62a1.528 1.528 0 0 1-.735.736c-.231.11-.3.124-.62.124-.31 0-.393-.015-.6-.112a1.698 1.698 0 0 1-.767-.764c-.098-.21-.113-.293-.113-.604 0-.31.015-.393.112-.6.36-.773 1.243-1.106 1.991-.753" fill-rule="evenodd" fill="#000" stroke="none"/></svg>