<svg xmlns="http://www.w3.org/2000/svg" width="24" height="24" fill="none" stroke="currentColor" stroke-width="2" stroke-linecap="round" stroke-linejoin="round"><path d="M14.663 1.063c-.34.125-1.079.787-1.542 1.383a5.185 5.185 0 0 0-.99 1.991c-.151.567-.149 1.628.003 2.182.003.011-.201.029-.454.039-1.605.067-2.971.716-4.035 1.915-1.678 1.892-3.831 6.169-5.97 11.859-.333.887-.395 1.088-.394 1.28.002.554.421.965.987.967.217.001.378-.048 1.3-.394 5.219-1.962 9.394-4.007 11.391-5.581.508-.4 1.15-1.056 1.386-1.417.621-.95.912-1.838.963-2.939.017-.354.038-.507.069-.495.224.086.599.126 1.163.123.551-.004.693-.018 1.023-.106.993-.264 1.74-.697 2.53-1.466 1.008-.982 1.131-1.451.569-2.183-.603-.786-1.555-1.524-2.404-1.864-.624-.25-1.016-.328-1.678-.333l-.6-.004-.004-.6c-.005-.662-.082-1.051-.334-1.683-.329-.826-1.09-1.806-1.863-2.399-.429-.329-.752-.408-1.116-.275m.816 2.863c.251.374.376.665.464 1.074.113.528.067.818-.226 1.42-.185.382-.708 1.16-.78 1.16-.018 0-.115-.102-.215-.226-.869-1.078-.949-2.312-.22-3.4.117-.175.273-.387.345-.47l.133-.152.133.124c.074.068.238.28.366.47M19 8.057a3.281 3.281 0 0 1 1.498.786l.179.164-.189.164c-1.128.979-2.397 1.089-3.562.308a3.786 3.786 0 0 1-.436-.328l-.09-.096.27-.203c.977-.736 1.604-.95 2.33-.795m-6.32.708c.599.151 1.23.547 1.676 1.052l.3.337c.599.672.821 1.958.518 3.001l-.063.216-.845-.844c-.545-.544-.899-.866-.995-.906-.191-.079-.592-.078-.782.001a1.113 1.113 0 0 0-.501.478c-.113.211-.119.656-.013.86.04.077.49.56.999 1.073l.926.932-.16.142c-.624.553-2.534 1.676-4.26 2.505-1.716.824-5.399 2.402-5.461 2.34-.019-.019.513-1.354.929-2.332a83.758 83.758 0 0 1 1.438-3.177l.415-.857.649.641c.543.535.682.651.847.707.388.13.765.046 1.044-.233s.363-.656.233-1.044c-.057-.169-.184-.316-.9-1.039-.459-.463-.834-.857-.834-.874 0-.068.774-1.199 1.086-1.587.561-.697 1.179-1.138 1.901-1.356a3.612 3.612 0 0 1 1.853-.036" fill-rule="evenodd" fill="#000" stroke="none"/></svg>