<svg xmlns="http://www.w3.org/2000/svg" width="24" height="24" fill="none" stroke="currentColor" stroke-width="2" stroke-linecap="round" stroke-linejoin="round"><path d="M3.62 3.025c-.408.08-.533.114-.75.202-.706.287-1.342.91-1.62 1.588-.217.529-.221.562-.239 1.975-.02 1.531-.007 1.616.287 1.91.48.48 1.292.352 1.588-.25.091-.184.095-.229.114-1.47l.02-1.28.111-.189c.125-.213.318-.375.539-.454.123-.044 1.598-.054 8.313-.055 9.163-.002 8.393-.028 8.718.297.322.322.299-.202.299 6.701s.023 6.379-.299 6.701c-.311.312-.157.299-3.701.299s-3.39-.013-3.701.299a.984.984 0 0 0 0 1.402c.312.312.152.299 3.738.299 1.996 0 3.278-.016 3.437-.042 1.186-.192 2.147-1.086 2.45-2.278.083-.327.084-13.033 0-13.357-.307-1.197-1.264-2.09-2.444-2.28-.246-.04-16.66-.057-16.86-.018m-1.847 8.053c-.739.176-1.017 1.097-.498 1.656.174.188.384.266.978.366 1.704.286 3.136 1.003 4.328 2.166 1.262 1.232 2.045 2.762 2.333 4.558.105.651.232.883.581 1.063.591.304 1.324-.069 1.441-.734.07-.393-.255-1.863-.619-2.795a10.028 10.028 0 0 0-7.882-6.256c-.463-.068-.476-.068-.662-.024m-.156 4.096c-.568.26-.785.971-.447 1.466.17.25.359.363.815.487 1.446.393 2.503 1.442 2.879 2.859.124.465.166.553.343.72.222.209.382.272.693.272.331 0 .529-.088.748-.33.192-.212.246-.396.221-.743-.03-.412-.195-.931-.486-1.525-.597-1.218-1.495-2.132-2.681-2.728-.86-.433-1.742-.635-2.085-.478m.026 3.892C1.288 19.197 1 19.615 1 20c0 .729.814 1.222 1.465.887.711-.365.708-1.41-.004-1.776-.211-.109-.588-.129-.818-.045" fill-rule="evenodd" fill="#000" stroke="none"/></svg>