<svg xmlns="http://www.w3.org/2000/svg" width="24" height="24" fill="none" stroke="currentColor" stroke-width="2" stroke-linecap="round" stroke-linejoin="round"><path d="M4.62 2.025c-.408.08-.533.114-.75.202-.881.358-1.549 1.137-1.794 2.093-.083.327-.084 15.031 0 15.357.281 1.099 1.041 1.876 2.184 2.238.179.056.983.064 7.56.075 4.998.008 7.448-.001 7.633-.03a3.034 3.034 0 0 0 2.306-1.8c.229-.543.217-.302.231-4.456.014-4.327.03-4.086-.288-4.404a.984.984 0 0 0-1.403-.001c-.314.314-.299.097-.299 4.201 0 4.104.015 3.887-.299 4.201-.324.324.322.299-7.701.299s-7.377.025-7.701-.299c-.324-.324-.299.325-.297-7.718.001-5.879.011-7.19.055-7.313.079-.221.241-.414.454-.539L4.7 4.02 10.48 4l5.78-.02.19-.094c.601-.296.73-1.108.251-1.587-.322-.322.152-.3-6.278-.294-3.148.002-5.759.011-5.803.02m17.02 1.043c-.157.053-.787.667-4.909 4.786l-4.73 4.724-1.23-1.223c-1.086-1.079-1.254-1.232-1.428-1.289-.389-.13-.766-.046-1.045.234a.99.99 0 0 0-.186 1.144c.06.124.572.66 1.717 1.801 1.459 1.453 1.652 1.631 1.828 1.69a.987.987 0 0 0 .686 0c.181-.059.611-.478 5.328-5.19 3.743-3.738 5.154-5.173 5.216-5.301.397-.817-.378-1.673-1.247-1.376" fill-rule="evenodd" fill="#000" stroke="none"/></svg>