<svg xmlns="http://www.w3.org/2000/svg" width="24" height="24" fill="none" stroke="currentColor" stroke-width="2" stroke-linecap="round" stroke-linejoin="round"><path d="M11.1 1.027C6.666 1.414 2.899 4.4 1.54 8.606a10.995 10.995 0 0 0 1.002 8.992c.891 1.493 2.216 2.848 3.658 3.74a11.03 11.03 0 0 0 9.318 1.075c3.536-1.194 6.247-4.129 7.141-7.733.25-1.006.34-1.801.341-3.003 0-.872-.038-1.037-.299-1.298a.984.984 0 0 0-1.403.001c-.261.261-.289.4-.312 1.56-.033 1.672-.266 2.689-.926 4.04a9.013 9.013 0 0 1-5.127 4.515c-1.028.351-1.839.483-2.953.482-3.058-.004-5.794-1.482-7.506-4.057-.884-1.329-1.394-2.936-1.46-4.6-.128-3.217 1.508-6.271 4.285-7.999.466-.29 1.275-.663 1.853-.855 2.079-.691 4.195-.617 6.299.219.469.186.762.206 1.051.07.232-.109.444-.358.519-.611.074-.25.074-.319-.004-.582-.099-.335-.34-.546-.857-.75a11.178 11.178 0 0 0-3.18-.771 16.91 16.91 0 0 0-1.88-.014m10.54 2.041c-.157.053-.787.667-4.91 4.786L12 12.579l-1.19-1.185c-.783-.78-1.252-1.217-1.37-1.277a.997.997 0 0 0-1.326 1.348c.046.088.779.851 1.693 1.763 1.745 1.74 1.782 1.77 2.193 1.771.449.001.187.243 5.745-5.325 4.711-4.719 5.131-5.15 5.19-5.331.128-.39.044-.766-.234-1.044a1.006 1.006 0 0 0-1.061-.231" fill-rule="evenodd" fill="#000" stroke="none"/></svg>