<svg xmlns="http://www.w3.org/2000/svg" width="24" height="24" fill="none" stroke="currentColor" stroke-width="2" stroke-linecap="round" stroke-linejoin="round"><path d="M6.643 5.069c-.53.187-.786.849-.53 1.375.061.126.829.919 2.716 2.801 2.39 2.384 2.649 2.631 2.828 2.69a.987.987 0 0 0 .686 0c.179-.059.438-.306 2.828-2.69 1.887-1.882 2.655-2.675 2.716-2.801a.986.986 0 0 0-.185-1.144c-.279-.279-.655-.364-1.045-.235-.178.059-.41.278-2.427 2.289L12 9.578 9.77 7.354c-2.017-2.011-2.249-2.23-2.427-2.289a1.032 1.032 0 0 0-.7.004m0 7c-.53.187-.786.849-.53 1.375.061.126.829.919 2.716 2.801 2.39 2.384 2.649 2.631 2.828 2.69a.987.987 0 0 0 .686 0c.179-.059.438-.306 2.828-2.69 1.887-1.882 2.655-2.675 2.716-2.801a.986.986 0 0 0-.185-1.144c-.279-.279-.655-.364-1.045-.235-.178.059-.41.278-2.427 2.289L12 16.578l-2.23-2.224c-2.017-2.011-2.249-2.23-2.427-2.289a1.032 1.032 0 0 0-.7.004" fill="#000" fill-rule="evenodd" stroke="none"/></svg>