<svg xmlns="http://www.w3.org/2000/svg" width="24" height="24" fill="none" stroke="currentColor" stroke-width="2" stroke-linecap="round" stroke-linejoin="round"><path d="M6.643 5.069a1.118 1.118 0 0 0-.343.229C5.976 5.621 6 5.096 6 12c0 6.903-.023 6.379.299 6.701a.984.984 0 0 0 1.402 0C8.023 18.379 8 18.903 8 12s.023-6.379-.299-6.701a.998.998 0 0 0-1.058-.23m9.997-.001c-.156.053-.603.483-3.311 3.187-2.258 2.253-3.155 3.174-3.216 3.301a1.013 1.013 0 0 0-.053.77c.066.203.23.375 3.195 3.345 2.253 2.258 3.174 3.155 3.301 3.216a.986.986 0 0 0 1.144-.185c.279-.279.364-.655.235-1.045-.059-.179-.312-.445-2.789-2.927L12.421 12l2.725-2.73c2.477-2.482 2.73-2.748 2.789-2.927a1.004 1.004 0 0 0-1.295-1.275" fill-rule="evenodd" fill="#000" stroke="none"/></svg>