<svg xmlns="http://www.w3.org/2000/svg" width="24" height="24" fill="none" stroke="currentColor" stroke-width="2" stroke-linecap="round" stroke-linejoin="round"><path d="M10.64 6.068c-.155.053-.545.426-2.811 2.687-1.887 1.882-2.655 2.675-2.716 2.801a1.013 1.013 0 0 0-.053.77c.066.202.214.359 2.695 2.845 1.882 1.887 2.675 2.655 2.801 2.716a.986.986 0 0 0 1.144-.185c.279-.279.364-.655.235-1.045-.059-.178-.278-.41-2.289-2.427L7.422 12l2.224-2.23c2.011-2.017 2.23-2.249 2.289-2.427a1.004 1.004 0 0 0-1.295-1.275m7 0c-.155.053-.545.426-2.811 2.687-1.887 1.882-2.655 2.675-2.716 2.801a1.013 1.013 0 0 0-.053.77c.066.202.214.359 2.695 2.845 1.882 1.887 2.675 2.655 2.801 2.716a.986.986 0 0 0 1.144-.185c.279-.279.364-.655.235-1.045-.059-.178-.278-.41-2.289-2.427L14.422 12l2.224-2.23c2.011-2.017 2.23-2.249 2.289-2.427a1.004 1.004 0 0 0-1.295-1.275" fill="#000" fill-rule="evenodd" stroke="none"/></svg>