<svg xmlns="http://www.w3.org/2000/svg" width="24" height="24" fill="none" stroke="currentColor" stroke-width="2" stroke-linecap="round" stroke-linejoin="round"><path d="M11.64 5.068c-.155.053-.545.426-2.811 2.687-1.887 1.882-2.655 2.675-2.716 2.801a.986.986 0 0 0 .185 1.144c.279.279.655.364 1.045.235.178-.059.41-.278 2.427-2.289L12 7.422l2.23 2.224c2.017 2.011 2.249 2.23 2.427 2.289.39.129.766.044 1.045-.235a.986.986 0 0 0 .185-1.144c-.061-.126-.829-.919-2.716-2.801-2.39-2.384-2.649-2.631-2.828-2.69a1.053 1.053 0 0 0-.703.003m0 7c-.155.053-.545.426-2.811 2.687-1.887 1.882-2.655 2.675-2.716 2.801a.986.986 0 0 0 .185 1.144c.279.279.655.364 1.045.235.178-.059.41-.278 2.427-2.289L12 14.422l2.23 2.224c2.017 2.011 2.249 2.23 2.427 2.289.39.129.766.044 1.045-.235a.986.986 0 0 0 .185-1.144c-.061-.126-.829-.919-2.716-2.801-2.39-2.384-2.649-2.631-2.828-2.69a1.053 1.053 0 0 0-.703.003" fill="#000" fill-rule="evenodd" stroke="none"/></svg>