<svg xmlns="http://www.w3.org/2000/svg" width="24" height="24" fill="none" stroke="currentColor" stroke-width="2" stroke-linecap="round" stroke-linejoin="round"><path d="M5.643 6.069C5.291 6.193 5 6.614 5 7c0 .08.029.234.065.343.059.178.278.41 2.289 2.427L9.578 12l-2.224 2.23c-2.011 2.017-2.23 2.249-2.289 2.427-.129.39-.044.766.235 1.045a.986.986 0 0 0 1.144.185c.126-.061.919-.829 2.801-2.716 2.481-2.486 2.629-2.643 2.695-2.845a1.013 1.013 0 0 0-.053-.77c-.061-.126-.829-.919-2.716-2.801-2.39-2.384-2.649-2.631-2.828-2.69a1.032 1.032 0 0 0-.7.004m7 0C12.291 6.193 12 6.614 12 7c0 .08.029.234.065.343.059.178.278.41 2.289 2.427L16.578 12l-2.224 2.23c-2.011 2.017-2.23 2.249-2.289 2.427-.129.39-.044.766.235 1.045a.986.986 0 0 0 1.144.185c.126-.061.919-.829 2.801-2.716 2.481-2.486 2.629-2.643 2.695-2.845a1.013 1.013 0 0 0-.053-.77c-.061-.126-.829-.919-2.716-2.801-2.39-2.384-2.649-2.631-2.828-2.69a1.032 1.032 0 0 0-.7.004" fill="#000" fill-rule="evenodd" stroke="none"/></svg>