<svg xmlns="http://www.w3.org/2000/svg" width="24" height="24" fill="none" stroke="currentColor" stroke-width="2" stroke-linecap="round" stroke-linejoin="round"><path d="M6.643 3.069c-.53.187-.786.849-.53 1.375.061.126.829.919 2.716 2.801 2.39 2.384 2.649 2.631 2.828 2.69a.987.987 0 0 0 .686 0c.179-.059.438-.306 2.828-2.69 1.887-1.882 2.655-2.675 2.716-2.801a.986.986 0 0 0-.185-1.144c-.279-.279-.655-.364-1.045-.235-.178.059-.41.278-2.427 2.289L12 7.578 9.77 5.354c-2.017-2.011-2.249-2.23-2.427-2.289a1.032 1.032 0 0 0-.7.004m4.997 10.999c-.155.053-.545.426-2.811 2.687-1.887 1.882-2.655 2.675-2.716 2.801a.986.986 0 0 0 .185 1.144c.279.279.655.364 1.045.235.178-.059.41-.278 2.427-2.289L12 16.422l2.23 2.224c2.017 2.011 2.249 2.23 2.427 2.289.39.129.766.044 1.045-.235a.986.986 0 0 0 .185-1.144c-.061-.126-.829-.919-2.716-2.801-2.39-2.384-2.649-2.631-2.828-2.69a1.053 1.053 0 0 0-.703.003" fill-rule="evenodd" fill="#000" stroke="none"/></svg>