<svg xmlns="http://www.w3.org/2000/svg" width="24" height="24" fill="none" stroke="currentColor" stroke-width="2" stroke-linecap="round" stroke-linejoin="round"><path d="M11.16 1.025c-2.732.256-5.005 1.305-6.884 3.174-.68.678-.969 1.021-1.396 1.659-.933 1.392-1.505 2.867-1.768 4.562-.116.751-.126 2.31-.019 3.04.367 2.492 1.384 4.537 3.126 6.282.686.689 1.053.991 1.781 1.469 1.316.864 2.701 1.393 4.38 1.674.705.118 2.348.129 3.08.022 1.951-.287 3.631-.981 5.177-2.137.533-.4 1.615-1.46 2.009-1.97a11.152 11.152 0 0 0 2.26-5.34c.098-.673.098-2.25 0-2.92-.296-2.015-1.025-3.737-2.259-5.34-.388-.503-1.474-1.567-2.01-1.969A10.98 10.98 0 0 0 13.6 1.118c-.525-.079-1.991-.135-2.44-.093m1.703 2.018a9.067 9.067 0 0 1 6.473 3.746l.149.208-4.092.014c-3.751.012-4.118.019-4.393.084-1.047.248-1.799.66-2.523 1.383-.424.424-.731.841-.943 1.284-.063.13-.123.237-.134.237-.017 0-2.198-3.751-2.231-3.837-.017-.045.774-.832 1.118-1.112a9.054 9.054 0 0 1 6.576-2.007M5.708 11.1a679.472 679.472 0 0 1 1.906 3.311c.588 1.057 1.651 1.944 2.787 2.323.554.185.934.244 1.586.245l.607.001-.073.12c-.041.066-.536.921-1.1 1.9a92.001 92.001 0 0 1-1.06 1.815c-.103.104-1.517-.348-2.319-.743a8.95 8.95 0 0 1-4.125-4.132 8.96 8.96 0 0 1-.459-6.76c.17-.508.448-1.168.478-1.136.009.009.806 1.384 1.772 3.056m6.884-2.037c1.619.332 2.676 1.921 2.345 3.525-.081.392-.148.561-.37.941a2.988 2.988 0 0 1-3.736 1.23c-1.298-.552-2.05-1.976-1.768-3.351.333-1.622 1.917-2.675 3.529-2.345m8.018.317c1.079 3.454-.124 7.346-2.979 9.633-1.337 1.072-3.137 1.813-4.688 1.932l-.358.028.084-.137c.428-.701 3.607-6.249 3.795-6.622.135-.268.284-.628.332-.8.404-1.462.175-2.963-.637-4.184l-.153-.231 2.245.011 2.246.01.113.36" fill="#000" fill-rule="evenodd" stroke="none"/></svg>