<svg xmlns="http://www.w3.org/2000/svg" width="24" height="24" fill="none" stroke="currentColor" stroke-width="2" stroke-linecap="round" stroke-linejoin="round"><path d="M11.16 1.025c-1.859.175-3.545.734-5.012 1.662a11.748 11.748 0 0 0-3.461 3.461C1.869 7.442 1.33 8.925 1.093 10.54c-.052.356-.07.733-.07 1.46s.018 1.104.07 1.46c.283 1.927.972 3.613 2.086 5.1.157.209.299.404.318.434.023.038-.312.4-1.167 1.26-1.056 1.062-1.207 1.229-1.264 1.403-.13.389-.046.766.233 1.044.278.279.655.363 1.044.233.174-.057.341-.208 1.403-1.264.846-.841 1.222-1.19 1.26-1.168.03.017.162.116.294.22.369.288 1.114.766 1.581 1.013 1.102.582 2.343.979 3.659 1.171.671.098 2.249.098 2.92 0 1.945-.283 3.631-.98 5.177-2.136.533-.4 1.615-1.46 2.009-1.97a11.152 11.152 0 0 0 2.26-5.34c.052-.355.07-.736.07-1.46 0-1.053-.047-1.523-.241-2.394-.339-1.527-1.086-3.123-2.013-4.306a4.869 4.869 0 0 1-.22-.294c-.022-.038.327-.414 1.168-1.26 1.056-1.062 1.207-1.229 1.264-1.403.13-.389.046-.766-.233-1.044-.278-.279-.655-.363-1.044-.233-.174.057-.341.208-1.403 1.264-.86.855-1.222 1.19-1.26 1.167-.03-.019-.225-.163-.434-.321-1.401-1.062-3.14-1.784-4.96-2.058-.525-.079-1.991-.135-2.44-.093m1.703 2.018a9.144 9.144 0 0 1 3.1.883c.526.26 1.421.821 1.566.981.066.073-.159.303-6.245 6.389l-6.312 6.312-.141-.174c-.274-.337-.643-.94-.914-1.494a8.973 8.973 0 0 1 1.07-9.571 9.028 9.028 0 0 1 7.876-3.326m6.626 3.975c3.016 4.511 1.344 10.667-3.549 13.065a8.936 8.936 0 0 1-7.898-.011c-.53-.26-1.33-.757-1.554-.964l-.091-.085 6.31-6.31c6.083-6.083 6.313-6.308 6.386-6.242.042.038.22.284.396.547" fill-rule="evenodd" fill="#000" stroke="none"/></svg>