<svg xmlns="http://www.w3.org/2000/svg" width="24" height="24" fill="none" stroke="currentColor" stroke-width="2" stroke-linecap="round" stroke-linejoin="round"><path d="M8.534 1.057a1.946 1.946 0 0 0-.938.54 1.91 1.91 0 0 0-.565 1.096l-.048.298-.761.02c-.501.014-.831.041-.962.08-1.125.333-1.901 1.125-2.184 2.229-.083.327-.084 15.031 0 15.357.281 1.099 1.042 1.877 2.184 2.238.178.056.9.064 6.56.075 4.306.008 6.448-.001 6.633-.03 1.19-.183 2.167-1.084 2.471-2.28.083-.328.084-15.032 0-15.357-.307-1.197-1.264-2.089-2.448-2.281A7.404 7.404 0 0 0 17.619 3h-.601l-.048-.302a2.03 2.03 0 0 0-1.562-1.654c-.318-.066-6.596-.055-6.874.013M15 4v1H9V3h6v1M7.03 5.302a2.03 2.03 0 0 0 1.562 1.654c.295.061 6.521.061 6.816 0a2.03 2.03 0 0 0 1.562-1.654L17.018 5h.564c.676 0 .873.052 1.119.299.324.324.299-.322.299 7.701s.025 7.377-.299 7.701c-.322.322.202.299-6.701.299-6.905 0-6.379.024-6.702-.3-.324-.324-.3.328-.288-7.782L5.02 5.7l.111-.189c.125-.213.318-.375.539-.454.098-.035.351-.054.731-.055L6.982 5l.048.302m7.61 4.766c-.153.053-.442.323-1.909 1.785l-1.73 1.724-.73-.723c-.619-.611-.761-.732-.928-.788-.388-.13-.765-.046-1.044.233-.279.278-.363.655-.233 1.044.057.173.203.336 1.189 1.328.771.775 1.179 1.158 1.3 1.216.246.119.51.137.771.053.201-.065.342-.198 2.345-2.195 1.516-1.511 2.156-2.176 2.217-2.301.396-.818-.38-1.674-1.248-1.376" fill-rule="evenodd" fill="#000" stroke="none"/></svg>