<svg width="24" height="24" xmlns="http://www.w3.org/2000/svg" fill="none" stroke="currentColor" stroke-width="2" stroke-linecap="round" stroke-linejoin="round"><path d="M8.534 1.057a1.946 1.946 0 0 0-.938.54 1.91 1.91 0 0 0-.565 1.096l-.048.298-.761.02c-.501.014-.831.041-.962.08-1.125.333-1.901 1.125-2.184 2.229-.083.327-.084 15.031 0 15.357.281 1.099 1.042 1.877 2.184 2.238.178.056.9.064 6.56.075 4.306.008 6.448-.001 6.633-.03 1.19-.183 2.167-1.084 2.471-2.28.083-.328.084-15.032 0-15.357-.307-1.197-1.264-2.089-2.448-2.281A7.404 7.404 0 0 0 17.619 3h-.601l-.048-.302a2.03 2.03 0 0 0-1.562-1.654c-.318-.066-6.596-.055-6.874.013M15 4v1H9V3h6v1M7.03 5.302a2.03 2.03 0 0 0 1.562 1.654c.295.061 6.521.061 6.816 0a2.03 2.03 0 0 0 1.562-1.654L17.018 5h.564c.676 0 .873.052 1.119.299.324.324.299-.322.299 7.701s.025 7.377-.299 7.701c-.322.322.202.299-6.701.299-6.905 0-6.379.024-6.702-.3-.324-.324-.3.328-.288-7.782L5.02 5.7l.111-.189c.125-.213.318-.375.539-.454.098-.035.351-.054.731-.055L6.982 5l.048.302m.613 4.764C7.288 10.197 7 10.615 7 11c0 .729.814 1.222 1.465.887.711-.365.708-1.41-.004-1.776-.211-.109-.588-.129-.818-.045m4 .003c-.352.124-.643.545-.643.931 0 .242.119.521.299.701.302.302.274.299 2.701.299s2.399.003 2.701-.299a.984.984 0 0 0 0-1.402c-.303-.303-.271-.299-2.718-.296-1.851.003-2.188.012-2.34.066m-4 4.997C7.288 15.197 7 15.615 7 16c0 .729.814 1.222 1.465.887.711-.365.708-1.41-.004-1.776-.211-.109-.588-.129-.818-.045m4 .003c-.352.124-.643.545-.643.931 0 .242.119.521.299.701.302.302.274.299 2.701.299s2.399.003 2.701-.299a.984.984 0 0 0 0-1.402c-.303-.303-.271-.299-2.718-.296-1.851.003-2.188.012-2.34.066" fill-rule="evenodd" fill="#000" stroke="none"/></svg>