<svg xmlns="http://www.w3.org/2000/svg" width="24" height="24" fill="none" stroke="currentColor" stroke-width="2" stroke-linecap="round" stroke-linejoin="round"><path d="M8.534 1.057a1.946 1.946 0 0 0-.938.54 1.91 1.91 0 0 0-.565 1.096l-.048.298-.761.02c-.501.014-.831.041-.962.08-1.125.333-1.901 1.125-2.184 2.229-.083.327-.084 15.031 0 15.357.281 1.096 1.044 1.878 2.184 2.238.178.056.9.064 6.56.075 4.306.008 6.448-.001 6.633-.03a3.034 3.034 0 0 0 2.306-1.8c.206-.487.212-.545.23-1.95.02-1.531.007-1.616-.287-1.91a.984.984 0 0 0-1.403-.001c-.281.28-.299.385-.299 1.701s-.018 1.421-.299 1.701c-.322.322.202.299-6.701.299s-6.379.023-6.701-.299c-.324-.324-.299.325-.297-7.718.001-5.879.011-7.19.055-7.313.079-.221.241-.414.454-.539.182-.107.213-.112.829-.124l.641-.014.049.306a2.028 2.028 0 0 0 1.562 1.657c.295.061 6.521.061 6.816 0a2.03 2.03 0 0 0 1.562-1.654L17.018 5h.564c.676 0 .873.052 1.119.299.302.302.299.274.299 2.701s-.003 2.399.299 2.701a.984.984 0 0 0 1.403-.001c.309-.309.304-.258.288-2.907-.016-2.499-.009-2.405-.227-2.948-.292-.728-1-1.401-1.751-1.663-.402-.141-.712-.181-1.393-.182h-.601l-.048-.302a2.03 2.03 0 0 0-1.562-1.654c-.318-.066-6.596-.055-6.874.013M15 4v1H9V3h6v1m-.36 5.068c-.154.053-.49.37-2.314 2.187-2.325 2.314-2.325 2.315-2.325 2.745 0 .43 0 .431 2.325 2.745 1.926 1.917 2.153 2.131 2.331 2.19.39.129.766.044 1.044-.234s.363-.655.233-1.044c-.057-.174-.21-.342-1.288-1.427L13.423 15h3.861c4.345 0 4.102.016 4.417-.299a.984.984 0 0 0 0-1.402c-.315-.315-.072-.299-4.417-.299h-3.861l1.223-1.23c1.078-1.085 1.231-1.253 1.288-1.427.13-.389.045-.766-.233-1.044a1.005 1.005 0 0 0-1.061-.231" fill-rule="evenodd" fill="#000" stroke="none"/></svg>