<svg xmlns="http://www.w3.org/2000/svg" width="24" height="24" fill="none" stroke="currentColor" stroke-width="2" stroke-linecap="round" stroke-linejoin="round"><path d="M8.534 1.057a1.946 1.946 0 0 0-.938.54 1.91 1.91 0 0 0-.565 1.096l-.048.298-.761.02c-.501.014-.831.041-.962.08-1.125.333-1.901 1.125-2.184 2.229-.083.327-.084 15.031 0 15.357.281 1.099 1.042 1.877 2.184 2.238.178.056.9.064 6.56.075 4.306.008 6.448-.001 6.633-.03 1.19-.183 2.167-1.084 2.471-2.28.083-.328.084-15.032 0-15.357-.307-1.197-1.264-2.089-2.448-2.281A7.404 7.404 0 0 0 17.619 3h-.601l-.048-.302a2.03 2.03 0 0 0-1.562-1.654c-.318-.066-6.596-.055-6.874.013M15 4v1H9V3h6v1M7.03 5.302a2.03 2.03 0 0 0 1.562 1.654c.295.061 6.521.061 6.816 0a2.03 2.03 0 0 0 1.562-1.654L17.018 5h.564c.676 0 .873.052 1.119.299.324.324.299-.322.299 7.701s.025 7.377-.299 7.701c-.322.322.202.299-6.701.299-6.905 0-6.379.024-6.702-.3-.324-.324-.3.328-.288-7.782L5.02 5.7l.111-.189c.125-.213.318-.375.539-.454.098-.035.351-.054.731-.055L6.982 5l.048.302m1.613 4.767C8.291 10.193 8 10.614 8 11c0 .08.03.234.066.343.057.174.21.342 1.288 1.427L10.577 14l-1.223 1.23c-1.078 1.085-1.231 1.253-1.288 1.427-.13.389-.045.766.233 1.044s.655.363 1.044.233c.174-.057.342-.21 1.427-1.288L12 15.423l1.23 1.223c1.085 1.078 1.253 1.231 1.427 1.288.389.13.766.045 1.044-.233s.363-.655.233-1.044c-.057-.174-.21-.342-1.288-1.427L13.423 14l1.223-1.23c1.078-1.085 1.231-1.253 1.288-1.427.13-.389.045-.766-.233-1.044s-.655-.363-1.044-.233c-.174.057-.342.21-1.427 1.288L12 12.577l-1.23-1.223c-1.085-1.078-1.253-1.231-1.427-1.288a1.026 1.026 0 0 0-.7.003" fill-rule="evenodd" fill="#000" stroke="none"/></svg>