<svg xmlns="http://www.w3.org/2000/svg" width="24" height="24" fill="none" stroke="currentColor" stroke-width="2" stroke-linecap="round" stroke-linejoin="round"><path d="M11.16 1.025c-1.859.175-3.545.734-5.012 1.662a11.748 11.748 0 0 0-3.461 3.461C1.869 7.442 1.33 8.925 1.093 10.54c-.052.356-.07.733-.07 1.46s.018 1.104.07 1.46c.366 2.489 1.384 4.537 3.126 6.282.686.689 1.053.991 1.781 1.469 1.357.891 2.852 1.449 4.54 1.695.671.098 2.249.098 2.92 0 1.945-.283 3.631-.98 5.177-2.136.533-.4 1.615-1.46 2.009-1.97a11.152 11.152 0 0 0 2.26-5.34c.052-.355.07-.736.07-1.46s-.018-1.105-.07-1.46c-.292-2-1.028-3.742-2.259-5.34-.388-.503-1.474-1.567-2.01-1.969A10.98 10.98 0 0 0 13.6 1.118c-.525-.079-1.991-.135-2.44-.093m1.703 2.018a9.005 9.005 0 0 1 7.22 5.017c2.183 4.452.329 9.831-4.143 12.023-4.45 2.182-9.836.326-12.023-4.143a8.973 8.973 0 0 1 1.07-9.571 9.028 9.028 0 0 1 7.876-3.326m-1.204 2.021a.996.996 0 0 0-.545.486c-.092.185-.095.225-.114 1.56l-.02 1.37-.316-.51c-.501-.808-.673-.948-1.164-.948-.209 0-.321.022-.44.086a1.113 1.113 0 0 0-.478.501c-.071.17-.082.573-.02.735.023.061.636 1.061 1.362 2.223.864 1.381 1.367 2.147 1.452 2.212.41.313.967.28 1.325-.078.312-.311.299-.157.299-3.701s.013-3.39-.299-3.701a.998.998 0 0 0-1.042-.235" fill="#000" fill-rule="evenodd" stroke="none"/></svg>