<svg xmlns="http://www.w3.org/2000/svg" width="24" height="24" fill="none" stroke="currentColor" stroke-width="2" stroke-linecap="round" stroke-linejoin="round"><path d="M10.98 2.028a8.152 8.152 0 0 0-1.382.295 6.761 6.761 0 0 0-4.282 4.248c-.125.373-.139.395-.314.496a8.094 8.094 0 0 0-3.137 3.315A7.992 7.992 0 0 0 2.75 19c.278.349.921.987 1.27 1.26a8.138 8.138 0 0 0 3.78 1.652c.38.062.891.068 5.4.068 5.551 0 5.171.018 6.066-.28a5.292 5.292 0 0 0 2.115-1.319c.787-.786 1.285-1.721 1.526-2.861.1-.475.1-1.565 0-2.04-.241-1.14-.739-2.075-1.526-2.861a5.299 5.299 0 0 0-2.115-1.319c-.695-.23-.924-.265-1.926-.288l-.921-.022-.23-.472A8.01 8.01 0 0 0 10.24 6.1a8.764 8.764 0 0 0-1.973-.062c-.261.026-.481.041-.49.032-.023-.022.4-.529.62-.743.449-.437 1.179-.887 1.757-1.083 1.594-.542 3.351-.147 4.621 1.039.543.507 1.005 1.221 1.224 1.889.113.347.289.577.54.706.195.1.217.102 1.34.127 1.283.027 1.398.047 1.941.328.664.343 1.11.956 1.176 1.615.039.385.152.644.355.811a.999.999 0 0 0 1.351-.059c.239-.238.316-.494.284-.937-.11-1.525-1.308-2.961-2.922-3.503-.543-.182-.815-.224-1.608-.248l-.763-.022-.151-.305c-1.191-2.411-3.86-3.899-6.562-3.657m-.817 6.09c1.219.257 2.178.778 3.06 1.659.711.711 1.171 1.452 1.477 2.379.123.374.289.594.557.737.155.082.228.088 1.503.11 1.304.023 1.349.027 1.692.131 1.203.365 2.047 1.21 2.415 2.414.095.315.107.415.107.952 0 .537-.012.637-.107.952-.367 1.203-1.2 2.036-2.415 2.418l-.352.11h-4.88c-4.597 0-4.903-.004-5.28-.075-2.206-.412-3.978-1.962-4.652-4.066-.218-.681-.267-1.02-.267-1.859-.001-.821.058-1.209.287-1.893a6.018 6.018 0 0 1 3.82-3.783 7.61 7.61 0 0 1 1.292-.28c.294-.043 1.373.016 1.743.094" fill-rule="evenodd" fill="#000" stroke="none"/></svg>