<svg xmlns="http://www.w3.org/2000/svg" width="24" height="24" fill="none" stroke="currentColor" stroke-width="2" stroke-linecap="round" stroke-linejoin="round"><path d="M14.774 2.901c-2.276.417-4.227 1.902-5.198 3.959-.337.715-.617 1.7-.615 2.166.001.223.115.502.271.668.236.249.679.367.992.265.428-.139.646-.432.754-1.01.26-1.402 1.192-2.721 2.434-3.447.105-.061.201-.102.212-.091.012.011-.002.135-.03.275-.031.152-.051.544-.05.974.001.586.018.796.089 1.128.511 2.38 2.333 4.137 4.722 4.553.429.075 1.441.075 1.864-.001.175-.031.324-.05.331-.043.019.019-.21.403-.383.643-.216.3-.749.84-1.087 1.1-.503.387-.6.542-.6.96 0 .286.076.49.252.674.212.221.409.303.728.305.33.001.495-.079 1.02-.495 1.229-.974 2.159-2.485 2.5-4.064.13-.6.163-1.008.099-1.204a1.025 1.025 0 0 0-.766-.702c-.248-.056-.486-.002-.763.172-.378.237-.937.505-1.25.598-.404.121-1.286.15-1.743.058-2.651-.537-3.889-3.564-2.379-5.815.21-.312.262-.463.261-.747a.983.983 0 0 0-.578-.865c-.193-.088-.652-.094-1.087-.014M6.5 11.025c-.867.133-1.359.272-1.969.556a6.2 6.2 0 0 0-3.439 4.47c-.084.456-.092 1.481-.016 1.909.092.512.279 1.08.522 1.58.833 1.715 2.438 2.928 4.427 3.347.433.091.455.091 4.195.104 3.205.011 3.817.004 4.143-.048a4.293 4.293 0 0 0 3.578-3.563 3.226 3.226 0 0 0-.006-1.223 4.203 4.203 0 0 0-1.284-2.401 3.82 3.82 0 0 0-1.143-.777c-.634-.3-1.231-.419-2.107-.419h-.461l-.155-.302c-.669-1.304-2.028-2.447-3.489-2.934-.655-.219-1.083-.286-1.916-.303a11.99 11.99 0 0 0-.88.004m1.865 2.108c.696.18 1.35.542 1.849 1.022.497.478.769.882 1.051 1.562.186.446.301.6.555.736.149.081.235.088 1.24.109 1.036.022 1.092.027 1.375.128.516.184.909.497 1.209.961.777 1.202.162 2.762-1.284 3.254-.209.071-.41.075-3.94.075-3.984 0-3.905.004-4.56-.207-1.852-.596-3.063-2.391-2.823-4.188a4.148 4.148 0 0 1 2.883-3.402c.492-.152.745-.18 1.44-.164.499.011.695.034 1.005.114" fill-rule="evenodd" fill="#000" stroke="none"/></svg>