<svg xmlns="http://www.w3.org/2000/svg" width="24" height="24" fill="none" stroke="currentColor" stroke-width="2" stroke-linecap="round" stroke-linejoin="round"><path d="M1.643 1.069C1.291 1.193 1 1.614 1 2c0 .08.029.234.065.343.059.176.232.363 1.603 1.741l1.538 1.544-.313.263c-1.934 1.624-3.015 4.174-2.82 6.657.271 3.448 2.614 6.299 5.892 7.169 1.028.273.707.259 6.135.272 2.706.007 5.028-.003 5.16-.021l.24-.034 1.48 1.468c1.315 1.304 1.502 1.474 1.677 1.533.39.129.766.044 1.045-.235a.986.986 0 0 0 .185-1.144c-.063-.13-2.761-2.85-10.216-10.301C3.299 1.888 2.525 1.125 2.343 1.065a1.038 1.038 0 0 0-.7.004m8 2.997C9.288 4.197 9 4.615 9 5c0 .353.229.73.53.874.093.045.359.12.59.166.576.116 1.05.281 1.567.545 1.444.739 2.482 1.956 2.993 3.511.144.437.295.646.577.797.155.082.229.088 1.483.11 1.282.023 1.33.027 1.672.131.647.196 1.12.483 1.572.952.42.435.697.918.864 1.502.074.257.09.414.091.892.001.652-.03.82-.268 1.42-.14.353-.157.431-.144.665a.826.826 0 0 0 .135.459c.259.419.807.577 1.269.365.32-.146.502-.423.742-1.129.218-.641.267-.965.267-1.76 0-.609-.014-.784-.093-1.137-.246-1.098-.718-1.959-1.505-2.743-.64-.638-1.251-1.022-2.094-1.315-.645-.225-.963-.273-1.957-.295-.864-.019-.889-.022-.914-.105a9.087 9.087 0 0 0-.263-.561 8.087 8.087 0 0 0-.951-1.48c-.283-.345-.975-1.019-1.303-1.27a8.08 8.08 0 0 0-2.99-1.435c-.621-.153-.989-.181-1.227-.093m1.477 8.475 5.46 5.461-4.16-.013c-4.07-.013-4.168-.015-4.529-.098-1.282-.294-2.195-.79-3.074-1.668-1.044-1.044-1.597-2.228-1.742-3.731a4.352 4.352 0 0 1 0-.988c.136-1.407.676-2.621 1.599-3.593.314-.331.891-.831.959-.831.015 0 2.484 2.457 5.487 5.461" fill-rule="evenodd" fill="#000" stroke="none"/></svg>