<svg xmlns="http://www.w3.org/2000/svg" width="24" height="24" fill="none" stroke="currentColor" stroke-width="2" stroke-linecap="round" stroke-linejoin="round"><path d="M8.053 2.044a8.136 8.136 0 0 0-5.035 2.627C1.076 6.865.487 9.889 1.46 12.676c.253.724.715 1.57 1.214 2.224.601.786 1.849 1.844 2.41 2.042.767.27 1.527-.495 1.255-1.264-.085-.243-.221-.406-.467-.561-1.443-.911-2.369-2.221-2.754-3.897-.13-.566-.151-1.582-.045-2.2a5.877 5.877 0 0 1 1.685-3.261A5.892 5.892 0 0 1 7.15 4.283c.658-.215.99-.262 1.85-.262.672-.001.838.012 1.195.092 2.142.479 3.768 1.917 4.471 3.951.164.476.308.678.591.829.155.082.228.088 1.503.11 1.304.023 1.349.027 1.692.131 1.203.365 2.047 1.21 2.415 2.414.095.315.107.415.107.952 0 .537-.012.637-.107.952-.452 1.482-1.629 2.417-3.201 2.543-.499.039-.678.106-.894.331-.176.184-.252.388-.252.674 0 .399.181.7.54.894.14.075.221.086.64.083 1.331-.008 2.677-.591 3.681-1.596.787-.786 1.285-1.721 1.526-2.861.1-.475.1-1.565 0-2.04-.241-1.14-.739-2.075-1.526-2.861A5.299 5.299 0 0 0 19.266 7.3c-.696-.231-.923-.265-1.932-.288l-.926-.022-.148-.333c-.341-.766-.871-1.537-1.519-2.21a7.963 7.963 0 0 0-4.736-2.389c-.458-.061-1.487-.068-1.952-.014m3.611 9.019a1.33 1.33 0 0 0-.289.158c-.093.071-.596.876-1.708 2.73-.866 1.446-1.596 2.69-1.621 2.765-.159.471.135 1.055.614 1.218.169.057.416.066 1.885.066h1.691l-1.063 1.77c-.584.974-1.087 1.84-1.118 1.925-.218.614.284 1.305.947 1.305.191 0 .457-.095.624-.222.092-.07.602-.885 1.707-2.729.866-1.446 1.596-2.69 1.621-2.765.159-.471-.135-1.055-.614-1.218-.169-.057-.416-.066-1.885-.066h-1.691l1.063-1.77c.584-.973 1.087-1.84 1.118-1.925.27-.758-.518-1.522-1.281-1.242" fill-rule="evenodd" fill="#000" stroke="none"/></svg>