<svg xmlns="http://www.w3.org/2000/svg" width="24" height="24" fill="none" stroke="currentColor" stroke-width="2" stroke-linecap="round" stroke-linejoin="round"><path d="M11.643 1.069a1.066 1.066 0 0 0-.577.591c-.098.288-.098 2.392 0 2.68.126.369.538.66.934.66s.808-.291.934-.66c.098-.288.098-2.392 0-2.68-.173-.508-.762-.778-1.291-.591M4.767 4.344c-.342.17-.527.482-.527.887 0 .393.098.533 1.029 1.454.712.706.859.832 1.028.889.388.13.765.046 1.044-.233s.363-.656.233-1.044c-.056-.169-.185-.317-.89-1.032-.925-.937-1.049-1.024-1.466-1.025a.89.89 0 0 0-.451.104m13.569-.005c-.141.071-.435.338-1.021.93-.706.712-.832.859-.889 1.028-.13.388-.046.765.233 1.044s.656.363 1.044.233c.169-.057.316-.183 1.028-.889.931-.921 1.029-1.061 1.029-1.454 0-.582-.405-.99-.982-.991a.89.89 0 0 0-.442.099M11.52 7.021c-.033.007-.195.033-.36.06-1.035.166-2.33.862-2.565 1.379-.092.2-.098.608-.013.811.129.31.463.554.811.596.248.029.474-.037.727-.211.954-.656 1.856-.814 2.814-.494a2.981 2.981 0 0 1 2.054 3.028c-.028.493.026.718.23.957a1.01 1.01 0 0 0 1.643-.19c.152-.294.173-1.316.04-1.937a5.048 5.048 0 0 0-1.273-2.446 5.082 5.082 0 0 0-3.027-1.532c-.308-.038-.933-.05-1.081-.021M6.5 11.025c-.867.133-1.359.272-1.969.556a6.2 6.2 0 0 0-3.439 4.47c-.084.456-.092 1.481-.016 1.909.092.512.279 1.08.522 1.58.833 1.715 2.438 2.928 4.427 3.347.433.091.455.091 4.195.104 3.205.011 3.817.004 4.143-.048a4.293 4.293 0 0 0 3.578-3.563 3.226 3.226 0 0 0-.006-1.223 4.203 4.203 0 0 0-1.284-2.401 3.82 3.82 0 0 0-1.143-.777c-.634-.3-1.231-.419-2.107-.419h-.461l-.155-.302c-.669-1.304-2.028-2.447-3.489-2.934-.655-.219-1.083-.286-1.916-.303a11.99 11.99 0 0 0-.88.004m13.143.044c-.352.124-.643.545-.643.931 0 .396.291.808.66.934.163.055.378.066 1.34.066 1.316 0 1.421-.018 1.701-.299a.984.984 0 0 0 0-1.402c-.282-.282-.383-.299-1.718-.296-.945.003-1.196.015-1.34.066M8.365 13.133c.696.18 1.35.542 1.849 1.022.497.478.769.882 1.051 1.562.186.446.301.6.555.736.149.081.235.088 1.24.109 1.036.022 1.092.027 1.375.128.516.184.909.497 1.209.961.777 1.202.162 2.762-1.284 3.254-.209.071-.41.075-3.94.075-3.984 0-3.905.004-4.56-.207-1.852-.596-3.063-2.391-2.823-4.188a4.148 4.148 0 0 1 2.883-3.402c.492-.152.745-.18 1.44-.164.499.011.695.034 1.005.114" fill-rule="evenodd" fill="#000" stroke="none"/></svg>