<svg xmlns="http://www.w3.org/2000/svg" width="24" height="24" fill="none" stroke="currentColor" stroke-width="2" stroke-linecap="round" stroke-linejoin="round"><path d="M8.024 2.046c-2.187.28-4.191 1.453-5.476 3.204C.972 7.397.572 10.133 1.461 12.678c.359 1.028 1.104 2.222 1.794 2.874.274.259.431.328.745.328.286 0 .49-.076.674-.252.221-.213.304-.409.304-.728 0-.346-.05-.446-.448-.9-.723-.825-1.161-1.688-1.412-2.78-.132-.572-.151-1.581-.043-2.215a5.851 5.851 0 0 1 1.682-3.247 6.011 6.011 0 0 1 3.112-1.666c.504-.102 1.776-.101 2.251.002 2.19.475 3.835 1.911 4.546 3.97.164.476.308.678.591.829.155.082.231.088 1.463.111 1.144.021 1.337.034 1.605.107a3.564 3.564 0 0 1 2.348 2.06c.332.8.332 1.858 0 2.658a3.523 3.523 0 0 1-1.118 1.453c-.381.301-.514.504-.546.84-.054.556.428 1.078.993 1.078.356 0 .784-.272 1.361-.867.73-.751 1.168-1.538 1.428-2.566.101-.397.108-.485.108-1.267 0-.952-.051-1.247-.343-2.002-.292-.754-.714-1.376-1.342-1.978-.749-.719-1.618-1.176-2.674-1.409-.274-.06-.572-.084-1.246-.1l-.886-.02-.148-.333c-.341-.767-.871-1.538-1.519-2.211a7.963 7.963 0 0 0-4.736-2.389c-.465-.062-1.544-.069-1.981-.012m-.381 11.023a1.066 1.066 0 0 0-.577.591c-.098.288-.098 2.392 0 2.68.126.369.538.66.934.66s.808-.291.934-.66c.098-.288.098-2.392 0-2.68-.173-.508-.762-.778-1.291-.591m8 0a1.066 1.066 0 0 0-.577.591c-.098.288-.098 2.392 0 2.68.126.369.538.66.934.66s.808-.291.934-.66c.098-.288.098-2.392 0-2.68-.173-.508-.762-.778-1.291-.591m-4 2a1.066 1.066 0 0 0-.577.591c-.098.288-.098 2.392 0 2.68.126.369.538.66.934.66s.808-.291.934-.66c.098-.288.098-2.392 0-2.68-.173-.508-.762-.778-1.291-.591m-4 4C7.291 19.193 7 19.614 7 20c0 .242.119.521.299.701a.984.984 0 0 0 1.402 0c.753-.753-.048-1.989-1.058-1.632m8 0c-.352.124-.643.545-.643.931 0 .527.473 1 1 1 .242 0 .521-.119.701-.299.753-.753-.048-1.989-1.058-1.632m-4 2c-.352.124-.643.545-.643.931 0 .527.473 1 1 1 .242 0 .521-.119.701-.299.753-.753-.048-1.989-1.058-1.632" fill-rule="evenodd" fill="#000" stroke="none"/></svg>