<svg xmlns="http://www.w3.org/2000/svg" width="24" height="24" fill="none" stroke="currentColor" stroke-width="2" stroke-linecap="round" stroke-linejoin="round"><path d="M8.16 4.042c-1.301.16-2.51.592-3.532 1.262a6.817 6.817 0 0 0-1.219.983A7.987 7.987 0 0 0 2.75 17c.278.349.921.987 1.27 1.26a8.138 8.138 0 0 0 3.78 1.652c.38.062.891.068 5.4.068 5.551 0 5.171.018 6.066-.28a5.292 5.292 0 0 0 2.115-1.319c.787-.786 1.285-1.721 1.526-2.861.1-.475.1-1.565 0-2.04-.241-1.14-.739-2.075-1.526-2.861A5.299 5.299 0 0 0 19.266 9.3c-.695-.23-.924-.265-1.926-.288l-.921-.022-.23-.472c-1.152-2.365-3.326-3.98-5.949-4.419-.452-.076-1.658-.109-2.08-.057m2.003 2.076c1.219.257 2.178.778 3.06 1.659.711.711 1.171 1.452 1.477 2.379.123.374.289.594.557.737.155.082.228.088 1.503.11 1.304.023 1.349.027 1.692.131 1.203.365 2.047 1.21 2.415 2.414.095.315.107.415.107.952 0 .537-.012.637-.107.952-.367 1.203-1.2 2.036-2.415 2.418l-.352.11h-4.88c-4.597 0-4.903-.004-5.28-.075-2.206-.412-3.978-1.962-4.652-4.066-.218-.681-.267-1.02-.267-1.859-.001-.821.058-1.209.287-1.893a6.018 6.018 0 0 1 3.82-3.783 7.61 7.61 0 0 1 1.292-.28c.294-.043 1.373.016 1.743.094" fill-rule="evenodd" fill="#000" stroke="none"/></svg>