<svg xmlns="http://www.w3.org/2000/svg" width="24" height="24" fill="none" stroke="currentColor" stroke-width="2" stroke-linecap="round" stroke-linejoin="round"><path d="M8.96 2.061a3.674 3.674 0 0 0-2.622 2.075c-.198.43-.3.861-.326 1.388l-.023.465-.445.023a3.682 3.682 0 0 0-3.411 2.777c-.083.317-.102.485-.103.891-.001.776.174 1.397.569 2.011l.199.311-.134.189a4.232 4.232 0 0 0-.496 1.009 3.722 3.722 0 0 0 0 2.24 3.623 3.623 0 0 0 1.485 1.953c.3.196.842.447.964.447.035 0 .063.013.063.029s-.799.83-1.775 1.81c-1.592 1.598-1.781 1.801-1.84 1.978-.129.389-.044.766.234 1.044s.655.363 1.044.234c.177-.059.381-.249 2.001-1.864l1.805-1.798.069.214c.282.867 1.008 1.695 1.853 2.111a3.407 3.407 0 0 0 1.609.372c.776.001 1.397-.174 2.011-.569l.311-.199.189.134c1.085.773 2.586.879 3.8.268a3.674 3.674 0 0 0 2.02-3.228l.006-.365.441-.023a3.659 3.659 0 0 0 3.143-2.063c.257-.517.368-1 .369-1.605.001-.776-.174-1.397-.569-2.011l-.199-.311.134-.189c.649-.911.844-2.231.486-3.282a3.646 3.646 0 0 0-3.346-2.515l-.465-.023-.023-.445a3.644 3.644 0 0 0-1.47-2.781 3.52 3.52 0 0 0-2.198-.733c-.777-.001-1.42.181-2.019.572l-.302.197-.19-.136c-.391-.281-.999-.531-1.506-.621-.32-.057-1.023-.047-1.343.019m1.203 2.003c.311.091.45.185.867.585.432.414.61.509.955.51.344.001.481-.07.925-.48.228-.21.49-.41.632-.48.958-.482 2.124.05 2.402 1.095.117.437.046.9-.212 1.402-.131.255-.332.47-1.939 2.084L12 10.58l-1.793-1.8C8.6 7.166 8.399 6.951 8.268 6.696c-.331-.642-.355-1.255-.071-1.81.111-.218.374-.506.583-.639.371-.235.946-.311 1.383-.183M6.178 8.061c.129.034.362.127.518.207.255.131.472.334 2.095 1.948l1.81 1.802-1.43 1.435c-2.081 2.087-2.364 2.322-2.993 2.486-.757.197-1.583-.122-1.952-.753-.292-.499-.298-1.23-.015-1.706a4.65 4.65 0 0 1 .438-.51c.414-.432.509-.61.51-.955.001-.344-.07-.481-.48-.925-.581-.631-.751-1.096-.624-1.715a1.705 1.705 0 0 1 2.123-1.314m12.562-.007c.422.113.832.414 1.034.76.293.5.298 1.236.014 1.706a5.104 5.104 0 0 1-.44.514c-.414.436-.506.608-.507.951-.001.341.068.477.469.916.426.467.554.68.635 1.064.218 1.034-.6 2.032-1.667 2.035-.297 0-.631-.092-.974-.268-.255-.131-.47-.332-2.084-1.939L13.42 12l1.8-1.793c1.617-1.61 1.829-1.807 2.085-1.939.5-.258.994-.331 1.435-.214m-3.101 9.077c.519.77.494 1.713-.06 2.306-.464.496-1.116.683-1.742.499-.311-.091-.45-.185-.867-.585-.432-.414-.61-.509-.955-.51-.341-.001-.477.068-.916.469-.467.426-.68.554-1.064.635-1.243.262-2.297-.919-1.936-2.17.159-.551.195-.594 2.118-2.525l1.802-1.811 1.732 1.731c.953.951 1.803 1.834 1.888 1.961" fill-rule="evenodd" fill="#000" stroke="none"/></svg>