<svg xmlns="http://www.w3.org/2000/svg" width="24" height="24" fill="none" stroke="currentColor" stroke-width="2" stroke-linecap="round" stroke-linejoin="round"><path d="M11.563 1.11c-.331.173-10.159 6.576-10.289 6.704-.273.269-.254-.041-.254 4.186s-.019 3.917.254 4.186c.13.128 9.958 6.531 10.289 6.704.158.082.269.11.437.11.168 0 .28-.028.438-.11.329-.171 10.158-6.575 10.289-6.704.272-.269.253.04.253-4.186s.019-3.917-.253-4.186c-.131-.129-9.96-6.533-10.289-6.704A.845.845 0 0 0 12 1a.841.841 0 0 0-.437.11M11 5.91v2.071L9.03 9.359c-1.083.758-1.996 1.378-2.03 1.377-.066-.001-3.162-2.152-3.167-2.201-.002-.022 7.08-4.664 7.157-4.691.005-.002.01.928.01 2.066m6.06.568a334.124 334.124 0 0 1 3.089 2.018c.038.035-.317.302-1.519 1.143-.863.604-1.596 1.098-1.63 1.098-.033 0-.946-.621-2.029-1.379l-1.97-1.378V5.911L13 3.842l.51.331c.28.183 1.878 1.22 3.55 2.305m-3.426 4.382c.882.616 1.603 1.129 1.603 1.14 0 .011-.728.528-1.617 1.149l-1.617 1.129-1.619-1.129c-.891-.621-1.62-1.138-1.62-1.149 0-.029 3.211-2.274 3.241-2.266.014.003.747.51 1.629 1.126m-9.4.42c.552.385 1.003.709 1.003.72 0 .018-1.836 1.311-2.122 1.494L3 13.568v-3.136l.115.074c.064.041.567.389 1.119.774m16.757 1.501-.011.781-1.108-.771c-.609-.424-1.108-.78-1.108-.791 0-.011.499-.367 1.108-.791l1.108-.771.011.781c.006.43.006 1.132 0 1.562M9.042 14.649 11 16.019v4.138l-.97-.631a10963.5 10963.5 0 0 0-3.55-2.305 226.301 226.301 0 0 1-2.629-1.718c-.038-.034.326-.307 1.54-1.154.874-.61 1.612-1.101 1.641-1.09.029.011.933.637 2.01 1.39m9.599-.28c1.194.835 1.546 1.1 1.508 1.135-.027.024-1.417.933-3.089 2.018-1.672 1.085-3.27 2.122-3.55 2.305l-.51.331.001-2.069V16.02l1.989-1.391c1.094-.764 2.013-1.381 2.041-1.37.029.011.754.51 1.61 1.11" fill="#000" fill-rule="evenodd" stroke="none"/></svg>