<svg xmlns="http://www.w3.org/2000/svg" width="24" height="24" fill="none" stroke="currentColor" stroke-width="2" stroke-linecap="round" stroke-linejoin="round"><path d="M7.64 5.068c-.156.053-.603.483-3.311 3.187-2.258 2.253-3.155 3.174-3.216 3.301a1.013 1.013 0 0 0-.053.77c.066.203.23.375 3.195 3.345 2.253 2.258 3.174 3.155 3.301 3.216a.986.986 0 0 0 1.144-.185c.279-.279.364-.655.235-1.045-.059-.179-.312-.445-2.789-2.927L3.421 12l2.725-2.73c2.477-2.482 2.73-2.748 2.789-2.927A1.004 1.004 0 0 0 7.64 5.068m8.003.001C15.291 5.193 15 5.614 15 6c0 .08.029.234.065.343.059.179.312.445 2.789 2.927L20.579 12l-2.725 2.73c-2.477 2.482-2.73 2.748-2.789 2.927-.129.39-.044.766.235 1.045a.986.986 0 0 0 1.144.185c.127-.061 1.048-.958 3.301-3.216 2.965-2.97 3.129-3.142 3.195-3.345a1.013 1.013 0 0 0-.053-.77c-.061-.127-.958-1.047-3.216-3.301-2.855-2.85-3.148-3.131-3.328-3.19a1.038 1.038 0 0 0-.7.004" fill="#000" fill-rule="evenodd" stroke="none"/></svg>