<svg xmlns="http://www.w3.org/2000/svg" width="24" height="24" fill="none" stroke="currentColor" stroke-width="2" stroke-linecap="round" stroke-linejoin="round"><path d="M14.24 3.035c-.376.123-.598.364-.733.792l-2.543 8.135c-2.617 8.376-2.531 8.072-2.382 8.429.079.189.272.392.478.501.224.12.656.119.883 0 .266-.141.439-.368.55-.719l2.543-8.135c2.617-8.376 2.531-8.072 2.382-8.429a1.094 1.094 0 0 0-.475-.497c-.172-.088-.544-.129-.703-.077m-8.6 4.033c-.154.053-.488.369-2.311 2.187-1.516 1.511-2.156 2.176-2.217 2.301a1.018 1.018 0 0 0-.052.77c.065.201.198.342 2.195 2.345 1.511 1.516 2.176 2.156 2.301 2.217a.99.99 0 0 0 1.144-.186c.279-.279.364-.655.235-1.045-.059-.177-.244-.376-1.789-1.927L3.422 12l1.724-1.73c1.545-1.551 1.73-1.75 1.789-1.927.129-.389.044-.766-.234-1.044a1.005 1.005 0 0 0-1.061-.231m12.003.001C17.291 7.193 17 7.614 17 8c0 .08.029.234.065.343.059.177.244.376 1.789 1.927L20.578 12l-1.724 1.73c-1.545 1.551-1.73 1.75-1.789 1.927-.129.39-.044.766.235 1.045a.99.99 0 0 0 1.144.186c.125-.061.79-.701 2.301-2.217 1.997-2.003 2.13-2.144 2.195-2.345a1.018 1.018 0 0 0-.052-.77c-.061-.125-.701-.79-2.217-2.301-1.924-1.919-2.15-2.131-2.328-2.19a1.032 1.032 0 0 0-.7.004" fill-rule="evenodd" fill="#000" stroke="none"/></svg>