<svg xmlns="http://www.w3.org/2000/svg" width="24" height="24" fill="none" stroke="currentColor" stroke-width="2" stroke-linecap="round" stroke-linejoin="round"><path d="M7.04.061A8.053 8.053 0 0 0 1.281 3.66C.323 5.127-.144 7.057.041 8.792c.297 2.784 1.958 5.167 4.451 6.387a7.938 7.938 0 0 0 7.008.004 7.347 7.347 0 0 0 2.034-1.421 7.974 7.974 0 0 0-.038-11.563A7.988 7.988 0 0 0 7.04.061m2.124 2.055a6.012 6.012 0 0 1 1.597.568c1.64.848 2.781 2.391 3.146 4.256.108.55.097 1.663-.022 2.22a5.963 5.963 0 0 1-.569 1.599c-.853 1.647-2.394 2.786-4.256 3.148-.514.099-1.582.099-2.12-.002A6.036 6.036 0 0 1 2.095 9.06c-.101-.538-.101-1.606-.002-2.12a6.156 6.156 0 0 1 .569-1.653 5.897 5.897 0 0 1 2.584-2.606c.675-.35 1.257-.526 2.174-.657.281-.041 1.374.017 1.744.092M6.643 5.069C6.291 5.193 6 5.614 6 6c0 .396.291.808.66.934.107.036.227.066.267.066C6.996 7 7 7.078 7 8.573c0 1.789.006 1.836.299 2.128a.984.984 0 0 0 1.402 0C9.003 10.399 9 10.427 9 8s.003-2.399-.299-2.701c-.256-.257-.434-.3-1.218-.296-.492.002-.709.019-.84.066m12.401 3.996c-.362.181-.545.516-.517.951.025.395.15.566.663.907 1.01.671 1.641 1.365 2.153 2.365.247.485.458 1.089.564 1.618.1.503.1 1.696 0 2.193-.5 2.473-2.335 4.308-4.808 4.808-.497.1-1.69.1-2.193 0-.771-.154-1.699-.541-2.294-.956-.68-.475-1.162-.977-1.692-1.765-.266-.395-.325-.459-.52-.559-.192-.098-.256-.111-.504-.099-.361.017-.616.161-.795.45-.109.176-.121.229-.121.519 0 .308.008.338.172.623.388.678 1.152 1.561 1.808 2.091a8.055 8.055 0 0 0 7.08 1.526c4.453-1.174 6.994-5.851 5.558-10.23a8.371 8.371 0 0 0-1.387-2.548c-.555-.687-1.531-1.516-2.19-1.86-.349-.182-.658-.193-.977-.034m-2.197 4.359c-.497.248-.675.846-.405 1.359l.121.231-1.116 1.123c-.979.985-1.124 1.147-1.181 1.32-.13.389-.046.766.233 1.044.278.278.655.363 1.044.234.176-.059.363-.231 1.728-1.59 1.607-1.6 1.684-1.693 1.72-2.067.035-.367-.069-.562-.588-1.093-.538-.552-.724-.664-1.105-.665a.89.89 0 0 0-.451.104" fill-rule="evenodd" fill="#000" stroke="none"/></svg>