<svg xmlns="http://www.w3.org/2000/svg" width="24" height="24" fill="none" stroke="currentColor" stroke-width="2" stroke-linecap="round" stroke-linejoin="round"><path d="M4.62 2.025c-.408.08-.533.114-.75.202-.881.358-1.549 1.137-1.794 2.093-.083.327-.084 15.031 0 15.357.281 1.099 1.041 1.876 2.184 2.238.179.056.983.064 7.56.075 4.998.008 7.448-.001 7.633-.03 1.19-.183 2.167-1.084 2.471-2.28.083-.328.084-15.032 0-15.357-.307-1.197-1.264-2.09-2.444-2.28-.246-.04-14.661-.057-14.86-.018M11 12v8H7.927c-3.464 0-3.317.012-3.629-.3-.324-.324-.3.328-.288-7.782L4.02 4.7l.111-.189c.125-.213.318-.375.539-.454.12-.043.763-.054 3.24-.055L11 4v8m8.34-7.934c.115.039.263.135.361.233.324.324.299-.322.299 7.701s.025 7.377-.299 7.701c-.311.311-.165.299-3.628.299H13V4h3.073c2.755 0 3.093.007 3.267.066" fill="#000" fill-rule="evenodd" stroke="none"/></svg>