<svg xmlns="http://www.w3.org/2000/svg" width="24" height="24" fill="none" stroke="currentColor" stroke-width="2" stroke-linecap="round" stroke-linejoin="round"><path d="M5.31 2.063a3.918 3.918 0 0 0-2.131 1.116A3.903 3.903 0 0 0 2.014 6.18c.094 1.805 1.275 3.243 3.046 3.708.286.076.461.086 1.63.102l1.31.017v3.986l-1.31.017c-1.169.016-1.344.026-1.63.102-1.521.399-2.612 1.514-2.965 3.028-.103.441-.103 1.279 0 1.72a4.017 4.017 0 0 0 3.045 3.045c.464.109 1.319.102 1.78-.014 1.48-.373 2.58-1.466 2.969-2.951.074-.285.085-.463.101-1.63l.017-1.31h3.986l.017 1.31c.016 1.169.026 1.344.102 1.63.399 1.519 1.516 2.612 3.028 2.965.464.109 1.319.102 1.78-.014a4.03 4.03 0 0 0 2.971-2.971c.116-.461.123-1.316.014-1.78-.377-1.615-1.621-2.796-3.246-3.079-.259-.045-.65-.061-1.504-.061H16V10.007l1.31-.017c1.167-.016 1.345-.027 1.63-.101C20.425 9.5 21.518 8.4 21.891 6.92c.116-.461.123-1.316.014-1.78-.686-2.94-4.152-4.117-6.476-2.2-.632.521-1.092 1.261-1.317 2.12-.076.286-.086.461-.102 1.63L13.993 8h-3.986L9.99 6.69c-.019-1.425-.042-1.599-.292-2.21C8.994 2.76 7.13 1.734 5.31 2.063m1.098 1.981c.75.157 1.391.798 1.548 1.548.026.125.044.663.044 1.31V8H6.902c-.647 0-1.185-.018-1.31-.044a2.062 2.062 0 0 1-1.548-1.548 1.95 1.95 0 0 1 .552-1.811 1.956 1.956 0 0 1 1.812-.553m12 0C19.31 4.232 20 5.08 20 6c0 .92-.69 1.768-1.592 1.956-.125.026-.663.044-1.31.044H16V6.902c0-.647.018-1.185.044-1.31a2.063 2.063 0 0 1 1.49-1.535c.263-.064.604-.069.874-.013M14 12v2h-4v-4h4v2m-6 5.098c0 .647-.018 1.185-.044 1.31C7.768 19.31 6.92 20 6 20c-1.08 0-2-.92-2-2 0-.898.657-1.731 1.534-1.943.138-.034.58-.051 1.336-.054L8 16v1.098m10.408-1.054c.75.157 1.391.798 1.548 1.548a1.954 1.954 0 0 1-.552 1.812A1.975 1.975 0 0 1 18 20c-.92 0-1.768-.69-1.956-1.592-.026-.125-.044-.663-.044-1.31V16h1.098c.647 0 1.185.018 1.31.044" fill-rule="evenodd" fill="#000" stroke="none"/></svg>