<svg xmlns="http://www.w3.org/2000/svg" width="24" height="24" fill="none" stroke="currentColor" stroke-width="2" stroke-linecap="round" stroke-linejoin="round"><path d="M11.16 1.025c-1.859.175-3.545.734-5.012 1.662a11.748 11.748 0 0 0-3.461 3.461C1.869 7.442 1.33 8.925 1.093 10.54c-.052.356-.07.733-.07 1.46s.018 1.104.07 1.46c.366 2.489 1.384 4.537 3.126 6.282.686.689 1.053.991 1.781 1.469 1.357.891 2.852 1.449 4.54 1.695.671.098 2.249.098 2.92 0 1.945-.283 3.631-.98 5.177-2.136.533-.4 1.615-1.46 2.009-1.97a11.152 11.152 0 0 0 2.26-5.34c.052-.355.07-.736.07-1.46s-.018-1.105-.07-1.46c-.292-2-1.028-3.742-2.259-5.34-.388-.503-1.474-1.567-2.01-1.969A10.98 10.98 0 0 0 13.6 1.118c-.525-.079-1.991-.135-2.44-.093m1.703 2.018a9.005 9.005 0 0 1 7.22 5.017c2.183 4.452.329 9.831-4.143 12.023-4.45 2.182-9.836.326-12.023-4.143a8.973 8.973 0 0 1 1.07-9.571 9.028 9.028 0 0 1 7.876-3.326m-1.22 2.026a1.118 1.118 0 0 0-.343.229c-.324.323-.3-.202-.3 6.702 0 6.903-.023 6.379.299 6.701.288.288.632.35 1.441.257a7.011 7.011 0 0 0 4.747-2.618c1.121-1.402 1.674-3.31 1.471-5.08a7.042 7.042 0 0 0-2.91-4.97c-.419-.302-1.329-.763-1.838-.931-.93-.306-2.135-.443-2.567-.29m1.949 2.194c.742.248 1.34.624 1.93 1.214.738.739 1.165 1.529 1.385 2.563.052.245.072.514.072.96 0 1.075-.253 1.912-.853 2.82-.24.363-.949 1.073-1.306 1.308-.523.344-1.225.652-1.67.733l-.15.028V7.111l.15.028c.082.015.281.071.442.124" fill-rule="evenodd" fill="#000" stroke="none"/></svg>