<svg xmlns="http://www.w3.org/2000/svg" width="24" height="24" fill="none" stroke="currentColor" stroke-width="2" stroke-linecap="round" stroke-linejoin="round"><path d="M7.643 1.069a1.118 1.118 0 0 0-.343.229c-.248.248-.3.443-.3 1.126v.569l-1.27.018c-1.429.019-1.465.025-2.075.327-.764.378-1.362 1.128-1.579 1.982-.084.329-.084 15.031 0 15.36a3.055 3.055 0 0 0 1.621 1.999c.222.107.502.218.623.247.333.082 15.04.08 15.357-.002a2.987 2.987 0 0 0 1.503-.892c.24-.255.345-.408.498-.727.107-.223.219-.504.248-.625.044-.18.054-1.577.054-7.68s-.01-7.5-.054-7.68a4.245 4.245 0 0 0-.248-.625c-.312-.65-.894-1.206-1.528-1.46-.497-.2-.549-.206-1.88-.224L17 2.993v-.569c0-.683-.052-.878-.299-1.125a.984.984 0 0 0-1.402 0c-.247.247-.299.442-.299 1.128V3H9v-.573c0-.686-.052-.881-.299-1.128a.998.998 0 0 0-1.058-.23M19.34 5.066c.115.039.263.135.361.233.324.324.299-.322.299 7.701s.025 7.377-.299 7.701c-.324.324.322.299-7.701.299s-7.377.025-7.701-.299C3.975 20.377 4 21.023 4 13c0-8.025-.025-7.377.3-7.702.316-.316-.325-.291 7.683-.295 6.567-.003 7.179.003 7.357.063m-8.03 1.997a3.918 3.918 0 0 0-2.131 1.116 3.903 3.903 0 0 0-1.165 3.001c.096 1.833 1.332 3.307 3.126 3.725.464.109 1.319.102 1.78-.014a4.03 4.03 0 0 0 2.971-2.971c.116-.461.123-1.316.014-1.78-.49-2.102-2.51-3.454-4.595-3.077m1.098 1.981C13.31 9.232 14 10.08 14 11c0 1.08-.92 2-2 2-.92 0-1.768-.69-1.956-1.592a1.95 1.95 0 0 1 .552-1.811 1.956 1.956 0 0 1 1.812-.553m-1.348 6.998A10.604 10.604 0 0 0 6.8 17.45c-.614.364-.778.585-.778 1.05 0 .331.088.529.33.748.205.185.394.244.723.226.24-.014.306-.038.646-.24 1.014-.602 1.945-.949 3.059-1.141.506-.087 1.866-.097 2.42-.018 1.114.159 2.186.551 3 1.096.394.264.51.309.8.309.286 0 .49-.076.674-.252.222-.213.304-.409.304-.728 0-.474-.166-.689-.86-1.119-1.032-.64-2.23-1.069-3.529-1.265-.615-.092-1.97-.132-2.529-.074" fill-rule="evenodd" fill="#000" stroke="none"/></svg>