<svg xmlns="http://www.w3.org/2000/svg" width="24" height="24" fill="none" stroke="currentColor" stroke-width="2" stroke-linecap="round" stroke-linejoin="round"><path d="M3.62 1.025c-.408.08-.533.114-.75.202-.881.358-1.549 1.137-1.794 2.093-.083.325-.084 10.032 0 10.357.282 1.102 1.061 1.898 2.184 2.232.136.041.463.066 1.026.08.975.024 1.136-.009 1.414-.287a.984.984 0 0 0 .001-1.403C5.447 14.045 5.266 14 4.5 14s-.947-.045-1.202-.3c-.32-.32-.301.029-.289-5.282L3.02 3.7l.111-.189c.125-.213.318-.375.539-.454.122-.043 1.022-.054 4.813-.055 5.242-.002 4.899-.022 5.218.297.254.254.299.435.299 1.201s.045.947.299 1.201a.984.984 0 0 0 1.403-.001c.278-.278.311-.439.287-1.414-.021-.847-.042-.983-.226-1.441-.367-.916-1.287-1.641-2.283-1.802-.246-.04-9.663-.057-9.86-.018m7 7c-.408.08-.533.114-.75.202-.881.358-1.549 1.137-1.794 2.093-.083.325-.084 10.032 0 10.357.281 1.099 1.043 1.879 2.184 2.238.176.055.776.064 5.06.075 3.269.008 4.949-.001 5.133-.03 1.191-.183 2.167-1.084 2.471-2.28.083-.326.083-10.034 0-10.357-.307-1.197-1.264-2.09-2.444-2.28-.246-.04-9.663-.057-9.86-.018m9.72 2.041c.115.039.263.135.361.233.319.318.299-.022.299 5.201s.02 4.883-.299 5.201c-.318.319.022.299-5.201.299-5.224 0-4.882.02-5.202-.3-.32-.32-.301.029-.289-5.282l.011-4.718.111-.189c.125-.213.318-.375.539-.454.122-.043 1.022-.054 4.813-.055 4.238-.002 4.68.004 4.857.064" fill-rule="evenodd" fill="#000" stroke="none"/></svg>