<svg xmlns="http://www.w3.org/2000/svg" width="24" height="24" fill="none" stroke="currentColor" stroke-width="2" stroke-linecap="round" stroke-linejoin="round"><path d="M11.16 1.025c-1.859.175-3.545.734-5.012 1.662a11.748 11.748 0 0 0-3.461 3.461C1.869 7.442 1.33 8.925 1.093 10.54c-.052.356-.07.733-.07 1.46s.018 1.104.07 1.46c.366 2.489 1.384 4.537 3.126 6.282.686.689 1.053.991 1.781 1.469 1.357.891 2.852 1.449 4.54 1.695.671.098 2.249.098 2.92 0 1.945-.283 3.631-.98 5.177-2.136.533-.4 1.615-1.46 2.009-1.97a11.152 11.152 0 0 0 2.26-5.34c.052-.355.07-.736.07-1.46s-.018-1.105-.07-1.46c-.292-2-1.028-3.742-2.259-5.34-.388-.503-1.474-1.567-2.01-1.969A10.98 10.98 0 0 0 13.6 1.118c-.525-.079-1.991-.135-2.44-.093m1.703 2.018a9.005 9.005 0 0 1 7.22 5.017c2.183 4.452.329 9.831-4.143 12.023-4.45 2.182-9.836.326-12.023-4.143a8.973 8.973 0 0 1 1.07-9.571 9.028 9.028 0 0 1 7.876-3.326M11.46 7.027a5.386 5.386 0 0 0-2.28.846c-.354.234-.963.818-1.068 1.022a1 1 0 0 0 .414 1.325.794.794 0 0 0 .474.115c.328-.001.509-.09.839-.414a3.118 3.118 0 0 1 1.408-.827c.306-.084 1.159-.096 1.433-.02.896.249 1.604.813 1.979 1.578.251.511.317.792.317 1.348s-.066.837-.317 1.348c-.344.702-.962 1.23-1.753 1.502-.336.115-.408.125-.886.126-.906.001-1.526-.254-2.181-.897-.33-.324-.511-.413-.839-.414a.794.794 0 0 0-.474.115 1 1 0 0 0-.414 1.325c.044.086.239.309.434.496a4.98 4.98 0 0 0 6.865.04 5.153 5.153 0 0 0 1.493-2.681c.101-.472.101-1.448 0-1.92a5.121 5.121 0 0 0-1.316-2.507c-.761-.801-1.869-1.354-2.987-1.491a6.104 6.104 0 0 0-1.141-.015" fill-rule="evenodd" fill="#000" stroke="none"/></svg>