<svg xmlns="http://www.w3.org/2000/svg" width="24" height="24" fill="none" stroke="currentColor" stroke-width="2" stroke-linecap="round" stroke-linejoin="round"><path d="M14.643 3.069C14.291 3.193 14 3.614 14 4c0 .08.029.234.065.343.059.177.244.376 1.788 1.926l1.723 1.729-5.138.013c-4.762.012-5.16.018-5.438.084-1.05.249-1.8.66-2.522 1.383-.726.726-1.134 1.47-1.383 2.522-.065.274-.072.636-.084 4.215-.016 4.417-.032 4.166.287 4.485a.984.984 0 0 0 1.403.001c.315-.315.299-.089.299-4.27 0-3.229.008-3.755.063-4.023a3 3 0 0 1 2.345-2.344c.272-.056.891-.064 5.239-.064h4.931l-1.724 1.73c-1.545 1.551-1.73 1.75-1.789 1.927-.129.389-.044.766.234 1.044s.654.363 1.044.234c.179-.059.44-.307 2.831-2.69C21.038 9.391 20.999 9.436 20.999 9c0-.436.039-.391-2.825-3.245-2.391-2.383-2.652-2.631-2.831-2.69a1.032 1.032 0 0 0-.7.004" fill-rule="evenodd" fill="#000" stroke="none"/></svg>