<svg xmlns="http://www.w3.org/2000/svg" width="24" height="24" fill="none" stroke="currentColor" stroke-width="2" stroke-linecap="round" stroke-linejoin="round"><path d="M8.58 3.096c-.16.076-.73.628-2.825 2.73-2.383 2.391-2.631 2.652-2.69 2.831-.129.39-.044.766.234 1.044s.655.363 1.044.234c.177-.059.376-.244 1.926-1.788l1.729-1.723.013 5.138c.012 4.762.018 5.16.084 5.438.249 1.05.66 1.8 1.383 2.522.723.723 1.475 1.135 2.522 1.383.274.065.636.072 4.215.084 4.417.016 4.166.032 4.485-.287a.984.984 0 0 0 .001-1.403c-.315-.315-.089-.299-4.27-.299-4.075 0-4.026.003-4.6-.241a3.1 3.1 0 0 1-1.596-1.598c-.242-.58-.235-.41-.235-5.808V6.422l1.73 1.724c1.551 1.545 1.75 1.73 1.927 1.789.389.129.766.044 1.044-.234s.363-.654.234-1.044c-.059-.179-.307-.44-2.69-2.831C9.391 2.962 9.436 3.001 9 3.001a.945.945 0 0 0-.42.095" fill-rule="evenodd" fill="#000" stroke="none"/></svg>