<svg xmlns="http://www.w3.org/2000/svg" width="24" height="24" fill="none" stroke="currentColor" stroke-width="2" stroke-linecap="round" stroke-linejoin="round"><path d="M14.58 3.096c-.16.076-.73.628-2.825 2.73-2.383 2.391-2.631 2.652-2.69 2.831-.129.39-.044.766.234 1.044s.655.363 1.044.234c.177-.059.376-.244 1.927-1.789L14 6.422v4.931c0 5.398.007 5.228-.235 5.808a3.124 3.124 0 0 1-1.604 1.604c-.568.237-.53.235-4.592.235-4.181 0-3.955-.016-4.27.299a.984.984 0 0 0 .001 1.403c.319.319.068.303 4.485.287 4.283-.015 4.058-.003 4.81-.253a5.17 5.17 0 0 0 2.411-1.752c.287-.385.678-1.165.794-1.584.2-.724.2-.718.2-6.019V6.422l1.73 1.724c1.551 1.545 1.75 1.73 1.927 1.789.389.129.766.044 1.044-.234s.363-.654.234-1.044c-.059-.179-.307-.44-2.69-2.831C15.391 2.962 15.436 3.001 15 3.001a.945.945 0 0 0-.42.095" fill-rule="evenodd" fill="#000" stroke="none"/></svg>