<svg xmlns="http://www.w3.org/2000/svg" width="24" height="24" fill="none" stroke="currentColor" stroke-width="2" stroke-linecap="round" stroke-linejoin="round"><path d="M3.643 3.068C3.29 3.194 3 3.614 3 4c0 .242.119.521.299.701.315.315.089.299 4.27.299 4.062 0 4.024-.002 4.592.235.692.29 1.314.912 1.604 1.604.242.58.235.41.235 5.808v4.931l-1.73-1.724c-1.551-1.545-1.75-1.73-1.927-1.789-.389-.129-.766-.044-1.044.234s-.363.654-.234 1.044c.059.179.307.44 2.69 2.831 2.854 2.864 2.809 2.825 3.245 2.825.436 0 .391.039 3.245-2.825 2.383-2.391 2.631-2.652 2.69-2.831.129-.39.044-.766-.234-1.044s-.655-.363-1.044-.234c-.177.059-.376.244-1.926 1.788l-1.729 1.723-.013-5.138c-.012-4.762-.018-5.16-.084-5.438-.249-1.05-.66-1.8-1.383-2.522-.726-.726-1.47-1.134-2.522-1.383-.275-.065-.628-.072-4.24-.08-3.504-.009-3.96-.003-4.117.053" fill-rule="evenodd" fill="#000" stroke="none"/></svg>