<svg xmlns="http://www.w3.org/2000/svg" width="24" height="24" fill="none" stroke="currentColor" stroke-width="2" stroke-linecap="round" stroke-linejoin="round"><path d="M19.643 3.069a1.118 1.118 0 0 0-.343.229c-.316.316-.3.089-.3 4.271 0 4.062.002 4.024-.235 4.592a3.124 3.124 0 0 1-1.604 1.604c-.58.242-.41.235-5.808.235H6.422l1.724-1.73c1.545-1.551 1.73-1.75 1.789-1.927.129-.389.044-.766-.234-1.044s-.654-.363-1.044-.234c-.179.059-.44.307-2.831 2.69C2.962 14.609 3.001 14.564 3.001 15c0 .436-.039.391 2.825 3.245 2.391 2.383 2.652 2.631 2.831 2.69.39.129.766.044 1.044-.234s.363-.655.234-1.044c-.059-.177-.244-.376-1.788-1.926l-1.723-1.729 5.138-.013c5.642-.014 5.267.002 6.033-.253a5.17 5.17 0 0 0 2.411-1.752c.287-.385.678-1.165.794-1.584.195-.707.2-.814.2-4.803 0-4.212.016-3.983-.299-4.298a.998.998 0 0 0-1.058-.23" fill-rule="evenodd" fill="#000" stroke="none"/></svg>