<svg xmlns="http://www.w3.org/2000/svg" width="24" height="24" fill="none" stroke="currentColor" stroke-width="2" stroke-linecap="round" stroke-linejoin="round"><path d="M3.643 3.069a1.056 1.056 0 0 0-.579.599c-.061.184-.066.543-.053 4.117.012 3.579.019 3.941.084 4.215.248 1.047.66 1.799 1.383 2.522.722.723 1.472 1.134 2.522 1.383.278.066.676.072 5.438.084l5.138.013-1.723 1.729c-1.544 1.55-1.729 1.749-1.788 1.926-.129.389-.044.766.234 1.044s.654.363 1.044.234c.179-.059.44-.307 2.831-2.69 2.864-2.854 2.825-2.809 2.825-3.245 0-.436.039-.391-2.825-3.245-2.391-2.383-2.652-2.631-2.831-2.69-.39-.129-.766-.044-1.044.234s-.363.655-.234 1.044c.059.177.244.376 1.789 1.927L17.578 14h-4.931c-5.414 0-5.23.008-5.816-.241a3.1 3.1 0 0 1-1.596-1.598C4.998 11.593 5 11.631 5 7.569c0-4.181.016-3.955-.299-4.27a.998.998 0 0 0-1.058-.23" fill-rule="evenodd" fill="#000" stroke="none"/></svg>