<svg xmlns="http://www.w3.org/2000/svg" width="24" height="24" fill="none" stroke="currentColor" stroke-width="2" stroke-linecap="round" stroke-linejoin="round"><path d="M8.64 3.068c-.155.053-.547.428-2.814 2.687C2.962 8.609 3.001 8.564 3.001 9c0 .436-.039.391 2.825 3.245 2.391 2.383 2.652 2.631 2.831 2.69.39.129.766.044 1.044-.234s.363-.655.234-1.044c-.059-.177-.244-.376-1.789-1.927L6.422 10h4.931c5.398 0 5.228-.007 5.808.235.692.29 1.314.912 1.604 1.604.237.568.235.53.235 4.592 0 4.181-.016 3.955.299 4.27a.984.984 0 0 0 1.403-.001c.319-.319.303-.068.287-4.485-.012-3.579-.019-3.941-.084-4.215-.247-1.045-.658-1.793-1.384-2.522-.723-.725-1.466-1.132-2.521-1.383-.278-.066-.676-.072-5.438-.084l-5.138-.013 1.723-1.729c1.544-1.55 1.729-1.749 1.788-1.926A1.004 1.004 0 0 0 8.64 3.068" fill-rule="evenodd" fill="#000" stroke="none"/></svg>