<svg xmlns="http://www.w3.org/2000/svg" width="24" height="24" fill="none" stroke="currentColor" stroke-width="2" stroke-linecap="round" stroke-linejoin="round"><path d="M12.26 3.059c-1.87.298-3.409 1.586-3.994 3.342-.257.771-.241.391-.255 6.037l-.013 5.138-1.729-1.723c-1.55-1.544-1.749-1.729-1.926-1.788-.389-.129-.766-.044-1.044.234s-.363.654-.234 1.044c.059.179.307.44 2.69 2.831C8.609 21.038 8.564 20.999 9 20.999c.436 0 .391.039 3.245-2.825 2.383-2.391 2.631-2.652 2.69-2.831.129-.39.044-.766-.234-1.044s-.655-.363-1.044-.234c-.177.059-.376.244-1.927 1.789L10 17.578v-4.931c0-4.337.008-4.967.063-5.239a3.006 3.006 0 0 1 2.345-2.344c.269-.056.786-.064 4.023-.064 4.181 0 3.955.016 4.27-.299a.984.984 0 0 0 0-1.402c-.315-.316-.08-.299-4.338-.295-2.857.003-3.861.016-4.103.055" fill-rule="evenodd" fill="#000" stroke="none"/></svg>