<svg xmlns="http://www.w3.org/2000/svg" width="24" height="24" fill="none" stroke="currentColor" stroke-width="2" stroke-linecap="round" stroke-linejoin="round"><path d="M8.643.069a1.066 1.066 0 0 0-.577.591C8.011.822 8 1.033 8 1.924v1.069l-1.27.018c-1.333.018-1.382.024-1.885.226-.672.269-1.322.912-1.595 1.578-.216.525-.221.568-.239 1.915L2.993 8H1.924C.692 8 .577 8.021.299 8.299a.984.984 0 0 0 0 1.402c.278.278.393.299 1.628.299H3v3H1.927c-1.235 0-1.35.021-1.628.299a.984.984 0 0 0 0 1.402c.278.278.393.299 1.626.299h1.07l.015 1.77c.013 1.455.027 1.806.078 1.97.348 1.12 1.068 1.84 2.172 2.172.154.046.495.064 1.47.077l1.27.018v1.069c0 1.232.021 1.347.299 1.625a.984.984 0 0 0 1.402 0c.278-.278.299-.393.299-1.628V21h4v1.073c0 1.235.021 1.35.299 1.628a.984.984 0 0 0 1.402 0c.278-.278.299-.393.299-1.628V21h1.11c.611 0 1.225-.019 1.366-.042a3.042 3.042 0 0 0 2.283-1.798c.214-.508.214-.503.231-2.39l.015-1.77h1.07c1.233 0 1.348-.021 1.626-.299a.984.984 0 0 0 0-1.402c-.278-.278-.393-.299-1.628-.299H21v-3h1.073c1.235 0 1.35-.021 1.628-.299a.984.984 0 0 0 0-1.402C23.423 8.021 23.308 8 22.076 8h-1.069l-.018-1.27c-.018-1.333-.024-1.382-.226-1.885-.291-.726-1.009-1.409-1.753-1.667-.434-.15-.724-.177-1.9-.178H16V1.927c0-.894-.011-1.105-.066-1.267C15.808.291 15.396 0 15 0s-.808.291-.934.66C14.011.822 14 1.033 14 1.927V3h-4V1.927C10 .692 9.979.577 9.701.299a.998.998 0 0 0-1.058-.23m9.697 4.997c.115.039.263.135.361.233.322.322.299-.202.299 6.701s.023 6.379-.299 6.701c-.322.322.202.299-6.701.299-6.905 0-6.379.024-6.702-.3-.323-.323-.3.208-.288-6.782L5.02 5.7l.111-.189c.125-.213.318-.375.539-.454.123-.044 1.269-.054 6.313-.055 5.634-.002 6.179.004 6.357.064M8.643 8.069a1.118 1.118 0 0 0-.343.229C7.987 8.611 8 8.455 8 12c0 3.544-.013 3.39.299 3.701.311.312.157.299 3.701.299s3.39.013 3.701-.299c.312-.311.299-.157.299-3.701s.013-3.39-.299-3.701c-.312-.312-.154-.299-3.718-.296-2.757.003-3.186.011-3.34.066M14 12v2h-4v-4h4v2" fill="#000" fill-rule="evenodd" stroke="none"/></svg>