<svg xmlns="http://www.w3.org/2000/svg" width="24" height="24" fill="none" stroke="currentColor" stroke-width="2" stroke-linecap="round" stroke-linejoin="round"><path d="M2.62 3.025c-.408.08-.533.114-.75.202C.989 3.585.321 4.364.076 5.32c-.083.326-.084 13.031 0 13.357.282 1.099 1.04 1.875 2.184 2.238.18.057 1.149.065 9.56.075 6.382.008 9.447-.001 9.633-.03 1.189-.182 2.167-1.084 2.471-2.28.083-.327.084-13.033 0-13.357-.307-1.197-1.264-2.09-2.444-2.28-.246-.04-18.66-.057-18.86-.018m18.72 2.041c.253.087.507.341.594.594.057.168.066.408.066 1.767V9H1.997l.011-1.65.012-1.65.111-.189c.125-.213.318-.375.539-.454.124-.044 1.763-.054 9.313-.055 8.427-.002 9.178.003 9.357.064m.66 9.507c0 4.022.015 3.814-.299 4.128-.326.326.563.299-9.701.299-10.264 0-9.375.027-9.701-.299-.314-.314-.299-.106-.299-4.128V11h20v3.573" fill="#000" fill-rule="evenodd" stroke="none"/></svg>