<svg xmlns="http://www.w3.org/2000/svg" width="24" height="24" fill="none" stroke="currentColor" stroke-width="2" stroke-linecap="round" stroke-linejoin="round"><path d="M5.82.047a1.095 1.095 0 0 0-.562.479L5.14.74l-.022 2.148c-.012 1.182-.036 2.163-.053 2.18-.017.018-.998.041-2.178.052L.74 5.14l-.214.118a.985.985 0 0 0-.514.963.98.98 0 0 0 .641.839c.167.063.365.068 2.308.054l2.126-.015-.025 2.161c-.052 4.423-.047 7.182.014 7.417.241.939.927 1.749 1.769 2.086.568.228.212.213 5.385.227l4.77.012v2.072c0 2.345-.002 2.326.299 2.627a.984.984 0 0 0 1.402 0c.301-.301.299-.282.299-2.628V19h2.073c2.346 0 2.327.002 2.628-.299a.984.984 0 0 0 0-1.402c-.301-.301-.282-.299-2.627-.299h-2.072l-.012-4.77c-.014-5.173.001-4.817-.227-5.385-.338-.845-1.144-1.528-2.086-1.769-.236-.061-2.86-.066-7.357-.014l-2.221.025.015-2.126C7.128 1.018 7.123.82 7.06.653a1.041 1.041 0 0 0-.475-.541c-.191-.097-.59-.131-.765-.065m10.52 7.019c.115.039.263.135.361.233.318.318.299-.013.299 5.128V17h-4.573c-5.143 0-4.81.019-5.129-.3-.327-.327-.31.01-.26-5.087.024-2.48.05-4.515.058-4.522.013-.013 5.389-.071 7.847-.084 1.026-.006 1.231.003 1.397.059" fill-rule="evenodd" fill="#000" stroke="none"/></svg>