<svg xmlns="http://www.w3.org/2000/svg" width="24" height="24" fill="none" stroke="currentColor" stroke-width="2" stroke-linecap="round" stroke-linejoin="round"><path d="M10.62 1.025c-.408.08-.533.114-.75.202-.706.287-1.342.91-1.62 1.588-.232.565-.224.468-.24 2.913l-.014 2.268-2.268.014c-1.919.013-2.299.025-2.468.078-1.149.36-1.901 1.128-2.184 2.232-.081.316-.081 3.042 0 3.36.217.854.815 1.604 1.579 1.982.657.325.527.311 3.073.328l2.268.014.014 2.268c.016 2.433.01 2.364.231 2.888a3.09 3.09 0 0 0 1.414 1.502c.616.305.637.308 2.154.327.87.011 1.45.002 1.633-.027 1.185-.183 2.095-1.002 2.471-2.222.052-.168.064-.567.077-2.47l.014-2.27h2.108c1.265 0 2.21-.017 2.364-.042 1.179-.191 2.146-1.092 2.448-2.278.08-.316.081-3.044 0-3.357-.307-1.197-1.264-2.09-2.444-2.28C20.322 8.017 19.391 8 18.112 8h-2.108l-.014-2.27c-.016-2.429-.009-2.343-.227-2.885-.367-.916-1.287-1.641-2.283-1.802-.241-.039-2.676-.054-2.86-.018m2.72 2.041c.115.039.263.135.361.233.308.307.299.215.299 3.201s-.009 2.894.299 3.201c.307.308.215.299 3.201.299s2.894-.009 3.201.299c.281.28.299.385.299 1.701s-.018 1.421-.299 1.701c-.307.308-.215.299-3.201.299s-2.894-.009-3.201.299c-.308.307-.299.215-.299 3.201s.009 2.894-.299 3.201c-.28.281-.385.299-1.701.299s-1.421-.018-1.701-.299C9.991 20.394 10 20.486 10 17.5s.009-2.894-.299-3.201C9.394 13.991 9.486 14 6.5 14c-2.987 0-2.893.009-3.202-.3-.288-.288-.304-.387-.29-1.787L3.02 10.7l.111-.189c.125-.213.318-.375.539-.454.119-.043.693-.054 2.813-.055 2.921-.002 2.868.002 3.166-.243.079-.065.186-.204.237-.309l.094-.19.02-2.78.02-2.78.111-.189c.061-.103.173-.236.25-.294.264-.202.352-.213 1.602-.215.981-.002 1.193.008 1.357.064" fill-rule="evenodd" fill="#000" stroke="none"/></svg>