<svg xmlns="http://www.w3.org/2000/svg" width="24" height="24" fill="none" stroke="currentColor" stroke-width="2" stroke-linecap="round" stroke-linejoin="round"><path d="M11.16 1.025c-1.859.175-3.545.734-5.012 1.662a11.748 11.748 0 0 0-3.461 3.461C1.869 7.442 1.33 8.925 1.093 10.54c-.052.356-.07.733-.07 1.46s.018 1.104.07 1.46c.366 2.489 1.384 4.537 3.126 6.282.686.689 1.053.991 1.781 1.469 1.357.891 2.852 1.449 4.54 1.695.671.098 2.249.098 2.92 0 1.945-.283 3.631-.98 5.177-2.136.533-.4 1.615-1.46 2.009-1.97a11.152 11.152 0 0 0 2.26-5.34c.052-.355.07-.736.07-1.46s-.018-1.105-.07-1.46c-.292-2-1.028-3.742-2.259-5.34-.388-.503-1.474-1.567-2.01-1.969A10.98 10.98 0 0 0 13.6 1.118c-.525-.079-1.991-.135-2.44-.093m-.046 5.425c.296.601 1.108.73 1.587.251.292-.292.299-.342.299-2.101V3.054l.27.035c.849.111 1.82.412 2.67.828a9.04 9.04 0 0 1 3.62 3.203c.663 1.011 1.197 2.444 1.354 3.63l.033.25h-1.546c-1.76 0-1.81.007-2.102.299a.984.984 0 0 0 0 1.402c.292.292.342.299 2.102.299h1.546l-.033.25c-.157 1.186-.691 2.619-1.354 3.63a9.323 9.323 0 0 1-2.68 2.68c-1.011.663-2.444 1.197-3.63 1.354l-.25.033v-1.546c0-1.76-.007-1.81-.299-2.102a.984.984 0 0 0-1.402 0c-.292.292-.299.342-.299 2.102v1.546l-.25-.033c-.858-.113-1.859-.424-2.708-.842a8.934 8.934 0 0 1-4.124-4.132c-.419-.86-.719-1.823-.829-2.67L3.054 13H4.6c1.759 0 1.809-.007 2.101-.299a.984.984 0 0 0 0-1.402C6.409 11.007 6.359 11 4.6 11H3.054l.035-.27c.196-1.501.897-3.111 1.898-4.361C6.38 4.63 8.481 3.417 10.635 3.105l.345-.049.02 1.602c.02 1.579.021 1.605.114 1.792" fill="#000" fill-rule="evenodd" stroke="none"/></svg>