<svg xmlns="http://www.w3.org/2000/svg" width="24" height="24" fill="none" stroke="currentColor" stroke-width="2" stroke-linecap="round" stroke-linejoin="round"><path d="M1.643 3.067c-.349.127-.643.548-.643.92 0 .189 3.027 12.277 3.126 12.483a.993.993 0 0 0 .225.289c.313.257-.207.241 7.649.241s7.336.016 7.649-.241a.993.993 0 0 0 .225-.289C19.973 16.264 23 4.176 23 3.987c0-.55-.53-1.031-1.078-.978-.433.041-.347-.047-3.14 3.212-1.423 1.661-2.6 3.018-2.615 3.018-.015-.001-.782-1.326-1.705-2.944-1.236-2.167-1.715-2.973-1.818-3.058a1.018 1.018 0 0 0-1.288 0c-.103.085-.582.891-1.818 3.058-.923 1.618-1.69 2.943-1.705 2.944-.015 0-1.192-1.357-2.615-3.018-2.83-3.302-2.715-3.185-3.177-3.208a1.15 1.15 0 0 0-.398.054m11.975 5.778c1.181 2.071 1.635 2.833 1.739 2.918.19.157.486.251.721.228.422-.04.424-.042 2.208-2.13.91-1.065 1.665-1.937 1.679-1.939.014-.001-.373 1.591-.86 3.538L18.22 15H5.78l-.887-3.549a405.595 405.595 0 0 1-.88-3.556c.004-.004.76.872 1.681 1.947 1.805 2.108 1.806 2.109 2.228 2.149.235.023.531-.071.721-.228.104-.085.558-.847 1.739-2.918.879-1.541 1.607-2.802 1.618-2.802.011 0 .739 1.261 1.618 2.802M4.643 19.069C4.291 19.193 4 19.614 4 20c0 .242.119.521.299.701.324.324-.322.299 7.701.299s7.377.025 7.701-.299a.984.984 0 0 0 0-1.402c-.324-.324.325-.299-7.718-.296-6.381.003-7.182.01-7.34.066" fill-rule="evenodd" fill="#000" stroke="none"/></svg>