<svg xmlns="http://www.w3.org/2000/svg" width="24" height="24" fill="none" stroke="currentColor" stroke-width="2" stroke-linecap="round" stroke-linejoin="round"><path d="M2.643 2.069C2.291 2.193 2 2.614 2 3c0 .08.029.234.065.343.059.175.224.356 1.486 1.624l1.42 1.426-.141.174c-.491.604-1.079 1.721-1.365 2.593a9.002 9.002 0 0 0 0 5.68c.286.872.874 1.989 1.365 2.593l.141.174-1.42 1.426c-1.262 1.268-1.427 1.449-1.486 1.624-.129.389-.044.766.234 1.044s.655.363 1.044.234c.175-.059.356-.224 1.624-1.486l1.426-1.42.174.141c.748.607 2.072 1.253 3.138 1.531.817.212 1.324.273 2.275.275 1.191.001 1.99-.129 3.04-.496.749-.262 1.875-.873 2.413-1.31l.174-.141 1.426 1.42c1.268 1.262 1.449 1.427 1.624 1.486.389.129.766.044 1.044-.234s.363-.655.234-1.044c-.059-.175-.224-.356-1.486-1.624l-1.42-1.426.141-.174c.64-.788 1.291-2.152 1.563-3.273.196-.81.244-1.238.244-2.16 0-.922-.048-1.35-.244-2.16-.272-1.121-.923-2.485-1.563-3.273l-.141-.174 1.42-1.426c1.262-1.268 1.427-1.449 1.486-1.624.129-.389.044-.766-.234-1.044s-.655-.363-1.044-.234c-.175.059-.355.223-1.62 1.482l-1.422 1.416-.178-.136a9.56 9.56 0 0 0-2.595-1.362 8.98 8.98 0 0 0-5.682 0c-.883.293-1.991.876-2.593 1.365l-.174.141-1.426-1.42C3.699 2.289 3.518 2.124 3.343 2.065a1.032 1.032 0 0 0-.7.004M12.74 5.042c2.449.28 4.51 1.737 5.562 3.931a6.974 6.974 0 0 1-1.802 8.38 6.976 6.976 0 0 1-8.38.464c-3.169-2.11-4.066-6.394-2.01-9.597 1.42-2.212 4.05-3.473 6.63-3.178" fill="#000" fill-rule="evenodd" stroke="none"/></svg>