<svg xmlns="http://www.w3.org/2000/svg" width="24" height="24" fill="none" stroke="currentColor" stroke-width="2" stroke-linecap="round" stroke-linejoin="round"><path d="M7.655 3.065c-.091.032-.23.116-.309.187-.078.07-1.734 1.95-3.681 4.177C.595 10.942.118 11.506.059 11.684a.994.994 0 0 0 .046.745c.043.087 1.695 2.005 3.67 4.262 3.038 3.472 3.62 4.119 3.778 4.197l.187.092 6.72.011c4.5.007 6.81-.003 6.992-.031 1.195-.183 2.166-1.078 2.472-2.28.083-.327.084-13.033 0-13.357-.307-1.197-1.264-2.089-2.448-2.281-.17-.027-2.501-.04-6.956-.039-5.78.003-6.723.011-6.865.062M21.34 5.066c.115.039.263.135.361.233.322.322.299-.202.299 6.701s.023 6.379-.299 6.701c-.323.323.226.299-6.901.299H8.455l-3.036-3.47c-1.67-1.908-3.036-3.497-3.036-3.53 0-.033 1.366-1.622 3.036-3.53L8.455 5H14.8c5.802 0 6.362.006 6.54.066m-9.697 3.003C11.291 8.193 11 8.614 11 9c0 .08.03.234.066.343.057.174.21.342 1.288 1.427L13.577 12l-1.223 1.23c-1.078 1.085-1.231 1.253-1.288 1.427-.13.389-.045.766.233 1.044s.655.363 1.044.233c.174-.057.342-.21 1.427-1.288L15 13.423l1.23 1.223c1.085 1.078 1.253 1.231 1.427 1.288.389.13.766.045 1.044-.233s.363-.655.233-1.044c-.057-.174-.21-.342-1.288-1.427L16.423 12l1.223-1.23c1.078-1.085 1.231-1.253 1.288-1.427.13-.389.045-.766-.233-1.044s-.655-.363-1.044-.233c-.174.057-.342.21-1.427 1.288L15 10.577l-1.23-1.223c-1.085-1.078-1.253-1.231-1.427-1.288a1.026 1.026 0 0 0-.7.003" fill-rule="evenodd" fill="#000" stroke="none"/></svg>