<svg xmlns="http://www.w3.org/2000/svg" width="24" height="24" fill="none" stroke="currentColor" stroke-width="2" stroke-linecap="round" stroke-linejoin="round"><path d="M4.62 2.025c-.408.08-.533.114-.75.202-.881.358-1.549 1.137-1.794 2.093-.083.327-.084 15.031 0 15.357.281 1.099 1.041 1.876 2.184 2.238.179.056.983.064 7.56.075 4.998.008 7.448-.001 7.633-.03 1.19-.183 2.167-1.084 2.471-2.28.083-.328.084-15.032 0-15.357-.307-1.197-1.264-2.09-2.444-2.28-.246-.04-14.661-.057-14.86-.018m14.72 2.041c.115.039.263.135.361.233.324.324.299-.322.299 7.701s.025 7.377-.299 7.701c-.324.324.322.299-7.701.299-8.025 0-7.377.025-7.702-.3-.324-.324-.3.328-.288-7.782L4.02 4.7l.111-.189c.125-.213.318-.375.539-.454.123-.044 1.434-.054 7.313-.055 6.565-.002 7.179.004 7.357.064m-7.697 3.003C11.291 7.193 11 7.614 11 8c0 .527.473 1 1 1 .242 0 .521-.119.701-.299.753-.753-.048-1.989-1.058-1.632m-4 4C7.291 11.193 7 11.614 7 12c0 .242.119.521.299.701.317.317.038.299 4.701.299 4.663 0 4.384.018 4.701-.299a.984.984 0 0 0 0-1.402c-.317-.317-.035-.299-4.718-.296-3.663.003-4.184.011-4.34.066m4 4c-.352.124-.643.545-.643.931 0 .527.473 1 1 1 .242 0 .521-.119.701-.299.753-.753-.048-1.989-1.058-1.632" fill="#000" fill-rule="evenodd" stroke="none"/></svg>