<svg xmlns="http://www.w3.org/2000/svg" width="24" height="24" fill="none" stroke="currentColor" stroke-width="2" stroke-linecap="round" stroke-linejoin="round"><path d="M11.534 4.057C10.657 4.269 10 5.102 10 6c0 1.08.92 2 2 2s2-.92 2-2c0-1.096-.934-2.013-2.032-1.997a2.342 2.342 0 0 0-.434.054m-6.891 7.012C4.291 11.193 4 11.614 4 12c0 .242.119.521.299.701.324.324-.322.299 7.701.299s7.377.025 7.701-.299a.984.984 0 0 0 0-1.402c-.324-.324.325-.299-7.718-.296-6.381.003-7.182.01-7.34.066m6.891 4.988C10.657 16.269 10 17.102 10 18c0 1.08.92 2 2 2s2-.92 2-2c0-1.096-.934-2.013-2.032-1.997a2.342 2.342 0 0 0-.434.054" fill="#000" fill-rule="evenodd" stroke="none"/></svg>