<svg xmlns="http://www.w3.org/2000/svg" width="24" height="24" fill="none" stroke="currentColor" stroke-width="2" stroke-linecap="round" stroke-linejoin="round"><path d="M11.16 1.025c-1.859.175-3.545.734-5.012 1.662a11.748 11.748 0 0 0-3.461 3.461C1.869 7.442 1.33 8.925 1.093 10.54c-.052.356-.07.733-.07 1.46s.018 1.104.07 1.46c.366 2.489 1.384 4.537 3.126 6.282.686.689 1.053.991 1.781 1.469 1.357.891 2.852 1.449 4.54 1.695.671.098 2.249.098 2.92 0 1.945-.283 3.631-.98 5.177-2.136.533-.4 1.615-1.46 2.009-1.97a11.152 11.152 0 0 0 2.26-5.34c.052-.355.07-.736.07-1.46s-.018-1.105-.07-1.46c-.292-2-1.028-3.742-2.259-5.34-.388-.503-1.474-1.567-2.01-1.969A10.98 10.98 0 0 0 13.6 1.118c-.525-.079-1.991-.135-2.44-.093m1.703 2.018c1.668.162 3.383.844 4.65 1.848l.253.201-.253.257c-.561.572-1.579 1.365-2.333 1.819-.66.396-1.765.952-1.895.952-.018 0-.201-.293-.407-.65-.636-1.108-1.453-2.384-2.433-3.796-.244-.351-.309-.472-.265-.489.064-.024.823-.135 1.08-.158a11.97 11.97 0 0 1 1.603.016M8.279 4.07A82.47 82.47 0 0 1 10.13 6.8c.525.822 1.19 1.938 1.19 1.995 0 .045-1.342.374-2.058.505-1.375.252-3.09.449-4.682.539l-1.03.059-.311.02.025-.109c.085-.376.419-1.272.653-1.749.702-1.435 1.697-2.582 3.043-3.509.327-.226 1.096-.669 1.162-.67.013-.001.083.085.157.189m11.218 2.96a9.319 9.319 0 0 1 1.32 3.179c.092.459.204 1.383.172 1.415-.008.008-.07-.001-.139-.021-.191-.055-1.29-.235-1.87-.306-.804-.099-2.642-.121-3.476-.041-.372.036-.687.055-.699.043a26.465 26.465 0 0 1-.593-1.309c-.016-.053.017-.086.133-.134.353-.147 1.386-.684 1.814-.944a15.432 15.432 0 0 0 2.581-1.966c.22-.21.41-.383.422-.384.013-.001.163.209.335.468m-6.944 4.153c.136.298.247.558.247.577 0 .018-.094.064-.21.102a13.09 13.09 0 0 0-1.589.679c-1.9.966-3.782 2.589-5.421 4.675-.154.196-.321.403-.37.46l-.091.104-.141-.16c-.279-.315-.791-1.126-1.061-1.678C3.352 14.784 3 13.341 3 12.177v-.249l.51-.025c2.565-.128 4.304-.308 6.05-.626a29.621 29.621 0 0 0 2.36-.552c.143-.044.288-.08.323-.082.042-.002.141.17.31.54m5.747 2.059c.788.068 2.457.341 2.53.415.034.034-.116.636-.295 1.183a9.07 9.07 0 0 1-2.174 3.517c-.425.425-1.003.899-1.041.855-.015-.018-.113-.374-.219-.792a66.92 66.92 0 0 0-1.186-4.08c-.184-.55-.34-1.022-.347-1.048-.017-.061.202-.075 1.352-.084.495-.004 1.116.011 1.38.034m-4.344 1.538a63.417 63.417 0 0 1 1.264 4.353l.295 1.152-.178.076c-.334.143-1.077.362-1.557.458a8.926 8.926 0 0 1-5.733-.744c-.515-.253-1.365-.775-1.428-.877-.013-.021.17-.286.408-.588 1.621-2.058 3.234-3.458 4.99-4.332.644-.321 1.499-.654 1.551-.604.015.014.189.512.388 1.106" fill-rule="evenodd" fill="#000" stroke="none"/></svg>