<svg xmlns="http://www.w3.org/2000/svg" width="24" height="24" fill="none" stroke="currentColor" stroke-width="2" stroke-linecap="round" stroke-linejoin="round"><path d="M13.614 2.098c-.186.081-.432.319-.506.491a5.227 5.227 0 0 0-.169.567 10.33 10.33 0 0 1-1.044 2.604c-.274.476-.335.629-.335.839 0 .672.691 1.163 1.322.94.34-.12.498-.312.961-1.169.075-.138.145-.25.156-.25.012 0 .12.184.241.41.284.528.854 1.384 1.26 1.891.416.52 1.275 1.382 1.88 1.887 1.447 1.207 2.229 2.376 2.527 3.772.101.476.1 1.474-.002 2.02a6.015 6.015 0 0 1-4.885 4.843c-.536.094-1.464.094-2 0-1.123-.195-2.102-.675-3.052-1.497-.459-.397-.62-.468-.986-.438a.985.985 0 0 0-.868.792c-.097.464.11.813.835 1.407 1.569 1.285 3.663 1.955 5.618 1.797 1.598-.13 3.06-.675 4.27-1.594a10.233 10.233 0 0 0 1.374-1.33c1.666-2.061 2.22-4.871 1.429-7.25-.18-.542-.583-1.346-.936-1.867-.535-.791-1.102-1.398-2.104-2.252-.884-.754-1.48-1.403-2.047-2.231a10.06 10.06 0 0 1-1.472-3.24c-.082-.32-.177-.635-.212-.7a1.1 1.1 0 0 0-.478-.438c-.182-.076-.606-.078-.777-.004m-7 2.28c-.188.082-.432.319-.505.491-.035.083-.11.321-.168.528-.333 1.205-.881 2.045-1.914 2.932-1.097.944-1.698 1.893-1.954 3.091-.079.367-.065 1.406.023 1.82.44 2.051 2.043 3.63 4.039 3.978a6.344 6.344 0 0 0 1.73 0c1.996-.348 3.599-1.927 4.039-3.978.089-.416.102-1.454.023-1.82-.247-1.142-.864-2.146-1.84-2.993-.843-.731-1.259-1.242-1.646-2.019A6.633 6.633 0 0 1 7.98 5.12c-.067-.32-.307-.621-.589-.738-.182-.076-.606-.078-.777-.004m.57 3.833c.371.565.774 1 1.664 1.798.808.725 1.191 1.529 1.14 2.391-.03.491-.106.773-.335 1.24-.159.326-.241.434-.569.762-.627.623-1.232.878-2.084.878-.852 0-1.457-.255-2.084-.878-.328-.328-.41-.436-.569-.762-.229-.467-.305-.749-.335-1.24-.052-.867.32-1.657 1.114-2.365.895-.799 1.351-1.29 1.696-1.825.087-.135.167-.246.178-.247.011-.001.094.111.184.248" fill-rule="evenodd" fill="#000" stroke="none"/></svg>