<svg xmlns="http://www.w3.org/2000/svg" width="24" height="24" fill="none" stroke="currentColor" stroke-width="2" stroke-linecap="round" stroke-linejoin="round"><path d="M11.664 2.063a1.018 1.018 0 0 0-.5.39c-.046.075-.145.376-.221.671a9.482 9.482 0 0 1-.761 2.056C9.49 6.593 8.596 7.708 7.28 8.803c-2.66 2.212-3.702 4.822-3.115 7.797.67 3.392 3.58 6.015 7.052 6.357a8.053 8.053 0 0 0 5.703-1.651c1.461-1.142 2.527-2.851 2.9-4.651.597-2.879-.381-5.508-2.836-7.627-1.001-.865-1.196-1.045-1.535-1.425-1.097-1.229-1.881-2.64-2.294-4.132-.286-1.032-.269-.987-.45-1.168a.993.993 0 0 0-1.041-.24m.451 4.207c.237.493.791 1.365 1.23 1.935.601.781 1.109 1.291 2.306 2.314 1.631 1.396 2.43 3.031 2.336 4.786a5.998 5.998 0 0 1-3.226 5.011c-.529.273-.998.44-1.601.569-.557.119-1.67.13-2.22.022-2.501-.49-4.383-2.372-4.845-4.847-.101-.538-.102-1.542-.002-2.011.205-.967.681-1.873 1.435-2.729.184-.209.649-.649 1.033-.979.815-.698 1.284-1.159 1.769-1.738.575-.687 1.204-1.626 1.524-2.273.068-.138.134-.25.147-.25.013 0 .064.085.114.19" fill-rule="evenodd" fill="#000" stroke="none"/></svg>