<svg xmlns="http://www.w3.org/2000/svg" width="24" height="24" fill="none" stroke="currentColor" stroke-width="2" stroke-linecap="round" stroke-linejoin="round"><path d="M15.94 1.324c-.951.099-2.061.43-3.003.895-2.541 1.255-4.555 3.63-5.292 6.241-.338 1.194-.406 2.499-.185 3.535l.056.265-.728.727-.728.727-.3-.083c-.24-.067-.416-.084-.88-.084-.518 0-.618.011-.94.109-1.551.471-2.551 1.795-2.546 3.37a3.433 3.433 0 0 0 1.942 3.119l.357.174.167.338a3.484 3.484 0 0 0 2.056 1.801c1.594.543 3.385-.184 4.176-1.693a3.542 3.542 0 0 0 .281-2.579l-.066-.233.718-.718.718-.718.259.059c.7.161 1.775.179 2.598.044.48-.079 1.137-.249 1.32-.342.422-.213.627-.763.461-1.234-.108-.308-.151-.799-.101-1.167.218-1.617 1.581-3.122 3.227-3.563.438-.117 1.128-.117 1.493.001.495.16.83.097 1.142-.214.222-.222.3-.425.455-1.181.474-2.313-.089-4.457-1.554-5.922-1.286-1.285-3.105-1.882-5.103-1.674m1.463 2.014c.853.129 1.577.462 2.127.979.688.647 1.065 1.413 1.193 2.427.046.369.033 1.277-.021 1.416-.018.048-.119.061-.512.067-2.123.029-4.291 1.48-5.328 3.565-.387.779-.584 1.56-.595 2.36-.007.488-.008.492-.107.52-.2.056-1.446.024-1.751-.045-1.57-.357-2.619-1.4-2.978-2.959-.122-.531-.122-1.474.002-2.096.295-1.488 1.12-2.947 2.313-4.093 1.282-1.23 2.808-1.978 4.434-2.173a5.703 5.703 0 0 1 1.223.032m-8.59 11.413c.136.161.391.411.567.558l.358.299c.023.019-.269.343-.705.782-.843.85-.928.975-.927 1.37 0 .227.022.302.169.588.197.383.26.691.208 1.015a1.498 1.498 0 0 1-2.295 1.029c-.346-.221-.572-.572-.666-1.037-.057-.281-.231-.561-.43-.69a2.046 2.046 0 0 0-.489-.183c-.675-.166-1.097-.599-1.197-1.228a1.495 1.495 0 0 1 1.611-1.721c.225.019.352.06.642.205.31.156.395.182.601.181.396-.001.513-.08 1.357-.92l.763-.759.093.11.34.401" fill-rule="evenodd" fill="#000" stroke="none"/></svg>