<svg xmlns="http://www.w3.org/2000/svg" width="24" height="24" fill="none" stroke="currentColor" stroke-width="2" stroke-linecap="round" stroke-linejoin="round"><path d="M18.53 1.2a4.127 4.127 0 0 0-1.724.665c-.329.23-14.005 13.878-14.15 14.12C2.541 16.179 1 21.776 1 22.002c0 .524.474.998.998.998.186 0 5.781-1.527 5.986-1.633.219-.114 13.905-13.821 14.151-14.173.249-.356.45-.801.574-1.269a3.973 3.973 0 0 0-.004-1.862c-.374-1.422-1.501-2.511-2.904-2.806-.347-.073-.962-.1-1.271-.057m.835 2.018a1.82 1.82 0 0 1 1.27 2.588c-.11.235-.616.751-6.891 7.028l-6.772 6.774-1.751.478c-.963.263-1.758.47-1.767.462-.009-.009.2-.806.463-1.77l.479-1.754 6.751-6.751c7.278-7.278 6.913-6.933 7.464-7.052.324-.071.434-.071.754-.003" fill-rule="evenodd" fill="#000" stroke="none"/></svg>