<svg xmlns="http://www.w3.org/2000/svg" width="24" height="24" fill="none" stroke="currentColor" stroke-width="2" stroke-linecap="round" stroke-linejoin="round"><path d="M11.31 1.062c-1.222.19-2.532.947-3.73 2.154-2.15 2.167-3.7 5.427-4.063 8.544-.064.547-.066 2.213-.003 2.8.501 4.721 3.027 7.725 6.996 8.321 2.162.324 4.399-.077 6.008-1.077 2.25-1.398 3.598-3.86 3.967-7.244.064-.581.062-2.247-.002-2.8-.267-2.298-1.11-4.526-2.503-6.62-1.946-2.924-4.408-4.43-6.67-4.078m1.43 2.06c2.554.795 5.27 4.927 5.743 8.738.065.516.065 2.079.001 2.62-.343 2.9-1.509 4.886-3.44 5.858-.422.213-1.154.447-1.707.547-.651.118-1.91.128-2.557.02-3.034-.504-4.817-2.68-5.264-6.425-.065-.537-.064-2.1.001-2.62.164-1.327.569-2.628 1.242-4 .657-1.337 1.354-2.336 2.259-3.241 1.367-1.364 2.581-1.853 3.722-1.497" fill-rule="evenodd" fill="#000" stroke="none"/></svg>