<svg xmlns="http://www.w3.org/2000/svg" width="24" height="24" fill="none" stroke="currentColor" stroke-width="2" stroke-linecap="round" stroke-linejoin="round"><path d="M18.64 4.068c-.153.053-.466.347-2.121 1.997L14.578 8H9.716c-5.465 0-5.098-.02-5.417.299a.984.984 0 0 0 0 1.402c.315.315.072.299 4.418.299h3.863l-2 2-2 2H6.717c-2.112 0-2.12.001-2.418.299a.984.984 0 0 0 0 1.402c.268.268.415.299 1.417.299h.861l-1.223 1.23c-1.078 1.085-1.231 1.253-1.288 1.427-.13.389-.045.766.233 1.044s.655.363 1.044.234c.177-.059.391-.258 2.138-2L9.422 16h4.862c5.465 0 5.098.02 5.417-.299a.984.984 0 0 0 0-1.402c-.315-.315-.072-.299-4.418-.299H11.42l2-2 2-2h1.863c2.112 0 2.12-.001 2.418-.299a.984.984 0 0 0 0-1.402C19.433 8.031 19.286 8 18.284 8h-.861l1.223-1.23c1.078-1.085 1.231-1.253 1.288-1.427.13-.389.045-.766-.233-1.044a1.005 1.005 0 0 0-1.061-.231" fill="#000" fill-rule="evenodd" stroke="none"/></svg>