<svg xmlns="http://www.w3.org/2000/svg" width="24" height="24" fill="none" stroke="currentColor" stroke-width="2" stroke-linecap="round" stroke-linejoin="round"><path d="m13.18 3.023-.46.06c-3.135.406-5.861 2.516-7.064 5.47l-.174.427-.871.02c-.81.019-.884.027-1.061.114-.601.296-.73 1.108-.251 1.587.248.248.441.299 1.138.299h.583v2h-.583c-.697 0-.89.051-1.138.299a.984.984 0 0 0 0 1.402c.266.266.419.299 1.378.299H5.5l.136.35a9.066 9.066 0 0 0 4.223 4.686c2.906 1.494 6.32 1.227 9.056-.709.825-.583 1.036-.828 1.076-1.249a1.011 1.011 0 0 0-.651-1.012c-.402-.137-.695-.061-1.14.297-.982.788-2.043 1.292-3.203 1.523-.371.074-.592.091-1.177.092-.753.001-1.053-.035-1.692-.201A6.81 6.81 0 0 1 9.9 17.726c-.415-.293-1.255-1.134-1.556-1.559-.221-.312-.664-1.07-.664-1.137 0-.016 1.23-.03 2.733-.03 3.083 0 2.98.009 3.288-.299a.984.984 0 0 0 0-1.402c-.311-.311-.17-.299-3.584-.299-2.776 0-3.031-.005-3.054-.066-.045-.118-.075-1.144-.045-1.544l.029-.39h4.55c5.114 0 4.786.019 5.104-.299a.984.984 0 0 0 0-1.402C16.384 8.982 16.676 9 11.892 9H7.639l.146-.29c.309-.616.74-1.188 1.321-1.753a6.302 6.302 0 0 1 1.895-1.31c2.391-1.12 5.123-.753 7.177.965.457.381.749.462 1.162.322.403-.137.692-.587.651-1.012-.032-.339-.165-.539-.587-.889A8.721 8.721 0 0 0 15.2 3.114c-.436-.074-1.719-.132-2.02-.091" fill-rule="evenodd" fill="#000" stroke="none"/></svg>