<svg xmlns="http://www.w3.org/2000/svg" width="24" height="24" fill="none" stroke="currentColor" stroke-width="2" stroke-linecap="round" stroke-linejoin="round"><path d="M2.643 2.069a1.118 1.118 0 0 0-.343.229c-.308.308-.3.227-.3 3.102 0 2.874-.008 2.794.299 3.101a.984.984 0 0 0 1.402 0C3.985 8.217 4 8.128 4 6.684V5.422l2.23 2.224c2.017 2.011 2.249 2.23 2.427 2.289.39.129.766.044 1.044-.234s.363-.654.234-1.044c-.059-.178-.278-.41-2.289-2.427L5.422 4h1.262c1.444 0 1.533-.015 1.817-.299a.984.984 0 0 0 0-1.402c-.307-.307-.224-.299-3.118-.296-2.214.003-2.587.012-2.74.066m13.2 0c-.352.124-.643.545-.643.931 0 .396.291.808.66.934.165.056.387.066 1.456.066h1.262l-2.224 2.23c-2.011 2.017-2.23 2.249-2.289 2.427-.129.39-.044.766.234 1.044s.654.363 1.044.234c.178-.059.41-.278 2.427-2.289L20 5.422v1.262c0 1.444.015 1.533.299 1.817a.984.984 0 0 0 1.402 0c.307-.307.299-.227.299-3.101s.008-2.794-.299-3.101c-.307-.307-.224-.299-3.118-.296-2.214.003-2.587.012-2.74.066M8.64 14.068c-.154.053-.499.38-2.41 2.286L4 18.578v-1.262c0-1.444-.015-1.533-.299-1.817a.984.984 0 0 0-1.402 0C1.992 15.806 2 15.726 2 18.6s-.008 2.794.299 3.101c.307.307.227.299 3.101.299s2.794.008 3.101-.299a.984.984 0 0 0 0-1.402C8.217 20.015 8.128 20 6.684 20H5.422l2.224-2.23c2.011-2.017 2.23-2.249 2.289-2.427a1.004 1.004 0 0 0-1.295-1.275m6.003.001c-.352.124-.643.545-.643.931 0 .08.029.234.065.343.059.178.278.41 2.289 2.427L18.578 20h-1.262c-1.444 0-1.533.015-1.817.299a.984.984 0 0 0 0 1.402c.307.307.227.299 3.101.299s2.794.008 3.101-.299c.307-.307.299-.227.299-3.101s.008-2.794-.299-3.101a.984.984 0 0 0-1.402 0c-.284.284-.299.373-.299 1.817v1.262l-2.23-2.224c-2.017-2.011-2.249-2.23-2.427-2.289a1.032 1.032 0 0 0-.7.004" fill-rule="evenodd" fill="#000" stroke="none"/></svg>