<svg xmlns="http://www.w3.org/2000/svg" width="24" height="24" fill="none" stroke="currentColor" stroke-width="2" stroke-linecap="round" stroke-linejoin="round"><path d="M.643.069C.291.193 0 .614 0 1c0 .08.029.234.065.343.059.178.278.41 2.28 2.418L4.56 5.982l-.538.496A19.5 19.5 0 0 0 .588 10.71c-.51.849-.568.982-.568 1.291 0 .3.078.482.521 1.219a19.305 19.305 0 0 0 3.017 3.863c1.025 1.026 1.797 1.645 2.842 2.277 1.41.853 2.781 1.345 4.36 1.565.557.078 1.945.067 2.54-.019 1.526-.222 3.058-.762 4.26-1.501l.26-.16 2.32 2.312c2.1 2.093 2.339 2.319 2.517 2.378.39.129.766.044 1.045-.235a.986.986 0 0 0 .185-1.144c-.063-.13-3.018-3.107-11.216-11.301C2.368.957 1.525.125 1.343.065a1.038 1.038 0 0 0-.7.004M11.22 3.024c-.823.084-1.559.223-1.775.334-.339.175-.525.487-.525.882 0 .286.076.49.252.674.311.324.597.367 1.428.214 1.549-.286 3.263-.068 4.801.609 1.834.807 3.677 2.369 5.243 4.443.462.612 1.196 1.73 1.196 1.822 0 .13-.967 1.554-1.521 2.241-.373.46-.439.583-.467.856-.081.78.766 1.34 1.457.963.16-.087.294-.22.567-.562.709-.886 1.496-2.069 1.934-2.904.15-.288.17-.356.17-.592a.96.96 0 0 0-.128-.525c-.433-.873-1.412-2.307-2.336-3.419-.507-.611-1.792-1.874-2.396-2.356-1.828-1.457-3.723-2.32-5.72-2.605-.437-.062-1.834-.11-2.18-.075m-2.852 7.24a4.021 4.021 0 0 0-.308 2.834 4.062 4.062 0 0 0 2.373 2.686 4.004 4.004 0 0 0 3.303-.152l.317-.159 1.161 1.161 1.162 1.162-.568.277c-2.594 1.267-5.346 1.219-7.878-.137-2.045-1.096-4.087-3.147-5.61-5.635l-.168-.275.067-.141c.103-.216.785-1.241 1.118-1.682a17.36 17.36 0 0 1 2.123-2.33l.52-.473 1.274 1.274 1.273 1.273-.159.317m2.93 2.454c.681.682 1.227 1.251 1.212 1.265-.014.014-.159.045-.323.069-1.222.176-2.356-.888-2.251-2.112.026-.306.059-.46.099-.46.014 0 .583.557 1.263 1.238" fill-rule="evenodd" fill="#000" stroke="none"/></svg>