<svg xmlns="http://www.w3.org/2000/svg" width="24" height="24" fill="none" stroke="currentColor" stroke-width="2" stroke-linecap="round" stroke-linejoin="round"><path d="m11.28 3.023-.52.06c-1.456.168-2.941.699-4.364 1.56C4.219 5.96 2.112 8.168.541 10.78.098 11.518.02 11.699.02 12c0 .301.078.482.521 1.22a19.251 19.251 0 0 0 3.037 3.882c1.004 1.003 1.797 1.638 2.818 2.255 1.414.856 2.781 1.347 4.364 1.568.564.079 2.022.068 2.62-.019 2.039-.299 3.91-1.15 5.74-2.611.608-.485 1.895-1.75 2.397-2.355.925-1.116 1.903-2.547 2.335-3.419A.955.955 0 0 0 23.98 12a.955.955 0 0 0-.128-.521c-.433-.873-1.412-2.307-2.336-3.419-.507-.611-1.792-1.874-2.396-2.356-1.829-1.458-3.723-2.32-5.72-2.605-.434-.061-1.815-.111-2.12-.076m1.64 2.035c2.798.338 5.42 2.078 7.732 5.131.279.369.941 1.353 1.13 1.681.09.155.117.096-.448.961-1.647 2.522-3.802 4.495-5.93 5.431-2.455 1.079-5.064.963-7.484-.332-1.594-.853-3.183-2.286-4.577-4.126-.291-.384-1.022-1.471-1.14-1.696-.07-.133-.076-.122.447-.918 1.501-2.286 3.373-4.105 5.27-5.12 1.607-.86 3.344-1.212 5-1.012m-1.61 3.005a3.918 3.918 0 0 0-2.131 1.116 3.903 3.903 0 0 0-1.165 3.001c.096 1.833 1.332 3.307 3.126 3.725.464.109 1.319.102 1.78-.014a4.03 4.03 0 0 0 2.971-2.971c.116-.461.123-1.316.014-1.78-.49-2.102-2.51-3.454-4.595-3.077m1.098 1.981C13.31 10.232 14 11.08 14 12c0 1.08-.92 2-2 2s-2-.92-2-2c0-.898.657-1.731 1.534-1.943.263-.064.604-.069.874-.013" fill-rule="evenodd" fill="#000" stroke="none"/></svg>