<svg xmlns="http://www.w3.org/2000/svg" width="24" height="24" fill="none" stroke="currentColor" stroke-width="2" stroke-linecap="round" stroke-linejoin="round"><path d="M14.42 1.026a6.246 6.246 0 0 0-2.176.655c-1.613.834-2.748 2.339-3.132 4.155-.07.33-.084.578-.101 1.774L8.992 9H7.923c-1.231 0-1.346.021-1.624.299C5.997 9.601 6 9.573 6 12s-.003 2.399.299 2.701c.278.278.393.299 1.628.299H9v3.573c0 4.022-.015 3.814.299 4.128.302.302.274.299 2.701.299s2.399.003 2.701-.299c.314-.314.299-.106.299-4.128V15h1.073c1.181 0 1.307-.019 1.576-.241a.993.993 0 0 0 .225-.289C17.973 14.264 19 10.176 19 9.988c0-.23-.123-.513-.299-.689-.292-.293-.339-.299-2.128-.299H15V7h1.573c1.789 0 1.836-.006 2.128-.299C19.003 6.399 19 6.427 19 4s.003-2.399-.299-2.701c-.298-.298-.311-.3-2.358-.293a73.28 73.28 0 0 0-1.923.02M17 4v1h-1.098c-.647 0-1.185.018-1.31.044a2.062 2.062 0 0 0-1.548 1.548c-.028.135-.044.818-.044 1.883 0 1.898.004 1.932.299 2.226.289.289.354.299 1.992.299 1.133 0 1.434.011 1.419.05-.01.028-.124.477-.253 1l-.235.95h-1.184c-1.358 0-1.457.017-1.739.299-.314.314-.299.106-.299 4.128V21h-2v-3.573c0-4.022.015-3.814-.299-4.128-.278-.278-.393-.299-1.628-.299H8v-2h1.073c1.181 0 1.307-.019 1.576-.241.079-.065.186-.204.237-.309.094-.189.094-.198.116-2.13.022-1.928.023-1.942.126-2.322A4.05 4.05 0 0 1 13.24 3.41c.657-.333 1.091-.402 2.57-.406L17 3v1" fill-rule="evenodd" fill="#000" stroke="none"/></svg>