<svg xmlns="http://www.w3.org/2000/svg" width="24" height="24" fill="none" stroke="currentColor" stroke-width="2" stroke-linecap="round" stroke-linejoin="round"><path d="M1.643 4.067a1.145 1.145 0 0 0-.343.231C.975 4.623 1 3.975 1 12s-.025 7.377.3 7.702a.99.99 0 0 0 1.126.194c.224-.112 9.305-7.186 9.39-7.315.039-.06.095-.174.125-.255.045-.124.054.372.056 3.337.003 3.92-.011 3.725.302 4.038a.978.978 0 0 0 1.025.238c.126-.043 1.536-1.117 4.816-3.67 5.205-4.05 4.84-3.729 4.84-4.269s.365-.219-4.84-4.269c-3.28-2.553-4.69-3.627-4.816-3.67a.978.978 0 0 0-1.025.238c-.313.313-.299.118-.302 4.038-.002 2.965-.011 3.461-.056 3.337a1.553 1.553 0 0 0-.125-.255c-.086-.13-9.167-7.204-9.394-7.317a1.126 1.126 0 0 0-.779-.035M6.216 9.54c1.727 1.342 3.141 2.449 3.141 2.46 0 .024-6.264 4.894-6.319 4.913C3.014 16.922 3 15.071 3 12s.014-4.922.038-4.913A311.97 311.97 0 0 1 6.216 9.54m11 0c1.727 1.342 3.141 2.449 3.141 2.46 0 .024-6.264 4.894-6.319 4.913C14.014 16.922 14 15.071 14 12s.014-4.922.038-4.913a311.97 311.97 0 0 1 3.178 2.453" fill="#000" fill-rule="evenodd" stroke="none"/></svg>