<svg xmlns="http://www.w3.org/2000/svg" width="24" height="24" fill="none" stroke="currentColor" stroke-width="2" stroke-linecap="round" stroke-linejoin="round"><path d="M15.1 1.046a7.921 7.921 0 0 0-2.239.684c-.318.16-.809.466-1.113.696-.359.269-7.535 7.441-7.641 7.634l-.087.16-.011 4.18-.01 4.179-1.434 1.441c-1.275 1.281-1.441 1.462-1.5 1.637-.129.389-.044.766.234 1.044s.655.363 1.044.234c.175-.059.356-.225 1.637-1.5l1.441-1.434 4.179-.01 4.18-.011.16-.087c.223-.121 7.299-7.221 7.609-7.634 1.481-1.974 1.852-4.515.986-6.756a7.004 7.004 0 0 0-5.607-4.444C16.46.996 15.542.99 15.1 1.046m1.687 2.014c1.577.256 2.969 1.274 3.672 2.687.378.758.519 1.371.519 2.253 0 .865-.143 1.489-.508 2.22-.317.634-.514.867-1.987 2.35L17.064 14H11.421l2.725-2.73c2.477-2.482 2.73-2.748 2.789-2.927.129-.39.044-.766-.234-1.044s-.654-.362-1.044-.234c-.181.059-.583.45-4.927 4.789L6 16.579v-5.681l3.35-3.343c1.843-1.838 3.458-3.423 3.59-3.521.695-.52 1.526-.873 2.326-.99a6.456 6.456 0 0 1 1.521.016m-1.928 13.15c-.109.115-.549.566-.978 1l-.78.79h-5.68l.999-1 .999-1h5.638l-.198.21" fill-rule="evenodd" fill="#000" stroke="none"/></svg>