<svg xmlns="http://www.w3.org/2000/svg" width="24" height="24" fill="none" stroke="currentColor" stroke-width="2" stroke-linecap="round" stroke-linejoin="round"><path d="M7.86 1.044a4.6 4.6 0 0 0-2.535 1.281 4.476 4.476 0 0 0-.002 6.346l.329.327-.328.328a4.476 4.476 0 0 0-.001 6.345l.329.327-.328.328a4.468 4.468 0 0 0-1.311 3.414 4.497 4.497 0 0 0 4.247 4.247 4.508 4.508 0 0 0 4.697-3.884c.025-.182.043-1.039.043-2.083v-1.775l.27.158a4.514 4.514 0 0 0 1.99.583c2.325.13 4.375-1.564 4.697-3.883a4.505 4.505 0 0 0-1.279-3.778l-.325-.327.325-.326a4.495 4.495 0 0 0 1.279-3.775 4.525 4.525 0 0 0-3.854-3.854c-.375-.052-7.88-.051-8.243.001M11 5.5V8l-1.37-.001c-1.568 0-1.735-.021-2.268-.284-.812-.4-1.361-1.294-1.361-2.215 0-.921.549-1.814 1.361-2.215.528-.261.667-.278 2.248-.282L11 3v2.5m5.02-2.44a2.502 2.502 0 0 1 1.695 1.302c.374.76.375 1.514.003 2.271a2.454 2.454 0 0 1-1.085 1.085c-.527.259-.698.281-2.263.281L13 8V3l1.37.001c1.047 0 1.436.014 1.65.059M11 12.5V15l-1.37-.001c-1.568 0-1.735-.021-2.268-.284-.812-.4-1.361-1.294-1.361-2.215 0-.921.549-1.814 1.361-2.215.528-.261.667-.278 2.248-.282L11 10v2.5m5.02-2.44c1.335.279 2.202 1.615 1.92 2.96a2.528 2.528 0 0 1-1.307 1.698c-.757.372-1.511.371-2.271-.003a2.502 2.502 0 0 1-1.302-1.695 2.5 2.5 0 0 1 2.96-2.96m-5.021 8.31c0 1.565-.022 1.736-.281 2.263-.401.812-1.299 1.366-2.218 1.366-.921 0-1.815-.549-2.215-1.361-.375-.762-.375-1.514 0-2.276.23-.465.611-.847 1.077-1.077.528-.261.667-.278 2.248-.282L11 17l-.001 1.37" fill-rule="evenodd" fill="#000" stroke="none"/></svg>