<svg xmlns="http://www.w3.org/2000/svg" width="24" height="24" fill="none" stroke="currentColor" stroke-width="2" stroke-linecap="round" stroke-linejoin="round"><path d="M8.24 1.027c-.932.155-1.816.933-2.127 1.873l-.093.28v13.64l.093.28a2.877 2.877 0 0 0 1.788 1.787l.279.093h10.68l.26-.093c.824-.294 1.499-.975 1.767-1.787l.093-.28v-5.3c0-5.075-.003-5.306-.074-5.44-.04-.077-1.183-1.251-2.54-2.61L15.9 1l-3.78.005c-2.079.003-3.825.013-3.88.022M14 5.073c0 2.346-.002 2.327.299 2.628.301.301.282.299 2.628.299H19v4.243c0 3.057-.013 4.267-.045 4.33-.066.129-.24.306-.363.371-.162.084-10.022.084-10.184 0a1.066 1.066 0 0 1-.363-.371C8.012 16.509 8 14.716 8 10.001c0-5.504.009-6.501.056-6.593.062-.117.237-.291.364-.361.056-.031.902-.045 2.83-.046L14 3v2.073m3.06-.113L18.099 6H16V4.96c0-.572.005-1.04.01-1.04.006 0 .478.468 1.05 1.04M2.643 6.669a1.126 1.126 0 0 0-.344.23c-.325.325-.302-.267-.29 7.263l.011 6.698.093.26a2.953 2.953 0 0 0 1.767 1.767l.26.093 5.197.011c5.849.012 5.442.033 5.763-.289a.984.984 0 0 0 .001-1.403c-.32-.32.066-.299-5.57-.299-4.239 0-5.032-.009-5.123-.056a1.066 1.066 0 0 1-.363-.371C4.012 20.509 4 18.708 4 13.97c0-7.317.024-6.748-.299-7.071a.998.998 0 0 0-1.058-.23" fill-rule="evenodd" fill="#000" stroke="none"/></svg>