<svg xmlns="http://www.w3.org/2000/svg" width="24" height="24" fill="none" stroke="currentColor" stroke-width="2" stroke-linecap="round" stroke-linejoin="round"><path d="M5.62 1.025c-.408.08-.533.114-.75.202-.881.358-1.549 1.137-1.794 2.093-.083.327-.084 17.03 0 17.357.281 1.096 1.044 1.878 2.184 2.238.178.056.9.064 6.56.075 4.306.008 6.448-.001 6.633-.03a3.027 3.027 0 0 0 2.314-1.82c.224-.532.213-.142.213-7.3 0-6.358-.003-6.626-.074-6.76-.04-.077-1.408-1.476-3.04-3.11L14.9 1l-4.6.005c-2.53.002-4.636.011-4.68.02M13 5.573c0 2.904-.008 2.821.299 3.128.307.307.224.299 3.128.299H19v5.573c0 6.261.022 5.807-.299 6.128-.322.322.202.299-6.701.299-6.905 0-6.379.024-6.702-.3-.325-.325-.3.449-.288-8.781L5.02 3.7l.111-.189c.125-.213.318-.375.539-.454.121-.043.846-.054 3.74-.055L13 3v2.573m3.56-.113L18.1 7H15V5.46c0-.847.005-1.54.01-1.54.006 0 .703.693 1.55 1.54m-7.513 6.164c-.342.17-.528.483-.526.885.001.401.073.5 1.11 1.541l.946.949-.963.971c-1.082 1.091-1.117 1.141-1.087 1.604.032.509.39.867.899.899.464.03.513-.004 1.604-1.087l.97-.964.95.947c1.046 1.043 1.139 1.109 1.55 1.11.574.001.981-.41.979-.988-.001-.401-.073-.5-1.11-1.541l-.947-.95.947-.95c1.037-1.041 1.109-1.14 1.11-1.541.002-.578-.405-.989-.979-.988-.411.001-.504.067-1.55 1.111l-.951.947-.949-.948c-.684-.682-1-.97-1.13-1.028a1.06 1.06 0 0 0-.873.021" fill-rule="evenodd" fill="#000" stroke="none"/></svg>