<svg xmlns="http://www.w3.org/2000/svg" width="24" height="24" fill="none" stroke="currentColor" stroke-width="2" stroke-linecap="round" stroke-linejoin="round"><path d="m5.62 1.025-.29.058c-.872.177-1.738.898-2.08 1.732-.233.566-.224.461-.24 2.978-.016 2.649-.021 2.598.288 2.907.48.48 1.292.352 1.588-.25l.094-.19L5 5.98l.02-2.28.111-.189c.125-.213.318-.375.539-.454.121-.043.846-.054 3.74-.055L13 3v2.573c0 2.904-.008 2.821.299 3.128.307.307.224.299 3.128.299H19v5.573c0 6.261.022 5.807-.299 6.128-.324.324.322.299-7.701.299s-7.377-.025-7.701.299a.984.984 0 0 0 0 1.402c.324.324-.327.299 7.738.299 4.745-.001 7.269-.015 7.437-.042a3.017 3.017 0 0 0 2.293-1.818c.224-.532.213-.142.213-7.3 0-6.358-.003-6.626-.074-6.76-.102-.193-5.766-5.863-5.966-5.973l-.16-.087-4.54-.006c-2.497-.003-4.576.002-4.62.011M16.56 5.46 18.1 7H15V5.46c0-.847.005-1.54.01-1.54.006 0 .703.693 1.55 1.54M2.643 14.069C2.291 14.193 2 14.614 2 15c0 .242.119.521.299.701.311.312.157.299 3.701.299s3.39.013 3.701-.299a.984.984 0 0 0 0-1.402c-.312-.312-.154-.299-3.718-.296-2.757.003-3.186.011-3.34.066" fill-rule="evenodd" fill="#000" stroke="none"/></svg>