<svg xmlns="http://www.w3.org/2000/svg" width="24" height="24" fill="none" stroke="currentColor" stroke-width="2" stroke-linecap="round" stroke-linejoin="round"><path d="m5.62 1.025-.29.058c-.872.177-1.738.898-2.08 1.732-.227.553-.223.512-.24 2.477-.017 2.09-.016 2.105.288 2.408.48.48 1.292.352 1.588-.25.093-.188.094-.204.114-1.97l.02-1.78.111-.189c.125-.213.318-.375.539-.454.121-.043.846-.054 3.74-.055L13 3v2.573c0 2.904-.008 2.821.299 3.128.307.307.224.299 3.128.299H19v5.573c0 6.261.022 5.807-.299 6.128-.324.324.322.299-7.701.299s-7.377-.025-7.701.299a.984.984 0 0 0 0 1.402c.324.324-.327.299 7.738.299 4.745-.001 7.269-.015 7.437-.042a3.017 3.017 0 0 0 2.293-1.818c.224-.532.213-.142.213-7.3 0-6.358-.003-6.626-.074-6.76-.102-.193-5.766-5.863-5.966-5.973l-.16-.087-4.54-.006c-2.497-.003-4.576.002-4.62.011M16.56 5.46 18.1 7H15V5.46c0-.847.005-1.54.01-1.54.006 0 .703.693 1.55 1.54M4.31 10.063a3.918 3.918 0 0 0-2.131 1.116C.707 12.65.605 14.953 1.94 16.571c1.149 1.393 3.227 1.827 4.83 1.01l.25-.127.72.707c.763.749.898.839 1.26.839.527 0 1-.473 1-1 0-.362-.09-.497-.839-1.26l-.707-.72.127-.25c.501-.982.546-2.243.117-3.29-.704-1.72-2.568-2.746-4.388-2.417m1.098 1.981C6.31 12.232 7 13.08 7 14c0 1.08-.92 2-2 2s-2-.92-2-2c0-.898.657-1.731 1.534-1.943.263-.064.604-.069.874-.013" fill-rule="evenodd" fill="#000" stroke="none"/></svg>