<svg xmlns="http://www.w3.org/2000/svg" width="24" height="24" fill="none" stroke="currentColor" stroke-width="2" stroke-linecap="round" stroke-linejoin="round"><path d="m5.62 1.025-.29.058c-.872.177-1.738.898-2.08 1.732-.233.566-.224.461-.24 2.978-.016 2.649-.021 2.598.288 2.907.48.48 1.292.352 1.588-.25l.094-.19L5 5.98l.02-2.28.111-.189c.125-.213.318-.375.539-.454.121-.043.846-.054 3.74-.055L13 3v2.573c0 2.904-.008 2.821.299 3.128.307.307.224.299 3.128.299H19v5.573c0 6.261.022 5.807-.299 6.128-.324.324.322.299-7.701.299s-7.377-.025-7.701.299a.984.984 0 0 0 0 1.402c.324.324-.327.299 7.738.299 4.745-.001 7.269-.015 7.437-.042a3.017 3.017 0 0 0 2.293-1.818c.224-.532.213-.142.213-7.3 0-6.358-.003-6.626-.074-6.76-.102-.193-5.766-5.863-5.966-5.973l-.16-.087-4.54-.006c-2.497-.003-4.576.002-4.62.011M16.56 5.46 18.1 7H15V5.46c0-.847.005-1.54.01-1.54.006 0 .703.693 1.55 1.54M4.64 11.068c-.152.052-.433.313-1.814 1.687C1.041 14.53 1.001 14.579 1.001 15c0 .421.04.47 1.825 2.245 1.46 1.451 1.655 1.631 1.831 1.69.389.129.766.044 1.044-.234.279-.279.363-.656.233-1.044-.056-.167-.177-.309-.788-.927L4.425 16h3.86c4.344 0 4.101.016 4.416-.299a.984.984 0 0 0 0-1.402c-.315-.315-.072-.299-4.416-.299h-3.86l.721-.73C5.912 12.496 6 12.364 6 12c0-.686-.694-1.161-1.36-.932" fill-rule="evenodd" fill="#000" stroke="none"/></svg>