<svg xmlns="http://www.w3.org/2000/svg" width="24" height="24" fill="none" stroke="currentColor" stroke-width="2" stroke-linecap="round" stroke-linejoin="round"><path d="m5.62 1.025-.29.058c-.872.177-1.738.898-2.08 1.732-.233.566-.224.461-.24 2.978-.016 2.649-.021 2.598.288 2.907.48.48 1.292.352 1.588-.25l.094-.19L5 5.98l.02-2.28.111-.189c.125-.213.318-.375.539-.454.121-.043.846-.054 3.74-.055L13 3v2.573c0 2.904-.008 2.821.299 3.128.307.307.224.299 3.128.299H19v5.573c0 6.261.022 5.807-.299 6.128-.324.324.322.299-7.701.299s-7.377-.025-7.701.299a.984.984 0 0 0 0 1.402c.324.324-.327.299 7.738.299 4.745-.001 7.269-.015 7.437-.042a3.017 3.017 0 0 0 2.293-1.818c.224-.532.213-.142.213-7.3 0-6.358-.003-6.626-.074-6.76-.102-.193-5.766-5.863-5.966-5.973l-.16-.087-4.54-.006c-2.497-.003-4.576.002-4.62.011M16.56 5.46 18.1 7H15V5.46c0-.847.005-1.54.01-1.54.006 0 .703.693 1.55 1.54M1.643 11.069a1.118 1.118 0 0 0-.343.229c-.313.313-.3.157-.3 3.702 0 3.544-.013 3.39.299 3.701.302.302.274.299 2.701.299s2.399.003 2.701-.299C7.013 18.39 7 18.544 7 15s.013-3.39-.299-3.701c-.303-.303-.271-.299-2.718-.296-1.851.003-2.188.012-2.34.066m8 0C9.291 11.193 9 11.614 9 12c0 .242.119.521.299.701.247.247.442.299 1.128.299H11v4h-.573c-.686 0-.881.052-1.128.299a.984.984 0 0 0 0 1.402c.302.302.274.299 2.701.299s2.399.003 2.701-.299a.984.984 0 0 0 0-1.402c-.247-.247-.442-.299-1.128-.299H13v-2.573c0-2.904.008-2.821-.299-3.128-.282-.282-.383-.299-1.718-.296-.945.003-1.196.015-1.34.066M5 15v2H3v-4h2v2" fill-rule="evenodd" fill="#000" stroke="none"/></svg>