<svg xmlns="http://www.w3.org/2000/svg" width="24" height="24" fill="none" stroke="currentColor" stroke-width="2" stroke-linecap="round" stroke-linejoin="round"><path d="m5.62 1.025-.29.058c-.872.177-1.738.898-2.08 1.732-.233.566-.224.461-.24 2.978-.016 2.649-.021 2.598.288 2.907.48.48 1.292.352 1.588-.25l.094-.19L5 5.98l.02-2.28.111-.189c.125-.213.318-.375.539-.454.121-.043.846-.054 3.74-.055L13 3v2.573c0 2.904-.008 2.821.299 3.128.307.307.224.299 3.128.299H19v5.573c0 6.261.022 5.807-.299 6.128-.324.324.322.299-7.701.299s-7.377-.025-7.701.299a.984.984 0 0 0 0 1.402c.324.324-.327.299 7.738.299 4.745-.001 7.269-.015 7.437-.042a3.017 3.017 0 0 0 2.293-1.818c.224-.532.213-.142.213-7.3 0-6.358-.003-6.626-.074-6.76-.102-.193-5.766-5.863-5.966-5.973l-.16-.087-4.54-.006c-2.497-.003-4.576.002-4.62.011M16.56 5.46 18.1 7H15V5.46c0-.847.005-1.54.01-1.54.006 0 .703.693 1.55 1.54M4.64 11.068c-.152.053-.431.312-1.811 1.687-1.145 1.14-1.657 1.677-1.717 1.801-.118.245-.136.51-.052.77.065.199.181.326 1.695 1.845 1.14 1.145 1.677 1.657 1.801 1.717a.99.99 0 0 0 1.144-.186c.28-.279.364-.656.234-1.045-.057-.174-.21-.342-1.288-1.427L3.423 15l1.223-1.23c1.078-1.085 1.231-1.253 1.288-1.427.13-.389.045-.766-.233-1.044a1.005 1.005 0 0 0-1.061-.231m4.003.001C8.291 11.193 8 11.614 8 12c0 .08.03.234.066.343.057.174.21.342 1.288 1.427L10.577 15l-1.223 1.23c-1.078 1.085-1.231 1.253-1.288 1.427-.13.389-.046.766.234 1.045a.99.99 0 0 0 1.144.186c.124-.06.661-.572 1.801-1.717 1.514-1.519 1.63-1.646 1.695-1.845.084-.26.066-.525-.052-.77-.06-.124-.572-.66-1.717-1.801-1.459-1.453-1.652-1.631-1.828-1.69a1.032 1.032 0 0 0-.7.004" fill-rule="evenodd" fill="#000" stroke="none"/></svg>