<svg xmlns="http://www.w3.org/2000/svg" width="24" height="24" fill="none" stroke="currentColor" stroke-width="2" stroke-linecap="round" stroke-linejoin="round"><path d="M1.643 2.069C1.291 2.193 1 2.614 1 3c0 .372-.061.294 4.062 5.167l3.936 4.653.001 3.163c.001 3.563-.011 3.409.299 3.714.244.24 4.315 2.264 4.61 2.293a.994.994 0 0 0 .792-.288c.318-.318.3-.036.301-4.719l.001-4.163 3.936-4.653C23.06 3.295 23 3.371 23 3c0-.396-.291-.808-.66-.934-.179-.061-.997-.066-10.357-.063-9.098.003-10.182.01-10.34.066M19.447 4.47c-4.449 5.252-6.269 7.419-6.34 7.55l-.087.16-.011 3.59c-.006 1.975-.019 3.59-.03 3.59-.01 0-.459-.22-.998-.489l-.979-.489-.011-3.101c-.011-3.099-.011-3.101-.098-3.261-.072-.132-1.705-2.077-6.34-7.55L4.155 4h15.69l-.398.47" fill="#000" fill-rule="evenodd" stroke="none"/></svg>