<svg xmlns="http://www.w3.org/2000/svg" width="24" height="24" fill="none" stroke="currentColor" stroke-width="2" stroke-linecap="round" stroke-linejoin="round"><path d="M16.68 1.058c-.077.028-2.417 1.19-5.2 2.581-4.095 2.048-5.088 2.559-5.205 2.682a.985.985 0 0 0 .023 1.376c.135.132 1.07.614 4.934 2.543L16 12.62v4.763c0 5.354-.02 4.999.299 5.318a.984.984 0 0 0 1.402 0c.327-.327.299.684.299-10.701s.028-10.374-.299-10.701c-.267-.267-.685-.366-1.021-.241M16 7c0 1.848-.009 3.36-.02 3.36-.039 0-6.7-3.34-6.7-3.36 0-.022 6.639-3.354 6.69-3.358.017-.001.03 1.51.03 3.358" fill-rule="evenodd" fill="#000" stroke="none"/></svg>