<svg xmlns="http://www.w3.org/2000/svg" width="24" height="24" fill="none" stroke="currentColor" stroke-width="2" stroke-linecap="round" stroke-linejoin="round"><path d="M6.643 1.067a1.082 1.082 0 0 0-.577.593C6.005 1.839 6 2.661 6 12c0 11.385-.028 10.374.299 10.701a.984.984 0 0 0 1.402 0c.319-.319.299.036.299-5.318V12.62l4.768-2.38c3.864-1.929 4.799-2.411 4.934-2.543a.977.977 0 0 0 0-1.394c-.135-.132-1.128-.643-5.289-2.72-4.825-2.408-5.137-2.558-5.358-2.569a1.13 1.13 0 0 0-.412.053M11.38 5.31c1.837.918 3.34 1.679 3.34 1.69 0 .02-6.661 3.36-6.7 3.36C8.009 10.36 8 8.848 8 7c0-1.848.009-3.36.02-3.36.011 0 1.523.751 3.36 1.67" fill-rule="evenodd" fill="#000" stroke="none"/></svg>