<svg xmlns="http://www.w3.org/2000/svg" width="24" height="24" fill="none" stroke="currentColor" stroke-width="2" stroke-linecap="round" stroke-linejoin="round"><path d="M7.12 1.027c-1.906.139-3.651.801-4.005 1.519l-.095.194-.01 9.699c-.012 10.887-.038 9.935.288 10.261a.984.984 0 0 0 1.403.001c.313-.312.299-.137.299-3.865v-3.309l.27-.102c.777-.293 1.481-.4 2.63-.401.718 0 .901.013 1.26.089.63.134 1.219.328 2.5.826 1.63.633 2.189.806 3.12.968.557.096 2.08.096 2.779-.001 1.63-.226 3.021-.834 3.326-1.452l.095-.194.01-6.199c.012-6.967.035-6.439-.288-6.761-.379-.379-.9-.394-1.383-.039-.576.423-1.568.669-2.919.725-1.287.053-1.981-.111-4.26-1.004-1.509-.592-2.371-.834-3.348-.94a13 13 0 0 0-1.672-.015m2.045 2.089c.596.119 1.16.305 2.495.823 1.649.64 2.215.815 3.12.967.593.099 2.059.099 2.775 0a12.743 12.743 0 0 0 1.405-.287c.053-.016.059.546.05 4.919l-.011 4.936-.309.119c-.706.269-1.493.385-2.61.384-.695-.001-.883-.015-1.231-.09-.655-.142-1.268-.342-2.364-.774-1.811-.712-2.68-.962-3.745-1.076-.531-.057-1.638-.027-2.32.062-.429.057-1.164.21-1.35.282-.066.026-.07-.224-.07-4.913V3.527l.273-.104a6.84 6.84 0 0 1 1.447-.34l.52-.059c.379-.044 1.516.011 1.925.092" fill-rule="evenodd" fill="#000" stroke="none"/></svg>