<svg xmlns="http://www.w3.org/2000/svg" width="24" height="24" fill="none" stroke="currentColor" stroke-width="2" stroke-linecap="round" stroke-linejoin="round"><path d="M11.648 2.067c-.114.041-.328.203-.635.484C9.687 3.761 8.89 5.024 8.62 6.34a4.638 4.638 0 0 0-.065.84c0 .938.162 1.486.822 2.792.488.966.576 1.227.612 1.809.044.725-.238 1.252-.84 1.569-.191.101-.246.11-.649.11-.425 0-.448-.005-.693-.137-.475-.258-.743-.678-.802-1.258-.057-.562-.267-.866-.698-1.009-.406-.135-.839.008-1.124.371-.723.921-1.182 2.321-1.183 3.605 0 1.48.488 3.102 1.309 4.348a8.052 8.052 0 0 0 5.908 3.577 8.053 8.053 0 0 0 5.703-1.651c1.461-1.142 2.527-2.851 2.9-4.651.48-2.312-.042-4.423-1.558-6.315-.418-.521-.908-1.007-1.69-1.674-.941-.804-1.466-1.384-2.07-2.286-.684-1.022-1.127-2.02-1.445-3.256-.076-.295-.175-.596-.221-.671-.232-.376-.746-.542-1.188-.386m.033 3.27A12.989 12.989 0 0 0 13.42 8.3c.642.803 1.055 1.213 2.231 2.219 1.631 1.396 2.43 3.031 2.336 4.786a5.93 5.93 0 0 1-.671 2.454c-.853 1.647-2.394 2.786-4.256 3.148-.514.099-1.582.099-2.12-.002a6.035 6.035 0 0 1-4.824-4.741c-.088-.44-.147-1.475-.09-1.578.033-.059.074-.039.316.156.352.283.901.552 1.338.656a4.064 4.064 0 0 0 1.633.002 3.546 3.546 0 0 0 2.576-2.528c.076-.279.09-.431.089-.952-.001-1.026-.145-1.54-.776-2.777-.478-.935-.588-1.226-.639-1.679-.065-.577.045-1.07.377-1.694.165-.31.539-.864.566-.837.006.006.085.188.175.404" fill-rule="evenodd" fill="#000" stroke="none"/></svg>