<svg xmlns="http://www.w3.org/2000/svg" width="24" height="24" fill="none" stroke="currentColor" stroke-width="2" stroke-linecap="round" stroke-linejoin="round"><path d="M1.643 1.069C1.291 1.193 1 1.614 1 2c0 .08.029.234.065.343.059.177.261.394 2.015 2.157l1.95 1.96.048.26c.121.645.449 1.188 1.182 1.957.284.298.546.613.609.733l.111.21.022 5.46c.019 4.842.028 5.483.085 5.66.359 1.131 1.058 1.829 2.173 2.173.168.052.574.065 2.556.077 1.552.009 2.451-.001 2.634-.029 1.176-.182 2.104-1.019 2.461-2.221.044-.146.065-.483.078-1.255l.019-1.055 2.226 2.22c2.013 2.007 2.245 2.226 2.423 2.285.39.129.766.044 1.045-.235a.986.986 0 0 0 .185-1.144c-.063-.13-2.761-2.85-10.216-10.301C3.299 1.888 2.525 1.125 2.343 1.065a1.038 1.038 0 0 0-.7.004m5 0C6.291 1.193 6 1.614 6 2c0 .242.119.521.299.701.32.32-.073.299 5.628.299H17v2h-3.073c-3.463 0-3.317-.012-3.628.299a.984.984 0 0 0 0 1.402c.309.309.191.299 3.412.299h2.857l-.402.421C15.235 8.397 15 9.005 15 10.438c0 .833.041 1.005.299 1.263.479.479 1.291.35 1.587-.251.087-.175.096-.256.116-1.01.021-.794.025-.827.13-1.03.064-.123.317-.427.608-.733.555-.582.827-.96 1.013-1.405.231-.556.247-.764.247-3.21 0-2.497.004-2.46-.299-2.763-.321-.322.145-.299-6.218-.296-5.022.003-5.683.01-5.84.066M15 18.283c0 2.112-.001 2.12-.299 2.418-.302.302-.274.299-2.701.299s-2.399.003-2.701-.299C8.98 20.382 9 20.749 9 15.283V10.42l3 3 3 3v1.863" fill-rule="evenodd" fill="#000" stroke="none"/></svg>