<svg xmlns="http://www.w3.org/2000/svg" width="24" height="24" fill="none" stroke="currentColor" stroke-width="2" stroke-linecap="round" stroke-linejoin="round"><path d="M5.643 1.069a1.118 1.118 0 0 0-.343.229c-.304.304-.3.267-.3 2.764 0 2.446.016 2.654.247 3.21.186.445.458.823 1.013 1.405.284.298.546.613.609.733l.111.21.022 5.46c.019 4.842.028 5.483.085 5.66.359 1.131 1.058 1.829 2.173 2.173.168.052.574.065 2.556.077 1.552.009 2.451-.001 2.634-.029a3.035 3.035 0 0 0 2.309-1.801c.232-.549.216-.152.239-6.08l.022-5.46.111-.21c.063-.12.325-.435.609-.733.555-.582.827-.96 1.013-1.405.231-.556.247-.764.247-3.21 0-2.497.004-2.46-.299-2.763-.323-.323.205-.299-6.718-.296-5.475.003-6.183.01-6.34.066M17 4v1H7V3h10v1m-.834 3.421c-.463.486-.741.881-.919 1.307-.252.608-.247.471-.247 6.21 0 5.852.021 5.443-.299 5.763-.302.302-.274.299-2.701.299s-2.399.003-2.701-.299c-.32-.32-.299.089-.299-5.763 0-5.739.005-5.602-.247-6.21-.178-.426-.456-.821-.919-1.307L7.432 7h9.136l-.402.421m-4.523 3.648c-.352.124-.643.545-.643.931 0 .527.473 1 1 1 .242 0 .521-.119.701-.299.753-.753-.048-1.989-1.058-1.632" fill-rule="evenodd" fill="#000" stroke="none"/></svg>