<svg xmlns="http://www.w3.org/2000/svg" width="24" height="24" fill="none" stroke="currentColor" stroke-width="2" stroke-linecap="round" stroke-linejoin="round"><path d="M8.24 1.037c-.29.089-.552.317-.658.572A1.256 1.256 0 0 0 7.52 2c0 .286.076.49.252.674.222.231.402.299.838.318l.39.017-.001 2.806V8.62l-.221.096a6.524 6.524 0 0 0-.581.308c-1.83 1.081-3.09 2.848-3.548 4.974-.102.473-.108.561-.107 1.522.002.972.007 1.042.113 1.494.603 2.574 2.25 4.515 4.634 5.462 1.385.55 3.082.647 4.597.264 1.373-.347 2.758-1.191 3.7-2.256.854-.964 1.403-2.037 1.744-3.404.123-.494.125-.513.127-1.54.002-.985-.003-1.067-.106-1.542-.498-2.311-1.94-4.187-4.023-5.234L15 8.599v-5.59l.39-.017c.436-.019.616-.087.838-.318.176-.184.252-.388.252-.674 0-.399-.181-.7-.54-.894l-.16-.086-3.72-.007c-2.046-.004-3.765.007-3.82.024M13 6.23c0 1.995.015 3.284.04 3.372.086.31.39.583.773.694.624.182 1.495.731 2.067 1.304.969.968 1.6 2.4 1.6 3.627v.293H6.52v-.31c0-.895.368-1.977.975-2.87.598-.88 1.694-1.718 2.65-2.024.36-.115.587-.274.724-.507l.111-.189.011-3.31.011-3.31H13v3.23m4.011 11.52a5.494 5.494 0 0 1-3.632 3.05 5.5 5.5 0 0 1-6.391-3.053l-.104-.227h10.232l-.105.23" fill-rule="evenodd" fill="#000" stroke="none"/></svg>