<svg xmlns="http://www.w3.org/2000/svg" width="24" height="24" fill="none" stroke="currentColor" stroke-width="2" stroke-linecap="round" stroke-linejoin="round"><path d="M8.24 1.037c-.29.089-.552.317-.658.572A1.256 1.256 0 0 0 7.52 2c0 .286.076.49.252.674.222.231.402.299.838.318l.39.017V9.76l-2.614 5.23c-1.438 2.877-2.643 5.32-2.677 5.43a1.979 1.979 0 0 0 .49 1.979c.264.264.696.498 1.036.561.295.055 13.235.055 13.53 0 .118-.022.347-.105.509-.184a1.978 1.978 0 0 0 1.017-2.356c-.034-.11-1.239-2.553-2.677-5.43L15 9.76V3.009l.39-.017c.436-.019.616-.087.838-.318.176-.184.252-.388.252-.674 0-.399-.181-.7-.54-.894l-.16-.086-3.72-.007c-2.046-.004-3.765.007-3.82.024m4.769 5.601.011 3.639 1.17 2.342c.643 1.288 1.17 2.351 1.17 2.362 0 .01-1.512.019-3.36.019-1.848 0-3.36-.009-3.36-.019 0-.011.526-1.074 1.17-2.362l1.17-2.342.011-3.639.01-3.638h1.998l.01 3.638M17.37 18.98c.545 1.089.99 1.989.99 2 0 .011-2.862.02-6.36.02s-6.36-.009-6.36-.02c0-.011.445-.911.99-2L7.62 17h8.76l.99 1.98" fill-rule="evenodd" fill="#000" stroke="none"/></svg>