<svg xmlns="http://www.w3.org/2000/svg" width="24" height="24" fill="none" stroke="currentColor" stroke-width="2" stroke-linecap="round" stroke-linejoin="round"><path d="M3.62 2.025c-.408.08-.533.114-.75.202-.879.357-1.549 1.14-1.794 2.096-.083.324-.083 15.03 0 15.354a3.075 3.075 0 0 0 2.247 2.247c.181.047 1.389.056 7.377.056h7.16l.32-.109c.176-.06.437-.177.58-.26.304-.176.898-.75 1.05-1.014.166-.289 3.16-8.311 3.181-8.523a.997.997 0 0 0-.289-.774c-.248-.248-.442-.3-1.127-.3h-.57l-.015-1.77c-.017-1.881-.015-1.857-.227-2.385-.367-.916-1.287-1.641-2.283-1.802C18.313 5.016 17.018 5 14.876 5h-3.343l-.897-1.346c-.493-.74-.951-1.387-1.019-1.439-.286-.218-.244-.215-3.192-.21-1.499.002-2.761.011-2.805.02m5.744 3.321c.493.74.951 1.387 1.019 1.439.291.222.163.215 4.115.215 4.106 0 3.889-.015 4.203.299.293.292.299.339.299 2.128V11h-5.573c-6.259 0-5.807-.022-6.127.298-.152.152-.246.368-1.219 2.799-.684 1.711-1.06 2.701-1.072 2.825-.057.593.479 1.126 1.074 1.069.25-.024.537-.173.684-.354.073-.09.438-.95 1.01-2.379l.895-2.238 5.944-.01 5.943-.01-.074.19c-.041.104-.592 1.576-1.226 3.27-.633 1.694-1.193 3.137-1.244 3.206a.996.996 0 0 1-.302.23l-.209.104h-6.825c-7.665 0-7.056.025-7.381-.3-.324-.324-.3.328-.288-7.782L3.02 4.7l.111-.189c.125-.213.318-.375.539-.454.119-.042.637-.054 2.474-.055L8.467 4l.897 1.346" fill-rule="evenodd" fill="#000" stroke="none"/></svg>