<svg xmlns="http://www.w3.org/2000/svg" width="24" height="24" fill="none" stroke="currentColor" stroke-width="2" stroke-linecap="round" stroke-linejoin="round"><path d="M3.62 2.025c-.408.08-.533.114-.75.202-.879.357-1.549 1.14-1.794 2.096-.083.324-.083 15.03 0 15.354.281 1.099 1.04 1.876 2.184 2.238.179.057 1.066.065 8.56.075 5.689.008 8.447-.001 8.633-.03 1.19-.182 2.167-1.084 2.471-2.28.083-.327.083-12.033 0-12.357-.307-1.197-1.264-2.09-2.444-2.28C20.31 5.015 18.716 5 15.876 5h-4.343l-.897-1.346c-.493-.74-.951-1.387-1.019-1.439-.286-.218-.244-.215-3.192-.21-1.499.002-2.761.011-2.805.02m5.744 3.321c.493.74.951 1.387 1.019 1.439.294.224.072.215 5.115.215 5.225 0 4.885-.02 5.203.299.321.321.299-.142.299 6.201s.022 5.88-.299 6.201c-.325.325.443.299-8.701.299-9.146 0-8.376.027-8.702-.3-.324-.324-.3.328-.288-7.782L3.02 4.7l.111-.189c.125-.213.318-.375.539-.454.119-.042.637-.054 2.474-.055L8.467 4l.897 1.346m-.721 7.723C8.291 13.193 8 13.614 8 14c0 .242.119.521.299.701.311.312.157.299 3.701.299s3.39.013 3.701-.299a.984.984 0 0 0 0-1.402c-.312-.312-.154-.299-3.718-.296-2.757.003-3.186.011-3.34.066" fill-rule="evenodd" fill="#000" stroke="none"/></svg>