<svg xmlns="http://www.w3.org/2000/svg" width="24" height="24" fill="none" stroke="currentColor" stroke-width="2" stroke-linecap="round" stroke-linejoin="round"><path d="M14.643 6.069C14.291 6.193 14 6.614 14 7c0 .08.029.234.065.343.059.177.244.376 1.788 1.926l1.723 1.729-5.138.013c-4.762.012-5.16.018-5.438.084-1.05.249-1.8.66-2.522 1.383-.727.727-1.144 1.489-1.38 2.522-.056.242-.072.57-.087 1.709-.021 1.62-.01 1.694.287 1.991a.984.984 0 0 0 1.403.001c.283-.283.299-.378.299-1.77 0-.95.014-1.281.063-1.523a3 3 0 0 1 2.345-2.344c.272-.056.891-.064 5.239-.064h4.931l-1.724 1.73c-1.545 1.551-1.73 1.75-1.789 1.927-.129.389-.044.766.234 1.044s.654.363 1.044.234c.179-.059.44-.307 2.831-2.69 2.864-2.854 2.825-2.809 2.825-3.245 0-.436.039-.391-2.825-3.245-2.391-2.383-2.652-2.631-2.831-2.69a1.032 1.032 0 0 0-.7.004" fill-rule="evenodd" fill="#000" stroke="none"/></svg>