<svg xmlns="http://www.w3.org/2000/svg" width="24" height="24" fill="none" stroke="currentColor" stroke-width="2" stroke-linecap="round" stroke-linejoin="round"><path d="M4.643 1.069C4.291 1.193 4 1.614 4 2c0 .08.029.234.065.343.059.179.312.445 2.789 2.927L9.579 8H7.216c-2.669 0-2.612-.006-2.917.299C3.985 8.613 4 8.396 4 12.5c0 3.256.007 3.667.065 3.843.059.18.374.507 3.69 3.828 2.625 2.629 3.674 3.655 3.801 3.716a.986.986 0 0 0 1.144-.185c.312-.312.3-.165.3-3.629V17h3.073c3.463 0 3.317.012 3.628-.299.278-.278.363-.654.234-1.044-.059-.179-.312-.445-2.789-2.927L14.421 10h2.363c2.669 0 2.612.006 2.917-.299.314-.314.299-.097.299-4.201 0-4.104.015-3.887-.299-4.201-.324-.324.325-.299-7.718-.296-6.381.003-7.182.01-7.34.066M18 5.5V8h-5.58l-2.5-2.5L7.42 3H18v2.5m-3.92 7 2.5 2.5H6v-5h5.58l2.5 2.5M11 18.78c0 .979-.005 1.78-.01 1.78-.006 0-.811-.801-1.79-1.78L7.42 17H11v1.78" fill-rule="evenodd" fill="#000" stroke="none"/></svg>