<svg width="24" height="24" xmlns="http://www.w3.org/2000/svg" fill="none" stroke="currentColor" stroke-width="2" stroke-linecap="round" stroke-linejoin="round"><path d="M11.16 1.025c-1.859.175-3.545.734-5.012 1.662a11.748 11.748 0 0 0-3.461 3.461C1.869 7.442 1.33 8.925 1.093 10.54c-.052.356-.07.733-.07 1.46s.018 1.104.07 1.46c.366 2.489 1.384 4.537 3.126 6.282.686.689 1.053.991 1.781 1.469 1.357.891 2.852 1.449 4.54 1.695.671.098 2.249.098 2.92 0 1.945-.283 3.631-.98 5.177-2.136.533-.4 1.615-1.46 2.009-1.97a11.152 11.152 0 0 0 2.26-5.34c.052-.355.07-.736.07-1.46s-.018-1.105-.07-1.46c-.292-2-1.028-3.742-2.259-5.34-.388-.503-1.474-1.567-2.01-1.969A10.98 10.98 0 0 0 13.6 1.118c-.525-.079-1.991-.135-2.44-.093m1.703 2.018a9.005 9.005 0 0 1 7.22 5.017c2.183 4.452.329 9.831-4.143 12.023-4.45 2.182-9.836.326-12.023-4.143a8.973 8.973 0 0 1 1.07-9.571 9.028 9.028 0 0 1 7.876-3.326m-4.22 5.023C8.288 8.197 8 8.615 8 9c0 .729.814 1.222 1.465.887.711-.365.708-1.41-.004-1.776-.211-.109-.588-.129-.818-.045m6 0C14.288 8.197 14 8.615 14 9c0 .729.814 1.222 1.465.887.711-.365.708-1.41-.004-1.776-.211-.109-.588-.129-.818-.045m-3.355 4.978c-1.337.181-2.652.861-3.674 1.901-.435.443-.576.67-.605.977C6.956 16.477 7.437 17 8 17c.327 0 .499-.103.993-.597.696-.698 1.305-1.069 2.12-1.292.439-.12 1.335-.12 1.774 0 .815.223 1.424.594 2.12 1.292.494.494.666.597.993.597.527 0 1-.473 1-1 0-.378-.315-.834-.968-1.4-.898-.779-1.919-1.29-2.992-1.499-.412-.081-1.351-.111-1.752-.057" fill-rule="evenodd" fill="#000" stroke="none"/></svg>