<svg xmlns="http://www.w3.org/2000/svg" width="24" height="24" fill="none" stroke="currentColor" stroke-width="2" stroke-linecap="round" stroke-linejoin="round"><path d="M4.62 2.025c-.408.08-.533.114-.75.202-.881.358-1.549 1.137-1.794 2.093-.083.327-.084 15.031 0 15.357.281 1.099 1.041 1.876 2.184 2.238.179.056.983.064 7.56.075 4.998.008 7.448-.001 7.633-.03 1.19-.183 2.167-1.084 2.471-2.28.083-.328.084-15.032 0-15.357-.307-1.197-1.264-2.09-2.444-2.28-.246-.04-14.661-.057-14.86-.018m14.72 2.041c.115.039.263.135.361.233.324.324.299-.322.299 7.701s.025 7.377-.299 7.701c-.324.324.322.299-7.701.299-8.025 0-7.377.025-7.702-.3-.324-.324-.3.328-.288-7.782L4.02 4.7l.111-.189c.125-.213.318-.375.539-.454.123-.044 1.434-.054 7.313-.055 6.565-.002 7.179.004 7.357.064m-5.711 1.955c-1.69.32-2.714 1.654-2.816 3.669l-.025.51h-.967c-1.118 0-1.249.026-1.522.299a.984.984 0 0 0 0 1.402c.274.274.403.299 1.531.299h.977l-.018 1.31c-.013 1.047-.03 1.353-.081 1.526-.19.639-.584.894-1.468.948-.506.031-.733.107-.94.314a.984.984 0 0 0-.001 1.403c.286.286.627.35 1.382.258a4.09 4.09 0 0 0 1.359-.388c.325-.159.436-.242.762-.569.327-.326.41-.437.569-.762.354-.723.429-1.225.429-2.867v-1.168l1.09-.013c1.029-.011 1.099-.017 1.25-.098.359-.194.54-.495.54-.894s-.181-.7-.54-.894c-.151-.081-.221-.087-1.256-.098l-1.096-.013.025-.427c.029-.5.106-.818.277-1.14.144-.27.285-.401.59-.544.21-.099.252-.104.9-.104.632 0 .693-.007.87-.094.601-.296.73-1.108.251-1.587-.246-.247-.448-.302-1.161-.321-.421-.012-.693.001-.911.043" fill-rule="evenodd" fill="#000" stroke="none"/></svg>