<svg xmlns="http://www.w3.org/2000/svg" width="24" height="24" fill="none" stroke="currentColor" stroke-width="2" stroke-linecap="round" stroke-linejoin="round"><path d="M4.62 2.025c-.408.08-.533.114-.75.202-.881.358-1.549 1.137-1.794 2.093-.083.327-.084 15.031 0 15.357.281 1.099 1.041 1.876 2.184 2.238.179.056.983.064 7.56.075 4.998.008 7.448-.001 7.633-.03 1.19-.183 2.167-1.084 2.471-2.28.083-.328.084-15.032 0-15.357-.307-1.197-1.264-2.09-2.444-2.28-.246-.04-14.661-.057-14.86-.018m14.72 2.041c.115.039.263.135.361.233.324.324.299-.322.299 7.701s.025 7.377-.299 7.701c-.324.324.322.299-7.701.299-8.025 0-7.377.025-7.702-.3-.324-.324-.3.328-.288-7.782L4.02 4.7l.111-.189c.125-.213.318-.375.539-.454.123-.044 1.434-.054 7.313-.055 6.565-.002 7.179.004 7.357.064m-5.491 1.978a3.91 3.91 0 0 0-1.3.441c-1.061.627-1.709 1.967-1.709 3.533v.222h-.993c-1.147 0-1.274.025-1.548.299a.984.984 0 0 0 0 1.402c.274.274.401.299 1.548.299h.993v1.182c0 1.313-.031 1.559-.24 1.926-.222.387-.67.598-1.359.637-.506.029-.733.105-.941.313a.984.984 0 0 0-.001 1.403c.288.289.625.35 1.401.255.817-.1 1.535-.412 2.044-.887.496-.464.771-.936.968-1.669.099-.367.103-.429.119-1.768l.015-1.387 1.047-.013c.984-.011 1.057-.017 1.207-.098.359-.194.54-.495.54-.894s-.181-.7-.54-.894c-.151-.081-.222-.087-1.216-.098l-1.056-.013.025-.407c.043-.688.184-1.1.488-1.425.303-.324.499-.382 1.271-.372.705.009.828-.019 1.062-.243.222-.213.304-.409.304-.728s-.082-.515-.304-.728c-.183-.175-.366-.243-.781-.291a3.884 3.884 0 0 0-1.044.003" fill-rule="evenodd" fill="#000" stroke="none"/></svg>