<svg xmlns="http://www.w3.org/2000/svg" width="24" height="24" fill="none" stroke="currentColor" stroke-width="2" stroke-linecap="round" stroke-linejoin="round"><path d="M5.94 4.058a4.717 4.717 0 0 0-1.18.332 4.856 4.856 0 0 0-1.733 1.211c-.371.393-.609.748-.866 1.286-.349.731-.403 1.026-.738 4.093-.313 2.857-.449 4.597-.41 5.237.11 1.813 1.348 3.273 3.127 3.688.456.107 1.323.098 1.746-.017.73-.198 1.084-.455 2.354-1.711.561-.554 1.083-1.041 1.16-1.082.132-.071.275-.075 2.6-.075 2.33 0 2.467.004 2.6.075.077.041.608.537 1.18 1.102 1.102 1.087 1.406 1.33 1.949 1.556 1.05.437 2.402.274 3.462-.417a3.986 3.986 0 0 0 1.796-3.119c.039-.64-.097-2.38-.41-5.237-.343-3.135-.386-3.369-.776-4.165-.689-1.409-1.879-2.339-3.481-2.72-.28-.067-.691-.072-6.18-.08-4.638-.006-5.948.003-6.2.043m11.972 2.005A3.038 3.038 0 0 1 20.236 8.3c.064.254.412 3.319.582 5.125.161 1.716.205 2.574.149 2.904-.173 1.007-1.117 1.751-2.107 1.658-.452-.042-.574-.132-1.74-1.287-1.087-1.077-1.343-1.285-1.812-1.472-.55-.221-.656-.228-3.308-.228-2.67 0-2.776.008-3.323.236-.463.194-.716.4-1.797 1.467-1.166 1.15-1.29 1.242-1.74 1.284-.967.091-1.899-.623-2.101-1.607-.059-.286-.036-.928.082-2.3.168-1.944.569-5.486.663-5.853C4.06 7.151 4.96 6.306 6.092 6.06c.201-.043 1.318-.054 5.88-.057 4.984-.003 5.667.004 5.94.06M7.643 8.069a1.118 1.118 0 0 0-.343.229c-.248.248-.3.442-.3 1.129V10h-.573c-.686 0-.881.052-1.128.299a.984.984 0 0 0 0 1.402c.247.247.442.299 1.128.299H7v.573c0 .686.052.881.299 1.128a.984.984 0 0 0 1.402 0c.247-.247.299-.442.299-1.128V12h.573c.686 0 .881-.052 1.128-.299a.984.984 0 0 0 0-1.402c-.247-.247-.442-.299-1.128-.299H9v-.573c0-.686-.052-.881-.299-1.128a.998.998 0 0 0-1.058-.23m10 .997c-.355.131-.643.549-.643.934 0 .729.814 1.222 1.465.887.711-.365.708-1.41-.004-1.776-.211-.109-.588-.129-.818-.045m-3 2c-.355.131-.643.549-.643.934 0 .729.814 1.222 1.465.887.711-.365.708-1.41-.004-1.776-.211-.109-.588-.129-.818-.045" fill-rule="evenodd" fill="#000" stroke="none"/></svg>