<svg xmlns="http://www.w3.org/2000/svg" width="24" height="24" fill="none" stroke="currentColor" stroke-width="2" stroke-linecap="round" stroke-linejoin="round"><path d="M3.62 5.025c-.408.08-.533.114-.75.202-.881.358-1.549 1.137-1.794 2.093-.083.325-.084 9.033 0 9.357.281 1.099 1.04 1.876 2.184 2.238.179.057 1.066.065 8.56.075 5.689.008 8.447-.001 8.633-.03 1.19-.182 2.167-1.084 2.471-2.28.083-.326.083-9.034 0-9.357-.307-1.197-1.264-2.09-2.444-2.28-.246-.04-16.66-.057-16.86-.018m16.72 2.041c.115.039.263.135.361.233.317.317.299.038.299 4.701 0 4.663.018 4.384-.299 4.701-.325.325.443.299-8.701.299-9.146 0-8.376.027-8.702-.3-.318-.318-.301-.031-.289-4.782L3.02 7.7l.111-.189c.125-.213.318-.375.539-.454.123-.044 1.598-.054 8.313-.055 7.496-.002 8.179.003 8.357.064M7.643 9.069a1.118 1.118 0 0 0-.343.229c-.248.248-.3.442-.3 1.129V11h-.573c-.686 0-.881.052-1.128.299a.984.984 0 0 0 0 1.402c.247.247.442.299 1.128.299H7v.573c0 .686.052.881.299 1.128a.984.984 0 0 0 1.402 0c.247-.247.299-.442.299-1.128V13h.573c.686 0 .881-.052 1.128-.299a.984.984 0 0 0 0-1.402c-.247-.247-.442-.299-1.128-.299H9v-.573c0-.686-.052-.881-.299-1.128a.998.998 0 0 0-1.058-.23m10 .997c-.355.131-.643.549-.643.934 0 .729.814 1.222 1.465.887.711-.365.708-1.41-.004-1.776-.211-.109-.588-.129-.818-.045m-3 2c-.355.131-.643.549-.643.934 0 .729.814 1.222 1.465.887.711-.365.708-1.41-.004-1.776-.211-.109-.588-.129-.818-.045" fill="#000" fill-rule="evenodd" stroke="none"/></svg>