<svg xmlns="http://www.w3.org/2000/svg" width="24" height="24" fill="none" stroke="currentColor" stroke-width="2" stroke-linecap="round" stroke-linejoin="round"><path d="M11.027 5.045c-3.501.337-6.517 2.346-8.025 5.347a9.72 9.72 0 0 0-.906 2.868c-.09.596-.102 1.943-.022 2.48.13.867.428 1.997.69 2.611.174.408.501.627.936.627.319 0 .515-.082.728-.304.324-.338.33-.633.035-1.522-.497-1.499-.584-2.672-.3-4.082.438-2.177 1.976-4.137 4.066-5.184 2.937-1.471 6.594-1.068 9.071 1 1.294 1.08 2.22 2.607 2.537 4.184.285 1.415.191 2.631-.318 4.139-.277.82-.266 1.132.053 1.465.213.222.409.304.728.304s.516-.083.728-.304c.154-.163.235-.346.466-1.064.707-2.197.662-4.362-.133-6.403-.863-2.213-2.506-4-4.701-5.109a10.506 10.506 0 0 0-5.633-1.053m4.031 5.574c-.15.074-.654.556-2.063 1.97-1.676 1.682-1.871 1.891-1.93 2.068-.129.389-.044.766.234 1.044s.655.363 1.044.234c.177-.059.386-.254 2.068-1.93 2.047-2.04 2.069-2.066 2.069-2.494 0-.582-.405-.99-.982-.991a.878.878 0 0 0-.44.099" fill-rule="evenodd" fill="#000" stroke="none"/></svg>