<svg xmlns="http://www.w3.org/2000/svg" width="24" height="24" fill="none" stroke="currentColor" stroke-width="2" stroke-linecap="round" stroke-linejoin="round"><path d="M13.64 1.068c-.156.053-.603.483-3.311 3.187-2.258 2.253-3.155 3.174-3.216 3.301-.26.535 0 1.192.547 1.378.406.138.742.051 1.105-.286l.24-.222.538.537.537.536-3.755 3.76C4.26 15.328 2.517 17.101 2.451 17.2a3.702 3.702 0 0 0-.46.988c-.127.443-.127 1.181 0 1.624a3.152 3.152 0 0 0 2.191 2.195c.412.119 1.179.129 1.578.021a4.127 4.127 0 0 0 1.03-.471c.104-.071 1.882-1.817 3.951-3.882l3.76-3.755.536.537.537.538-.222.24c-.447.481-.467 1.052-.053 1.466.278.278.654.362 1.044.234.18-.059.473-.34 3.328-3.19 2.258-2.254 3.155-3.174 3.216-3.301.26-.535 0-1.192-.547-1.378-.406-.138-.742-.051-1.106.286l-.24.222L17.71 6.29l-3.284-3.284.222-.24c.137-.148.247-.313.287-.43.276-.811-.477-1.548-1.295-1.268M16.3 7.72 19.58 11l-1.29 1.29L17 13.58l-3.29-3.29L10.42 7l1.28-1.28A60.031 60.031 0 0 1 13 4.44c.011 0 1.496 1.476 3.3 3.28m-6.93 8.491c-2.722 2.722-3.758 3.734-3.889 3.798-.426.207-.912.118-1.268-.233-.314-.31-.402-.683-.27-1.139.062-.211.162-.315 3.81-3.967l3.746-3.75.791.79.79.79-3.71 3.711" fill-rule="evenodd" fill="#000" stroke="none"/></svg>