<svg xmlns="http://www.w3.org/2000/svg" width="24" height="24" fill="none" stroke="currentColor" stroke-width="2" stroke-linecap="round" stroke-linejoin="round"><path d="M5.668 2.061a1.412 1.412 0 0 0-.273.143c-.123.087-4.13 6.04-4.304 6.394a.908.908 0 0 0 .019.836c.09.169 9.749 12.768 10.15 13.238.365.429 1.115.429 1.48 0 .401-.47 10.06-13.069 10.15-13.238a.908.908 0 0 0 .019-.836c-.173-.352-4.181-6.307-4.303-6.394-.302-.215.036-.204-6.621-.201-5.163.002-6.19.012-6.317.058M9.36 4.02c0 .011-.445.911-.99 2L7.38 8H3.871l.071-.11 1.332-2L6.533 4h1.414c.777 0 1.413.009 1.413.02m4.01 1.96c.545 1.089.99 1.989.99 2 0 .011-1.062.02-2.36.02-1.298 0-2.36-.009-2.36-.02 0-.011.445-.911.99-2L11.62 4h.76l.99 1.98m5.356-.09 1.332 2 .071.11H16.62l-.99-1.98c-.545-1.089-.99-1.989-.99-2 0-.011.636-.02 1.413-.02h1.414l1.259 1.89M8.329 13.469a326.937 326.937 0 0 1 1.059 3.477c-.007.006-4.966-6.424-5.281-6.847L4.033 10h3.229l1.067 3.469m6.302-3.419c-.01.028-.601 1.944-1.312 4.26-.712 2.315-1.305 4.21-1.319 4.21-.014 0-.607-1.894-1.319-4.21-.711-2.315-1.302-4.232-1.312-4.26-.014-.04.529-.05 2.631-.05s2.645.01 2.631.05m5.262.049c-.315.423-5.274 6.853-5.281 6.847-.004-.005.472-1.57 1.059-3.477L16.738 10h3.229l-.074.099" fill-rule="evenodd" fill="#000" stroke="none"/></svg>