<svg xmlns="http://www.w3.org/2000/svg" width="24" height="24" fill="none" stroke="currentColor" stroke-width="2" stroke-linecap="round" stroke-linejoin="round"><path d="M11.1 1.045c-.974.092-2.107.417-3.04.873A9.004 9.004 0 0 0 3.04 9.18c-.025.273-.04 2.811-.04 6.703 0 7.034-.024 6.495.299 6.818.278.278.655.363 1.044.233.174-.057.342-.21 1.427-1.288L7 20.423l.95.946c1.047 1.043 1.139 1.109 1.55 1.109.412 0 .503-.065 1.55-1.109l.949-.948.951.947c1.047 1.044 1.139 1.11 1.55 1.11.412 0 .503-.065 1.549-1.109l.95-.947 1.23 1.223c1.086 1.079 1.254 1.232 1.428 1.289.389.13.766.046 1.045-.234.325-.325.302.248.288-7.104-.012-6.517-.013-6.537-.1-7.016-.181-.998-.414-1.719-.827-2.56C18.418 2.666 14.857.69 11.1 1.045m1.64 1.997a6.976 6.976 0 0 1 3.76 1.605c1.383 1.156 2.249 2.782 2.458 4.613.026.228.041 2.188.042 5.338v4.977l-.73-.722c-.646-.639-.755-.73-.944-.792a1.004 1.004 0 0 0-.77.052c-.117.056-.493.402-1.115 1.025l-.939.941-.981-.974c-.89-.884-1.001-.981-1.195-1.044a1.009 1.009 0 0 0-.77.052c-.117.056-.493.402-1.115 1.025l-.939.941-.981-.974c-.853-.846-1.007-.982-1.178-1.039a.97.97 0 0 0-.686 0c-.167.056-.309.177-.927.788l-.73.721v-4.977c.001-3.15.016-5.11.042-5.338.275-2.405 1.691-4.443 3.832-5.517 1.183-.593 2.585-.848 3.866-.701M8.643 9.066C8.288 9.197 8 9.615 8 10c0 .729.814 1.222 1.465.887.711-.365.708-1.41-.004-1.776-.211-.109-.588-.129-.818-.045m6 0c-.355.131-.643.549-.643.934 0 .729.814 1.222 1.465.887.711-.365.708-1.41-.004-1.776-.211-.109-.588-.129-.818-.045" fill-rule="evenodd" fill="#000" stroke="none"/></svg>