<svg xmlns="http://www.w3.org/2000/svg" width="24" height="24" fill="none" stroke="currentColor" stroke-width="2" stroke-linecap="round" stroke-linejoin="round"><path d="M6.936 1.044c-1.257.21-2.376 1.17-2.756 2.365a3.557 3.557 0 0 0 .119 2.521c.028.066-.045.07-1.208.07-1.416 0-1.508.015-1.792.299C.991 6.606 1 6.514 1 9.5s-.009 2.894.299 3.201c.247.247.442.299 1.128.299H3v4.573c0 5.141-.019 4.81.299 5.128.325.325-.443.299 8.701.299s8.376.026 8.701-.299c.318-.318.299.013.299-5.128V13h.573c.686 0 .881-.052 1.128-.299.308-.307.299-.215.299-3.201s.009-2.894-.299-3.201C22.417 6.015 22.325 6 20.909 6c-1.163 0-1.236-.004-1.208-.07a3.738 3.738 0 0 0 .286-1.63c-.094-1.655-1.333-3.004-2.999-3.265-.372-.058-1.072-.02-1.493.083a4.806 4.806 0 0 0-1.791.879c-.534.425-1.172 1.19-1.543 1.853-.071.126-.142.23-.159.23-.017 0-.114-.142-.215-.316-.422-.727-1.111-1.507-1.707-1.931-.903-.644-2.147-.956-3.144-.789M8.015 3.06c.93.197 1.772 1.034 2.403 2.39.094.204.184.411.2.462l.028.091-1.753-.011L7.14 5.98l-.24-.112a1.698 1.698 0 0 1-.767-.764c-.098-.21-.113-.293-.113-.604 0-.31.015-.393.112-.6.332-.712 1.026-1.022 1.883-.84m9.085.074c.314.144.623.451.767.762.098.21.113.293.113.604 0 .31-.015.393-.112.6a1.698 1.698 0 0 1-.764.767l-.244.113-1.753.012-1.753.011.027-.091c.053-.18.494-1.056.66-1.312.536-.826 1.234-1.385 1.926-1.541.388-.088.842-.058 1.133.075M11 9.5V11H3V8h8v1.5m10 0V11h-8V8h8v1.5M11 17v4H5v-8h6v4m8 0v4h-6v-8h6v4" fill-rule="evenodd" fill="#000" stroke="none"/></svg>