<svg xmlns="http://www.w3.org/2000/svg" width="24" height="24" fill="none" stroke="currentColor" stroke-width="2" stroke-linecap="round" stroke-linejoin="round"><path d="M11.31 8.063a3.918 3.918 0 0 0-2.131 1.116c-.458.457-.771.96-.973 1.561l-.08.24-2.693.02-2.693.02-.19.094c-.601.296-.73 1.108-.251 1.587.307.307.217.299 3.189.299 2.474 0 2.636.004 2.656.07.455 1.473 1.534 2.494 2.996 2.835.464.109 1.319.102 1.78-.014 1.431-.36 2.482-1.37 2.936-2.821.02-.066.182-.07 2.656-.07 2.972 0 2.882.008 3.189-.299a.984.984 0 0 0 0-1.402c-.307-.307-.217-.299-3.189-.299-2.474 0-2.636-.004-2.656-.07-.263-.851-.714-1.529-1.365-2.052a4.027 4.027 0 0 0-3.181-.815m1.098 1.981C13.31 10.232 14 11.08 14 12c0 1.08-.92 2-2 2s-2-.92-2-2c0-.898.657-1.731 1.534-1.943.263-.064.604-.069.874-.013" fill="#000" fill-rule="evenodd" stroke="none"/></svg>