<svg xmlns="http://www.w3.org/2000/svg" width="24" height="24" fill="none" stroke="currentColor" stroke-width="2" stroke-linecap="round" stroke-linejoin="round"><path d="M5.31 2.063a3.918 3.918 0 0 0-2.131 1.116A3.903 3.903 0 0 0 2.014 6.18c.091 1.754 1.194 3.144 2.916 3.676.066.02.07.325.07 5.656 0 6.329-.022 5.868.299 6.189a.984.984 0 0 0 1.402 0c.321-.321.299.14.299-6.189 0-5.331.004-5.636.07-5.656 1.451-.454 2.461-1.505 2.821-2.936.116-.461.123-1.316.014-1.78-.49-2.102-2.51-3.454-4.595-3.077m1.098 1.981C7.31 4.232 8 5.08 8 6c0 1.08-.92 2-2 2s-2-.92-2-2c0-.898.657-1.731 1.534-1.943.263-.064.604-.069.874-.013m6.235 1.025C12.291 5.193 12 5.614 12 6c0 .242.119.521.299.701.294.294.33.299 2.201.299s1.907.005 2.201.299c.311.311.299.158.299 3.689 0 2.95-.004 3.136-.07 3.156-1.474.456-2.494 1.533-2.835 2.996-.103.441-.103 1.279 0 1.72a4.017 4.017 0 0 0 3.045 3.045c.464.109 1.319.102 1.78-.014a4.03 4.03 0 0 0 2.971-2.971c.116-.461.123-1.316.014-1.78a4.018 4.018 0 0 0-2.605-2.919l-.28-.097-.022-3.332c-.023-3.588-.012-3.392-.235-3.947-.367-.915-1.287-1.641-2.287-1.803-.15-.024-.957-.04-1.956-.039-1.432.003-1.728.013-1.877.066m5.765 10.975C19.31 16.232 20 17.08 20 18c0 1.08-.92 2-2 2s-2-.92-2-2c0-.898.657-1.731 1.534-1.943.263-.064.604-.069.874-.013" fill-rule="evenodd" fill="#000" stroke="none"/></svg>