<svg xmlns="http://www.w3.org/2000/svg" width="24" height="24" fill="none" stroke="currentColor" stroke-width="2" stroke-linecap="round" stroke-linejoin="round"><path d="M5.643 2.069a1.118 1.118 0 0 0-.343.229c-.322.322-.3-.141-.3 6.19 0 5.331-.004 5.636-.07 5.656-1.474.456-2.494 1.533-2.835 2.996-.103.441-.103 1.279 0 1.72a4.017 4.017 0 0 0 3.045 3.045c.464.109 1.319.102 1.78-.014a4.03 4.03 0 0 0 2.971-2.971c.116-.461.123-1.316.014-1.78a3.998 3.998 0 0 0-2.494-2.878l-.351-.136.012-.153c.024-.314.181-1.008.333-1.473.868-2.668 3.161-4.727 5.917-5.316.252-.054.536-.103.631-.111l.173-.013.136.351a4.007 4.007 0 0 0 2.878 2.494c.464.109 1.319.102 1.78-.014a4.03 4.03 0 0 0 2.971-2.971c.116-.461.123-1.316.014-1.78-.377-1.615-1.621-2.796-3.246-3.079a3.947 3.947 0 0 0-3.48 1.118 3.883 3.883 0 0 0-.98 1.583c-.049.153-.109.278-.134.279-.148.002-.92.13-1.29.214a10.113 10.113 0 0 0-3.975 1.9c-.415.322-1.269 1.164-1.564 1.543l-.216.278L7 5.858 6.98 2.74l-.094-.19c-.221-.449-.752-.655-1.243-.481m12.765 1.975C19.31 4.232 20 5.08 20 6c0 1.08-.92 2-2 2s-2-.92-2-2c0-.898.657-1.731 1.534-1.943.263-.064.604-.069.874-.013m-.765 10.025a1.066 1.066 0 0 0-.577.591c-.055.162-.066.373-.066 1.267V17h-1.073c-1.235 0-1.35.021-1.628.299a.984.984 0 0 0 0 1.402c.278.278.393.299 1.628.299H17v1.073c0 1.235.021 1.35.299 1.628a.984.984 0 0 0 1.402 0c.278-.278.299-.393.299-1.628V19h1.073c1.235 0 1.35-.021 1.628-.299a.984.984 0 0 0 0-1.402c-.278-.278-.393-.299-1.628-.299H19v-1.073c0-1.235-.021-1.35-.299-1.628a.998.998 0 0 0-1.058-.23M6.408 16.044C7.31 16.232 8 17.08 8 18c0 1.08-.92 2-2 2s-2-.92-2-2c0-.898.657-1.731 1.534-1.943.263-.064.604-.069.874-.013" fill-rule="evenodd" fill="#000" stroke="none"/></svg>