<svg xmlns="http://www.w3.org/2000/svg" width="24" height="24" fill="none" stroke="currentColor" stroke-width="2" stroke-linecap="round" stroke-linejoin="round"><path d="M5.643 2.069a1.118 1.118 0 0 0-.343.229c-.322.322-.3-.141-.3 6.19 0 5.331-.004 5.636-.07 5.656-1.474.456-2.494 1.533-2.835 2.996-.103.441-.103 1.279 0 1.72a4.017 4.017 0 0 0 3.045 3.045c.464.109 1.319.102 1.78-.014a4.038 4.038 0 0 0 2.416-1.7c.222-.34.422-.765.505-1.073.04-.149.045-.153.27-.179 3.926-.461 7.211-3.151 8.409-6.886.186-.577.44-1.808.44-2.127 0-.023.07-.062.155-.085 1.317-.354 2.423-1.518 2.776-2.921.116-.461.123-1.316.014-1.78-.686-2.94-4.152-4.117-6.476-2.2a4.053 4.053 0 0 0-1.142 1.583c-.2.504-.267.876-.267 1.477 0 .386.021.631.075.86.314 1.347 1.209 2.376 2.505 2.882l.34.132-.012.153c-.074.945-.612 2.405-1.237 3.353-.987 1.498-2.513 2.669-4.191 3.215-.465.152-1.159.309-1.473.333l-.153.012-.136-.351A4.011 4.011 0 0 0 7.3 14.221l-.28-.097L7 8.432 6.98 2.74l-.094-.19c-.221-.449-.752-.655-1.243-.481m12.765 1.975C19.31 4.232 20 5.08 20 6c0 1.08-.92 2-2 2s-2-.92-2-2c0-.898.657-1.731 1.534-1.943.263-.064.604-.069.874-.013m-12 12C7.31 16.232 8 17.08 8 18c0 1.08-.92 2-2 2s-2-.92-2-2c0-.898.657-1.731 1.534-1.943.263-.064.604-.069.874-.013" fill-rule="evenodd" fill="#000" stroke="none"/></svg>