<svg xmlns="http://www.w3.org/2000/svg" width="24" height="24" fill="none" stroke="currentColor" stroke-width="2" stroke-linecap="round" stroke-linejoin="round"><path d="M5.31 2.063a3.918 3.918 0 0 0-2.131 1.116A3.903 3.903 0 0 0 2.014 6.18c.091 1.754 1.194 3.144 2.916 3.676.066.02.07.325.07 5.656 0 6.329-.022 5.868.299 6.189.479.479 1.291.35 1.587-.251l.094-.19.02-3.118.02-3.118.205.26c.558.711 1.374 1.453 2.215 2.015a9.787 9.787 0 0 0 4.165 1.599c.234.034.443.062.465.062.022 0 .08.125.129.278.192.597.514 1.117.98 1.583a3.967 3.967 0 0 0 5.012.515 4.038 4.038 0 0 0 1.7-2.416c.116-.461.123-1.316.014-1.78-.686-2.94-4.152-4.117-6.476-2.2a4.048 4.048 0 0 0-1.167 1.649l-.136.351-.173-.013c-.589-.045-1.65-.359-2.365-.7-2.476-1.179-4.144-3.47-4.525-6.217-.019-.136-.012-.17.037-.17.137 0 .757-.286 1.088-.501A4.04 4.04 0 0 0 9.891 6.92c.116-.461.123-1.316.014-1.78-.49-2.102-2.51-3.454-4.595-3.077m1.098 1.981C7.31 4.232 8 5.08 8 6c0 1.08-.92 2-2 2s-2-.92-2-2c0-.898.657-1.731 1.534-1.943.263-.064.604-.069.874-.013m12 12C19.31 16.232 20 17.08 20 18c0 1.08-.92 2-2 2s-2-.92-2-2c0-.898.657-1.731 1.534-1.943.263-.064.604-.069.874-.013" fill-rule="evenodd" fill="#000" stroke="none"/></svg>