<svg xmlns="http://www.w3.org/2000/svg" width="24" height="24" fill="none" stroke="currentColor" stroke-width="2" stroke-linecap="round" stroke-linejoin="round"><path d="M4.803.047c-.278.08-.472.256-.619.564-.161.339-.312.826-.411 1.329-.106.536-.097 1.664.017 2.191l.084.391-.261.389a6.61 6.61 0 0 0-1.015 2.522c-.059.346-.078.645-.078 1.249 0 2.46.656 4.3 2.017 5.661.866.865 1.868 1.418 3.3 1.82.229.064.424.125.434.134.009.01-.022.136-.07.281a4.152 4.152 0 0 0-.2 1.268L8 18.232l-.344.049c-.48.068-1.204.032-1.539-.075-.305-.099-.678-.329-.963-.595-.11-.104-.452-.499-.76-.878-.625-.772-1.002-1.143-1.4-1.379-.317-.189-.78-.354-.991-.354-.399 0-.811.29-.937.66-.189.555.078 1.087.652 1.296.319.117.544.323 1.093 1.003.965 1.196 1.498 1.656 2.327 2.011.531.227.978.317 1.682.338.352.011.762.003.91-.017l.27-.037v.946c0 1.095.027 1.229.299 1.501a.984.984 0 0 0 1.402 0c.304-.304.299-.257.299-2.84 0-2.527-.001-2.513.259-3.041.076-.154.23-.386.341-.515.255-.295.32-.451.319-.76a.93.93 0 0 0-.277-.697c-.203-.203-.326-.247-.976-.349-1.615-.253-2.552-.608-3.43-1.299-.822-.648-1.347-1.625-1.604-2.989-.076-.404-.089-.611-.09-1.451-.002-.903.005-1.007.091-1.319a4.503 4.503 0 0 1 .922-1.781c.459-.529.525-.779.349-1.334a4.769 4.769 0 0 1-.224-1.31c0-.321.069-.853.121-.938.084-.136 1.3.397 2.269.995.756.467.773.47 1.536.29 1.95-.46 3.86-.462 5.774-.005.28.067.567.122.639.122.209 0 .414-.091.927-.413.739-.463 1.689-.914 2.121-1.005.145-.031.147-.027.211.378.09.568.027 1.225-.182 1.886-.08.251-.1.383-.084.538.024.229.134.475.267.595.163.147.525.66.701.992.372.702.5 1.269.5 2.224 0 2.26-.685 3.866-2.036 4.77-.751.503-1.682.816-3.027 1.017-.709.106-.875.165-1.085.384-.176.184-.252.388-.252.674 0 .309.061.45.339.787.124.15.278.381.342.513.238.488.239.501.239 3.021 0 2.605-.005 2.556.299 2.86a.984.984 0 0 0 1.402 0c.305-.305.299-.248.298-2.918-.002-2.508-.013-2.683-.2-3.245-.048-.145-.081-.267-.073-.272.008-.005.149-.042.314-.082.877-.215 1.833-.626 2.54-1.094.541-.357 1.273-1.091 1.632-1.633a7.538 7.538 0 0 0 1.063-2.617c.164-.842.185-1.083.184-2.16 0-.947-.01-1.102-.088-1.45a6.768 6.768 0 0 0-.984-2.319l-.261-.389.084-.391c.114-.527.123-1.655.017-2.191-.099-.503-.25-.99-.411-1.329-.151-.316-.34-.484-.637-.566-.232-.065-.974-.055-1.331.018-.721.147-1.795.597-2.643 1.109l-.375.227-.485-.098a14.493 14.493 0 0 0-5.679 0l-.493.1-.376-.228C7.959.668 6.861.206 6.152.062c-.343-.069-1.13-.078-1.349-.015" fill-rule="evenodd" fill="#000" stroke="none"/></svg>