<svg xmlns="http://www.w3.org/2000/svg" width="24" height="24" fill="none" stroke="currentColor" stroke-width="2" stroke-linecap="round" stroke-linejoin="round"><path d="M4.78.934c-.11.028-.261.083-.335.122-.209.11-.483.383-.584.582-.081.161-1.258 3.748-3.155 9.622-.342 1.056-.642 2.042-.667 2.19-.092.529.098 1.117.494 1.528.231.24 10.823 7.947 11.085 8.067.212.096.554.095.769-.002.217-.099 10.671-7.691 11.021-8.005.207-.185.304-.311.42-.547.143-.289.153-.331.166-.742l.013-.436-.723-2.146a750.32 750.32 0 0 1-1.902-5.781c-.648-1.998-1.224-3.71-1.278-3.803-.284-.485-.893-.768-1.434-.668-.442.081-.851.374-1.039.743-.046.089-.36 1.017-.699 2.062-.339 1.045-.841 2.589-1.116 3.43l-.499 1.53-3.321-.01-3.322-.01-.639-1.96-1.136-3.481c-.535-1.64-.61-1.803-.936-2.043C5.634.935 5.156.837 4.78.934m1.3 6.226c.51 1.573.972 2.936 1.025 3.029.121.21.315.361.56.434.28.085 8.39.085 8.67 0a.965.965 0 0 0 .546-.405c.049-.079.515-1.456 1.037-3.06.522-1.605.956-2.925.965-2.934.009-.009.385 1.121.834 2.51a507.897 507.897 0 0 0 1.55 4.704c.404 1.197.72 2.19.703 2.206-.064.061-9.912 7.207-9.95 7.22-.022.008-.715-.476-1.54-1.076-.825-.601-3.057-2.223-4.96-3.605l-3.472-2.524c-.012-.01.671-2.133 2.215-6.889.459-1.413.846-2.547.861-2.52.015.028.445 1.337.956 2.91" fill-rule="evenodd" fill="#000" stroke="none"/></svg>