<svg xmlns="http://www.w3.org/2000/svg" width="24" height="24" fill="none" stroke="currentColor" stroke-width="2" stroke-linecap="round" stroke-linejoin="round"><path d="M7.22 4.058c-1.319.206-2.223.898-3.009 2.302-.21.375-2.961 7.04-3.046 7.38-.357 1.423-.113 2.831.707 4.08.235.357.945 1.066 1.308 1.306a5.297 5.297 0 0 0 1.86.781c.471.1 1.449.1 1.92 0 1.244-.265 2.309-.937 3.046-1.923.287-.385.678-1.165.794-1.584.107-.388.199-.99.202-1.32a1.58 1.58 0 0 1 .055-.41.998.998 0 0 1 1.644-.371c.212.212.285.438.313.962.068 1.266.556 2.355 1.464 3.26.744.741 1.529 1.166 2.562 1.386.471.1 1.449.1 1.92 0 1.244-.265 2.309-.937 3.046-1.923.287-.385.678-1.165.794-1.584a5.157 5.157 0 0 0 .004-2.78c-.13-.46-2.903-7.076-3.109-7.416a5.118 5.118 0 0 0-.933-1.173c-.576-.543-1.215-.849-2.027-.971-.78-.118-1.139-.058-1.436.239-.651.651-.172 1.699.778 1.702.551.001 1.029.189 1.384.542.383.382.561.712 1.166 2.163.315.755.573 1.388.573 1.407 0 .018-.122.006-.27-.027-.403-.09-1.454-.086-1.89.007-1.413.302-2.424 1.007-3.33 2.32-.047.069-.067.065-.359-.085a3.039 3.039 0 0 0-1.78-.293 2.863 2.863 0 0 0-.951.312c-.265.133-.282.136-.33.066-.91-1.319-1.912-2.017-3.33-2.32-.436-.093-1.487-.097-1.89-.007-.149.033-.27.045-.27.027 0-.108 1.156-2.784 1.31-3.033.236-.38.554-.717.809-.856.237-.129.649-.222.984-.223.335-.001.598-.1.798-.3a.984.984 0 0 0 0-1.402c-.292-.292-.714-.361-1.481-.241m-.628 8.005a3.01 3.01 0 0 1 2.345 2.345c.427 2.084-1.447 3.957-3.529 3.528-1.622-.334-2.675-1.918-2.345-3.528.333-1.622 1.917-2.675 3.529-2.345m12 0a3.01 3.01 0 0 1 2.345 2.345c.427 2.084-1.447 3.957-3.529 3.528A3.02 3.02 0 0 1 15 15c0-1.88 1.753-3.314 3.592-2.937" fill-rule="evenodd" fill="#000" stroke="none"/></svg>