<svg xmlns="http://www.w3.org/2000/svg" width="24" height="24" fill="none" stroke="currentColor" stroke-width="2" stroke-linecap="round" stroke-linejoin="round"><path d="M11.16 1.025c-1.859.175-3.545.734-5.012 1.662a11.748 11.748 0 0 0-3.461 3.461C1.869 7.442 1.33 8.925 1.093 10.54c-.052.356-.07.733-.07 1.46s.018 1.104.07 1.46c.289 1.965.958 3.584 2.143 5.18.396.533 1.454 1.614 1.964 2.007 1.412 1.088 3.021 1.825 4.657 2.135.288.055.649.127.803.161.41.092 2.191.056 2.932-.058a11.02 11.02 0 0 0 5.045-2.115c.533-.4 1.615-1.46 2.009-1.97a11.152 11.152 0 0 0 2.26-5.34c.052-.355.07-.736.07-1.46s-.018-1.105-.07-1.46c-.292-2-1.028-3.742-2.259-5.34-.388-.503-1.474-1.567-2.01-1.969A10.98 10.98 0 0 0 13.6 1.118c-.525-.079-1.991-.135-2.44-.093m1.703 2.018a9.07 9.07 0 0 1 6.471 3.743l.148.206-1.011.019c-1.049.019-1.145.033-1.626.226a3.256 3.256 0 0 0-.96.647 2.92 2.92 0 0 0-.868 1.916c-.033.47-.113.698-.315.9a.983.983 0 0 1-1.404 0c-.202-.202-.282-.43-.315-.9a2.941 2.941 0 0 0-.887-1.933c-.578-.571-1.326-.866-2.198-.867-.759 0-1.432-.369-1.779-.973l-.118-.207L8 4.874v-.945l.41-.18a9.06 9.06 0 0 1 4.453-.706m-6.774 3.38a4.156 4.156 0 0 0 1.513 1.894 3.838 3.838 0 0 0 2.058.669c.599.026.821.093 1.041.313.203.203.283.43.316.901a2.957 2.957 0 0 0 1.343 2.298c.473.305.892.447 1.44.487a2.995 2.995 0 0 0 2.972-1.865c.146-.36.181-.518.224-1.012.03-.35.057-.462.143-.61.122-.208.366-.4.583-.459.091-.024.669-.036 1.463-.03l1.312.011.113.36c.409 1.309.494 2.778.245 4.228l-.066.388-2.165.014c-2.313.016-2.239.01-2.779.227-.672.269-1.322.912-1.595 1.578-.231.562-.224.478-.24 2.809l-.014 2.165-.388.066c-.47.081-1.067.143-1.375.144l-.228.001-.015-1.77c-.017-1.881-.015-1.857-.227-2.385-.424-1.059-1.583-1.843-2.726-1.845a1.02 1.02 0 0 1-.923-.55c-.087-.176-.096-.256-.12-1.09-.027-.921-.048-1.06-.231-1.515-.292-.728-1-1.401-1.751-1.663-.436-.153-.717-.181-1.786-.182h-.995l.027-.15c.061-.339.402-1.265.659-1.79a8.847 8.847 0 0 1 1.711-2.406L5.98 5.3l.023.48c.014.286.048.546.086.643m-.764 5.638a.982.982 0 0 1 .561.489c.087.176.096.256.12 1.09.018.606.046.965.085 1.1.226.765.658 1.363 1.269 1.758.474.306.892.447 1.44.485.47.033.698.113.9.315.291.291.3.352.3 2.014v1.457l-.15-.028c-.351-.065-1.272-.405-1.808-.669a9.008 9.008 0 0 1-4.999-7.209 8.756 8.756 0 0 1-.043-.65V12h1.073c.857 0 1.109.012 1.252.061m14.715 3.966c0 .014-.075.163-.166.33-.778 1.42-2.097 2.739-3.517 3.517a2.99 2.99 0 0 1-.332.166c-.016 0-.023-.752-.017-1.67l.012-1.67.111-.189c.061-.103.173-.236.25-.294.273-.209.317-.213 2.049-.215.886-.001 1.61.01 1.61.025" fill-rule="evenodd" fill="#000" stroke="none"/></svg>