<svg xmlns="http://www.w3.org/2000/svg" width="24" height="24" fill="none" stroke="currentColor" stroke-width="2" stroke-linecap="round" stroke-linejoin="round"><path d="M11.16 1.025c-1.859.175-3.545.734-5.012 1.662a11.748 11.748 0 0 0-3.461 3.461C1.869 7.442 1.33 8.925 1.093 10.54c-.052.356-.07.733-.07 1.46s.018 1.104.07 1.46c.366 2.489 1.384 4.537 3.126 6.282.686.689 1.053.991 1.781 1.469 1.357.891 2.852 1.449 4.54 1.695.671.098 2.249.098 2.92 0 1.945-.283 3.631-.98 5.177-2.136.533-.4 1.615-1.46 2.009-1.97a11.152 11.152 0 0 0 2.26-5.34c.052-.355.07-.736.07-1.46s-.018-1.105-.07-1.46c-.292-2-1.028-3.742-2.259-5.34-.388-.503-1.474-1.567-2.01-1.969A10.98 10.98 0 0 0 13.6 1.118c-.525-.079-1.991-.135-2.44-.093M9.657 3.39C8.93 4.491 8.138 6.168 7.745 7.44a17.232 17.232 0 0 0-.624 2.9c-.024.22-.054.458-.065.53l-.02.13H3.054l.035-.27c.196-1.501.897-3.111 1.898-4.361A9.142 9.142 0 0 1 9.16 3.462c.297-.1.547-.181.555-.181.008-.001-.018.048-.058.109m5.381.136c.476.164 1.389.618 1.842.915a9.282 9.282 0 0 1 2.68 2.679c.663 1.011 1.197 2.444 1.354 3.63l.033.25h-3.983l-.02-.13c-.011-.072-.041-.31-.065-.53-.194-1.719-.777-3.66-1.585-5.272a21.107 21.107 0 0 0-.95-1.677l-.072-.109.212.063c.116.034.365.116.554.181m-2.711.464c.853 1.196 1.618 2.732 2.028 4.07.256.839.496 1.987.552 2.65l.025.29H9.054l.034-.29c.234-2.03.918-4.04 1.964-5.77.302-.5.907-1.379.948-1.379.011 0 .158.193.327.429m-5.271 9.14c.011.072.041.31.065.53.097.855.337 1.972.624 2.9.393 1.271 1.185 2.949 1.91 4.048l.071.107-.333-.101a9.027 9.027 0 0 1-5.475-4.674c-.419-.86-.719-1.823-.829-2.67L3.054 13h3.982l.02.13m7.851.16c-.056.663-.296 1.811-.552 2.65-.297.968-.871 2.235-1.436 3.168-.281.464-.88 1.331-.919 1.331-.043 0-.653-.889-.957-1.396a14.427 14.427 0 0 1-1.955-5.753L9.054 13h5.878l-.025.29m6.007-.04c-.157 1.186-.691 2.619-1.354 3.63a9.102 9.102 0 0 1-4.953 3.734l-.333.101.071-.107c.73-1.109 1.515-2.773 1.909-4.048.289-.937.528-2.047.625-2.9.024-.22.054-.458.065-.53l.02-.13h3.983l-.033.25" fill-rule="evenodd" fill="#000" stroke="none"/></svg>