<svg xmlns="http://www.w3.org/2000/svg" width="24" height="24" fill="none" stroke="currentColor" stroke-width="2" stroke-linecap="round" stroke-linejoin="round"><path d="M11.62 5.025c-.408.08-.533.114-.747.201a3.184 3.184 0 0 0-.852.527c-.175.157-.436.45-.494.553-.033.059-.067.053-.332-.055a4.52 4.52 0 0 0-.515-.176c-.286-.071-1.078-.07-1.357.001-.932.237-1.732.908-2.073 1.739-.218.531-.221.56-.239 1.998-.016 1.243-.023 1.351-.084 1.327-.418-.166-1.289-.176-1.787-.02a3.094 3.094 0 0 0-2.02 2.02c-.114.367-.143.941-.083 1.619.279 3.157 2.175 5.935 4.983 7.303.881.429 1.574.652 2.58.83.485.085.586.088 3.38.088 2.603 0 2.924-.007 3.34-.074a9.111 9.111 0 0 0 4.311-1.893c1.522-1.22 2.649-2.982 3.102-4.853.237-.981.247-1.115.247-3.46 0-1.715-.011-2.205-.056-2.377-.371-1.449-1.677-2.414-3.124-2.308a3.36 3.36 0 0 0-.84.17c-.043.013-.086-.051-.155-.233C18.341 6.72 17.1 5.92 15.8 6.015c-.383.028-.615.084-1.015.246-.249.101-.278.105-.312.046a2.26 2.26 0 0 0-.194-.248 3.016 3.016 0 0 0-1.802-1.017c-.249-.04-.694-.049-.857-.017m.72 2.041c.253.087.507.341.594.594.056.166.066.392.066 1.54 0 1.537.012 1.614.299 1.901a.984.984 0 0 0 1.402 0c.267-.267.299-.415.301-1.418.001-.616.017-.906.055-1.013.292-.819 1.448-.895 1.829-.12.092.187.094.217.114 1.71.019 1.468.023 1.526.108 1.684.102.19.33.403.518.481.176.074.581.07.765-.007.19-.079.393-.273.5-.478.067-.13.088-.263.108-.703.023-.495.035-.559.134-.729a.99.99 0 0 1 1.568-.209c.296.296.299.317.299 2.318-.001.97-.019 1.925-.042 2.123-.279 2.444-1.739 4.511-3.927 5.56a6.928 6.928 0 0 1-2.291.658c-.207.024-1.369.041-2.74.041-1.371 0-2.533-.017-2.74-.041-2.399-.274-4.447-1.698-5.519-3.836a7.095 7.095 0 0 1-.705-2.446c-.093-.85.025-1.251.441-1.503.366-.222.68-.222 1.046 0 .28.17.428.43.473.834.018.162.07.366.115.454a.999.999 0 0 0 1.309.444.951.951 0 0 0 .497-.505c.079-.175.081-.252.084-2.88.002-2.149.013-2.731.056-2.85A.998.998 0 0 1 8.7 8.298c.255.255.3.436.3 1.202s.045.947.299 1.201c.479.479 1.291.35 1.587-.251.091-.184.095-.229.114-1.47l.02-1.28.111-.189a.987.987 0 0 1 1.209-.445" fill-rule="evenodd" fill="#000" stroke="none"/></svg>