<svg xmlns="http://www.w3.org/2000/svg" width="24" height="24" fill="none" stroke="currentColor" stroke-width="2" stroke-linecap="round" stroke-linejoin="round"><path d="M11.68 4.055c-.077.03-2.417 1.193-5.2 2.584-4.095 2.048-5.088 2.559-5.205 2.682a.985.985 0 0 0 .023 1.376c.128.126.565.362 1.934 1.043L5 12.619v2.264c0 2.652-.02 2.506.396 2.917.972.959 2.42 1.733 3.974 2.124.94.236 1.424.291 2.59.294.67.001 1.192-.017 1.42-.05 2.137-.308 3.986-1.146 5.224-2.368.416-.411.396-.265.396-2.918v-2.263l.98-.489c.539-.27.989-.49 1-.49.011 0 .02 1.014.02 2.253 0 2.547-.004 2.505.299 2.808a.984.984 0 0 0 1.402 0c.312-.311.299-.157.299-3.701 0-3.545.012-3.392-.298-3.697-.135-.132-1.128-.643-5.289-2.72-4.818-2.405-5.137-2.558-5.358-2.569a1.113 1.113 0 0 0-.375.041m4.18 3.995c2.123 1.061 3.86 1.939 3.86 1.95 0 .011-1.737.889-3.86 1.95L12 13.88l-3.86-1.93C6.017 10.889 4.28 10.011 4.28 10c0-.015 7.656-3.866 7.71-3.878.005-.001 1.747.866 3.87 1.928m-6.479 6.76 2.342 1.17h.554l2.342-1.17c1.288-.643 2.351-1.17 2.362-1.17.01 0 .019.659.019 1.464v1.463l-.09.076c-.25.212-.819.572-1.224.776-1.864.937-4.35 1.085-6.451.383-.756-.253-1.642-.73-2.095-1.127L7 16.552v-1.456c0-.801.009-1.456.019-1.456.011 0 1.074.527 2.362 1.17" fill-rule="evenodd" fill="#000" stroke="none"/></svg>