<svg xmlns="http://www.w3.org/2000/svg" width="24" height="24" fill="none" stroke="currentColor" stroke-width="2" stroke-linecap="round" stroke-linejoin="round"><path d="M4.62 2.025c-.408.08-.533.114-.75.202-.881.358-1.549 1.137-1.794 2.093-.083.327-.084 15.031 0 15.357.281 1.099 1.041 1.876 2.184 2.238.179.056.983.064 7.56.075 4.998.008 7.448-.001 7.633-.03 1.19-.183 2.167-1.084 2.471-2.28.083-.328.084-15.032 0-15.357-.307-1.197-1.264-2.09-2.444-2.28-.246-.04-14.661-.057-14.86-.018M8 6v2H3.997l.011-1.65.012-1.65.111-.189c.061-.103.173-.236.25-.294.273-.208.319-.213 2.029-.215L8 4v2m6 0v2h-4V4h4v2m5.34-1.934c.253.087.507.341.594.594.057.168.066.408.066 1.767V8h-4V4h1.573c1.359 0 1.599.009 1.767.066M8 12v2H4v-4h4v2m6 0v2h-4v-4h4v2m6 0v2h-4v-4h4v2M8 18v2H6.427c-1.789 0-1.836-.006-2.128-.299-.293-.292-.299-.339-.299-2.128V16h4v2m6 0v2h-4v-4h4v2m6-.427c0 1.789-.006 1.836-.299 2.128-.292.293-.339.299-2.128.299H16v-4h4v1.573" fill="#000" fill-rule="evenodd" stroke="none"/></svg>