<svg xmlns="http://www.w3.org/2000/svg" width="24" height="24" fill="none" stroke="currentColor" stroke-width="2" stroke-linecap="round" stroke-linejoin="round"><path d="M8.534 3.057C7.657 3.269 7 4.102 7 5c0 1.08.92 2 2 2s2-.92 2-2c0-1.096-.934-2.013-2.032-1.997a2.342 2.342 0 0 0-.434.054m6 0C13.657 3.269 13 4.102 13 5c0 1.08.92 2 2 2s2-.92 2-2c0-1.096-.934-2.013-2.032-1.997a2.342 2.342 0 0 0-.434.054m-6 7C7.657 10.269 7 11.102 7 12c0 1.08.92 2 2 2s2-.92 2-2c0-1.096-.934-2.013-2.032-1.997a2.342 2.342 0 0 0-.434.054m6 0C13.657 10.269 13 11.102 13 12c0 1.08.92 2 2 2s2-.92 2-2c0-1.096-.934-2.013-2.032-1.997a2.342 2.342 0 0 0-.434.054m-6 7C7.657 17.269 7 18.102 7 19c0 1.08.92 2 2 2s2-.92 2-2c0-1.096-.934-2.013-2.032-1.997a2.342 2.342 0 0 0-.434.054m6 0C13.657 17.269 13 18.102 13 19c0 1.08.92 2 2 2 .92 0 1.768-.69 1.956-1.592a1.954 1.954 0 0 0-.552-1.812 1.969 1.969 0 0 0-1.87-.539" fill="#000" fill-rule="evenodd" stroke="none"/></svg>