<svg xmlns="http://www.w3.org/2000/svg" width="24" height="24" fill="none" stroke="currentColor" stroke-width="2" stroke-linecap="round" stroke-linejoin="round"><path d="M4.534 7.057a2.063 2.063 0 0 0-1.49 1.535c-.139.665.061 1.32.552 1.812.797.796 2.011.796 2.808 0 .796-.797.796-2.011 0-2.808a1.969 1.969 0 0 0-1.87-.539m7 0C10.657 7.269 10 8.102 10 9c0 1.08.92 2 2 2s2-.92 2-2c0-1.096-.934-2.013-2.032-1.997a2.342 2.342 0 0 0-.434.054m7 0C17.657 7.269 17 8.102 17 9c0 1.08.92 2 2 2s2-.92 2-2c0-1.096-.934-2.013-2.032-1.997a2.342 2.342 0 0 0-.434.054m-14 6C3.657 13.269 3 14.102 3 15c0 1.08.92 2 2 2 .523 0 1.017-.21 1.404-.596.796-.797.796-2.011 0-2.808a1.969 1.969 0 0 0-1.87-.539m7 0C10.657 13.269 10 14.102 10 15c0 1.08.92 2 2 2s2-.92 2-2c0-1.096-.934-2.013-2.032-1.997a2.342 2.342 0 0 0-.434.054m7 0C17.657 13.269 17 14.102 17 15c0 1.08.92 2 2 2s2-.92 2-2c0-1.096-.934-2.013-2.032-1.997a2.342 2.342 0 0 0-.434.054" fill="#000" fill-rule="evenodd" stroke="none"/></svg>