<svg xmlns="http://www.w3.org/2000/svg" width="24" height="24" fill="none" stroke="currentColor" stroke-width="2" stroke-linecap="round" stroke-linejoin="round"><path d="M8.643 2.027c-.387.141-.674.597-.634 1.011.034.36.145.508.838 1.126.899.801 1.237 1.207 1.59 1.91.336.669.563 1.575.563 2.251v.254L6.785 12.8c-2.318 2.321-4.268 4.301-4.334 4.4a3.702 3.702 0 0 0-.46.988c-.127.443-.127 1.181 0 1.624a3.152 3.152 0 0 0 2.191 2.195c.412.119 1.179.129 1.578.021a4.127 4.127 0 0 0 1.03-.471c.104-.07 2.098-2.033 4.43-4.362l4.241-4.235h.643l.582.493.582.492-.249.262c-.164.174-.27.326-.313.454a.994.994 0 0 0 1.378 1.227c.126-.061.836-.748 2.481-2.397 2.086-2.092 2.311-2.33 2.37-2.508.036-.109.065-.263.065-.343 0-.396-.291-.808-.66-.934-.424-.144-.745-.053-1.149.328l-.279.264-.389-.399c-.315-.324-.421-.464-.556-.739-.203-.416-.246-.67-.248-1.46-.001-.517-.012-.625-.082-.78-.061-.134-.474-.574-1.609-1.713-.841-.842-1.645-1.628-1.788-1.745a6.805 6.805 0 0 0-2.948-1.388c-.409-.085-.538-.09-2.452-.1-1.768-.009-2.042-.003-2.197.053m4.346 2.028a4.842 4.842 0 0 1 1.656.706c.153.102.818.731 1.665 1.574l1.41 1.403v.302c0 .692.138 1.351.4 1.909.225.481.467.82.947 1.327l.426.451-.4.4-.4.4-.831-.701c-.457-.386-.896-.734-.976-.773-.129-.065-.281-.074-1.306-.084l-1.16-.012-.71-.708-.71-.708V8.78c-.001-1.124-.083-1.729-.348-2.56a7.514 7.514 0 0 0-.84-1.751c-.149-.225-.288-.434-.307-.465-.03-.046.062-.052.58-.034.338.012.745.05.904.085M12.32 11.7l.78.78-3.72 3.721c-2.73 2.73-3.768 3.744-3.899 3.808-.426.207-.912.118-1.268-.233-.314-.31-.402-.683-.27-1.139.062-.211.162-.315 3.81-3.967 2.06-2.063 3.755-3.75 3.767-3.75.011 0 .371.351.8.78" fill-rule="evenodd" fill="#000" stroke="none"/></svg>