<svg xmlns="http://www.w3.org/2000/svg" width="24" height="24" fill="none" stroke="currentColor" stroke-width="2" stroke-linecap="round" stroke-linejoin="round"><path d="M7.62 2.025c-.408.08-.533.114-.75.202-.706.287-1.342.91-1.62 1.588-.24.585-.226.32-.24 4.379-.012 3.508-.017 3.732-.081 3.707-.297-.116-.588-.158-1.069-.156-.452.002-.562.016-.84.108a2.91 2.91 0 0 0-1.24.764c-.366.373-.546.655-.706 1.106-.23.65-.23 1.344 0 1.994.214.605.251.648 2.446 2.856 1.133 1.14 2.237 2.22 2.453 2.4 1.468 1.222 2.998 1.822 5.069 1.988.853.069 3.766.03 4.298-.057 2.273-.371 4.272-1.525 5.673-3.273a9.092 9.092 0 0 0 1.72-3.471c.254-1.048.247-.898.247-5.46 0-3.424-.01-4.198-.056-4.377-.524-2.042-2.818-2.962-4.559-1.828-.797.52-1.279 1.346-1.351 2.316-.022.295-.036.348-.09.332l-.244-.069c-.233-.065-1.126-.065-1.36 0a6.4 6.4 0 0 0-.495.174c-.284.113-.318.118-.352.059-.144-.259-.6-.677-.984-.903a3.05 3.05 0 0 0-2.249-.305l-.226.061c-.003 0-.014-.383-.025-.85-.02-.873-.041-1.004-.226-1.465-.367-.916-1.287-1.641-2.283-1.802-.252-.041-.697-.05-.86-.018m.72 2.041c.115.039.263.135.361.233C9.013 4.61 9 4.456 9 8s-.013 3.39.299 3.701a.984.984 0 0 0 1.402 0c.281-.281.299-.384.301-1.718.001-.866.015-1.201.055-1.313a.998.998 0 0 1 1.643-.372c.288.288.3.364.3 1.902 0 1.537.012 1.614.299 1.901a.984.984 0 0 0 1.402 0c.267-.267.299-.415.301-1.418.001-.616.017-.906.055-1.013.292-.819 1.448-.895 1.829-.12.092.187.094.217.114 1.71.019 1.468.023 1.526.108 1.684.102.19.33.403.518.481.176.074.581.07.765-.007.188-.078.391-.271.503-.478.085-.159.086-.179.106-3.2l.02-3.04.111-.189a.99.99 0 0 1 1.57-.212c.315.315.299.083.299 4.318-.001 2.317-.016 3.901-.042 4.123-.279 2.446-1.739 4.511-3.931 5.562a6.835 6.835 0 0 1-2.353.662c-.643.068-3.612.025-4.134-.06-1.24-.203-2.122-.571-3.06-1.28-.31-.234-4.38-4.276-4.463-4.432-.214-.404-.14-.846.198-1.174.316-.308.742-.383 1.113-.196.073.037.582.512 1.132 1.057.869.86 1.026.998 1.197 1.055.25.084.438.083.683 0 .369-.126.66-.538.66-.934 0-.324-.11-.516-.568-.984l-.433-.444.01-4.436L7.02 4.7l.111-.189a.987.987 0 0 1 1.209-.445" fill-rule="evenodd" fill="#000" stroke="none"/></svg>