<svg xmlns="http://www.w3.org/2000/svg" width="24" height="24" fill="none" stroke="currentColor" stroke-width="2" stroke-linecap="round" stroke-linejoin="round"><path d="M11.62 1.025c-.408.08-.533.114-.75.202-.738.3-1.365.934-1.654 1.673l-.113.287c-.002.004-.13-.03-.284-.075-.348-.102-1.162-.122-1.496-.036-.935.239-1.732.909-2.073 1.739-.238.58-.225.371-.24 3.879-.012 3.032-.017 3.232-.082 3.207-.296-.116-.587-.158-1.068-.156-.452.002-.562.016-.84.108a2.91 2.91 0 0 0-1.24.764c-.366.373-.546.655-.706 1.106-.23.65-.23 1.344 0 1.994.214.605.251.648 2.446 2.856 1.133 1.14 2.237 2.22 2.453 2.4 1.468 1.222 2.998 1.822 5.069 1.988.853.069 3.766.03 4.298-.057 2.273-.371 4.272-1.525 5.673-3.273a9.092 9.092 0 0 0 1.72-3.471c.251-1.038.247-.953.247-4.96 0-2.997-.01-3.699-.056-3.877-.371-1.449-1.677-2.414-3.124-2.308a3.36 3.36 0 0 0-.84.17c-.043.013-.086-.051-.155-.233a3.147 3.147 0 0 0-1.234-1.499c-.774-.482-1.658-.573-2.611-.268-.043.013-.086-.051-.155-.233a3.046 3.046 0 0 0-2.325-1.909c-.252-.041-.697-.05-.86-.018m.72 2.041c.115.039.263.135.361.233.312.311.299.157.299 3.701s-.013 3.39.299 3.701a.984.984 0 0 0 1.402 0c.302-.302.299-.272.301-2.718.001-1.702.013-2.195.055-2.313a.998.998 0 0 1 1.643-.372c.309.309.3.215.3 3.202 0 2.986-.009 2.894.299 3.201.18.18.459.299.701.299.242 0 .521-.119.701-.299.294-.294.299-.329.301-2.218.001-1.284.014-1.697.055-1.813a.998.998 0 0 1 1.643-.372c.313.313.3.142.3 3.819-.001 1.974-.017 3.405-.042 3.623-.279 2.446-1.739 4.511-3.931 5.562a6.836 6.836 0 0 1-2.35.661c-.638.068-3.571.026-4.117-.058-1.23-.191-2.134-.567-3.08-1.281-.31-.234-4.38-4.276-4.463-4.432-.214-.404-.14-.846.198-1.174.316-.308.742-.383 1.113-.196.073.037.582.512 1.132 1.057.869.86 1.026.998 1.197 1.055.25.084.438.083.683 0 .369-.126.66-.538.66-.934 0-.324-.11-.516-.567-.983L7 13.573l.002-3.876c.001-3.134.012-3.906.055-4.027.292-.819 1.448-.895 1.829-.12l.094.19L9 8.26c.02 2.498.021 2.521.108 2.684.102.19.33.403.518.481.176.074.581.07.765-.007.188-.078.391-.271.503-.478.086-.16.086-.166.106-3.7l.02-3.54.111-.189a.987.987 0 0 1 1.209-.445" fill-rule="evenodd" fill="#000" stroke="none"/></svg>