<svg xmlns="http://www.w3.org/2000/svg" width="24" height="24" fill="none" stroke="currentColor" stroke-width="2" stroke-linecap="round" stroke-linejoin="round"><path d="M10.534 3.057C9.687 3.262 9 4.104 9 4.936v.132l-.37.071a7.155 7.155 0 0 0-1.661.561c-2.19 1.052-3.648 3.116-3.927 5.56-.023.198-.041.891-.042 1.541v1.181l-.302.048a2.03 2.03 0 0 0-1.654 1.562c-.059.283-.059 2.533 0 2.816.157.75.798 1.391 1.548 1.548.3.062 18.516.062 18.816 0a2.062 2.062 0 0 0 1.548-1.548c.059-.283.059-2.533 0-2.816a2.03 2.03 0 0 0-1.654-1.562L21 13.982v-1.181c-.001-.65-.019-1.343-.042-1.541a7.042 7.042 0 0 0-2.91-4.97c-.701-.506-1.822-.987-2.678-1.151L15 5.068v-.132c0-.224-.083-.544-.211-.816-.241-.513-.811-.957-1.381-1.076-.302-.063-2.604-.053-2.874.013M13 7.573c0 2.904-.008 2.821.299 3.128a.984.984 0 0 0 1.402 0c.291-.291.299-.345.299-2.073V7.111l.15.028c.449.082 1.123.374 1.63.706.393.258 1.1.958 1.348 1.335.372.566.623 1.157.774 1.82.055.24.072.57.087 1.65l.018 1.35H4.993l.018-1.35c.015-1.08.032-1.41.087-1.65a5.41 5.41 0 0 1 .77-1.815c.241-.365.948-1.071 1.321-1.317.517-.343 1.21-.647 1.661-.729L9 7.111v1.517c0 1.728.008 1.782.299 2.073a.984.984 0 0 0 1.402 0c.307-.307.299-.224.299-3.128V5h2v2.573M21 17v1H3v-2h18v1" fill-rule="evenodd" fill="#000" stroke="none"/></svg>