<svg xmlns="http://www.w3.org/2000/svg" width="24" height="24" fill="none" stroke="currentColor" stroke-width="2" stroke-linecap="round" stroke-linejoin="round"><path d="M9.643 2.069a1.016 1.016 0 0 0-.58.616c-.035.118-.181 1.286-.324 2.595a434.805 434.805 0 0 1-.284 2.55L8.431 8H6.143c-2.587 0-2.54-.005-2.844.299a.984.984 0 0 0 0 1.402c.302.303.27.299 2.728.299 2.043 0 2.173.004 2.173.07 0 .1-.399 3.732-.422 3.84l-.02.09H5.806c-2.211 0-2.208 0-2.507.299a.984.984 0 0 0 0 1.402c.298.298.307.299 2.409.299h1.854l-.02.09c-.011.05-.14 1.192-.288 2.539l-.269 2.45.071.225c.126.399.528.696.944.696.413 0 .822-.299.937-.685.035-.118.181-1.286.324-2.595.144-1.309.271-2.456.284-2.55l.024-.17H13.562l-.02.09c-.011.05-.14 1.192-.288 2.539l-.269 2.45.071.225c.126.399.528.696.944.696.413 0 .822-.299.937-.685.035-.118.181-1.286.324-2.595.144-1.309.271-2.456.284-2.55l.024-.17h2.288c2.587 0 2.54.005 2.844-.299a.984.984 0 0 0 0-1.402c-.302-.303-.27-.299-2.728-.299-2.043 0-2.173-.004-2.173-.07 0-.1.399-3.732.422-3.84l.02-.09h1.952c2.211 0 2.208 0 2.507-.299a.984.984 0 0 0 0-1.402C20.403 8.001 20.394 8 18.292 8h-1.854l.02-.09c.011-.049.14-1.192.288-2.539l.269-2.45-.071-.225A1.022 1.022 0 0 0 16 2c-.413 0-.822.299-.937.685-.035.118-.181 1.286-.324 2.595a434.805 434.805 0 0 1-.284 2.55l-.024.17H10.438l.02-.09c.011-.049.14-1.192.288-2.539l.269-2.45-.071-.225c-.17-.539-.754-.82-1.301-.627M14.2 10.07c0 .1-.399 3.732-.422 3.84l-.02.09h-1.979c-1.858 0-1.979-.004-1.979-.07 0-.1.399-3.732.422-3.84l.02-.09h1.979c1.858 0 1.979.004 1.979.07" fill="#000" fill-rule="evenodd" stroke="none"/></svg>