<svg xmlns="http://www.w3.org/2000/svg" width="24" height="24" fill="none" stroke="currentColor" stroke-width="2" stroke-linecap="round" stroke-linejoin="round"><path d="M11.617 1.577c-.182.079-.41.293-.509.479-.085.159-.088.21-.1 1.618-.013 1.667-.004 1.732.29 2.026a.983.983 0 0 0 1.404 0c.294-.294.303-.359.29-2.026-.012-1.403-.015-1.46-.098-1.614a1.126 1.126 0 0 0-.503-.478c-.181-.076-.606-.079-.774-.005M4.843 5.269c-.386.136-.674.594-.634 1.009.034.351.145.501 1.02 1.368.712.705.859.831 1.028.888.25.084.437.083.683 0 .403-.137.692-.587.651-1.012-.034-.351-.145-.501-1.02-1.368-.712-.705-.859-.831-1.028-.888a1.026 1.026 0 0 0-.7.003m13.597 0c-.145.05-.34.221-1.011.885-.875.867-.986 1.017-1.02 1.368-.041.425.248.875.651 1.012a.962.962 0 0 0 .683 0c.169-.057.316-.183 1.028-.888.554-.549.859-.882.916-1 .397-.82-.38-1.678-1.247-1.377m-7.18 2.787a5.008 5.008 0 0 0-4.248 4.666c-.03.487.043.735.286.978.649.649 1.702.173 1.702-.769 0-.504.207-1.15.512-1.6a2.99 2.99 0 0 1 4.603-.446c.543.543.885 1.334.885 2.046 0 .308.104.575.299.77a.984.984 0 0 0 1.403-.001c.243-.243.316-.491.286-.978-.077-1.265-.561-2.334-1.467-3.245a4.798 4.798 0 0 0-2.541-1.378c-.426-.09-1.31-.111-1.72-.043m-9.617 4.013C1.291 12.193 1 12.614 1 13c0 .396.291.808.66.934.163.055.378.066 1.34.066 1.316 0 1.421-.018 1.701-.299a.984.984 0 0 0 0-1.402c-.282-.282-.383-.299-1.718-.296-.945.003-1.196.015-1.34.066m18 0c-.352.124-.643.545-.643.931 0 .396.291.808.66.934.163.055.378.066 1.34.066 1.316 0 1.421-.018 1.701-.299a.984.984 0 0 0 0-1.402c-.282-.282-.383-.299-1.718-.296-.945.003-1.196.015-1.34.066m-18 4C1.291 16.193 1 16.614 1 17c0 .396.291.808.66.934.179.061 1.001.066 10.34.066 11.385 0 10.374.028 10.701-.299a.984.984 0 0 0 0-1.402c-.327-.327.687-.299-10.718-.296-9.098.003-10.182.01-10.34.066m0 4C1.291 20.193 1 20.614 1 21c0 .396.291.808.66.934.179.061 1.001.066 10.34.066 11.385 0 10.374.028 10.701-.299a.984.984 0 0 0 0-1.402c-.327-.327.687-.299-10.718-.296-9.098.003-10.182.01-10.34.066" fill-rule="evenodd" fill="#000" stroke="none"/></svg>