<svg xmlns="http://www.w3.org/2000/svg" width="24" height="24" fill="none" stroke="currentColor" stroke-width="2" stroke-linecap="round" stroke-linejoin="round"><path d="M11.26 2.024c-2.164.223-3.841.877-5.46 2.13-.439.34-1.308 1.21-1.649 1.651-1.146 1.479-1.808 3.064-2.08 4.975-.078.548-.074 8.592.005 8.897.281 1.098 1.073 1.907 2.184 2.233.268.079 1.773.116 2.175.053a3.049 3.049 0 0 0 2.489-2.283c.081-.32.082-4.04 0-4.357-.307-1.197-1.264-2.089-2.448-2.281C6.335 13.019 5.72 13 5.11 13H4v-.702c0-.385.019-.876.041-1.09.298-2.784 1.965-5.177 4.453-6.388a7.93 7.93 0 0 1 7.006-.004 7.988 7.988 0 0 1 4.459 6.418c.023.228.041.717.041 1.087v.672l-1.27.018c-.987.013-1.315.031-1.47.078-1.138.348-1.901 1.127-2.184 2.231-.081.319-.082 4.039 0 4.357.281 1.098 1.073 1.907 2.184 2.233.268.079 1.773.116 2.175.053a3.049 3.049 0 0 0 2.489-2.283c.079-.309.083-8.35.005-8.9-.275-1.931-.961-3.559-2.107-5-1.623-2.04-3.892-3.323-6.542-3.7-.315-.044-1.745-.084-2.02-.056M6.34 15.066c.253.087.507.341.594.594.057.168.066.413.066 1.84 0 1.871-.005 1.907-.299 2.201-.254.254-.435.299-1.201.299s-.947-.045-1.201-.299C3.998 19.4 4 19.419 4 17.073V15h1.073c.894 0 1.105.011 1.267.066M20 17.073c0 2.346.002 2.327-.299 2.628-.254.254-.435.299-1.201.299s-.947-.045-1.202-.3c-.299-.299-.303-.329-.29-2.285l.012-1.715.111-.189c.061-.103.173-.236.25-.294.262-.2.357-.213 1.529-.215L20 15v2.073" fill-rule="evenodd" fill="#000" stroke="none"/></svg>