<svg xmlns="http://www.w3.org/2000/svg" width="24" height="24" fill="none" stroke="currentColor" stroke-width="2" stroke-linecap="round" stroke-linejoin="round"><path d="M6.477 2.059c-1.424.232-2.601.829-3.595 1.822a6.399 6.399 0 0 0-1.763 3.272c-.107.507-.147 1.497-.082 2.031.17 1.391.743 2.711 1.688 3.888.136.169 2.139 2.203 4.451 4.519 3.07 3.075 4.253 4.235 4.384 4.3.13.064.252.089.44.089s.31-.025.44-.089c.131-.065 1.314-1.225 4.384-4.3 2.312-2.316 4.315-4.35 4.451-4.519 1.135-1.413 1.723-3.002 1.723-4.652a6.324 6.324 0 0 0-1.878-4.539c-.9-.903-1.989-1.489-3.28-1.766-.571-.123-1.775-.133-2.38-.021a6.561 6.561 0 0 0-3.251 1.642l-.212.198-.188-.182c-.835-.804-1.969-1.392-3.163-1.637-.513-.106-1.68-.136-2.169-.056M8.5 4.136a5.017 5.017 0 0 1 1.389.628c.138.093.548.46.911.816.698.684.846.78 1.2.78s.502-.096 1.2-.78c.363-.356.775-.724.915-.818a5.236 5.236 0 0 1 1.394-.631c.352-.095.461-.105 1.091-.105.631 0 .739.01 1.093.105a4.472 4.472 0 0 1 3.169 3.17c.14.529.174 1.306.083 1.865-.16.973-.595 1.89-1.288 2.714-.138.165-1.918 1.965-3.954 4L12 19.58l-3.703-3.7c-2.036-2.035-3.816-3.835-3.955-4-.71-.845-1.175-1.852-1.306-2.829-.068-.511-.026-1.261.098-1.739a4.466 4.466 0 0 1 3.492-3.251c.489-.092 1.365-.057 1.874.075" fill-rule="evenodd" fill="#000" stroke="none"/></svg>