<svg xmlns="http://www.w3.org/2000/svg" width="24" height="24" fill="none" stroke="currentColor" stroke-width="2" stroke-linecap="round" stroke-linejoin="round"><path d="M11.16 1.025c-1.859.175-3.545.734-5.012 1.662a11.748 11.748 0 0 0-3.461 3.461C1.869 7.442 1.33 8.925 1.093 10.54c-.052.356-.07.733-.07 1.46s.018 1.104.07 1.46c.366 2.489 1.384 4.537 3.126 6.282.686.689 1.053.991 1.781 1.469 1.357.891 2.852 1.449 4.54 1.695.671.098 2.249.098 2.92 0 1.945-.283 3.631-.98 5.177-2.136.533-.4 1.615-1.46 2.009-1.97a11.152 11.152 0 0 0 2.26-5.34c.052-.355.07-.736.07-1.46s-.018-1.105-.07-1.46c-.292-2-1.028-3.742-2.259-5.34-.388-.503-1.474-1.567-2.01-1.969A10.98 10.98 0 0 0 13.6 1.118c-.525-.079-1.991-.135-2.44-.093m1.703 2.018a9.005 9.005 0 0 1 7.22 5.017c2.183 4.452.329 9.831-4.143 12.023-4.45 2.182-9.836.326-12.023-4.143a8.973 8.973 0 0 1 1.07-9.571 9.028 9.028 0 0 1 7.876-3.326M11.4 6.024c-1.04.196-1.794.587-2.404 1.246-.385.415-.785 1.106-.876 1.509-.182.815.684 1.489 1.425 1.108.229-.118.349-.266.538-.667C10.443 8.456 11.13 8 11.92 8c.547 0 .988.188 1.404.599.508.503.719 1.229.515 1.773-.202.543-1.062 1.212-2.063 1.609-.29.114-.439.199-.559.32a1.057 1.057 0 0 0-.297.699c0 .573.526 1.048 1.097.989.263-.027 1.086-.382 1.602-.69 1.893-1.129 2.616-2.574 2.16-4.319a3.88 3.88 0 0 0-1.039-1.803 3.948 3.948 0 0 0-1.853-1.063c-.3-.079-1.241-.136-1.487-.09m.243 10.042c-.355.131-.643.549-.643.934 0 .729.814 1.222 1.465.887.711-.365.708-1.41-.004-1.776-.211-.109-.588-.129-.818-.045" fill-rule="evenodd" fill="#000" stroke="none"/></svg>