<svg xmlns="http://www.w3.org/2000/svg" width="24" height="24" fill="none" stroke="currentColor" stroke-width="2" stroke-linecap="round" stroke-linejoin="round"><path d="M11.495 1.041c-.475.086-.87.293-4.513 2.374-3.503 2-3.74 2.142-4.031 2.42a2.926 2.926 0 0 0-.723 1.034c-.216.531-.208.33-.208 5.171v4.5l.132.38c.176.505.419.884.797 1.244.294.279.523.417 4.045 2.428 4.283 2.446 4.148 2.381 4.966 2.385.526.003.76-.037 1.166-.203.227-.092 7.012-3.946 7.498-4.259.307-.197.756-.661.947-.977.08-.133.205-.412.277-.62l.132-.378V7.46l-.132-.38a4.01 4.01 0 0 0-.307-.66 3.514 3.514 0 0 0-.881-.913c-.11-.073-1.813-1.053-3.783-2.178-4.031-2.301-3.994-2.283-4.752-2.31a3.914 3.914 0 0 0-.63.022m.81 2.015c.085.03 1.766.976 3.735 2.1 2.541 1.452 3.617 2.087 3.708 2.188.264.297.252.078.252 4.656 0 4.578.012 4.359-.252 4.656-.091.101-1.167.736-3.708 2.188-1.969 1.124-3.65 2.07-3.735 2.1a.9.9 0 0 1-.61 0c-.085-.03-1.766-.976-3.735-2.1-2.541-1.452-3.617-2.087-3.708-2.188C3.988 16.359 4 16.578 4 12c0-4.578-.012-4.359.252-4.656.091-.101 1.167-.736 3.708-2.188 1.969-1.125 3.643-2.068 3.72-2.098a.963.963 0 0 1 .625-.002" fill-rule="evenodd" fill="#000" stroke="none"/></svg>