<svg xmlns="http://www.w3.org/2000/svg" width="24" height="24" fill="none" stroke="currentColor" stroke-width="2" stroke-linecap="round" stroke-linejoin="round"><path d="M13.64 3.068c-.155.053-.521.402-2.593 2.467C9.72 6.858 8.553 8.048 8.453 8.18a2.801 2.801 0 0 0-.599 1.68c-.01.242-.002.521.017.62l.037.18-2.889 2.9c-2.628 2.638-2.895 2.918-2.954 3.097-.056.169-.065.431-.065 1.843 0 1.871.005 1.907.299 2.201.318.319-.022.299 5.201.299 4.194 0 4.665-.006 4.843-.065.175-.058.356-.224 1.597-1.454l1.4-1.388.16.031c.258.05.819.039 1.107-.022.324-.069.676-.207.984-.387.321-.188 5.174-5.017 5.297-5.271a.99.99 0 0 0-.186-1.144c-.279-.279-.655-.364-1.045-.235-.179.059-.425.293-2.637 2.498-1.864 1.859-2.483 2.452-2.62 2.514a1.046 1.046 0 0 1-.8.001c-.138-.063-.804-.704-2.874-2.77-2.9-2.894-2.885-2.876-2.886-3.283-.001-.45-.116-.315 2.561-3.005 2.234-2.245 2.475-2.499 2.534-2.677a1.004 1.004 0 0 0-1.295-1.275M11.3 14.72 13.58 17l-1 1-.999 1H4v-1.58l2.49-2.49A223.976 223.976 0 0 1 9 12.44c.011 0 1.046 1.026 2.3 2.28" fill-rule="evenodd" fill="#000" stroke="none"/></svg>