<svg xmlns="http://www.w3.org/2000/svg" width="24" height="24" fill="none" stroke="currentColor" stroke-width="2" stroke-linecap="round" stroke-linejoin="round"><path d="M2.643 2.069a1.118 1.118 0 0 0-.343.229c-.309.309-.3.211-.299 3.239.001 2.613.003 2.688.082 2.863.11.242.257.391.497.505l.2.094L5.463 9c3.027 0 2.93.009 3.238-.299.479-.479.35-1.291-.251-1.587-.185-.091-.228-.095-1.505-.114L5.63 6.98l.533-.48c.745-.672.996-.874 1.477-1.189a8.205 8.205 0 0 1 3.32-1.235c.493-.07 1.691-.06 2.197.02 3.027.478 5.482 2.539 6.42 5.388.674 2.05.521 4.206-.436 6.116a8.182 8.182 0 0 1-2.78 3.113 8.289 8.289 0 0 1-3.029 1.189c-.463.085-1.69.121-2.18.063-1.882-.221-3.53-1.015-4.834-2.326-1.194-1.201-1.956-2.724-2.233-4.463-.103-.651-.23-.883-.58-1.063-.591-.304-1.324.069-1.441.734-.063.353.249 1.818.565 2.653a9.96 9.96 0 0 0 2.417 3.682c1.453 1.416 3.222 2.317 5.274 2.688.526.095.679.105 1.64.107 1.16.003 1.486-.032 2.434-.262a9.99 9.99 0 0 0 4.814-2.787c1.503-1.57 2.426-3.515 2.719-5.728.065-.494.065-1.919 0-2.38-.328-2.317-1.307-4.323-2.871-5.882a10.092 10.092 0 0 0-5.776-2.842c-.676-.092-1.887-.091-2.576.001a10.51 10.51 0 0 0-2.838.814c-1.158.535-1.829 1.003-3.154 2.204-.368.333-.678.605-.69.605C4.01 5.72 4 5.075 4 4.287c0-1.634-.01-1.699-.299-1.988a.998.998 0 0 0-1.058-.23m9 4a1.118 1.118 0 0 0-.343.229c-.309.309-.3.215-.3 3.202 0 2.986-.008 2.896.298 3.197.244.24 4.315 2.264 4.61 2.293a.994.994 0 0 0 .792-.288.98.98 0 0 0 .002-1.399c-.128-.126-.565-.362-1.934-1.043L13 11.381V9.117c0-2.558.005-2.514-.299-2.818a.998.998 0 0 0-1.058-.23" fill-rule="evenodd" fill="#000" stroke="none"/></svg>