<svg xmlns="http://www.w3.org/2000/svg" width="24" height="24" fill="none" stroke="currentColor" stroke-width="2" stroke-linecap="round" stroke-linejoin="round"><path d="M4.62 2.025c-.408.08-.533.114-.75.202-.881.358-1.549 1.137-1.794 2.093-.083.327-.084 15.031 0 15.357.281 1.099 1.041 1.876 2.184 2.238.179.056.983.064 7.56.075 4.998.008 7.448-.001 7.633-.03 1.19-.183 2.167-1.084 2.471-2.28.083-.328.084-15.032 0-15.357-.307-1.197-1.264-2.09-2.444-2.28-.246-.04-14.661-.057-14.86-.018m14.72 2.041c.115.039.263.135.361.233.315.315.299.072.299 4.417v3.862l-1.73-1.724c-1.551-1.545-1.75-1.73-1.927-1.789a.987.987 0 0 0-.686 0c-.181.059-.63.497-5.607 5.469l-5.409 5.405-.145-.078a1.081 1.081 0 0 1-.26-.218c-.253-.307-.238.203-.226-7.725L4.02 4.7l.111-.189c.125-.213.318-.375.539-.454.123-.044 1.434-.054 7.313-.055 6.565-.002 7.179.004 7.357.064M7.96 6.062c-.927.199-1.705.984-1.9 1.918-.369 1.764 1.196 3.329 2.96 2.96 1.331-.278 2.201-1.619 1.92-2.96-.28-1.341-1.628-2.208-2.98-1.918m.764 2a.488.488 0 0 1 .198.686.485.485 0 0 1-.844 0 .478.478 0 0 1 .174-.67.453.453 0 0 1 .472-.016m9.286 5.368L20 15.42v1.863c0 2.112-.001 2.12-.299 2.418-.322.322.168.299-6.418.299H7.42l4.28-4.28a657.296 657.296 0 0 1 4.3-4.28c.011 0 .915.895 2.01 1.99" fill="#000" fill-rule="evenodd" stroke="none"/></svg>