<svg xmlns="http://www.w3.org/2000/svg" width="24" height="24" fill="none" stroke="currentColor" stroke-width="2" stroke-linecap="round" stroke-linejoin="round"><path d="M4.62 2.025c-.408.08-.533.114-.75.202-.881.358-1.549 1.137-1.794 2.093-.083.327-.084 15.031 0 15.357.281 1.099 1.041 1.876 2.184 2.238.179.056.983.064 7.56.075 4.998.008 7.448-.001 7.633-.03a3.034 3.034 0 0 0 2.306-1.8c.231-.547.217-.253.231-4.956.014-4.887.032-4.584-.288-4.904a.984.984 0 0 0-1.403-.001c-.268.268-.299.415-.299 1.417v.862l-1.73-1.724c-1.551-1.545-1.75-1.73-1.927-1.789a.987.987 0 0 0-.686 0c-.181.059-.63.497-5.607 5.469l-5.409 5.405-.145-.078a1.076 1.076 0 0 1-.259-.217c-.253-.307-.237.203-.235-7.661.001-5.879.011-7.19.055-7.313.079-.221.241-.414.454-.539L4.7 4.02 8.98 4l4.28-.02.19-.094c.601-.296.73-1.108.251-1.587-.317-.317-.027-.3-4.778-.294-2.323.002-4.259.011-4.303.02m11.023 2.044C15.291 4.193 15 4.614 15 5c0 .242.119.521.299.701.311.312.157.299 3.701.299s3.39.013 3.701-.299a.984.984 0 0 0 0-1.402c-.312-.312-.154-.299-3.718-.296-2.757.003-3.186.011-3.34.066M7.96 6.062c-.927.199-1.705.984-1.9 1.918-.369 1.765 1.195 3.329 2.96 2.96 1.331-.278 2.201-1.619 1.92-2.96-.28-1.339-1.63-2.208-2.98-1.918m.764 2a.488.488 0 0 1 .198.686.485.485 0 0 1-.844 0 .478.478 0 0 1 .174-.67.453.453 0 0 1 .472-.016m9.286 5.368L20 15.42v1.863c0 2.112-.001 2.12-.299 2.418-.322.322.168.299-6.418.299H7.42l4.28-4.28a657.296 657.296 0 0 1 4.3-4.28c.011 0 .915.895 2.01 1.99" fill-rule="evenodd" fill="#000" stroke="none"/></svg>