<svg xmlns="http://www.w3.org/2000/svg" width="24" height="24" fill="none" stroke="currentColor" stroke-width="2" stroke-linecap="round" stroke-linejoin="round"><path d="M1.643 1.069C1.291 1.193 1 1.614 1 2c0 .348.1.506.708 1.124l.575.584-.132.376-.131.376v7.5c0 6.295.009 7.535.056 7.72a3.055 3.055 0 0 0 1.621 1.999c.222.107.502.218.623.247.18.044 1.584.054 7.72.054h7.5l.376-.131.376-.132.584.575c.618.608.776.708 1.124.708.728 0 1.209-.783.887-1.444-.063-.13-2.761-2.85-10.216-10.301C3.299 1.888 2.525 1.125 2.343 1.065a1.038 1.038 0 0 0-.7.004m7 1C8.291 2.193 8 2.614 8 3c0 .242.119.521.299.701.32.32-.082.299 5.701.299 5.783 0 5.381-.021 5.701.299.315.315.299.072.299 4.417v3.862l-1.73-1.724c-1.551-1.545-1.75-1.73-1.927-1.789-.389-.129-.766-.044-1.044.234s-.363.654-.234 1.044c.059.179.307.44 2.69 2.831 2.095 2.102 2.665 2.654 2.825 2.73a.999.999 0 0 0 1.356-.55c.061-.159.066-.625.054-5.534-.013-5.82.002-5.404-.227-5.975-.367-.915-1.287-1.641-2.287-1.803-.168-.027-2.038-.04-5.456-.039-4.603.003-5.22.01-5.377.066m-2.51 5.725a2.984 2.984 0 0 0-.081.529c-.099 1.463 1.162 2.724 2.625 2.625.188-.013.426-.049.529-.081l.185-.056 1.094 1.094L11.58 13l-3.47 3.47-3.469 3.469-.145-.078a1.076 1.076 0 0 1-.259-.217c-.252-.306-.237.172-.237-7.361V5.421l1.095 1.094 1.094 1.094-.056.185M15.8 17.22 18.58 20H7.42l2.78-2.78a278.647 278.647 0 0 1 2.8-2.78c.011 0 1.271 1.251 2.8 2.78" fill-rule="evenodd" fill="#000" stroke="none"/></svg>