<svg xmlns="http://www.w3.org/2000/svg" width="24" height="24" fill="none" stroke="currentColor" stroke-width="2" stroke-linecap="round" stroke-linejoin="round"><path d="M11.643 2.069a1.118 1.118 0 0 0-.343.229c-.32.32-.3-.048-.3 5.418v4.861l-1.23-1.223c-1.085-1.078-1.253-1.231-1.427-1.288-.389-.13-.766-.045-1.044.233s-.363.654-.234 1.044c.059.178.273.405 2.19 2.331 2.314 2.325 2.315 2.325 2.745 2.325.43 0 .431 0 2.745-2.325 1.917-1.926 2.131-2.153 2.19-2.331.129-.39.044-.766-.234-1.044s-.655-.363-1.044-.233c-.174.057-.342.21-1.427 1.288L13 12.577V7.716c0-5.465.02-5.098-.299-5.417a.998.998 0 0 0-1.058-.23M3.62 4.025c-.408.08-.533.114-.75.202-.881.358-1.549 1.137-1.794 2.093-.083.326-.084 11.032 0 11.357.281 1.096 1.042 1.877 2.184 2.238.179.057 1.066.065 8.56.075 5.689.008 8.447-.001 8.633-.03 1.19-.182 2.167-1.084 2.471-2.28.083-.327.083-11.033 0-11.357-.307-1.197-1.264-2.089-2.448-2.281C20.322 4.017 19.354 4 18.037 4c-2.469 0-2.435-.004-2.738.299a.984.984 0 0 0 0 1.402c.302.302.274.299 2.701.299s2.399-.003 2.701.299c.32.32.299-.082.299 5.701 0 5.783.021 5.381-.299 5.701-.325.325.443.299-8.701.299s-8.376.026-8.701-.299c-.32-.32-.299.084-.297-5.718.001-4.209.011-5.191.055-5.313.079-.221.241-.414.454-.539L3.7 6.02 5.98 6l2.28-.02.19-.094c.601-.296.73-1.108.251-1.587-.304-.304-.263-.3-2.778-.294a87.455 87.455 0 0 0-2.303.02" fill-rule="evenodd" fill="#000" stroke="none"/></svg>