<svg width="24" height="24" xmlns="http://www.w3.org/2000/svg" fill="none" stroke="currentColor" stroke-width="2" stroke-linecap="round" stroke-linejoin="round"><path d="M5.643 2.069C5.291 2.193 5 2.614 5 3c0 .242.119.521.299.701.295.296.322.299 2.279.299.948 0 1.869.018 2.046.04 1.321.166 2.342.859 2.901 1.969.144.288.355.85.355.948 0 .03-1.037.043-3.513.043-3.955 0-3.754-.015-4.068.299a.984.984 0 0 0 0 1.402c.314.314.113.299 4.068.299 2.476 0 3.513.013 3.513.043 0 .098-.211.66-.355.948-.559 1.11-1.58 1.803-2.901 1.969-.177.022-1.114.04-2.083.04l-1.761.001-.2.094a.977.977 0 0 0-.579.908c-.002.454-.19.259 4.559 4.724 2.387 2.245 4.412 4.119 4.5 4.166.224.118.657.118.88-.001.206-.109.399-.312.478-.501.094-.225.081-.617-.028-.833-.068-.135-.906-.946-3.468-3.358l-3.377-3.18.577-.024c.657-.027.877-.053 1.36-.158 2.24-.489 3.891-2.188 4.382-4.508l.07-.33h1.606c1.826 0 1.868-.006 2.161-.299a.984.984 0 0 0 0-1.402C18.408 7.006 18.366 7 16.54 7h-1.606l-.07-.33a6.465 6.465 0 0 0-1.185-2.56L13.593 4h2.277c2.573 0 2.527.005 2.831-.299a.984.984 0 0 0 0-1.402c-.323-.323.205-.299-6.718-.296-5.475.003-6.183.01-6.34.066" fill-rule="evenodd" fill="#000" stroke="none"/></svg>