<svg xmlns="http://www.w3.org/2000/svg" width="24" height="24" fill="none" stroke="currentColor" stroke-width="2" stroke-linecap="round" stroke-linejoin="round"><path d="M4.783 7.044c-1.878.274-3.301 1.768-3.69 3.876-.096.524-.096 1.636 0 2.16.149.804.51 1.653.954 2.243 1.122 1.489 2.91 2.005 5.054 1.457 1.457-.372 2.717-1.167 4.266-2.692l.628-.617.466.483c1.675 1.738 3.101 2.637 4.68 2.952.506.1 1.589.099 2.059-.002.748-.161 1.366-.436 1.907-.849 2.283-1.741 2.539-5.527.517-7.647-.637-.668-1.433-1.098-2.424-1.312-.47-.101-1.553-.102-2.059-.002-1.526.304-2.788 1.079-4.458 2.735l-.697.692-.623-.613c-1.215-1.196-2.16-1.876-3.261-2.349-1.05-.45-2.363-.654-3.319-.515m1.679 2.072c.936.23 1.726.658 2.676 1.45.48.401 1.462 1.364 1.462 1.434 0 .07-.982 1.033-1.462 1.434-1.22 1.018-2.276 1.492-3.458 1.551-.778.039-1.278-.12-1.747-.558-.399-.373-.679-.883-.84-1.533-.095-.382-.095-1.406 0-1.788.275-1.109.925-1.848 1.801-2.049.333-.076 1.14-.046 1.568.059m12.638.019c.89.286 1.521.98 1.787 1.965.123.458.123 1.342 0 1.8a2.972 2.972 0 0 1-.682 1.266c-.318.34-.65.551-1.105.702-.29.097-.376.107-.92.106-.489-.001-.659-.017-.916-.087-.684-.188-1.309-.523-2.018-1.084C14.737 13.4 13.4 12.094 13.4 12c0-.088 1.319-1.383 1.8-1.767.834-.666 1.548-1.028 2.316-1.174.464-.088 1.179-.053 1.584.076" fill-rule="evenodd" fill="#000" stroke="none"/></svg>