<svg xmlns="http://www.w3.org/2000/svg" width="24" height="24" fill="none" stroke="currentColor" stroke-width="2" stroke-linecap="round" stroke-linejoin="round"><path d="M3.62 1.025c-.408.08-.533.114-.75.202-.881.358-1.549 1.137-1.794 2.093-.083.327-.084 14.031 0 14.357.241.939.927 1.749 1.769 2.086.562.226.303.213 4.451.227 4.327.014 4.086.03 4.404-.288a.984.984 0 0 0 .001-1.403C11.387 17.985 11.604 18 7.5 18c-4.104 0-3.887.015-4.201-.299-.323-.323-.299.265-.297-7.218.001-5.462.011-6.69.055-6.813.079-.221.241-.414.454-.539L3.7 3.02l6.718-.01c7.55-.012 6.958-.036 7.282.288.316.315.3.097.3 4.202 0 4.104-.015 3.887.299 4.201a.984.984 0 0 0 1.403-.001c.318-.318.302-.077.288-4.404-.014-4.148-.001-3.889-.227-4.451-.367-.916-1.287-1.641-2.283-1.802-.246-.04-13.661-.057-13.86-.018m8.023 10.044c-.385.136-.674.595-.634 1.007.012.128.677 1.77 2.108 5.205 1.149 2.761 2.119 5.081 2.155 5.157.312.664 1.276.744 1.696.141.069-.099.296-.706.599-1.599.268-.792.493-1.448.501-1.458.008-.009.549.515 1.203 1.165 1.047 1.04 1.213 1.19 1.386 1.247.389.13.766.046 1.044-.233.279-.278.363-.655.233-1.044-.057-.173-.207-.339-1.243-1.382-.648-.652-1.161-1.196-1.14-1.21.022-.013.676-.24 1.454-.504.886-.301 1.474-.522 1.574-.592.622-.437.522-1.388-.181-1.716-.24-.112-9.672-4.038-9.989-4.158-.286-.108-.512-.116-.766-.026m4.896 3.905 2.627 1.095-.963.331c-.53.182-1.033.376-1.118.431a1.022 1.022 0 0 0-.254.254c-.055.085-.249.588-.431 1.118l-.331.963-1.095-2.627a397.22 397.22 0 0 1-1.094-2.643c0-.009.007-.016.016-.016.008 0 1.198.493 2.643 1.094" fill-rule="evenodd" fill="#000" stroke="none"/></svg>