<svg xmlns="http://www.w3.org/2000/svg" width="24" height="24" fill="none" stroke="currentColor" stroke-width="2" stroke-linecap="round" stroke-linejoin="round"><path d="M6.42 1.026c-.826.103-1.501.306-2.176.655A6.03 6.03 0 0 0 1.095 5.94c-.071.379-.075.701-.075 6.06s.004 5.681.075 6.06a6.027 6.027 0 0 0 3.146 4.256c.521.271.986.437 1.599.572l.42.092h11.48l.42-.092c1.856-.409 3.316-1.508 4.156-3.129.271-.521.437-.986.572-1.599l.092-.42V6.26l-.092-.42c-.54-2.451-2.28-4.194-4.724-4.731-.38-.084-.445-.085-6.004-.091-3.091-.004-5.674 0-5.74.008m11.582 2.1a4.05 4.05 0 0 1 2.904 3.014c.07.304.074.6.074 5.86 0 5.26-.004 5.556-.074 5.86-.348 1.496-1.449 2.621-2.966 3.031-.32.087-.326.087-5.777.099-4.762.01-5.502.004-5.812-.049a3.888 3.888 0 0 1-2.172-1.121 3.965 3.965 0 0 1-1.053-1.818l-.106-.382V6.38l.106-.382A3.965 3.965 0 0 1 4.179 4.18a3.883 3.883 0 0 1 2.15-1.121c.234-.042 1.365-.051 5.791-.046l5.5.007.382.106m-.958 2.499c-.364.182-.545.516-.517.955a.927.927 0 0 0 .45.758c.269.167.677.192.956.061.24-.113.452-.359.528-.615.074-.248.074-.32 0-.568-.176-.591-.851-.873-1.417-.591m-5.703 1.377c-.637.1-1.296.337-1.858.668-1.302.766-2.215 2.17-2.401 3.689-.058.471-.052.82.021 1.315.328 2.209 2.033 3.903 4.257 4.229 1.012.148 2.016-.026 2.978-.516 1.343-.684 2.324-2.001 2.627-3.527.082-.415.071-1.474-.019-1.892a4.952 4.952 0 0 0-1.448-2.605 4.823 4.823 0 0 0-2.378-1.288c-.394-.091-1.401-.132-1.779-.073m1.479 2.056a3.05 3.05 0 0 1 1.899 1.562c.203.411.28.707.309 1.181.081 1.351-.747 2.553-2.068 3.004-.348.119-.422.13-.88.131-.602.001-.862-.059-1.4-.323-.32-.157-.437-.243-.743-.55-.307-.306-.393-.423-.55-.743-.267-.544-.327-.8-.324-1.4.002-.456.014-.534.132-.88.358-1.048 1.166-1.781 2.225-2.016.345-.077 1.051-.06 1.4.034" fill-rule="evenodd" fill="#000" stroke="none"/></svg>