<svg xmlns="http://www.w3.org/2000/svg" width="24" height="24" fill="none" stroke="currentColor" stroke-width="2" stroke-linecap="round" stroke-linejoin="round"><path d="M9.643 3.069a1.118 1.118 0 0 0-.343.229c-.48.48-.352 1.292.25 1.588.189.094.198.094 2.094.114l1.904.02-2.622 6.99L8.305 19H6.58c-1.959 0-1.986.003-2.281.299a.984.984 0 0 0 0 1.402c.318.319-.022.299 5.201.299s4.883.02 5.201-.299c.479-.479.35-1.291-.251-1.587-.189-.094-.198-.094-2.094-.114l-1.904-.02 2.622-6.99L15.695 5h1.725c1.959 0 1.986-.003 2.281-.299a.984.984 0 0 0 0-1.402c-.319-.319.025-.299-5.218-.296-4.116.003-4.684.011-4.84.066" fill="#000" fill-rule="evenodd" stroke="none"/></svg>