<svg xmlns="http://www.w3.org/2000/svg" width="24" height="24" fill="none" stroke="currentColor" stroke-width="2" stroke-linecap="round" stroke-linejoin="round"><path d="M5.643 2.067c-.54.197-.794.877-.519 1.389.054.1 1.374 1.562 2.986 3.307C9.7 8.483 11 9.915 11 9.945c0 .046-.418.055-2.573.055-2.904 0-2.821-.008-3.128.299a.984.984 0 0 0 0 1.402c.307.307.224.299 3.128.299H11v2H8.427c-2.904 0-2.821-.008-3.128.299a.984.984 0 0 0 0 1.402c.307.307.224.299 3.128.299H11v2.573c0 2.904-.008 2.821.299 3.128a.984.984 0 0 0 1.402 0c.307-.307.299-.224.299-3.128V16h2.573c2.904 0 2.821.008 3.128-.299a.984.984 0 0 0 0-1.402c-.307-.307-.224-.299-3.128-.299H13v-2h2.573c2.904 0 2.821.008 3.128-.299a.984.984 0 0 0 0-1.402c-.307-.307-.224-.299-3.128-.299C13.418 10 13 9.991 13 9.945c0-.03 1.3-1.462 2.89-3.182 1.612-1.745 2.932-3.207 2.986-3.307.452-.841-.454-1.763-1.32-1.344-.138.067-.759.717-2.853 2.987C13.23 6.694 12.014 8 12 8c-.014 0-1.23-1.306-2.703-2.901-2.122-2.3-2.714-2.919-2.856-2.988a1.123 1.123 0 0 0-.798-.044" fill-rule="evenodd" fill="#000" stroke="none"/></svg>