<svg xmlns="http://www.w3.org/2000/svg" width="24" height="24" fill="none" stroke="currentColor" stroke-width="2" stroke-linecap="round" stroke-linejoin="round"><path d="M20.64 1.068c-.157.053-.768.648-4.746 4.622l-4.567 4.562-.255-.162a6.93 6.93 0 0 0-2.232-.896c-.363-.079-.536-.091-1.28-.091-.741 0-.917.012-1.27.089-2.618.57-4.528 2.48-5.098 5.098-.077.353-.089.529-.089 1.27 0 .745.012.916.091 1.28.439 2.028 1.638 3.592 3.452 4.503 1.469.738 3.318.874 4.885.361a6.548 6.548 0 0 0 4.349-4.817c.164-.755.181-1.786.04-2.527a6.94 6.94 0 0 0-1.026-2.5l-.134-.199 1.369-1.37 1.37-1.37 1.2 1.197c1.317 1.313 1.378 1.36 1.803 1.361.437.002.455-.013 2.503-2.068 1.676-1.682 1.871-1.891 1.93-2.068a.982.982 0 0 0-.001-.686c-.057-.174-.209-.342-1.288-1.427l-1.222-1.229.722-.731C21.912 2.495 22 2.364 22 2c0-.685-.692-1.16-1.36-.932M19.8 6.22l.779.78-1.039 1.04-1.039 1.04-.791-.79-.79-.789 1.03-1.031A39.185 39.185 0 0 1 19 5.44c.011 0 .371.351.8.78M8.7 11.215a4.412 4.412 0 0 1 3.312 4.265c.002.275-.02.635-.049.8a4.512 4.512 0 0 1-6.11 3.417 4.455 4.455 0 0 1-2.638-3.006c-.126-.484-.169-1.276-.098-1.775a4.532 4.532 0 0 1 3.03-3.614c.541-.179.85-.221 1.533-.206.511.011.69.032 1.02.119" fill-rule="evenodd" fill="#000" stroke="none"/></svg>