<svg xmlns="http://www.w3.org/2000/svg" width="24" height="24" fill="none" stroke="currentColor" stroke-width="2" stroke-linecap="round" stroke-linejoin="round"><path d="M11.677 1.058c-.078.029-1.991 1.208-4.25 2.62-2.774 1.734-4.139 2.609-4.206 2.697a.999.999 0 0 0 .078 1.326C3.624 8.026 2.856 8 12 8s8.376.026 8.701-.299a.999.999 0 0 0 .078-1.326c-.111-.145-8.195-5.222-8.47-5.319a.984.984 0 0 0-.632.002M14.273 4.6l2.207 1.38-2.24.01c-1.232.006-3.248.006-4.48 0l-2.24-.01 2.21-1.387c1.216-.763 2.238-1.384 2.273-1.38.035.004 1.056.628 2.27 1.387m-8.63 5.469a1.118 1.118 0 0 0-.343.229c-.316.315-.3.097-.3 4.202 0 4.104-.015 3.887.299 4.201a.984.984 0 0 0 1.402 0c.314-.314.299-.097.299-4.201 0-4.104.015-3.887-.299-4.201a.998.998 0 0 0-1.058-.23m4 0a1.118 1.118 0 0 0-.343.229c-.316.315-.3.097-.3 4.202 0 4.104-.015 3.887.299 4.201a.984.984 0 0 0 1.402 0c.314-.314.299-.097.299-4.201 0-4.104.015-3.887-.299-4.201a.998.998 0 0 0-1.058-.23m4 0a1.118 1.118 0 0 0-.343.229c-.316.315-.3.097-.3 4.202 0 4.104-.015 3.887.299 4.201a.984.984 0 0 0 1.402 0c.314-.314.299-.097.299-4.201 0-4.104.015-3.887-.299-4.201a.998.998 0 0 0-1.058-.23m4 0a1.118 1.118 0 0 0-.343.229c-.316.315-.3.097-.3 4.202 0 4.104-.015 3.887.299 4.201a.984.984 0 0 0 1.402 0c.314-.314.299-.097.299-4.201 0-4.104.015-3.887-.299-4.201a.998.998 0 0 0-1.058-.23m-15 11C2.291 21.193 2 21.614 2 22c0 .242.119.521.299.701.326.326-.563.299 9.701.299 10.264 0 9.375.027 9.701-.299a.984.984 0 0 0 0-1.402c-.326-.327.567-.299-9.718-.296-8.192.003-9.182.01-9.34.066" fill="#000" fill-rule="evenodd" stroke="none"/></svg>