<svg xmlns="http://www.w3.org/2000/svg" width="24" height="24" fill="none" stroke="currentColor" stroke-width="2" stroke-linecap="round" stroke-linejoin="round"><path d="M6.643 1.069C6.291 1.193 6 1.614 6 2c0 .396.291.808.66.934.278.094 1.402.094 1.68 0C8.709 2.808 9 2.396 9 2s-.291-.808-.66-.934c-.268-.091-1.436-.089-1.697.003m-5 3a1.118 1.118 0 0 0-.343.229c-.48.48-.352 1.292.25 1.588l.19.094L5.93 6l4.19.02-.424.64c-.396.597-.484.7-1.309 1.529l-.885.89-.981-.974c-.853-.846-1.007-.982-1.178-1.039a.962.962 0 0 0-.683 0 1.011 1.011 0 0 0-.651 1.012c.034.353.142.495 1.13 1.481l.94.939-1.474 1.481c-1.313 1.319-1.481 1.503-1.54 1.678-.129.39-.044.766.235 1.045a.986.986 0 0 0 1.144.185c.121-.059.622-.531 1.615-1.526l1.44-1.44 1.48 1.474c1.319 1.313 1.503 1.481 1.678 1.54.389.129.766.044 1.044-.234s.363-.655.234-1.044c-.059-.175-.227-.359-1.54-1.678l-1.474-1.481.92-.919.92-.919.886-1.33.886-1.33h.806c.942 0 1.097-.034 1.362-.299a.984.984 0 0 0 0-1.402c-.323-.323.205-.299-6.718-.296-5.475.003-6.183.01-6.34.066m15 7c-.38.134-.308.005-3.058 5.514-2.133 4.273-2.558 5.153-2.575 5.323-.042.441.241.888.65 1.028a.949.949 0 0 0 .68 0c.368-.125.441-.238 1.4-2.166L14.619 19h4.762l.879 1.768c.959 1.928 1.032 2.041 1.4 2.166a.949.949 0 0 0 .68 0c.409-.14.692-.587.65-1.028-.017-.17-.442-1.05-2.575-5.323-2.075-4.158-2.586-5.15-2.718-5.285a.992.992 0 0 0-1.054-.229m1.047 4.551c.369.737.67 1.349.67 1.36 0 .011-.612.02-1.36.02-.748 0-1.36-.009-1.36-.02 0-.04 1.34-2.7 1.36-2.7.011 0 .322.603.69 1.34" fill-rule="evenodd" fill="#000" stroke="none"/></svg>