<svg xmlns="http://www.w3.org/2000/svg" width="24" height="24" fill="none" stroke="currentColor" stroke-width="2" stroke-linecap="round" stroke-linejoin="round"><path d="M4.62 3.025c-.408.08-.533.114-.75.202-.881.358-1.549 1.137-1.794 2.093-.083.325-.084 9.033 0 9.357.281 1.099 1.041 1.876 2.184 2.238.179.056.983.064 7.56.075 4.998.008 7.448-.001 7.633-.03 1.19-.183 2.167-1.084 2.471-2.28.083-.326.083-9.034 0-9.357-.307-1.197-1.264-2.09-2.444-2.28-.246-.04-14.661-.057-14.86-.018m14.72 2.041c.115.039.263.135.361.233.317.317.299.038.299 4.701 0 4.663.018 4.384-.299 4.701-.324.324.322.299-7.701.299-8.025 0-7.377.025-7.702-.3-.318-.318-.301-.031-.289-4.782L4.02 5.7l.111-.189c.125-.213.318-.375.539-.454.123-.044 1.434-.054 7.313-.055 6.565-.002 7.179.004 7.357.064M1.643 19.069C1.291 19.193 1 19.614 1 20c0 .396.291.808.66.934.179.061 1.001.066 10.34.066 11.385 0 10.374.028 10.701-.299a.984.984 0 0 0 0-1.402c-.327-.327.687-.299-10.718-.296-9.098.003-10.182.01-10.34.066" fill="#000" fill-rule="evenodd" stroke="none"/></svg>