<svg xmlns="http://www.w3.org/2000/svg" width="24" height="24" fill="none" stroke="currentColor" stroke-width="2" stroke-linecap="round" stroke-linejoin="round"><path d="M5.62 4.025c-.408.08-.533.114-.75.202-.706.287-1.342.91-1.62 1.588-.242.589-.225.231-.249 5.325l-.021 4.68-.604 1.2c-.768 1.524-.821 1.688-.734 2.263.125.827.791 1.528 1.593 1.677.14.026 3.243.04 8.765.04s8.625-.014 8.765-.04c.802-.149 1.468-.85 1.593-1.677.087-.575.034-.739-.734-2.263l-.604-1.2-.021-4.68c-.024-5.067-.009-4.73-.236-5.295-.367-.916-1.287-1.641-2.283-1.802-.246-.04-12.661-.057-12.86-.018m12.72 2.041c.115.039.263.135.361.233.316.316.299.047.299 4.628V15H4.999l.01-4.15.011-4.15.111-.189c.125-.213.318-.375.539-.454.123-.044 1.269-.054 6.313-.055 5.634-.002 6.179.004 6.357.064m1.53 11.914c.27.539.49.989.49 1 0 .011-3.762.02-8.36.02-4.598 0-8.36-.009-8.36-.02 0-.011.22-.461.49-1l.489-.98h14.762l.489.98" fill-rule="evenodd" fill="#000" stroke="none"/></svg>