<svg xmlns="http://www.w3.org/2000/svg" width="24" height="24" fill="none" stroke="currentColor" stroke-width="2" stroke-linecap="round" stroke-linejoin="round"><path d="m11.18 1.023-.595.058c-.899.088-1.966.322-2.825.62-2.761.96-4.88 2.731-5.982 4.999-.757 1.559-.958 3.155-.614 4.88.165.823.603 1.907 1.052 2.603l.182.283-.133.317c-.197.469-.244.704-.244 1.217 0 .486.046.735.209 1.137.279.687.905 1.325 1.57 1.602.099.042.2.095.224.118.024.024.074.196.113.383a6.103 6.103 0 0 0 1.626 3c.717.71 1.072.866 1.577.694.403-.137.692-.587.651-1.012-.03-.318-.164-.533-.514-.824a4.047 4.047 0 0 1-1.268-1.838c-.147-.448-.147-.451.007-.516a3.61 3.61 0 0 0 .746-.482l.143-.128.637.209c1.354.444 2.681.656 4.122.657 2.109.001 3.988-.416 5.756-1.279 2.111-1.03 3.693-2.55 4.602-4.421 1.477-3.042.812-6.48-1.746-9.022-1.755-1.744-4.223-2.869-7.016-3.199-.372-.044-1.997-.083-2.28-.056m2.44 2.097c2.766.412 5.142 1.8 6.403 3.74.42.647.744 1.429.884 2.13.096.482.096 1.538 0 2.02-.397 1.992-1.884 3.774-4.061 4.867-1.046.525-2.066.835-3.386 1.029-.75.111-2.485.1-3.254-.02a13.214 13.214 0 0 1-1.906-.457l-.28-.096-.025-.401a4.577 4.577 0 0 0-.075-.613c-.355-1.479-1.784-2.48-3.27-2.291a3.57 3.57 0 0 0-.522.104l-.172.06-.094-.149c-.319-.505-.608-1.236-.749-1.895-.116-.545-.127-1.634-.022-2.155.36-1.779 1.571-3.388 3.378-4.488 1.335-.814 2.804-1.286 4.551-1.463.579-.059 1.957-.018 2.6.078M5.34 15.066c.369.126.66.538.66.934 0 .527-.473 1-1 1a1.03 1.03 0 0 1-.94-.679.99.99 0 0 1 1.28-1.255" fill-rule="evenodd" fill="#000" stroke="none"/></svg>