<svg xmlns="http://www.w3.org/2000/svg" width="24" height="24" fill="none" stroke="currentColor" stroke-width="2" stroke-linecap="round" stroke-linejoin="round"><path d="M11.16 1.026c-.839.08-1.074.109-1.475.178-2.807.486-5.306 1.89-6.898 3.876C2 6.062 1.393 7.327 1.162 8.469a7.665 7.665 0 0 0 1.088 5.702l.175.272-.109.228c-.471.994-.406 2.068.18 2.964.307.47.816.901 1.304 1.104.099.042.2.095.224.118.024.024.074.196.113.383a6.103 6.103 0 0 0 1.626 3c.717.71 1.072.866 1.577.694.403-.137.692-.587.651-1.012-.03-.318-.164-.533-.514-.824a4.047 4.047 0 0 1-1.268-1.838c-.144-.437-.144-.456-.022-.503.179-.068.559-.311.775-.495l.201-.171.508.178c.614.214 1.586.468 2.057.536.279.04.377.04.517-.002.63-.189.922-.872.615-1.437a1.009 1.009 0 0 0-.288-.331c-.166-.115-.246-.138-1.072-.318-.22-.048-.645-.165-.944-.261l-.544-.175-.025-.411c-.037-.604-.174-1.031-.482-1.505a3.014 3.014 0 0 0-3.268-1.264l-.252.065-.073-.093c-.122-.157-.504-.956-.608-1.273-.728-2.213-.108-4.444 1.724-6.203C7.943 2.8 13.073 2.182 16.943 4.161c1.986 1.017 3.406 2.651 3.877 4.461.232.895.226 1.804-.019 2.756-.141.546-.15.775-.038 1.022.338.746 1.386.801 1.764.094.057-.107.15-.374.207-.594.468-1.811.298-3.535-.514-5.212-.454-.937-.947-1.62-1.738-2.408-1.873-1.865-4.461-2.989-7.462-3.239-.445-.037-1.535-.046-1.86-.015m2.64 9.438a1.492 1.492 0 0 0-.606.527c-.197.316-.193.201-.194 5.692 0 5.599-.009 5.354.22 5.717.136.216.401.427.657.524.272.103.696.087.977-.037.349-.155.519-.369 1.711-2.156l1.154-1.728 2.15-.012 2.151-.011.209-.094c.247-.112.542-.413.663-.677.125-.271.123-.788-.005-1.072-.147-.328.314.061-6.947-5.866-1.035-.845-1.157-.912-1.632-.909a1.109 1.109 0 0 0-.508.102m3.615 4.596 2.347 1.92-1.411.02c-1.495.022-1.519.025-1.783.226-.074.057-.434.555-.815 1.128a60.18 60.18 0 0 1-.718 1.064c-.02.022-.035-1.315-.035-3.133 0-1.745.015-3.166.034-3.158.019.007 1.091.877 2.381 1.933m-12.075.006c.369.126.66.538.66.934 0 .527-.473 1-1 1a1.03 1.03 0 0 1-.94-.679.99.99 0 0 1 1.28-1.255" fill-rule="evenodd" fill="#000" stroke="none"/></svg>