<svg xmlns="http://www.w3.org/2000/svg" width="24" height="24" fill="none" stroke="currentColor" stroke-width="2" stroke-linecap="round" stroke-linejoin="round"><path d="M11.68 1.055c-.077.03-2.417 1.193-5.2 2.584-4.095 2.048-5.088 2.559-5.205 2.682a.985.985 0 0 0 .023 1.376c.135.132 1.129.644 5.295 2.723l5.129 2.56h.556l5.129-2.56c4.166-2.079 5.16-2.591 5.295-2.723a.977.977 0 0 0 0-1.394c-.135-.132-1.128-.643-5.289-2.72-4.818-2.405-5.137-2.558-5.358-2.569a1.113 1.113 0 0 0-.375.041m4.18 3.995c2.123 1.061 3.86 1.939 3.86 1.95 0 .011-1.737.889-3.86 1.95L12 10.88 8.14 8.95C6.017 7.889 4.28 7.011 4.28 7c0-.015 7.656-3.866 7.71-3.878.005-.001 1.747.866 3.87 1.928M1.643 11.067C1.289 11.196 1 11.615 1 12c0 .243.119.521.298.697.135.132 1.129.644 5.295 2.723l5.129 2.56h.556l5.129-2.56c4.166-2.079 5.16-2.591 5.295-2.723.179-.176.298-.454.298-.697a1.03 1.03 0 0 0-.678-.939c-.429-.143-.168-.257-5.471 2.394L12 15.88l-4.855-2.427c-4.572-2.286-4.869-2.428-5.09-2.439a1.13 1.13 0 0 0-.412.053m0 5C1.289 16.196 1 16.615 1 17c0 .243.119.521.298.697.135.132 1.129.644 5.295 2.723l5.129 2.56h.556l5.129-2.56c4.166-2.079 5.16-2.591 5.295-2.723.179-.176.298-.454.298-.697a1.03 1.03 0 0 0-.678-.939c-.429-.143-.168-.257-5.471 2.394L12 20.88l-4.855-2.427c-4.572-2.286-4.869-2.428-5.09-2.439a1.13 1.13 0 0 0-.412.053" fill="#000" fill-rule="evenodd" stroke="none"/></svg>