<svg xmlns="http://www.w3.org/2000/svg" width="24" height="24" fill="none" stroke="currentColor" stroke-width="2" stroke-linecap="round" stroke-linejoin="round"><path d="M2.643 2.069a1.118 1.118 0 0 0-.343.229c-.316.315-.3.097-.3 4.202 0 4.104-.015 3.887.299 4.201.326.326-.563.299 9.701.299 10.264 0 9.375.027 9.701-.299.314-.314.299-.097.299-4.201 0-4.104.015-3.887-.299-4.201-.326-.327.567-.299-9.718-.296-8.192.003-9.182.01-9.34.066M20 6.5V9H4V4h16v2.5M2.643 13.069a1.118 1.118 0 0 0-.343.229c-.316.315-.3.097-.3 4.202 0 4.104-.015 3.887.299 4.201.318.319-.022.299 5.201.299s4.883.02 5.201-.299c.314-.314.299-.097.299-4.201 0-4.104.015-3.887-.299-4.201-.319-.319.025-.299-5.218-.296-4.116.003-4.684.011-4.84.066m13 0a1.118 1.118 0 0 0-.343.229c-.316.315-.3.097-.3 4.202 0 4.104-.015 3.887.299 4.201.307.308.215.299 3.201.299s2.894.009 3.201-.299c.314-.314.299-.097.299-4.201 0-4.104.015-3.887-.299-4.201-.308-.308-.213-.299-3.218-.296-2.304.003-2.687.012-2.84.066M11 17.5V20H4v-5h7v2.5m9 0V20h-3v-5h3v2.5" fill-rule="evenodd" fill="#000" stroke="none"/></svg>