<svg xmlns="http://www.w3.org/2000/svg" width="24" height="24" fill="none" stroke="currentColor" stroke-width="2" stroke-linecap="round" stroke-linejoin="round"><path d="M4.62 2.025c-.408.08-.533.114-.75.202-.881.358-1.549 1.137-1.794 2.093-.083.327-.084 15.031 0 15.357.281 1.099 1.041 1.876 2.184 2.238.179.056.983.064 7.56.075 4.998.008 7.448-.001 7.633-.03 1.19-.183 2.167-1.084 2.471-2.28.083-.328.084-15.032 0-15.357-.307-1.197-1.264-2.09-2.444-2.28-.246-.04-14.661-.057-14.86-.018m14.72 2.041c.253.087.507.341.594.594.057.168.066.408.066 1.767V8H3.997l.011-1.65.012-1.65.111-.189c.125-.213.318-.375.539-.454.123-.044 1.434-.054 7.313-.055 6.565-.002 7.179.004 7.357.064M8 15v5H6.427c-1.789 0-1.836-.006-2.128-.299-.318-.318-.299.013-.299-5.128V10h4v5m12-.427c0 5.141.019 4.81-.299 5.128-.318.318.013.299-5.128.299H10V10h10v4.573" fill="#000" fill-rule="evenodd" stroke="none"/></svg>