<svg xmlns="http://www.w3.org/2000/svg" width="24" height="24" fill="none" stroke="currentColor" stroke-width="2" stroke-linecap="round" stroke-linejoin="round"><path d="M2.643 2.069a1.118 1.118 0 0 0-.343.229c-.316.315-.3.097-.3 4.202 0 4.104-.015 3.887.299 4.201.314.314.097.299 4.201.299 4.104 0 3.887.015 4.201-.299.314-.314.299-.097.299-4.201 0-4.104.015-3.887-.299-4.201-.315-.315-.094-.299-4.218-.296-3.21.003-3.685.011-3.84.066m11 1C13.291 3.193 13 3.614 13 4c0 .242.119.521.299.701.314.314.097.299 4.201.299 4.104 0 3.887.015 4.201-.299.18-.18.299-.459.299-.701 0-.242-.119-.521-.299-.701-.315-.315-.094-.299-4.218-.296-3.21.003-3.685.011-3.84.066M9 6.5V9H4V4h5v2.5m4.643 1.569C13.291 8.193 13 8.614 13 9c0 .242.119.521.299.701.314.314.097.299 4.201.299 4.104 0 3.887.015 4.201-.299.18-.18.299-.459.299-.701 0-.242-.119-.521-.299-.701-.315-.315-.094-.299-4.218-.296-3.21.003-3.685.011-3.84.066m-11 5a1.118 1.118 0 0 0-.343.229c-.316.315-.3.097-.3 4.202 0 4.104-.015 3.887.299 4.201.314.314.097.299 4.201.299 4.104 0 3.887.015 4.201-.299.314-.314.299-.097.299-4.201 0-4.104.015-3.887-.299-4.201-.315-.315-.094-.299-4.218-.296-3.21.003-3.685.011-3.84.066m11 1c-.352.124-.643.545-.643.931 0 .242.119.521.299.701.314.314.097.299 4.201.299 4.104 0 3.887.015 4.201-.299.18-.18.299-.459.299-.701 0-.242-.119-.521-.299-.701-.315-.315-.094-.299-4.218-.296-3.21.003-3.685.011-3.84.066M9 17.5V20H4v-5h5v2.5m4.643 1.569c-.352.124-.643.545-.643.931 0 .242.119.521.299.701.314.314.097.299 4.201.299 4.104 0 3.887.015 4.201-.299.18-.18.299-.459.299-.701 0-.242-.119-.521-.299-.701-.315-.315-.094-.299-4.218-.296-3.21.003-3.685.011-3.84.066" fill="#000" fill-rule="evenodd" stroke="none"/></svg>