<svg xmlns="http://www.w3.org/2000/svg" width="24" height="24" fill="none" stroke="currentColor" stroke-width="2" stroke-linecap="round" stroke-linejoin="round"><path d="M2.643 2.069a1.118 1.118 0 0 0-.343.229c-.32.32-.3-.022-.3 5.202 0 5.223-.02 4.883.299 5.201.314.314.097.299 4.201.299 4.104 0 3.887.015 4.201-.299.319-.318.299.022.299-5.201s.02-4.883-.299-5.201c-.315-.315-.094-.299-4.218-.296-3.21.003-3.685.011-3.84.066m11 0a1.118 1.118 0 0 0-.343.229c-.309.309-.3.215-.3 3.202 0 2.986-.009 2.894.299 3.201.314.314.097.299 4.201.299 4.104 0 3.887.015 4.201-.299.308-.307.299-.215.299-3.201s.009-2.894-.299-3.201c-.315-.315-.094-.299-4.218-.296-3.21.003-3.685.011-3.84.066M9 7.5V11H4V4h5v3.5m11-2V7h-5V4h5v1.5m-6.357 5.569a1.118 1.118 0 0 0-.343.229c-.32.32-.3-.022-.3 5.202 0 5.223-.02 4.883.299 5.201.314.314.097.299 4.201.299 4.104 0 3.887.015 4.201-.299.319-.318.299.022.299-5.201s.02-4.883-.299-5.201c-.315-.315-.094-.299-4.218-.296-3.21.003-3.685.011-3.84.066M20 16.5V20h-5v-7h5v3.5M2.643 15.069a1.118 1.118 0 0 0-.343.229c-.309.309-.3.215-.3 3.202 0 2.986-.009 2.894.299 3.201.314.314.097.299 4.201.299 4.104 0 3.887.015 4.201-.299.308-.307.299-.215.299-3.201s.009-2.894-.299-3.201c-.315-.315-.094-.299-4.218-.296-3.21.003-3.685.011-3.84.066M9 18.5V20H4v-3h5v1.5" fill="#000" fill-rule="evenodd" stroke="none"/></svg>