<svg xmlns="http://www.w3.org/2000/svg" width="24" height="24" fill="none" stroke="currentColor" stroke-width="2" stroke-linecap="round" stroke-linejoin="round"><path d="M3.643 3.069a1.118 1.118 0 0 0-.343.229C2.973 3.624 3 2.855 3 12c0 9.144-.026 8.376.299 8.701a.984.984 0 0 0 1.402 0C5.026 20.376 5 21.144 5 12s.026-8.376-.299-8.701a.998.998 0 0 0-1.058-.23m8 2a1.118 1.118 0 0 0-.343.229c-.325.325-.3-.323-.3 7.702 0 8.023-.025 7.377.299 7.701a.984.984 0 0 0 1.402 0c.324-.324.299.322.299-7.701s.025-7.377-.299-7.701a.998.998 0 0 0-1.058-.23m4 0c-.351.124-.643.545-.643.929 0 .2 4.055 14.372 4.162 14.545.161.261.52.457.836.457.528 0 1.002-.472 1.002-.998 0-.2-4.055-14.372-4.162-14.545-.235-.381-.745-.547-1.195-.388m-8 2a1.118 1.118 0 0 0-.343.229C6.976 7.621 7 7.096 7 14c0 6.903-.023 6.379.299 6.701a.984.984 0 0 0 1.402 0C9.023 20.379 9 20.903 9 14s.023-6.379-.299-6.701a.998.998 0 0 0-1.058-.23" fill-rule="evenodd" fill="#000" stroke="none"/></svg>