<svg xmlns="http://www.w3.org/2000/svg" width="24" height="24" fill="none" stroke="currentColor" stroke-width="2" stroke-linecap="round" stroke-linejoin="round"><path d="M11.16 1.025c-1.561.147-2.998.563-4.271 1.236C4.029 3.775 1.954 6.483 1.265 9.6c-.195.887-.242 1.348-.242 2.4 0 1.052.047 1.513.242 2.4.911 4.125 4.203 7.415 8.341 8.335.871.194 1.341.241 2.394.241 1.053 0 1.523-.047 2.394-.241a11.033 11.033 0 0 0 8.341-8.341c.194-.871.241-1.341.241-2.394 0-1.053-.047-1.523-.241-2.394a11.027 11.027 0 0 0-8.115-8.288c-.809-.2-1.466-.28-2.42-.296a19.579 19.579 0 0 0-1.04.003m1.703 2.018a9.144 9.144 0 0 1 3.1.883c.526.26 1.421.821 1.566.981.066.073.017.128-1.351 1.495L14.759 7.82l-.189-.112c-.806-.476-1.596-.687-2.57-.687-1 0-1.718.198-2.629.724l-.13.075-1.419-1.418c-1.336-1.336-1.415-1.423-1.354-1.49.149-.166 1.063-.737 1.587-.993a8.986 8.986 0 0 1 4.808-.876M7.744 9.37c-.519.889-.723 1.632-.723 2.63 0 1 .198 1.718.724 2.629l.075.13-1.418 1.419c-1.367 1.368-1.422 1.417-1.495 1.351-.165-.149-.73-1.055-.99-1.587a8.945 8.945 0 0 1 0-7.882c.271-.554.64-1.157.914-1.494l.141-.174 1.424 1.424L7.82 9.241l-.076.129m11.745-2.352a8.989 8.989 0 0 1 .594 8.924c-.26.533-.825 1.438-.99 1.587-.073.066-.128.017-1.49-1.346l-1.413-1.414.265-.534c.79-1.597.721-3.269-.2-4.864l-.075-.13 1.418-1.419c1.367-1.368 1.422-1.417 1.495-1.351.042.038.22.284.396.547m-6.898 2.046c.604.124 1.011.342 1.478.79.474.455.738.928.867 1.555a3.016 3.016 0 0 1-.384 2.167c-.183.29-.642.755-.93.943a3 3 0 0 1-3.291-.032 3.974 3.974 0 0 1-.883-.911 3.016 3.016 0 0 1-.384-2.167c.123-.596.341-1.008.775-1.464.73-.767 1.74-1.091 2.752-.881m-3.04 7.288a5.012 5.012 0 0 0 4.044.384 6.623 6.623 0 0 0 1.034-.481l.13-.075 1.419 1.418c1.368 1.367 1.417 1.422 1.351 1.495-.149.165-1.054.73-1.587.99a8.94 8.94 0 0 1-7.9-.011c-.53-.26-1.33-.757-1.553-.964l-.092-.085 1.411-1.411c.777-.777 1.426-1.412 1.443-1.412.017 0 .152.068.3.152" fill="#000" fill-rule="evenodd" stroke="none"/></svg>