<svg xmlns="http://www.w3.org/2000/svg" width="24" height="24" fill="none" stroke="currentColor" stroke-width="2" stroke-linecap="round" stroke-linejoin="round"><path d="M11.1 1.062A6.992 6.992 0 0 0 6.513 3.66C5.1 5.427 4.623 7.947 5.324 9.948c.272.775.725 1.472 1.476 2.267.576.61.824.996 1 1.557.209.666.244.75.371.895.438.499 1.284.407 1.596-.173.155-.288.171-.469.078-.862a5.067 5.067 0 0 0-.475-1.286c-.274-.539-.587-.965-1.108-1.506-.655-.681-.962-1.178-1.148-1.86-.118-.435-.129-1.433-.021-1.94.222-1.041.645-1.824 1.385-2.561 1-.996 2.115-1.458 3.522-1.458 1.408 0 2.531.464 3.522 1.456.738.739 1.164 1.527 1.385 2.563.054.253.072.503.069.98-.003.739-.069 1.055-.335 1.61-.218.457-.352.641-.85 1.164-.872.918-1.29 1.596-1.574 2.55-.151.511-.15.85.003 1.13a.994.994 0 0 0 1.554.251c.153-.141.249-.338.324-.664.156-.67.447-1.147 1.161-1.902.271-.286.601-.678.732-.87a5.593 5.593 0 0 0 .996-3.009c.102-2.349-.997-4.589-2.939-5.99-.44-.317-1.342-.769-1.888-.946a7.01 7.01 0 0 0-3.06-.282M8.643 17.069C8.291 17.193 8 17.614 8 18c0 .242.119.521.299.701.311.312.157.299 3.701.299s3.39.013 3.701-.299a.984.984 0 0 0 0-1.402c-.312-.312-.154-.299-3.718-.296-2.757.003-3.186.011-3.34.066m1 4C9.291 21.193 9 21.614 9 22c0 .242.119.521.299.701.302.302.274.299 2.701.299s2.399.003 2.701-.299a.984.984 0 0 0 0-1.402c-.303-.303-.271-.299-2.718-.296-1.851.003-2.188.012-2.34.066" fill-rule="evenodd" fill="#000" stroke="none"/></svg>