<svg xmlns="http://www.w3.org/2000/svg" width="24" height="24" fill="none" stroke="currentColor" stroke-width="2" stroke-linecap="round" stroke-linejoin="round"><path d="M1.643 1.069C1.291 1.193 1 1.614 1 2c0 .08.029.234.065.343.059.178.264.396 2.08 2.218l2.015 2.02-.067.3c-.098.438-.098 1.729 0 2.219.236 1.179.729 2.079 1.705 3.113.579.613.826.998 1.002 1.559.209.666.244.75.371.895.438.499 1.284.407 1.596-.173.155-.288.171-.469.078-.862a5.067 5.067 0 0 0-.475-1.286c-.274-.539-.587-.965-1.108-1.506-.473-.491-.726-.833-.92-1.244-.143-.301-.302-.845-.302-1.032 0-.085 1.29 1.185 7.21 7.101 6.653 6.649 7.225 7.21 7.407 7.27.391.129.766.044 1.045-.235a.986.986 0 0 0 .185-1.144c-.063-.13-2.761-2.85-10.216-10.301C3.299 1.888 2.525 1.125 2.343 1.065a1.038 1.038 0 0 0-.7.004m9.737-.046a9.02 9.02 0 0 0-1.12.203c-.755.189-1.701.615-1.976.89-.414.414-.353 1.14.125 1.486.383.278.693.261 1.391-.077 1.652-.799 3.482-.674 5.012.343.367.244.897.753 1.191 1.143.285.377.68 1.166.797 1.589.196.71.248 1.476.141 2.085-.103.591-.287 1.023-.679 1.596-.339.495-.378.795-.156 1.203a.991.991 0 0 0 1.607.178c.352-.401.747-1.104.962-1.714.237-.671.301-1.082.303-1.928.001-.794-.03-1.057-.205-1.76A6.933 6.933 0 0 0 16.5 2.647c-.977-.817-2.045-1.311-3.36-1.553-.308-.057-1.513-.105-1.76-.071M8.643 17.069C8.291 17.193 8 17.614 8 18c0 .242.119.521.299.701.311.312.157.299 3.701.299s3.39.013 3.701-.299a.984.984 0 0 0 0-1.402c-.312-.312-.154-.299-3.718-.296-2.757.003-3.186.011-3.34.066m1 4C9.291 21.193 9 21.614 9 22c0 .242.119.521.299.701.302.302.274.299 2.701.299s2.399.003 2.701-.299a.984.984 0 0 0 0-1.402c-.303-.303-.271-.299-2.718-.296-1.851.003-2.188.012-2.34.066" fill-rule="evenodd" fill="#000" stroke="none"/></svg>