<svg xmlns="http://www.w3.org/2000/svg" width="24" height="24" fill="none" stroke="currentColor" stroke-width="2" stroke-linecap="round" stroke-linejoin="round"><path d="M3.62 1.025c-.408.08-.533.114-.75.202-.881.358-1.551 1.139-1.793 2.093-.073.285-.073 1.074-.001 1.357.193.759.661 1.422 1.284 1.822.476.305.893.446 1.44.486 1.441.105 2.761-.869 3.124-2.305.072-.285.072-1.075 0-1.357-.304-1.194-1.264-2.09-2.444-2.28-.252-.041-.697-.05-.86-.018m.72 2.041c.369.126.66.538.66.934 0 .527-.473 1-1 1a1.03 1.03 0 0 1-.94-.679.99.99 0 0 1 1.28-1.255M15.1 7.062a7.05 7.05 0 0 0-1.5.367c-2.524.937-4.251 3.146-4.558 5.831-.026.222-.041 1.806-.042 4.123 0 4.235-.016 4.003.299 4.318.302.302.274.299 2.701.299s2.399.003 2.701-.299c.314-.314.299-.096.301-4.218.001-2.955.012-3.692.055-3.813a.998.998 0 0 1 1.643-.372c.316.315.3.097.3 4.202 0 4.104-.015 3.887.299 4.201.302.302.274.299 2.701.299s2.399.003 2.701-.299c.315-.315.299-.083.299-4.318-.001-2.317-.016-3.901-.042-4.123a7.042 7.042 0 0 0-2.91-4.97c-.44-.317-1.342-.769-1.888-.946a7.01 7.01 0 0 0-3.06-.282M1.643 8.069a1.118 1.118 0 0 0-.343.229C.976 8.621 1 8.096 1 15c0 6.903-.023 6.379.299 6.701.302.302.274.299 2.701.299s2.399.003 2.701-.299C7.023 21.379 7 21.903 7 15s.023-6.379-.299-6.701C6.398 7.996 6.43 8 3.983 8.003c-1.851.003-2.188.012-2.34.066m15.337 1.03c1.016.213 1.806.642 2.542 1.378.723.725 1.137 1.479 1.383 2.523.063.271.072.618.084 3.65l.014 3.35h-2l-.013-3.27c-.015-3.527-.003-3.328-.227-3.885-.337-.842-1.159-1.54-2.083-1.769-.286-.072-1.077-.071-1.357 0-.932.237-1.732.908-2.073 1.739-.238.58-.225.367-.24 3.915L12.997 20h-2l.014-3.35c.015-3.657.006-3.5.255-4.25.511-1.537 1.863-2.813 3.414-3.222.712-.187 1.634-.219 2.3-.079M5 15v5H3V10h2v5" fill-rule="evenodd" fill="#000" stroke="none"/></svg>