<svg xmlns="http://www.w3.org/2000/svg" width="24" height="24" fill="none" stroke="currentColor" stroke-width="2" stroke-linecap="round" stroke-linejoin="round"><path d="M16.22 1.107a6.599 6.599 0 0 0-1.948.595c-.742.371-1.056.624-2.34 1.887-1.112 1.093-1.17 1.172-1.17 1.591 0 .4.218.742.577.905.203.093.597.098.806.01.104-.043.498-.403 1.195-1.091 1.305-1.29 1.62-1.512 2.534-1.793.32-.098.401-.106 1.066-.106.669 0 .745.008 1.08.109 1.12.339 2.013 1.083 2.502 2.086.233.478.343.863.397 1.392.099.959-.203 2.018-.798 2.796-.106.139-.982 1.035-1.947 1.992-1.528 1.516-1.797 1.766-2.084 1.936a3.95 3.95 0 0 1-2.27.571c-1.167-.053-2.169-.556-2.921-1.466-.289-.348-.502-.481-.821-.512a1.011 1.011 0 0 0-1.012.651c-.146.429-.061.71.373 1.227.846 1.007 2.015 1.698 3.391 2.002.573.127 1.774.126 2.358-.001a6.212 6.212 0 0 0 2.2-.934c.389-.257.621-.476 2.313-2.17 1.313-1.315 1.951-1.983 2.113-2.212a6.004 6.004 0 0 0-3.974-9.434c-.343-.052-1.305-.07-1.62-.031M9.104 8.06A6.08 6.08 0 0 0 6.12 9.423c-.539.449-3.681 3.648-3.933 4.005a6.005 6.005 0 0 0 3.993 9.438c.59.091 1.618.054 2.18-.079a6.151 6.151 0 0 0 2.08-.899c.25-.165.64-.522 1.473-1.346.629-.623 1.172-1.193 1.219-1.282.12-.224.12-.656 0-.88a1.113 1.113 0 0 0-.501-.478c-.189-.079-.591-.08-.779-.001-.091.038-.532.443-1.188 1.092-1.387 1.371-1.8 1.642-2.824 1.856-.54.113-1.347.084-1.86-.067-1.881-.551-3.109-2.352-2.897-4.249.08-.721.35-1.421.759-1.973.106-.143.973-1.036 1.925-1.984 1.843-1.834 2.034-1.996 2.663-2.257a4.074 4.074 0 0 1 2.71-.154c.72.211 1.441.693 1.952 1.303.302.361.51.492.83.523.425.041.875-.248 1.012-.651.146-.429.061-.71-.372-1.227a6.05 6.05 0 0 0-3.354-1.995c-.52-.11-1.601-.14-2.104-.058" fill-rule="evenodd" fill="#000" stroke="none"/></svg>