<svg xmlns="http://www.w3.org/2000/svg" width="24" height="24" fill="none" stroke="currentColor" stroke-width="2" stroke-linecap="round" stroke-linejoin="round"><path d="M1.643 1.069C1.291 1.193 1 1.614 1 2c0 .08.029.234.065.343.059.177.256.388 1.962 2.1l1.896 1.902-.571.286c-1.209.605-2.092 1.476-2.69 2.656-.467.919-.639 1.65-.639 2.713 0 1.063.172 1.794.639 2.713.833 1.641 2.304 2.763 4.158 3.17.359.079.547.09 1.848.106 1.665.021 1.734.012 2.032-.287a.984.984 0 0 0 .001-1.403C9.418 16.016 9.324 16 7.918 16c-.919 0-1.315-.015-1.577-.061a3.883 3.883 0 0 1-2.162-1.119 3.924 3.924 0 0 1-1.05-1.818c-.089-.332-.103-.463-.103-1.002 0-.539.014-.67.103-1.002A3.926 3.926 0 0 1 4.18 9.179a3.855 3.855 0 0 1 1.813-1.043c.633-.161.428-.295 2.107 1.384L9.58 11h-.863c-1.003 0-1.15.031-1.418.299a.984.984 0 0 0 0 1.402c.298.298.306.299 2.418.299h1.862l4.941 4.935c4.54 4.536 4.956 4.941 5.137 5 .391.129.766.044 1.045-.235a.986.986 0 0 0 .185-1.144c-.063-.13-2.761-2.85-10.216-10.301C3.299 1.888 2.525 1.125 2.343 1.065a1.038 1.038 0 0 0-.7.004m13 4.998a1.145 1.145 0 0 0-.343.231c-.48.48-.352 1.292.25 1.588.185.092.225.095 1.63.118 1.287.022 1.475.033 1.766.109 1.156.299 2.153 1.106 2.652 2.147a4 4 0 0 1-.265 3.935 3.49 3.49 0 0 0-.278.499c-.23.652.334 1.363 1.028 1.297.468-.045.788-.365 1.23-1.229a6.06 6.06 0 0 0 .571-1.602c.13-.609.131-1.718.001-2.32-.321-1.498-1.114-2.753-2.307-3.652-.391-.296-1.223-.729-1.698-.884-.76-.25-.977-.274-2.58-.288-1.282-.012-1.504-.005-1.657.051" fill-rule="evenodd" fill="#000" stroke="none"/></svg>