<svg xmlns="http://www.w3.org/2000/svg" width="24" height="24" fill="none" stroke="currentColor" stroke-width="2" stroke-linecap="round" stroke-linejoin="round"><path d="M2.643 5.066C2.288 5.197 2 5.615 2 6c0 .729.814 1.222 1.465.887.711-.365.708-1.41-.004-1.776-.211-.109-.588-.129-.818-.045m5 .003C7.291 5.193 7 5.614 7 6c0 .242.119.521.299.701.323.323-.262.299 7.201.299 7.463 0 6.878.024 7.201-.299.18-.18.299-.459.299-.701 0-.242-.119-.521-.299-.701-.323-.324.265-.299-7.218-.296-5.928.003-6.682.01-6.84.066m-5 5.997C2.288 11.197 2 11.615 2 12c0 .729.814 1.222 1.465.887.711-.365.708-1.41-.004-1.776-.211-.109-.588-.129-.818-.045m5 .003C7.291 11.193 7 11.614 7 12c0 .242.119.521.299.701.323.323-.262.299 7.201.299 7.463 0 6.878.024 7.201-.299a.984.984 0 0 0 0-1.402c-.323-.324.265-.299-7.218-.296-5.928.003-6.682.01-6.84.066m-5 5.997C2.288 17.197 2 17.615 2 18c0 .729.814 1.222 1.465.887.711-.365.708-1.41-.004-1.776-.211-.109-.588-.129-.818-.045m5 .003C7.291 17.193 7 17.614 7 18c0 .242.119.521.299.701.323.323-.262.299 7.201.299 7.463 0 6.878.024 7.201-.299a.984.984 0 0 0 0-1.402c-.323-.324.265-.299-7.218-.296-5.928.003-6.682.01-6.84.066" fill="#000" fill-rule="evenodd" stroke="none"/></svg>