<svg xmlns="http://www.w3.org/2000/svg" width="24" height="24" fill="none" stroke="currentColor" stroke-width="2" stroke-linecap="round" stroke-linejoin="round"><path d="M3.643 5.069C3.291 5.193 3 5.614 3 6c0 .396.291.808.66.934.107.036.227.066.267.066C3.996 7 4 7.059 4 8c0 .941-.004 1-.073 1-.173 0-.471.142-.628.299a.984.984 0 0 0 0 1.402c.28.281.385.299 1.701.299s1.421-.018 1.701-.299a.984.984 0 0 0 0-1.402C6.544 9.142 6.246 9 6.073 9 6.004 9 6 8.922 6 7.427c0-1.789-.006-1.836-.299-2.128-.256-.257-.434-.3-1.218-.296-.492.002-.709.019-.84.066m6 0C9.291 5.193 9 5.614 9 6c0 .242.119.521.299.701C9.62 7.022 9.157 7 15.5 7s5.88.022 6.201-.299c.18-.18.299-.459.299-.701 0-.242-.119-.521-.299-.701-.321-.322.145-.299-6.218-.296-5.022.003-5.683.01-5.84.066m0 6C9.291 11.193 9 11.614 9 12c0 .242.119.521.299.701.321.321-.142.299 6.201.299s5.88.022 6.201-.299c.18-.18.299-.459.299-.701 0-.242-.119-.521-.299-.701-.321-.322.145-.299-6.218-.296-5.022.003-5.683.01-5.84.066M4.28 12.86C3.458 13.024 3 13.433 3 14c0 .396.291.808.66.934.268.091.453.083.764-.034.304-.115.409-.123.518-.043.076.056.076.06.004.196-.041.077-.359.437-.707.801-.348.363-.707.771-.799.906-.525.773-.578 1.504-.141 1.941.28.281.385.299 1.701.299s1.421-.018 1.701-.299a.984.984 0 0 0 0-1.402c-.172-.172-.458-.299-.673-.299-.117 0-.116-.001.126-.26.883-.944 1.069-1.848.577-2.796-.44-.846-1.438-1.287-2.451-1.084m5.363 4.209C9.291 17.193 9 17.614 9 18c0 .242.119.521.299.701.321.321-.142.299 6.201.299s5.88.022 6.201-.299c.18-.18.299-.459.299-.701 0-.242-.119-.521-.299-.701-.321-.322.145-.299-6.218-.296-5.022.003-5.683.01-5.84.066" fill-rule="evenodd" fill="#000" stroke="none"/></svg>