<svg xmlns="http://www.w3.org/2000/svg" width="24" height="24" fill="none" stroke="currentColor" stroke-width="2" stroke-linecap="round" stroke-linejoin="round"><path d="M5.64 4.069c-.143.05-.328.209-.908.783l-.729.72-.238-.221c-.363-.336-.7-.423-1.105-.285a1.011 1.011 0 0 0-.651 1.012c.032.338.154.511.821 1.169.549.541.658.63.844.692.26.085.524.068.771-.052.121-.058.529-.441 1.3-1.216.986-.992 1.132-1.155 1.189-1.328.13-.389.046-.766-.233-1.044a1.003 1.003 0 0 0-1.061-.23m4.003 1C9.291 5.193 9 5.614 9 6c0 .242.119.521.299.701C9.62 7.022 9.157 7 15.5 7s5.88.022 6.201-.299c.18-.18.299-.459.299-.701 0-.242-.119-.521-.299-.701-.321-.322.145-.299-6.218-.296-5.022.003-5.683.01-5.84.066m-4.003 5c-.143.05-.328.209-.908.783l-.729.72-.238-.221c-.363-.336-.7-.423-1.105-.285a1.011 1.011 0 0 0-.651 1.012c.032.338.154.511.821 1.169.549.541.658.63.844.692.26.085.524.068.771-.052.121-.058.529-.441 1.3-1.216.986-.992 1.132-1.155 1.189-1.328.13-.389.046-.766-.233-1.044a1.003 1.003 0 0 0-1.061-.23m4.003 1C9.291 11.193 9 11.614 9 12c0 .242.119.521.299.701.321.321-.142.299 6.201.299s5.88.022 6.201-.299c.18-.18.299-.459.299-.701 0-.242-.119-.521-.299-.701-.321-.322.145-.299-6.218-.296-5.022.003-5.683.01-5.84.066m-4.003 5c-.143.05-.328.209-.908.783l-.729.72-.238-.221c-.363-.336-.7-.423-1.105-.285a1.011 1.011 0 0 0-.651 1.012c.032.338.154.511.821 1.169.549.541.658.63.844.692.26.085.524.068.771-.052.121-.058.529-.441 1.3-1.216.986-.992 1.132-1.155 1.189-1.328.13-.389.046-.766-.233-1.044a1.003 1.003 0 0 0-1.061-.23m4.003 1C9.291 17.193 9 17.614 9 18c0 .242.119.521.299.701.321.321-.142.299 6.201.299s5.88.022 6.201-.299c.18-.18.299-.459.299-.701 0-.242-.119-.521-.299-.701-.321-.322.145-.299-6.218-.296-5.022.003-5.683.01-5.84.066" fill="#000" fill-rule="evenodd" stroke="none"/></svg>