<svg xmlns="http://www.w3.org/2000/svg" width="24" height="24" fill="none" stroke="currentColor" stroke-width="2" stroke-linecap="round" stroke-linejoin="round"><path d="M2.643 5.069C2.291 5.193 2 5.614 2 6c0 .242.119.521.299.701C2.622 7.024 2.037 7 9.5 7c7.463 0 6.878.024 7.201-.299a.984.984 0 0 0 0-1.402c-.323-.324.265-.299-7.218-.296-5.928.003-6.682.01-6.84.066m12 4c-.352.124-.643.545-.643.931 0 .364.088.496.854 1.27l.721.73-.721.73c-.766.774-.854.906-.854 1.27 0 .527.473 1 1 1 .364 0 .496-.088 1.27-.854l.73-.721.73.721c.774.766.906.854 1.27.854.527 0 1-.473 1-1 0-.364-.088-.496-.854-1.27l-.721-.73.721-.73c.766-.774.854-.906.854-1.27 0-.527-.473-1-1-1-.364 0-.496.088-1.27.854l-.73.721-.73-.721c-.618-.611-.76-.732-.927-.788a1.026 1.026 0 0 0-.7.003m-12 2C2.291 11.193 2 11.614 2 12c0 .242.119.521.299.701.317.317.038.299 4.701.299 4.663 0 4.384.018 4.701-.299a.984.984 0 0 0 0-1.402c-.317-.317-.035-.299-4.718-.296-3.663.003-4.184.011-4.34.066m0 6C2.291 17.193 2 17.614 2 18c0 .242.119.521.299.701.323.323-.262.299 7.201.299 7.463 0 6.878.024 7.201-.299a.984.984 0 0 0 0-1.402c-.323-.324.265-.299-7.218-.296-5.928.003-6.682.01-6.84.066" fill-rule="evenodd" fill="#000" stroke="none"/></svg>