<svg xmlns="http://www.w3.org/2000/svg" width="24" height="24" fill="none" stroke="currentColor" stroke-width="2" stroke-linecap="round" stroke-linejoin="round"><path d="M11.643 1.069a1.118 1.118 0 0 0-.343.229c-.303.303-.3.274-.3 2.702 0 2.427-.003 2.399.299 2.701a.984.984 0 0 0 1.402 0C13.003 6.399 13 6.427 13 4s.003-2.399-.299-2.701a.998.998 0 0 0-1.058-.23M4.601 3.996A.999.999 0 0 0 4.04 5.38c.05.103.628.708 1.629 1.705 1.384 1.378 1.572 1.551 1.748 1.61.389.129.766.044 1.044-.234s.363-.655.234-1.044c-.059-.176-.232-.364-1.61-1.748-1.024-1.028-1.601-1.578-1.71-1.632a.987.987 0 0 0-.774-.041m14.139-.01c-.183.056-.328.189-1.751 1.607-1.084 1.081-1.577 1.6-1.637 1.723a.99.99 0 0 0 .186 1.144c.279.279.655.364 1.045.235.176-.059.364-.232 1.748-1.61 1.001-.997 1.579-1.602 1.629-1.705a.926.926 0 0 0 .06-.725 1.003 1.003 0 0 0-.657-.671c-.262-.077-.362-.077-.623.002M1.643 11.069C1.291 11.193 1 11.614 1 12c0 .242.119.521.299.701.302.302.274.299 2.701.299s2.399.003 2.701-.299a.984.984 0 0 0 0-1.402c-.303-.303-.271-.299-2.718-.296-1.851.003-2.188.012-2.34.066m16 0c-.352.124-.643.545-.643.931 0 .242.119.521.299.701.302.302.274.299 2.701.299s2.399.003 2.701-.299c.18-.18.299-.459.299-.701 0-.242-.119-.521-.299-.701-.303-.303-.271-.299-2.718-.296-1.851.003-2.188.012-2.34.066M7.4 15.308c-.152.052-.421.302-1.731 1.607-1.001.997-1.579 1.602-1.629 1.705a.969.969 0 0 0 .194 1.146.969.969 0 0 0 1.146.194c.103-.05.708-.628 1.705-1.629 1.378-1.384 1.551-1.572 1.61-1.748.129-.389.044-.766-.234-1.044a1.005 1.005 0 0 0-1.061-.231m8.483.001c-.352.124-.643.545-.643.931 0 .08.029.234.065.343.059.176.232.364 1.61 1.748.997 1.001 1.602 1.579 1.705 1.629a.969.969 0 0 0 1.146-.194.969.969 0 0 0 .194-1.146c-.05-.103-.628-.708-1.629-1.705-1.384-1.378-1.572-1.551-1.748-1.61a1.032 1.032 0 0 0-.7.004m-4.24 1.76a1.118 1.118 0 0 0-.343.229c-.303.303-.3.274-.3 2.702 0 2.427-.003 2.399.299 2.701a.984.984 0 0 0 1.402 0c.302-.302.299-.274.299-2.701s.003-2.399-.299-2.701a.998.998 0 0 0-1.058-.23" fill="#000" fill-rule="evenodd" stroke="none"/></svg>