<svg xmlns="http://www.w3.org/2000/svg" width="24" height="24" fill="none" stroke="currentColor" stroke-width="2" stroke-linecap="round" stroke-linejoin="round"><path d="m11.26 2.026-.5.058C8.35 2.36 6.034 3.605 4.408 5.5c-1.269 1.478-2.052 3.248-2.336 5.28-.065.465-.065 1.975 0 2.44.419 2.996 1.962 5.484 4.406 7.107a9.756 9.756 0 0 0 3.059 1.352c.949.241 1.424.298 2.463.298.954 0 1.396-.046 2.24-.236a9.989 9.989 0 0 0 6.062-4.181 9.896 9.896 0 0 0 1.683-5.122c.032-.662-.021-.876-.283-1.138a.983.983 0 0 0-1.404 0c-.221.221-.285.44-.315 1.07-.099 2.087-.951 3.951-2.475 5.415-2.531 2.432-6.386 2.907-9.459 1.165a7.553 7.553 0 0 1-1.558-1.166c-.754-.724-1.227-1.37-1.674-2.285-1.336-2.732-1.006-5.958.857-8.399.275-.36.942-1.033 1.326-1.339a8.053 8.053 0 0 1 5.02-1.76c.725-.001 1.41.099 2.239.327.489.135.704.134.968-.002a.974.974 0 0 0 .541-.886.983.983 0 0 0-.611-.918c-.429-.184-1.439-.398-2.271-.481-.385-.038-1.351-.047-1.626-.015" fill-rule="evenodd" fill="#000" stroke="none"/></svg>