<svg xmlns="http://www.w3.org/2000/svg" width="24" height="24" fill="none" stroke="currentColor" stroke-width="2" stroke-linecap="round" stroke-linejoin="round"><path d="M11.643 1.069a1.066 1.066 0 0 0-.577.591c-.055.162-.066.376-.066 1.307V4.08h-.101a8.064 8.064 0 0 0-5.618 3.58 9.502 9.502 0 0 0-.864 1.797c-.146.441-.337 1.258-.337 1.443v.1H2.967c-1.279 0-1.389.02-1.668.299a.984.984 0 0 0 0 1.402c.279.279.389.299 1.668.299H4.08v.1c0 .185.191 1.002.337 1.443a9.33 9.33 0 0 0 .892 1.837 8.064 8.064 0 0 0 5.59 3.54H11v1.113c0 1.279.02 1.389.299 1.668a.984.984 0 0 0 1.402 0c.279-.279.299-.39.299-1.658V19.94l.493-.088a8.336 8.336 0 0 0 2.847-1.133 8.065 8.065 0 0 0 3.58-5.629V13h1.113c1.279 0 1.389-.02 1.668-.299a.984.984 0 0 0 0-1.402c-.279-.279-.389-.299-1.668-.299H19.92v-.101c0-.055-.045-.311-.101-.568a7.98 7.98 0 0 0-2.323-4.132 7.94 7.94 0 0 0-3.843-2.023 5.125 5.125 0 0 0-.553-.096H13V2.967c0-1.279-.02-1.389-.299-1.668a.998.998 0 0 0-1.058-.23m1.521 5.047a6.012 6.012 0 0 1 1.597.568c1.64.848 2.781 2.391 3.146 4.256.108.55.097 1.663-.022 2.22a5.963 5.963 0 0 1-.569 1.599c-.853 1.647-2.394 2.786-4.256 3.148-.514.099-1.582.099-2.12-.002a6.036 6.036 0 0 1-4.845-4.845c-.101-.538-.101-1.606-.002-2.12a6.156 6.156 0 0 1 .569-1.653 5.897 5.897 0 0 1 2.584-2.606c.675-.35 1.257-.526 2.174-.657.281-.041 1.374.017 1.744.092" fill="#000" fill-rule="evenodd" stroke="none"/></svg>