<svg xmlns="http://www.w3.org/2000/svg" width="24" height="24" fill="none" stroke="currentColor" stroke-width="2" stroke-linecap="round" stroke-linejoin="round"><path d="M11.42 1.024c-.917.131-1.498.307-2.176.657-1.613.834-2.742 2.331-3.133 4.155-.075.349-.084.557-.1 2.269l-.017 1.886-.767.02c-.505.014-.835.041-.967.08-1.125.333-1.901 1.125-2.184 2.229-.083.324-.083 8.033 0 8.357.281 1.099 1.041 1.876 2.184 2.238.179.056.983.064 7.56.075 4.998.008 7.448-.001 7.633-.03 1.19-.183 2.167-1.084 2.471-2.28.083-.325.083-8.035 0-8.357-.307-1.197-1.264-2.09-2.444-2.28a7.543 7.543 0 0 0-.867-.043h-.607l-.017-1.89c-.015-1.769-.022-1.916-.105-2.29-.54-2.433-2.334-4.222-4.72-4.704-.37-.075-1.463-.133-1.744-.092m1.582 2.108c1.418.367 2.5 1.465 2.888 2.928.079.298.085.442.1 2.13l.015 1.81h-8.01l.014-1.81c.015-1.802.015-1.812.119-2.192A4.05 4.05 0 0 1 10.24 3.41c.797-.404 1.859-.511 2.762-.278m6.338 8.934c.115.039.263.135.361.233.314.314.299.097.299 4.201 0 4.104.015 3.887-.299 4.201-.324.324.322.299-7.701.299-8.025 0-7.377.025-7.702-.3-.316-.316-.301-.091-.289-4.283L4.02 12.7l.111-.189c.125-.213.318-.375.539-.454.123-.044 1.434-.054 7.313-.055 6.565-.002 7.179.004 7.357.064" fill-rule="evenodd" fill="#000" stroke="none"/></svg>