<svg xmlns="http://www.w3.org/2000/svg" width="24" height="24" fill="none" stroke="currentColor" stroke-width="2" stroke-linecap="round" stroke-linejoin="round"><path d="M14.643 2.069C14.291 2.193 14 2.614 14 3c0 .242.119.521.299.701.302.302.274.299 2.701.299s2.399-.003 2.701.299c.324.324.299-.322.299 7.701s.025 7.377-.299 7.701c-.302.302-.274.299-2.701.299s-2.399-.003-2.701.299a.984.984 0 0 0 0 1.402c.303.303.269.299 2.738.299 1.308 0 2.285-.017 2.437-.042 1.186-.192 2.147-1.086 2.45-2.278.083-.328.084-15.032 0-15.357-.307-1.197-1.264-2.089-2.448-2.281-.156-.025-1.111-.04-2.456-.039-1.885.003-2.225.012-2.377.066m-5 4C9.291 6.193 9 6.614 9 7c0 .08.029.234.065.343.059.177.244.376 1.789 1.927L12.578 11H7.716c-5.465 0-5.098-.02-5.417.299a.984.984 0 0 0 0 1.402c.319.319-.048.299 5.417.299h4.862l-1.724 1.73c-1.545 1.551-1.73 1.75-1.789 1.927-.129.389-.044.766.234 1.044s.654.363 1.044.234c.179-.059.44-.307 2.831-2.69 2.864-2.854 2.825-2.809 2.825-3.245 0-.436.039-.391-2.825-3.245-2.391-2.383-2.652-2.631-2.831-2.69a1.032 1.032 0 0 0-.7.004" fill-rule="evenodd" fill="#000" stroke="none"/></svg>