<svg xmlns="http://www.w3.org/2000/svg" width="24" height="24" fill="none" stroke="currentColor" stroke-width="2" stroke-linecap="round" stroke-linejoin="round"><path d="M11.26.024C9.096.247 7.419.901 5.8 2.154c-.439.34-1.308 1.21-1.649 1.651C3.005 5.284 2.337 6.883 2.072 8.78c-.078.558-.065 1.981.024 2.56.372 2.425 1.548 4.787 3.624 7.28 1.424 1.71 3.306 3.455 5.265 4.884.564.411.799.515 1.093.487.284-.027.478-.139 1.259-.727 3.999-3.011 6.925-6.598 8.063-9.886.207-.6.409-1.415.503-2.038.089-.582.103-2.008.025-2.56-.269-1.92-.96-3.558-2.106-5C18.199 1.74 15.93.457 13.28.08c-.315-.044-1.745-.084-2.02-.056m1.532 2.017a7.978 7.978 0 0 1 4.762 2.215c1.633 1.576 2.537 3.822 2.432 6.044-.109 2.319-1.242 4.713-3.456 7.296-1.092 1.275-2.727 2.807-4.14 3.879l-.389.295-.15-.113c-2.406-1.806-4.562-4.022-5.911-6.077-1.682-2.562-2.241-4.822-1.775-7.18a8.42 8.42 0 0 1 1.144-2.78c1.635-2.483 4.575-3.889 7.483-3.579M11.31 6.063a3.918 3.918 0 0 0-2.131 1.116 3.903 3.903 0 0 0-1.165 3.001c.096 1.833 1.332 3.307 3.126 3.725.464.109 1.319.102 1.78-.014a4.03 4.03 0 0 0 2.971-2.971c.116-.461.123-1.316.014-1.78-.49-2.102-2.51-3.454-4.595-3.077m1.098 1.981C13.31 8.232 14 9.08 14 10c0 1.08-.92 2-2 2-.92 0-1.768-.69-1.956-1.592a1.95 1.95 0 0 1 .552-1.811 1.956 1.956 0 0 1 1.812-.553" fill-rule="evenodd" fill="#000" stroke="none"/></svg>