<svg xmlns="http://www.w3.org/2000/svg" width="24" height="24" fill="none" stroke="currentColor" stroke-width="2" stroke-linecap="round" stroke-linejoin="round"><path d="M7.66 1.056c-.066.029-1.731.974-3.7 2.099C1.425 4.604.343 5.243.252 5.344-.019 5.649 0 4.999 0 14c0 9.144-.026 8.376.299 8.701a.98.98 0 0 0 1.009.243c.086-.03 1.614-.888 3.395-1.906 1.78-1.018 3.266-1.858 3.301-1.867.035-.009 1.798.85 3.918 1.91l3.856 1.927.265-.015.265-.015 3.636-2.076c2.454-1.401 3.683-2.124 3.781-2.225.297-.307.275.399.275-8.677 0-9.144.026-8.376-.299-8.701a.98.98 0 0 0-1.006-.244c-.085.03-1.595.879-3.355 1.887a235.776 235.776 0 0 1-3.3 1.87c-.087.033-.585-.204-3.951-1.887C8.333 1.047 8.233 1 8.009 1.002c-.126 0-.283.025-.349.054m4.36 4.074L15 6.62v6.87c0 3.778-.009 6.87-.02 6.87-.011 0-1.361-.67-3-1.49L9 17.38v-6.87c0-3.778.009-6.87.02-6.87.011 0 1.361.67 3 1.49M7 10.572v6.851l-2.307 1.319-2.5 1.429-.193.111v-6.851l.001-6.851L4.49 5.154c1.37-.785 2.495-1.428 2.5-1.43.005-.002.01 3.079.01 6.848m15 0v6.851l-2.307 1.319-2.5 1.429-.193.111v-6.851l.001-6.851 2.489-1.426a949.51 949.51 0 0 1 2.5-1.43c.006-.002.01 3.079.01 6.848" fill="#000" fill-rule="evenodd" stroke="none"/></svg>