<svg xmlns="http://www.w3.org/2000/svg" width="24" height="24" fill="none" stroke="currentColor" stroke-width="2" stroke-linecap="round" stroke-linejoin="round"><path d="M14.643 2.069C14.291 2.193 14 2.614 14 3c0 .242.119.521.299.701.298.298.306.299 2.417.299h1.863l-2.725 2.73c-2.477 2.482-2.73 2.748-2.789 2.927-.129.39-.044.766.234 1.044s.654.363 1.044.234c.179-.059.445-.312 2.927-2.789L20 5.421v1.863c0 2.111.001 2.119.299 2.417a.984.984 0 0 0 1.402 0c.312-.312.299-.152.299-3.738l-.001-3.183-.094-.2a.951.951 0 0 0-.505-.497c-.176-.08-.244-.081-3.38-.079-2.792.002-3.222.01-3.377.065M9.64 13.068c-.155.053-.557.437-2.91 2.786L4 18.579v-1.863c0-2.111-.001-2.119-.299-2.417a.984.984 0 0 0-1.402 0c-.312.312-.299.152-.298 3.738.001 3.116.002 3.187.082 3.363.11.242.257.391.497.505l.2.094L5.963 22c3.586 0 3.426.013 3.738-.299a.984.984 0 0 0 0-1.402C9.403 20.001 9.395 20 7.284 20H5.421l2.725-2.73c2.477-2.482 2.73-2.748 2.789-2.927a1.004 1.004 0 0 0-1.295-1.275" fill="#000" fill-rule="evenodd" stroke="none"/></svg>