<svg xmlns="http://www.w3.org/2000/svg" width="24" height="24" fill="none" stroke="currentColor" stroke-width="2" stroke-linecap="round" stroke-linejoin="round"><path d="M11.71 7.54c-5.548 1.543-9.165 2.567-9.251 2.62a1.075 1.075 0 0 0-.239.217c-.214.28-.22.34-.22 2.121 0 1.808.006 1.866.241 2.151.179.216.373.288 1.379.511.506.112.962.214 1.013.227.09.022.092.031.066.368-.05.649.102 1.378.421 2.025a4.023 4.023 0 0 0 2.58 2.1c.403.108 1.166.148 1.58.083 1.433-.222 2.657-1.198 3.151-2.513.06-.159.128-.289.152-.29.024 0 1.902.414 4.174.92 2.271.506 4.188.92 4.259.92.226 0 .51-.124.685-.299.322-.322.299.202.299-6.701s.023-6.379-.299-6.701a1.03 1.03 0 0 0-.718-.296c-.09.002-4.262 1.143-9.273 2.537M20 12.036v4.715l-.15-.033-7.91-1.758c-4.268-.948-7.8-1.734-7.85-1.746-.089-.022-.09-.029-.09-.738 0-.394.005-.716.01-.717.006-.001 3.592-.998 7.97-2.217 4.378-1.218 7.973-2.217 7.99-2.219.017-.001.03 2.119.03 4.713M8.68 16.284c1.023.226 1.868.416 1.877.423.055.043-.213.469-.439.696-.789.793-2.042.802-2.819.02-.379-.382-.616-.933-.618-1.436-.001-.126.011-.149.069-.132.038.011.907.204 1.93.429" fill-rule="evenodd" fill="#000" stroke="none"/></svg>