<svg xmlns="http://www.w3.org/2000/svg" width="24" height="24" fill="none" stroke="currentColor" stroke-width="2" stroke-linecap="round" stroke-linejoin="round"><path d="M3.643 5.069C3.291 5.193 3 5.614 3 6c0 .242.119.521.299.701C3.624 7.026 2.856 7 12 7s8.376.026 8.701-.299a.984.984 0 0 0 0-1.402c-.325-.326.446-.299-8.718-.296-7.286.003-8.182.01-8.34.066m0 6C3.291 11.193 3 11.614 3 12c0 .242.119.521.299.701.325.325-.443.299 8.701.299s8.376.026 8.701-.299a.984.984 0 0 0 0-1.402c-.325-.326.446-.299-8.718-.296-7.286.003-8.182.01-8.34.066m0 6C3.291 17.193 3 17.614 3 18c0 .242.119.521.299.701.325.325-.443.299 8.701.299s8.376.026 8.701-.299a.984.984 0 0 0 0-1.402c-.325-.326.446-.299-8.718-.296-7.286.003-8.182.01-8.34.066" fill="#000" fill-rule="evenodd" stroke="none"/></svg>