<svg xmlns="http://www.w3.org/2000/svg" width="24" height="24" fill="none" stroke="currentColor" stroke-width="2" stroke-linecap="round" stroke-linejoin="round"><path d="M4.62 2.025c-.408.08-.533.114-.75.202-.706.287-1.342.91-1.62 1.588-.247.602-.227-.147-.24 8.983-.013 9.366-.038 8.576.288 8.902.279.279.655.364 1.045.235.177-.059.391-.258 2.138-2L7.422 18h5.899c3.862-.001 5.987-.015 6.153-.042 1.186-.192 2.147-1.086 2.45-2.278.083-.327.083-11.033 0-11.357-.307-1.197-1.264-2.09-2.444-2.28-.246-.04-14.661-.057-14.86-.018m14.72 2.041c.115.039.263.135.361.233.32.32.299-.082.299 5.701 0 5.783.021 5.381-.299 5.701-.322.322.202.299-6.701.299-5.588 0-6.164.006-6.343.066-.174.057-.342.21-1.427 1.289l-1.231 1.223.011-6.939.01-6.939.111-.189c.125-.213.318-.375.539-.454.123-.044 1.434-.054 7.313-.055 6.565-.002 7.179.004 7.357.064" fill-rule="evenodd" fill="#000" stroke="none"/></svg>