<svg xmlns="http://www.w3.org/2000/svg" width="24" height="24" fill="none" stroke="currentColor" stroke-width="2" stroke-linecap="round" stroke-linejoin="round"><path d="M.643.067A1.082 1.082 0 0 0 .066.66a.968.968 0 0 0-.001.683c.059.18.396.529 3.998 4.137l3.932 3.94.017 1.6c.017 1.69.026 1.784.229 2.33a4.017 4.017 0 0 0 3.327 2.619 4.08 4.08 0 0 0 2.195-.391l.264-.132.726.727c.4.4.727.74.727.756 0 .05-.75.476-1.125.637a7.119 7.119 0 0 1-1.315.397c-.298.06-1.426.08-1.82.032a6.993 6.993 0 0 1-.772-.158c-2.092-.551-3.715-2.196-4.263-4.32-.15-.58-.185-1.036-.185-2.408 0-1.436-.015-1.526-.299-1.81a.984.984 0 0 0-1.402 0c-.285.285-.299.37-.299 1.844 0 1.772.069 2.352.402 3.394a9.49 9.49 0 0 0 .939 1.943c1.194 1.782 3.064 3.026 5.139 3.419.187.036.381.073.43.084l.09.019V22H9.427c-1.789 0-1.836.006-2.128.299a.984.984 0 0 0 0 1.402c.317.317.038.299 4.701.299 4.663 0 4.384.018 4.701-.299a.984.984 0 0 0 0-1.402c-.292-.293-.339-.299-2.129-.299h-1.573l.01-1.007.011-1.006.42-.071c1.076-.183 2.273-.687 3.181-1.338l.312-.224 2.763 2.758c2.514 2.508 2.782 2.764 2.961 2.823.39.129.766.044 1.045-.235a.986.986 0 0 0 .185-1.144C23.767 22.308 1.726.264 1.457.122A1.084 1.084 0 0 0 .643.067M11.276.062C9.825.325 8.549 1.479 8.163 2.879c-.19.688-.042 1.147.457 1.413.224.12.656.119.883 0 .248-.131.444-.373.518-.64.148-.531.305-.814.611-1.101.253-.236.522-.389.842-.478 1.003-.278 2.038.267 2.418 1.273.087.232.088.26.108 3.254.02 3.013.02 3.02.108 3.184.102.19.33.403.518.481.176.074.581.07.765-.007.188-.078.391-.271.503-.478l.086-.16V6.5l-.001-3.12-.107-.392a4.05 4.05 0 0 0-3.19-2.931 4.734 4.734 0 0 0-1.406.005m7.383 9.002a.996.996 0 0 0-.545.486c-.092.186-.094.222-.117 1.67-.014.944-.041 1.583-.075 1.763-.045.251-.043.311.017.52a.997.997 0 0 0 1.141.703.983.983 0 0 0 .651-.452c.194-.313.233-.672.257-2.361.018-1.36.014-1.527-.049-1.716a1.004 1.004 0 0 0-1.28-.613m-6.194 4.884c-.017.018-.224.03-.458.028-.49-.004-.745-.078-1.106-.317-.608-.404-.901-1.002-.901-1.837v-.402l1.248 1.248c.687.687 1.234 1.263 1.217 1.28" fill-rule="evenodd" fill="#000" stroke="none"/></svg>