<svg xmlns="http://www.w3.org/2000/svg" width="24" height="24" fill="none" stroke="currentColor" stroke-width="2" stroke-linecap="round" stroke-linejoin="round"><path d="M11.31.063a3.918 3.918 0 0 0-2.131 1.116 3.87 3.87 0 0 0-1.12 2.173c-.053.31-.06.943-.049 4.812.012 4.425.013 4.458.099 4.776.415 1.532 1.519 2.612 3.031 2.965.464.109 1.319.102 1.78-.014a4.042 4.042 0 0 0 2.986-3.031c.07-.302.074-.575.074-4.86 0-5.039.013-4.77-.267-5.477C15.021.776 13.15-.269 11.31.063m1.098 1.981c.75.157 1.391.798 1.548 1.548.03.147.044 1.499.044 4.408 0 2.909-.014 4.261-.044 4.408C13.768 13.31 12.92 14 12 14c-.92 0-1.768-.69-1.956-1.592-.062-.297-.062-8.519 0-8.816a2.063 2.063 0 0 1 1.49-1.535c.263-.064.604-.069.874-.013M4.643 9.069a1.066 1.066 0 0 0-.577.591C4.01 9.825 4 10.047 4 11.129c0 .701.019 1.449.041 1.663.372 3.483 2.885 6.291 6.29 7.027.257.056.513.101.568.101H11V22H9.427c-1.789 0-1.836.006-2.128.299a.984.984 0 0 0 0 1.402c.317.317.038.299 4.701.299 4.663 0 4.384.018 4.701-.299a.984.984 0 0 0 0-1.402c-.292-.293-.339-.299-2.128-.299H13v-2.06l.493-.088a8.336 8.336 0 0 0 2.847-1.133c1.788-1.169 3.061-3.023 3.481-5.072.146-.712.179-1.183.179-2.544 0-1.43-.015-1.52-.299-1.804-.479-.479-1.291-.35-1.587.251-.092.186-.094.221-.117 1.69-.02 1.349-.032 1.542-.112 1.92a5.963 5.963 0 0 1-.569 1.599c-.853 1.647-2.394 2.786-4.256 3.148-.514.099-1.582.099-2.12-.002-2.436-.455-4.312-2.298-4.828-4.741-.069-.33-.084-.597-.106-1.904-.025-1.487-.028-1.524-.12-1.71-.221-.449-.752-.655-1.243-.481" fill-rule="evenodd" fill="#000" stroke="none"/></svg>