<svg xmlns="http://www.w3.org/2000/svg" width="24" height="24" fill="none" stroke="currentColor" stroke-width="2" stroke-linecap="round" stroke-linejoin="round"><path d="M20.64 2.068c-.155.053-.557.437-2.91 2.786L15 7.579V5.716c0-2.111-.001-2.119-.299-2.417a.984.984 0 0 0-1.402 0c-.312.312-.299.152-.298 3.738.001 3.116.002 3.187.082 3.363.11.242.257.391.497.505l.2.094 3.183.001c3.586 0 3.426.013 3.738-.299a.984.984 0 0 0 0-1.402C20.403 9.001 20.395 9 18.284 9h-1.863l2.725-2.73c2.477-2.482 2.73-2.748 2.789-2.927a1.004 1.004 0 0 0-1.295-1.275M3.643 13.069C3.291 13.193 3 13.614 3 14c0 .242.119.521.299.701.298.298.306.299 2.417.299h1.863l-2.725 2.73c-2.477 2.482-2.73 2.748-2.789 2.927-.129.39-.044.766.234 1.044s.654.363 1.044.234c.179-.059.445-.312 2.927-2.789L9 16.421v1.863c0 2.111.001 2.119.299 2.417a.984.984 0 0 0 1.402 0c.312-.312.299-.152.299-3.738l-.001-3.183-.094-.2a.951.951 0 0 0-.505-.497c-.176-.08-.244-.081-3.38-.079-2.792.002-3.222.01-3.377.065" fill="#000" fill-rule="evenodd" stroke="none"/></svg>