<svg xmlns="http://www.w3.org/2000/svg" width="24" height="24" fill="none" stroke="currentColor" stroke-width="2" stroke-linecap="round" stroke-linejoin="round"><path d="M7.643 2.069a1.066 1.066 0 0 0-.577.591C7.009 2.828 7 3.073 7 4.5c0 1.871-.005 1.907-.299 2.201C6.407 6.995 6.371 7 4.5 7s-1.907.005-2.201.299C2.119 7.479 2 7.758 2 8c0 .242.119.521.299.701.295.295.326.299 2.238.299.964 0 1.792-.018 1.937-.042 1.168-.189 2.069-1.009 2.439-2.218.05-.164.064-.534.077-2.032.017-2.09.016-2.105-.288-2.408a.999.999 0 0 0-1.059-.231m8 0c-.242.085-.496.349-.58.603-.061.183-.067.393-.053 2.036.013 1.513.027 1.867.078 2.032.351 1.127 1.045 1.821 2.172 2.172.165.051.519.065 2.032.078 2.09.017 2.105.016 2.408-.288a.984.984 0 0 0 .001-1.403C21.407 7.005 21.371 7 19.5 7s-1.907-.005-2.201-.299C17.005 6.407 17 6.371 17 4.5s-.005-1.907-.299-2.201a.998.998 0 0 0-1.058-.23m-13 13C2.291 15.193 2 15.614 2 16c0 .242.119.521.299.701.294.294.33.299 2.201.299s1.907.005 2.201.299c.294.294.299.33.299 2.201s.005 1.907.299 2.201a.984.984 0 0 0 1.403-.001c.304-.303.305-.318.288-2.408-.017-1.949-.014-1.917-.227-2.447-.367-.915-1.287-1.641-2.287-1.803-.15-.024-.957-.04-1.956-.039-1.432.003-1.728.013-1.877.066m14.977-.044c-.408.08-.533.114-.75.202-.706.287-1.342.91-1.62 1.588-.227.553-.223.512-.24 2.477-.017 2.09-.016 2.105.288 2.408a.984.984 0 0 0 1.403.001c.294-.294.299-.329.301-2.218.002-1.789.006-1.828.215-2.102.058-.077.191-.189.294-.25l.189-.111 1.78-.02c1.766-.02 1.782-.021 1.97-.114.601-.296.73-1.108.251-1.587-.296-.296-.321-.3-2.278-.294-.948.002-1.759.011-1.803.02" fill-rule="evenodd" fill="#000" stroke="none"/></svg>