<svg xmlns="http://www.w3.org/2000/svg" width="24" height="24" fill="none" stroke="currentColor" stroke-width="2" stroke-linecap="round" stroke-linejoin="round"><path d="M13.62 3.025c-.408.08-.533.114-.75.202-.881.358-1.549 1.137-1.794 2.093-.083.326-.084 13.031 0 13.357.281 1.099 1.047 1.882 2.184 2.237.173.054.654.064 3.56.076 2.233.009 3.452-.001 3.633-.029 1.192-.185 2.167-1.085 2.471-2.281.083-.327.084-13.033 0-13.357-.307-1.197-1.264-2.09-2.444-2.28-.245-.04-6.665-.056-6.86-.018m-10 2c-.408.08-.533.114-.75.202-.881.358-1.549 1.137-1.794 2.093-.083.323-.083 7.034 0 7.357.283 1.103 1.038 1.876 2.184 2.235.17.054.554.065 2.533.078 2.649.016 2.598.021 2.907-.288a.984.984 0 0 0 .001-1.403C8.399 14.997 8.427 15 6 15s-2.399.003-2.701-.299c-.312-.312-.299-.154-.297-3.718.001-2.538.012-3.193.055-3.313.079-.221.241-.414.454-.539L3.7 7.02 5.98 7l2.28-.02.19-.094c.601-.296.73-1.108.251-1.587-.304-.304-.263-.3-2.778-.294a87.455 87.455 0 0 0-2.303.02m16.72.041c.115.039.263.135.361.233.322.322.299-.202.299 6.701s.023 6.379-.299 6.701c-.311.312-.157.299-3.701.299-3.546 0-3.389.013-3.702-.3-.323-.323-.3.208-.288-6.782l.01-6.218.111-.189c.125-.213.318-.375.539-.454.12-.043.775-.054 3.313-.055 2.842-.002 3.182.005 3.357.064m-3.697 3C16.288 8.197 16 8.615 16 9c0 .729.814 1.222 1.465.887.711-.365.708-1.41-.004-1.776-.211-.109-.588-.129-.818-.045m-.109 4.991C15.657 13.269 15 14.102 15 15c0 1.08.92 2 2 2s2-.92 2-2c0-1.096-.934-2.013-2.032-1.997a2.342 2.342 0 0 0-.434.054M5.24 19.037a1.075 1.075 0 0 0-.658.572A1.256 1.256 0 0 0 4.52 20c0 .399.181.7.54.894.154.083.211.086 1.614.098 1.667.013 1.732.004 2.026-.29a.984.984 0 0 0 .001-1.403c-.289-.289-.357-.299-1.958-.296-.772.002-1.448.018-1.503.034" fill-rule="evenodd" fill="#000" stroke="none"/></svg>