<svg xmlns="http://www.w3.org/2000/svg" width="24" height="24" fill="none" stroke="currentColor" stroke-width="2" stroke-linecap="round" stroke-linejoin="round"><path d="M1.643 1.069a1.066 1.066 0 0 0-.577.591c-.137.404-.051.742.281 1.101l.218.235-.183.372a4.71 4.71 0 0 0-.273.712l-.089.34v5.52c0 5.952-.01 5.655.21 6.197.285.701.932 1.352 1.615 1.626.562.226.31.213 4.385.227l3.77.013V20H9.427c-1.789 0-1.836.006-2.128.299a.984.984 0 0 0 0 1.402c.317.317.038.299 4.701.299 4.663 0 4.384.018 4.701-.299a.984.984 0 0 0 0-1.402c-.292-.293-.339-.299-2.128-.299H13v-2H16.579l2.44 2.435c2.213 2.207 2.459 2.441 2.638 2.5.39.129.766.044 1.045-.235a.986.986 0 0 0 .185-1.144c-.063-.13-2.761-2.85-10.216-10.301C3.299 1.888 2.525 1.125 2.343 1.065a1.038 1.038 0 0 0-.7.004m7 1C8.291 2.193 8 2.614 8 3c0 .242.119.521.299.701C8.62 4.022 8.157 4 14.5 4s5.88-.022 6.201.299c.32.32.299-.082.299 5.701 0 5.783-.021 5.381.299 5.701a.984.984 0 0 0 1.403-.001c.322-.322.302.103.288-5.903-.013-5.795.002-5.382-.227-5.952-.367-.915-1.287-1.641-2.287-1.803-.169-.027-2.192-.04-5.956-.039-5.056.003-5.72.01-5.877.066m.197 8.191L14.58 16H9.217c-6.026 0-5.597.022-5.918-.299-.32-.32-.299.084-.299-5.718.001-2.84.012-5.23.026-5.313.013-.082.036-.15.049-.15.014 0 2.608 2.583 5.765 5.74" fill-rule="evenodd" fill="#000" stroke="none"/></svg>