<svg xmlns="http://www.w3.org/2000/svg" width="24" height="24" fill="none" stroke="currentColor" stroke-width="2" stroke-linecap="round" stroke-linejoin="round"><path d="M3.62 2.025c-.408.08-.533.114-.75.202-.881.358-1.549 1.137-1.794 2.093-.083.326-.084 11.032 0 11.357.281 1.099 1.046 1.881 2.184 2.237.174.055.687.065 3.97.076l3.77.013V20H9.427c-1.789 0-1.836.006-2.128.299a.984.984 0 0 0 0 1.402c.317.317.038.299 4.701.299 4.663 0 4.384.018 4.701-.299a.984.984 0 0 0 0-1.402c-.292-.293-.339-.299-2.128-.299H13v-2h3.61c2.304 0 3.703-.016 3.866-.042 1.179-.191 2.146-1.092 2.448-2.278.083-.327.083-11.033 0-11.357-.307-1.197-1.264-2.09-2.444-2.28-.246-.04-16.66-.057-16.86-.018m16.72 2.041c.115.039.263.135.361.233.32.32.299-.082.299 5.701 0 5.783.021 5.381-.299 5.701-.325.325.443.299-8.701.299-9.146 0-8.376.027-8.702-.3-.321-.321-.3.088-.289-5.782L3.02 4.7l.111-.189c.125-.213.318-.375.539-.454.123-.044 1.598-.054 8.313-.055 7.496-.002 8.179.003 8.357.064" fill="#000" fill-rule="evenodd" stroke="none"/></svg>