<svg xmlns="http://www.w3.org/2000/svg" width="24" height="24" fill="none" stroke="currentColor" stroke-width="2" stroke-linecap="round" stroke-linejoin="round"><path d="M10.744 2.043C7.872 2.436 5.32 4.023 3.738 6.4c-1.552 2.333-2.054 5.069-1.436 7.825.376 1.677 1.283 3.355 2.505 4.635 1.589 1.664 3.638 2.699 5.993 3.026.573.079 2.068.068 2.64-.021 3.333-.516 6.116-2.535 7.559-5.483.574-1.173.961-2.572.976-3.522.004-.299-.01-.387-.081-.52a1.01 1.01 0 0 0-.885-.539c-.26-.001-.402.056-.821.334a6.191 6.191 0 0 1-2.188.91c-.557.119-1.67.13-2.22.022a6.143 6.143 0 0 1-1.653-.569c-1.677-.851-2.827-2.392-3.194-4.278-.099-.514-.099-1.582.002-2.12.15-.804.471-1.594.93-2.288.12-.18.244-.391.276-.469.084-.2.073-.528-.024-.743-.223-.493-.631-.658-1.373-.557M9.198 4.8c-.768 2.45-.274 5.178 1.316 7.26.275.36.942 1.033 1.326 1.339a7.968 7.968 0 0 0 5.28 1.748 8.357 8.357 0 0 0 2.005-.324l.426-.128-.041.122c-.086.259-.466 1.019-.688 1.377-.449.725-1.233 1.596-1.882 2.092-1.398 1.068-3.155 1.672-4.866 1.674a7.878 7.878 0 0 1-3.534-.818 7.468 7.468 0 0 1-2.241-1.628 7.35 7.35 0 0 1-1.478-2.125 7.916 7.916 0 0 1 .036-6.929c.416-.847.794-1.386 1.442-2.054A7.779 7.779 0 0 1 8.98 4.574c.176-.073.322-.133.325-.133a7.076 7.076 0 0 1-.107.359" fill-rule="evenodd" fill="#000" stroke="none"/></svg>