<svg xmlns="http://www.w3.org/2000/svg" width="24" height="24" fill="none" stroke="currentColor" stroke-width="2" stroke-linecap="round" stroke-linejoin="round"><path d="M7.664 2.063a1.018 1.018 0 0 0-.503.396C7.022 2.683 1 20.791 1 20.983c0 .413.284.823.66.951.179.061 1.001.066 10.34.066s10.161-.005 10.34-.066c.376-.128.66-.538.66-.951 0-.108-.848-2.707-2.544-7.795-2.082-6.245-2.567-7.663-2.671-7.798-.248-.326-.704-.461-1.111-.33-.201.065-.341.196-2.303 2.153-1.149 1.145-2.096 2.075-2.105 2.065-.01-.01-.786-1.557-1.726-3.438C9.172 3.104 8.8 2.391 8.679 2.275a1.005 1.005 0 0 0-1.015-.212M9.685 8.61c1.603 3.208 1.595 3.194 1.979 3.325.241.082.43.082.679 0 .178-.059.395-.263 2.205-2.068 1.34-1.335 2.016-1.983 2.031-1.944.032.085 4.021 12.055 4.021 12.067 0 .005-3.872.01-8.604.01-6.867 0-8.601-.01-8.586-.05l2.394-7.18c1.307-3.922 2.38-7.13 2.386-7.13.005 0 .678 1.336 1.495 2.97" fill-rule="evenodd" fill="#000" stroke="none"/></svg>