<svg xmlns="http://www.w3.org/2000/svg" width="24" height="24" fill="none" stroke="currentColor" stroke-width="2" stroke-linecap="round" stroke-linejoin="round"><path d="M7.664 2.063a1.018 1.018 0 0 0-.503.396C7.022 2.683 1 20.791 1 20.983c0 .413.284.823.66.951.179.061 1.001.066 10.34.066s10.161-.005 10.34-.066c.376-.128.66-.538.66-.951 0-.108-.848-2.707-2.544-7.795-2.082-6.245-2.567-7.663-2.671-7.798-.248-.326-.704-.461-1.111-.33-.201.065-.341.196-2.303 2.153-1.149 1.145-2.096 2.075-2.105 2.065-.01-.01-.786-1.557-1.726-3.438C9.172 3.104 8.8 2.391 8.679 2.275a1.005 1.005 0 0 0-1.015-.212M9.685 8.61c1.603 3.208 1.595 3.194 1.979 3.325.241.082.43.082.679 0 .178-.059.395-.263 2.205-2.068 1.34-1.335 2.016-1.983 2.031-1.944A915.27 915.27 0 0 1 19 15.224c0 .058-.615.343-1.065.492-1.536.511-3.086.319-4.63-.575a21.51 21.51 0 0 1-.943-.599c-2.079-1.398-4.207-1.844-6.332-1.328-.215.052-.39.084-.39.071 0-.036 2.538-7.645 2.55-7.645.005 0 .678 1.336 1.495 2.97m-.945 6.488c.883.185 1.687.556 2.776 1.28 1.594 1.061 2.968 1.552 4.504 1.609a7.49 7.49 0 0 0 3.354-.683l.291-.132.453 1.364.472 1.414c.015.04-1.719.05-8.586.05-4.732 0-8.603-.013-8.601-.03.002-.017.312-.948.69-2.07l.687-2.04.28-.149a6.776 6.776 0 0 1 2.009-.67c.339-.053 1.3-.02 1.671.057" fill-rule="evenodd" fill="#000" stroke="none"/></svg>