<svg xmlns="http://www.w3.org/2000/svg" width="24" height="24" fill="none" stroke="currentColor" stroke-width="2" stroke-linecap="round" stroke-linejoin="round"><path d="M6.92 1.275c-.431.14-.717.515-.719.943-.001.202.736 3.053.867 3.355.085.195.361.439.564.5.087.026.253.047.37.047.513 0 .958-.456.958-.982 0-.165-.758-3.058-.867-3.308a1.081 1.081 0 0 0-.478-.491c-.17-.081-.538-.115-.695-.064m6.7 1.831c-.181.056-.312.173-1.391 1.247-1.323 1.317-1.39 1.405-1.388 1.825a.907.907 0 0 0 .304.71.9.9 0 0 0 .686.272c.41 0 .505-.073 1.815-1.389 1.118-1.123 1.19-1.203 1.25-1.408.08-.271.08-.335 0-.606a1.017 1.017 0 0 0-.653-.653c-.262-.077-.362-.077-.623.002M1.84 6.283a.965.965 0 0 0-.588.816.97.97 0 0 0 .455.927c.203.119 3.19.933 3.428.933.367.002.738-.234.902-.572.094-.196.109-.51.036-.755-.061-.203-.305-.479-.5-.564-.302-.131-3.153-.868-3.355-.867-.112 0-.276.036-.378.082m6.803 1.786c-.385.136-.674.595-.634 1.007.012.128.816 2.104 2.574 6.325 2.355 5.653 2.57 6.152 2.721 6.304a.985.985 0 0 0 1.165.169c.343-.177.38-.257 1.049-2.237.338-.999.63-1.861.65-1.914.033-.092.145.011 1.824 1.686 1.767 1.764 1.791 1.785 2.024 1.852.54.156 1.055-.112 1.246-.649.072-.202.071-.353-.006-.615-.061-.208-.138-.292-1.847-2.005-1.672-1.677-1.777-1.791-1.686-1.824.053-.019.914-.311 1.913-.648 1.98-.669 2.061-.707 2.238-1.051a.99.99 0 0 0-.169-1.167c-.153-.152-.615-.351-6.186-2.672a1052.015 1052.015 0 0 0-6.194-2.568 1.006 1.006 0 0 0-.682.007M5.76 10.923c-.236.106-2.485 2.338-2.598 2.577a.949.949 0 0 0-.061.728c.09.312.351.577.656.668.271.08.335.08.606 0 .205-.06.285-.132 1.408-1.25 1.29-1.284 1.389-1.41 1.389-1.779 0-.109-.021-.268-.047-.355-.062-.206-.311-.484-.526-.589-.228-.11-.583-.11-.827 0m8.819 1.484c1.958.815 3.566 1.487 3.572 1.492.006.005-.615.221-1.38.479-.765.259-1.457.513-1.538.565-.274.175-.338.312-.841 1.794-.266.784-.488 1.42-.493 1.414-.009-.011-2.948-7.064-3.004-7.209-.024-.063-.016-.071.047-.047.042.016 1.678.697 3.637 1.512" fill-rule="evenodd" fill="#000" stroke="none"/></svg>