<svg xmlns="http://www.w3.org/2000/svg" width="24" height="24" fill="none" stroke="currentColor" stroke-width="2" stroke-linecap="round" stroke-linejoin="round"><path d="M3.643 3.069c-.355.125-.643.545-.643.937 0 .084.043.265.095.403.156.412 7.025 16.913 7.104 17.068.336.652 1.335.69 1.702.065.053-.09.626-1.724 1.275-3.632.648-1.908 1.19-3.487 1.204-3.509.013-.023.042-.041.064-.041.021 0 1.033-.34 2.247-.756l3.444-1.179c.679-.233 1.31-.467 1.403-.522.631-.37.594-1.367-.064-1.706-.081-.041-2.934-1.234-6.34-2.651L6.8 4.08c-1.177-.49-2.253-.933-2.391-.985-.286-.108-.511-.116-.766-.026m8.347 5.335c3.338 1.389 6.093 2.537 6.121 2.553.029.015-1.051.405-2.44.879-1.37.468-2.557.894-2.638.946-.08.052-.192.154-.247.227-.063.082-.306.735-.645 1.731l-.856 2.512-.311.913-2.525-6.073C5.636 5.327 5.863 5.88 5.895 5.88c.014 0 2.756 1.136 6.095 2.524" fill-rule="evenodd" fill="#000" stroke="none"/></svg>