<svg xmlns="http://www.w3.org/2000/svg" width="24" height="24" fill="none" stroke="currentColor" stroke-width="2" stroke-linecap="round" stroke-linejoin="round"><path d="M2.643 2.069c-.385.136-.674.595-.634 1.007.012.129 1.119 2.834 3.594 8.784 3.564 8.567 3.578 8.598 3.777 8.8.221.224.406.3.73.3.249 0 .572-.159.735-.36.085-.106.324-.762.955-2.62.464-1.364.926-2.72 1.028-3.013l.185-.533 2.723 2.718c2.477 2.471 2.742 2.724 2.921 2.783.39.129.766.044 1.044-.234s.363-.654.234-1.044c-.059-.179-.312-.444-2.784-2.922l-2.72-2.725.535-.181 5.156-1.754c.408-.139.595-.283.734-.563.197-.395.125-.815-.195-1.132-.201-.199-.228-.211-8.301-3.57-4.455-1.854-8.343-3.47-8.64-3.59-.588-.239-.76-.263-1.077-.151m8.355 5.347c3.348 1.395 6.094 2.543 6.103 2.552.009.008-1.089.39-2.438.848-1.35.458-2.53.878-2.622.933a.99.99 0 0 0-.278.273c-.063.099-.466 1.224-.945 2.635-.542 1.598-.847 2.442-.868 2.404-.038-.068-5.07-12.142-5.07-12.165 0-.009.007-.016.016-.016.008 0 2.754 1.141 6.102 2.536" fill-rule="evenodd" fill="#000" stroke="none"/></svg>