<svg xmlns="http://www.w3.org/2000/svg" width="24" height="24" fill="none" stroke="currentColor" stroke-width="2" stroke-linecap="round" stroke-linejoin="round"><path d="M11.58 1.096c-.158.076-.641.539-2.325 2.23-1.917 1.926-2.131 2.153-2.19 2.331-.129.39-.044.766.234 1.044s.655.363 1.044.233c.174-.057.342-.21 1.427-1.288L11 4.423v15.154l-1.23-1.223c-1.085-1.078-1.253-1.231-1.427-1.288-.389-.13-.766-.045-1.044.233s-.363.654-.234 1.044c.059.178.273.405 2.19 2.331 2.314 2.325 2.315 2.325 2.745 2.325.43 0 .431 0 2.745-2.325 1.917-1.926 2.131-2.153 2.19-2.331.129-.39.044-.766-.234-1.044s-.655-.363-1.044-.233c-.174.057-.342.21-1.427 1.288L13 19.577V4.423l1.23 1.223c1.085 1.078 1.253 1.231 1.427 1.288.389.13.766.045 1.044-.233s.363-.654.234-1.044c-.059-.178-.273-.405-2.19-2.331-1.684-1.691-2.167-2.154-2.325-2.23a.967.967 0 0 0-.84 0" fill="#000" fill-rule="evenodd" stroke="none"/></svg>