<svg xmlns="http://www.w3.org/2000/svg" width="24" height="24" fill="none" stroke="currentColor" stroke-width="2" stroke-linecap="round" stroke-linejoin="round"><path d="M11.58 1.096c-.157.074-.552.449-1.825 1.73-1.451 1.46-1.631 1.655-1.69 1.831-.129.389-.044.766.234 1.044.279.279.656.363 1.044.233.167-.056.309-.177.927-.788l.73-.721V11H4.425l.721-.73c.611-.618.732-.76.788-.927.13-.388.046-.765-.233-1.044-.278-.278-.655-.363-1.044-.234-.176.059-.371.239-1.831 1.69C1.041 11.53 1.001 11.579 1.001 12c0 .421.04.47 1.825 2.245 1.46 1.451 1.655 1.631 1.831 1.69.389.129.766.044 1.044-.234.279-.279.363-.656.233-1.044-.056-.167-.177-.309-.788-.927L4.425 13H11V19.575l-.73-.721c-.618-.611-.76-.732-.927-.788-.388-.13-.765-.046-1.044.233-.278.278-.363.655-.234 1.044.059.176.239.371 1.69 1.831 1.775 1.785 1.824 1.825 2.245 1.825.421 0 .47-.04 2.245-1.825 1.451-1.46 1.631-1.655 1.69-1.831.129-.389.044-.766-.234-1.044-.279-.279-.656-.363-1.044-.233-.167.056-.309.177-.927.788l-.73.721V13H19.575l-.721.73c-.611.618-.732.76-.788.927-.13.388-.046.765.233 1.044.278.278.655.363 1.044.234.176-.059.371-.239 1.831-1.69 1.785-1.775 1.825-1.824 1.825-2.245 0-.421-.04-.47-1.825-2.245-1.46-1.451-1.655-1.631-1.831-1.69-.389-.129-.766-.044-1.044.234-.279.279-.363.656-.233 1.044.056.167.177.309.788.927l.721.73H13V4.425l.73.721c.618.611.76.732.927.788.388.13.765.046 1.044-.233.278-.278.363-.655.234-1.044-.059-.176-.239-.371-1.69-1.831-1.273-1.281-1.668-1.656-1.825-1.73a.967.967 0 0 0-.84 0" fill="#000" fill-rule="evenodd" stroke="none"/></svg>