<svg xmlns="http://www.w3.org/2000/svg" width="24" height="24" fill="none" stroke="currentColor" stroke-width="2" stroke-linecap="round" stroke-linejoin="round"><path d="M4.58 4.095a.951.951 0 0 0-.497.505c-.08.176-.081.247-.082 3.363-.001 3.586-.014 3.426.298 3.738.479.479 1.291.35 1.587-.251.094-.189.094-.198.114-2.1l.02-1.91 5.28 5.28L16.58 18h-1.863c-2.112 0-2.12.001-2.418.299a.984.984 0 0 0 0 1.402c.312.312.152.299 3.738.299l3.183-.001.2-.094a.951.951 0 0 0 .497-.505c.08-.176.081-.247.082-3.363.001-3.586.014-3.426-.298-3.738a.984.984 0 0 0-1.402 0c-.298.298-.299.306-.299 2.418v1.863l-5.28-5.28-5.28-5.28L9.35 6c1.902-.02 1.911-.02 2.1-.114.601-.296.73-1.108.251-1.587C11.389 3.987 11.549 4 7.963 4l-3.183.001-.2.094" fill="#000" fill-rule="evenodd" stroke="none"/></svg>