<svg xmlns="http://www.w3.org/2000/svg" width="24" height="24" fill="none" stroke="currentColor" stroke-width="2" stroke-linecap="round" stroke-linejoin="round"><path d="M12.643 4.069C12.291 4.193 12 4.614 12 5c0 .242.119.521.299.701.298.298.306.299 2.418.299h1.863l-5.28 5.28-5.28 5.28L6 14.65c-.02-1.902-.02-1.911-.114-2.1-.296-.601-1.108-.73-1.587-.251-.312.312-.299.152-.299 3.738l.001 3.183.094.2c.114.24.263.387.505.497.176.08.247.081 3.363.082 3.586.001 3.426.014 3.738-.298a.984.984 0 0 0 0-1.402c-.298-.298-.306-.299-2.418-.299H7.42l5.28-5.28 5.28-5.28.02 1.91c.02 1.902.02 1.911.114 2.1.296.601 1.108.73 1.587.251.312-.312.299-.152.299-3.738l-.001-3.183-.094-.2a.951.951 0 0 0-.505-.497c-.176-.08-.244-.081-3.38-.079-2.792.002-3.222.01-3.377.065" fill="#000" fill-rule="evenodd" stroke="none"/></svg>