<svg width="24" height="24" xmlns="http://www.w3.org/2000/svg" fill="none" stroke="currentColor" stroke-width="2" stroke-linecap="round" stroke-linejoin="round"><path d="M14.769 3.021c-4.624.774-6.093 1.033-6.23 1.099a1.068 1.068 0 0 0-.298.231C7.987 4.659 8 4.378 8 9.69c0 2.66-.013 4.83-.03 4.821-.743-.38-1.416-.536-2.15-.497-1.834.096-3.306 1.331-3.725 3.126-.103.441-.103 1.279 0 1.72a4.017 4.017 0 0 0 3.045 3.045c.464.109 1.319.102 1.78-.014 1.479-.373 2.565-1.451 2.972-2.951l.086-.32.012-6.39c.006-3.514.021-6.39.031-6.39.011 0 2.234-.369 4.939-.82 2.705-.451 4.946-.82 4.979-.82.054 0 .061.471.061 4.163 0 2.29-.013 4.157-.03 4.148-.743-.38-1.416-.536-2.15-.497-1.834.096-3.306 1.331-3.725 3.126-.103.441-.103 1.279 0 1.72a4.017 4.017 0 0 0 3.045 3.045c.464.109 1.319.102 1.78-.014 1.479-.373 2.565-1.45 2.972-2.951l.086-.32.012-6.877c.011-6.308.006-6.894-.055-7.077-.127-.382-.544-.672-.952-.662-.09.002-2.886.46-6.214 1.017m3.639 11.023C19.31 14.232 20 15.08 20 16c0 1.08-.92 2-2 2s-2-.92-2-2c0-.898.657-1.731 1.534-1.943.263-.064.604-.069.874-.013m-12 2C7.31 16.232 8 17.08 8 18c0 1.08-.92 2-2 2s-2-.92-2-2c0-.898.657-1.731 1.534-1.943.263-.064.604-.069.874-.013" fill-rule="evenodd" fill="#000" stroke="none"/></svg>