<svg xmlns="http://www.w3.org/2000/svg" width="24" height="24" fill="none" stroke="currentColor" stroke-width="2" stroke-linecap="round" stroke-linejoin="round"><path d="M11.664 1.061a1.035 1.035 0 0 0-.497.388c-.135.22-7.137 19.274-7.158 19.477-.068.684.649 1.247 1.298 1.018.087-.03 1.63-.896 3.428-1.924l3.27-1.869 3.288 1.879c1.808 1.033 3.348 1.899 3.423 1.924.634.214 1.342-.358 1.275-1.028-.011-.11-1.476-4.141-3.562-9.801-2.659-7.215-3.572-9.651-3.66-9.76-.243-.3-.75-.439-1.105-.304m2.89 10.764c1.391 3.776 2.52 6.874 2.51 6.885-.011.01-1.05-.57-2.309-1.29-1.259-.72-2.361-1.334-2.447-1.364a.909.909 0 0 0-.613 0c-.085.03-1.197.651-2.47 1.38a406.91 406.91 0 0 1-2.324 1.324c-.005 0 1.134-3.105 2.533-6.9 1.398-3.795 2.553-6.9 2.566-6.9.013 0 1.163 3.089 2.554 6.865" fill="#000" fill-rule="evenodd" stroke="none"/></svg>