<svg xmlns="http://www.w3.org/2000/svg" width="24" height="24" fill="none" stroke="currentColor" stroke-width="2" stroke-linecap="round" stroke-linejoin="round"><path d="M21.64 1.075c-.495.197-19.16 9.067-19.28 9.163-.503.398-.449 1.263.1 1.602.101.062 1.331.387 3.931 1.038l3.785.946.946 3.785c.651 2.6.976 3.83 1.038 3.931.339.549 1.204.603 1.602.1.1-.127 8.99-18.839 9.164-19.29.308-.798-.492-1.591-1.286-1.275m-4.965 9.827a2408.124 2408.124 0 0 0-3.28 6.934c-.042.096-.087.165-.1.152-.013-.012-.325-1.231-.695-2.708-.724-2.89-.726-2.897-1.038-3.103-.122-.081-.754-.254-2.842-.777-1.477-.37-2.695-.682-2.707-.694-.012-.012.039-.047.113-.079.074-.032 3.193-1.509 6.932-3.281a1077.59 1077.59 0 0 1 6.809-3.212c.006.006-1.43 3.052-3.192 6.768" fill="#000" fill-rule="evenodd" stroke="none"/></svg>