<svg xmlns="http://www.w3.org/2000/svg" width="24" height="24" fill="none" stroke="currentColor" stroke-width="2" stroke-linecap="round" stroke-linejoin="round"><path d="M8.643 1.069a1.118 1.118 0 0 0-.343.229C7.987 1.611 8 1.455 8 5c0 3.544-.013 3.39.299 3.701.278.278.393.299 1.628.299H11v2H7.927c-3.463 0-3.317-.012-3.628.299-.293.292-.299.339-.299 2.128V15H2.927c-1.235 0-1.35.021-1.628.299C.987 15.61 1 15.456 1 19s-.013 3.39.299 3.701C1.61 23.013 1.456 23 5 23s3.39.013 3.701-.299C9.013 22.39 9 22.544 9 19s.013-3.39-.299-3.701C8.423 15.021 8.308 15 7.073 15H6v-2h12v2h-1.073c-1.235 0-1.35.021-1.628.299-.312.311-.299.157-.299 3.701s-.013 3.39.299 3.701c.311.312.157.299 3.701.299s3.39.013 3.701-.299c.312-.311.299-.157.299-3.701s.013-3.39-.299-3.701c-.278-.278-.393-.299-1.628-.299H20v-1.573c0-1.789-.006-1.836-.299-2.128-.311-.311-.165-.299-3.628-.299H13V9h1.073c1.235 0 1.35-.021 1.628-.299C16.013 8.39 16 8.544 16 5s.013-3.39-.299-3.701c-.312-.312-.154-.299-3.718-.296-2.757.003-3.186.011-3.34.066M14 5v2h-4V3h4v2M7 19v2H3v-4h4v2m14 0v2h-4v-4h4v2" fill-rule="evenodd" fill="#000" stroke="none"/></svg>