<svg xmlns="http://www.w3.org/2000/svg" width="24" height="24" fill="none" stroke="currentColor" stroke-width="2" stroke-linecap="round" stroke-linejoin="round"><path d="M4.314 4.15c-1.731 1.732-3.18 3.213-3.22 3.29-.071.134-.074.34-.074 4.56v4.42l.087.16c.11.201 6.14 6.224 6.333 6.326.134.071.34.074 4.56.074s4.426-.003 4.56-.074c.193-.102 6.223-6.125 6.333-6.326l.087-.16V12c0-4.22-.003-4.426-.074-4.56-.102-.193-6.125-6.223-6.326-6.333l-.16-.087-4.48-.01L7.46.999 4.314 4.15M18.37 5.63 21 8.26v7.48l-2.63 2.63L15.74 21H8.26l-2.63-2.63L3 15.74V8.26l2.63-2.63L8.26 3h7.48l2.63 2.63" fill="#000" fill-rule="evenodd" stroke="none"/></svg>