<svg xmlns="http://www.w3.org/2000/svg" width="24" height="24" fill="none" stroke="currentColor" stroke-width="2" stroke-linecap="round" stroke-linejoin="round"><path d="M2.643 2.068C2.29 2.194 2 2.614 2 3c0 .242.119.521.299.701.308.308.208.299 3.265.299h2.709l2.908 8.722c2.386 7.158 2.93 8.752 3.033 8.888.07.091.216.212.325.268l.199.102 3.198.011c3.612.012 3.451.024 3.764-.289a.984.984 0 0 0 .001-1.403c-.308-.308-.208-.299-3.265-.299h-2.709l-2.908-8.723C10.436 4.13 9.888 2.525 9.785 2.39a1.133 1.133 0 0 0-.324-.268l-.199-.102-3.221-.007c-2.836-.007-3.242 0-3.398.055m11 .001C13.291 2.193 13 2.614 13 3c0 .242.119.521.299.701.314.314.097.299 4.201.299 4.104 0 3.887.015 4.201-.299.18-.18.299-.459.299-.701 0-.242-.119-.521-.299-.701-.315-.315-.094-.299-4.218-.296-3.21.003-3.685.011-3.84.066" fill-rule="evenodd" fill="#000" stroke="none"/></svg>