<svg xmlns="http://www.w3.org/2000/svg" width="24" height="24" fill="none" stroke="currentColor" stroke-width="2" stroke-linecap="round" stroke-linejoin="round"><path d="M11.495 1.041c-.432.078-.842.278-2.47 1.208-.925.528-1.754.986-1.841 1.017-.087.03-.25.125-.361.209-.112.084-.959.582-1.883 1.107l-1.68.955-.392.391c-.403.401-.545.629-.724 1.163-.14.418-.147.676-.135 5.089l.011 4.36.132.38c.176.505.419.884.797 1.244.294.279.522.416 3.931 2.363a426.518 426.518 0 0 0 3.82 2.167c.244.122 1.132.386 1.297.386.143 0 .767-.17 1.109-.302.229-.088 6.974-3.913 7.518-4.263.307-.197.756-.661.947-.977.08-.133.205-.412.277-.62l.132-.378V7.5l-.094-.3c-.124-.395-.298-.775-.428-.933-.229-.278-.569-.604-.778-.745-.121-.081-1.833-1.069-3.803-2.194-4.031-2.3-3.994-2.282-4.752-2.309a3.914 3.914 0 0 0-.63.022m.81 2.015c.085.031 1.618.892 3.405 1.914l3.25 1.859-1.227.71c-1.198.694-1.229.709-1.33.649-.15-.088-5.386-3.106-6.153-3.546-.357-.206-.65-.384-.65-.398.001-.033 1.849-1.088 2.054-1.172a.925.925 0 0 1 .651-.016M11.037 7.4c1.892 1.089 3.441 1.989 3.442 2.001.002.037-2.418 1.419-2.482 1.417-.034-.002-1.474-.819-3.2-1.817L5.349 7.008l-.31-.18 1.25-.714c.688-.392 1.264-.709 1.28-.704.016.006 1.577.901 3.468 1.99m-3.5 3.18 3.461 2 .001 3.99c.001 2.195-.006 3.99-.014 3.99-.009 0-1.498-.846-3.31-1.881-2.333-1.331-3.332-1.922-3.423-2.023C3.989 16.36 4 16.541 4 12.35c0-2.351.014-3.792.038-3.783.02.007 1.595.913 3.499 2.013M20 12.353c0 4.188.011 4.007-.252 4.303-.091.101-1.09.692-3.423 2.023a444.932 444.932 0 0 1-3.31 1.881c-.008 0-.014-1.795-.014-3.99l.002-3.99.508-.291c.28-.16 1.841-1.063 3.469-2.007a241.653 241.653 0 0 1 2.99-1.719c.017-.002.03 1.704.03 3.79" fill-rule="evenodd" fill="#000" stroke="none"/></svg>