<svg xmlns="http://www.w3.org/2000/svg" width="24" height="24" fill="none" stroke="currentColor" stroke-width="2" stroke-linecap="round" stroke-linejoin="round"><path d="M11.18 1.025a11.151 11.151 0 0 0-5.8 2.208A11.099 11.099 0 0 0 1.263 9.62c-.189.846-.239 1.333-.24 2.36-.001 1 .031 1.355.198 2.185a11.043 11.043 0 0 0 8.61 8.614 8.623 8.623 0 0 0 1.949.198c.691.003.733-.001 1.04-.11a2.605 2.605 0 0 0 1.07-.677c.609-.622.875-1.567.69-2.45a3.01 3.01 0 0 0-.575-1.155c-.223-.263-.276-.44-.208-.695a.616.616 0 0 1 .338-.425c.117-.056.314-.065 1.351-.066 1.606-.001 2.101-.055 2.954-.327 2.801-.892 4.713-3.666 4.542-6.592-.116-1.994-.822-3.794-2.116-5.4a13.394 13.394 0 0 0-1.594-1.573c-1.617-1.28-3.499-2.079-5.632-2.391-.525-.077-1.981-.13-2.46-.091m2.22 2.076c2.192.336 4.018 1.25 5.441 2.726 1.271 1.318 1.967 2.796 2.125 4.515.179 1.943-.812 3.73-2.537 4.577-.828.406-1.3.481-3.032.481-.704 0-1.323.018-1.46.043a2.659 2.659 0 0 0-2.043 1.817c-.131.404-.147 1.085-.037 1.5.087.323.305.746.502.97.233.265.293.41.272.658a.633.633 0 0 1-.287.51c-.1.074-.164.082-.657.078-1.492-.011-3.198-.539-4.516-1.399a8.28 8.28 0 0 1-1.514-1.234C4.253 16.94 3.405 15.274 3.092 13.3c-.096-.611-.096-1.989 0-2.6.313-1.974 1.161-3.64 2.565-5.043.764-.764 1.434-1.248 2.372-1.715 1.023-.51 1.988-.784 3.231-.917.334-.036 1.735.014 2.14.076m-.28 1.954c-.406.118-.779.419-.954.769a1.498 1.498 0 0 0 .301 1.742c.231.222.432.328.748.393a1.47 1.47 0 0 0 1.318-.391c.927-.901.352-2.464-.937-2.547a1.51 1.51 0 0 0-.476.034m-5 1c-.406.118-.779.419-.954.769a1.498 1.498 0 0 0 .301 1.742c.231.222.432.328.748.393a1.47 1.47 0 0 0 1.318-.391c.927-.901.352-2.464-.937-2.547a1.51 1.51 0 0 0-.476.034m5.604.007A.56.56 0 0 1 14 6.5c0 .248-.252.5-.5.5-.244 0-.5-.252-.5-.492 0-.251.248-.508.492-.508a.61.61 0 0 1 .232.062m-5 1a.488.488 0 0 1 .198.686.485.485 0 0 1-.844 0 .478.478 0 0 1 .174-.67.453.453 0 0 1 .472-.016m8.396 1.993c-.406.118-.779.419-.954.769a1.498 1.498 0 0 0 .301 1.742c.231.222.432.328.748.393a1.47 1.47 0 0 0 1.318-.391c.927-.901.352-2.464-.937-2.547a1.51 1.51 0 0 0-.476.034m.604 1.007A.56.56 0 0 1 18 10.5c0 .248-.252.5-.5.5-.244 0-.5-.252-.5-.492 0-.251.248-.508.492-.508a.61.61 0 0 1 .232.062m-11.604.993c-.406.118-.779.419-.954.769a1.498 1.498 0 0 0 .301 1.742c.231.222.432.328.748.393a1.47 1.47 0 0 0 1.318-.391c.927-.901.352-2.464-.937-2.547a1.51 1.51 0 0 0-.476.034m.604 1.007A.56.56 0 0 1 7 12.5c0 .248-.252.5-.5.5-.244 0-.5-.252-.5-.492 0-.251.248-.508.492-.508a.61.61 0 0 1 .232.062" fill-rule="evenodd" fill="#000" stroke="none"/></svg>