<svg xmlns="http://www.w3.org/2000/svg" width="24" height="24" fill="none" stroke="currentColor" stroke-width="2" stroke-linecap="round" stroke-linejoin="round"><path d="M14.934.46a5.65 5.65 0 0 0-1.374.45c-.729.367-.632.277-5.943 5.587-5.561 5.562-5.335 5.316-5.857 6.363-.418.839-.618 1.517-.718 2.428-.319 2.926 1.31 5.791 4.007 7.05a7.027 7.027 0 0 0 4.74.426c.49-.127.937-.301 1.45-.568.956-.496.796-.347 6.114-5.654 2.953-2.947 4.925-4.943 4.973-5.037A.998.998 0 0 0 21 10.157c-.129.065-1.567 1.475-5.04 4.941-3.917 3.909-4.921 4.89-5.172 5.055a5.222 5.222 0 0 1-1.828.753c-.411.087-1.442.097-1.84.018-2.049-.404-3.594-1.93-4.028-3.976-.098-.462-.097-1.448.001-1.908.16-.746.438-1.389.847-1.956.328-.456 10.001-10.1 10.31-10.28.126-.073.387-.19.58-.259.334-.119.378-.125.95-.124.569.001.618.007.95.125.502.178.761.345 1.172.754.307.306.389.417.547.74.242.497.319.829.318 1.359a2.915 2.915 0 0 1-.624 1.834c-.299.384-9.547 9.588-9.706 9.659-.652.295-1.363-.11-1.426-.812-.045-.49-.35-.151 4.531-5.04 4.303-4.311 4.413-4.425 4.475-4.637.078-.269.078-.337.004-.587a1.046 1.046 0 0 0-.519-.611 1.143 1.143 0 0 0-.862-.002c-.14.063-1.143 1.043-4.513 4.409-2.382 2.38-4.414 4.436-4.514 4.568a3.02 3.02 0 0 0-.377 2.983c.479 1.143 1.708 1.909 2.924 1.823.463-.033.752-.113 1.199-.332l.378-.186 4.746-4.715c2.61-2.594 4.844-4.828 4.964-4.964.893-1.014 1.32-2.112 1.318-3.389-.002-1.054-.265-1.94-.826-2.783-.692-1.04-1.714-1.756-2.976-2.085-.487-.127-1.511-.163-2.029-.072" fill-rule="evenodd" fill="#000" stroke="none"/></svg>