<svg xmlns="http://www.w3.org/2000/svg" width="24" height="24" fill="none" stroke="currentColor" stroke-width="2" stroke-linecap="round" stroke-linejoin="round"><path d="M4.234 4.069C2.548 5.758 1.135 7.203 1.094 7.28c-.071.134-.074.34-.074 4.72v4.58l.107.18c.134.225 5.96 6.044 6.153 6.146.134.071.34.074 4.72.074s4.586-.003 4.72-.074c.193-.102 6.019-5.921 6.153-6.146l.107-.18V12c0-4.38-.003-4.586-.074-4.72-.102-.193-5.921-6.019-6.146-6.153l-.18-.107-4.64-.011L7.3.999l-3.066 3.07M18.43 5.57 21 8.14v7.72l-2.57 2.57L15.86 21H8.14l-2.57-2.57L3 15.86V8.14l2.57-2.57L8.14 3h7.72l2.57 2.57M9.643 8.069a1.118 1.118 0 0 0-.343.229C8.987 8.611 9 8.455 9 12c0 3.544-.013 3.39.299 3.701.18.18.459.299.701.299.242 0 .521-.119.701-.299.312-.311.299-.157.299-3.701s.013-3.39-.299-3.701a.998.998 0 0 0-1.058-.23m4 0a1.118 1.118 0 0 0-.343.229c-.313.313-.3.157-.3 3.702 0 3.544-.013 3.39.299 3.701.18.18.459.299.701.299.242 0 .521-.119.701-.299.312-.311.299-.157.299-3.701s.013-3.39-.299-3.701a.998.998 0 0 0-1.058-.23" fill-rule="evenodd" fill="#000" stroke="none"/></svg>