<svg width="24" height="24" xmlns="http://www.w3.org/2000/svg" fill="none" stroke="currentColor" stroke-width="2" stroke-linecap="round" stroke-linejoin="round"><path d="M1.58 1.094a.969.969 0 0 0-.571.952c.009.118.811 3.498 1.783 7.512 1.469 6.07 1.785 7.328 1.878 7.479.227.367.167.349 3.359.987 1.579.316 2.911.584 2.959.596.079.018.083.032.045.143-.058.167-.023.469.079.681.06.124.572.661 1.717 1.801 1.519 1.514 1.646 1.63 1.845 1.695.261.084.526.066.77-.053.127-.061 1.177-1.087 3.801-3.716 3.448-3.453 3.629-3.642 3.695-3.845.084-.26.066-.526-.052-.77-.06-.124-.572-.66-1.717-1.801-1.459-1.453-1.652-1.631-1.828-1.69-.222-.073-.449-.084-.598-.027-.081.031-.105.025-.121-.03a476.69 476.69 0 0 1-.586-2.908c-.311-1.562-.592-2.902-.623-2.978a.92.92 0 0 0-.471-.504c-.112-.051-2.193-.572-4.624-1.158l-5.9-1.423c-.814-.196-1.975-.476-2.58-.62-.605-.145-1.231-.298-1.39-.34-.387-.102-.624-.098-.87.017m9.153 4.043c2.68.647 4.883 1.186 4.896 1.198.012.013.307 1.441.654 3.174l.632 3.151-2.128 2.127-2.127 2.128-3.151-.632c-1.733-.347-3.161-.642-3.174-.654-.012-.013-.551-2.216-1.198-4.896l-1.253-5.19-.078-.317 2.243 2.243 2.243 2.243-.084.214c-.151.384-.183.567-.186 1.054-.003.671.127 1.123.476 1.659a2.996 2.996 0 0 0 3.511 1.18c.92-.321 1.666-1.155 1.915-2.139.072-.285.072-1.075 0-1.357-.382-1.5-1.784-2.483-3.274-2.295a3.308 3.308 0 0 0-.59.132 9.985 9.985 0 0 1-.3.105c-.039.011-.86-.783-2.297-2.221L5.226 3.806l.317.078 5.19 1.253m.607 4.929c.369.126.66.538.66.934 0 .527-.473 1-1 1a1.03 1.03 0 0 1-.94-.679.99.99 0 0 1 1.28-1.255m8.46 4.154.78.78-2.79 2.79L15 20.58l-.79-.79-.79-.79 2.78-2.78a278.647 278.647 0 0 1 2.8-2.78c.012 0 .372.351.8.78" fill-rule="evenodd" fill="#000" stroke="none"/></svg>