<svg xmlns="http://www.w3.org/2000/svg" width="24" height="24" fill="none" stroke="currentColor" stroke-width="2" stroke-linecap="round" stroke-linejoin="round"><path d="M17.643 1.069C17.291 1.193 17 1.614 17 2c0 .08.029.234.065.343.059.178.271.404 2.19 2.328 1.511 1.516 2.176 2.156 2.301 2.217.859.416 1.748-.473 1.332-1.332-.061-.125-.701-.79-2.217-2.301-1.924-1.919-2.15-2.131-2.328-2.19a1.032 1.032 0 0 0-.7.004M14.64 4.066c-.156.054-.967.849-6.033 5.908-3.219 3.216-5.896 5.92-5.951 6.011C2.541 16.179 1 21.777 1 22.002c0 .524.474.998.997.998.079 0 1.466-.361 3.083-.801l2.94-.802 5.891-5.888c4.3-4.299 5.914-5.937 5.976-6.065.119-.244.137-.509.053-.77-.065-.201-.198-.342-2.195-2.345-1.535-1.54-2.175-2.155-2.304-2.218a1.14 1.14 0 0 0-.801-.045M16.3 7.72 17.58 9l-5.304 5.304-5.305 5.304-1.75.478c-.963.263-1.758.47-1.767.462-.009-.009.2-.806.463-1.77l.479-1.754 5.292-5.292A959.5 959.5 0 0 1 15 6.44c.011 0 .596.576 1.3 1.28" fill-rule="evenodd" fill="#000" stroke="none"/></svg>