<svg xmlns="http://www.w3.org/2000/svg" width="24" height="24" fill="none" stroke="currentColor" stroke-width="2" stroke-linecap="round" stroke-linejoin="round"><path d="M5.936 3.041c-1.28.231-2.376 1.173-2.756 2.368-.311.979-.213 1.941.289 2.828A3.514 3.514 0 0 0 6.3 9.987 3.517 3.517 0 0 0 9.887 7.38c.071-.261.087-.428.087-.9-.001-.513-.013-.621-.108-.932-.364-1.199-1.228-2.062-2.414-2.411-.393-.115-1.145-.163-1.516-.096M18.64 4.068c-.158.053-1.064.944-7.311 7.186-5.227 5.224-7.154 7.173-7.216 7.302-.418.858.473 1.749 1.331 1.331.129-.062 2.078-1.988 7.301-7.216 6.574-6.579 7.13-7.146 7.19-7.328.128-.39.044-.766-.234-1.044a1.006 1.006 0 0 0-1.061-.231M7.123 5.147c.325.154.573.401.732.733.111.232.125.299.125.62s-.014.388-.125.62a1.528 1.528 0 0 1-.735.736c-.231.11-.3.124-.62.124-.31 0-.393-.015-.6-.112a1.698 1.698 0 0 1-.767-.764c-.098-.21-.113-.293-.113-.604 0-.31.015-.393.112-.6.36-.773 1.243-1.106 1.991-.753m9.813 8.894c-1.28.231-2.376 1.173-2.756 2.368-.311.979-.213 1.941.289 2.828a3.514 3.514 0 0 0 2.831 1.75 3.517 3.517 0 0 0 3.587-2.607c.071-.261.087-.428.087-.9-.001-.513-.013-.621-.108-.932-.364-1.199-1.228-2.062-2.414-2.411-.393-.115-1.145-.163-1.516-.096m1.187 2.106c.325.154.573.401.732.733.111.232.125.299.125.62s-.014.388-.125.62a1.528 1.528 0 0 1-.735.736c-.231.11-.3.124-.62.124-.31 0-.393-.015-.6-.112a1.698 1.698 0 0 1-.767-.764c-.098-.21-.113-.293-.113-.604 0-.31.015-.393.112-.6.36-.773 1.243-1.106 1.991-.753" fill="#000" fill-rule="evenodd" stroke="none"/></svg>