<svg xmlns="http://www.w3.org/2000/svg" width="24" height="24" fill="none" stroke="currentColor" stroke-width="2" stroke-linecap="round" stroke-linejoin="round"><path d="M11.534 3.057C10.657 3.269 10 4.102 10 5c0 1.08.92 2 2 2s2-.92 2-2c0-1.096-.934-2.013-2.032-1.997a2.342 2.342 0 0 0-.434.054M5.643 7.069c-.542.191-.791.866-.517 1.4.187.362.185.361 3.152 1.35l2.722.908v3.032l-1.485 2.972c-1.626 3.255-1.593 3.173-1.454 3.591.128.385.533.678.939.678.08 0 .233-.03.34-.066.375-.128.427-.211 1.58-2.526.583-1.17 1.069-2.128 1.08-2.128.011 0 .497.958 1.08 2.128 1.153 2.315 1.205 2.398 1.58 2.526.107.036.26.066.34.066.406 0 .811-.293.939-.678.139-.418.172-.336-1.454-3.591L13 13.759v-3.032l2.722-.908c2.967-.989 2.965-.988 3.152-1.35A1.002 1.002 0 0 0 17.985 7c-.104 0-1.202.346-3.073.97L12 8.939 9.088 7.97c-3.081-1.026-3.087-1.028-3.445-.901" fill-rule="evenodd" fill="#000" stroke="none"/></svg>