<svg xmlns="http://www.w3.org/2000/svg" width="24" height="24" fill="none" stroke="currentColor" stroke-width="2" stroke-linecap="round" stroke-linejoin="round"><path d="M3.495 1.059a2.948 2.948 0 0 0-1.494.822 2.913 2.913 0 0 0-.88 2.099c-.001.36.146 1.426.299 2.18.697 3.429 2.296 6.712 4.626 9.5.461.552 1.474 1.582 2.074 2.111 3.165 2.786 7.101 4.58 11.209 5.108.697.089 1.152.063 1.653-.096a3.05 3.05 0 0 0 1.83-1.683c.21-.5.228-.709.228-2.598 0-.991-.017-1.814-.039-1.911l-.102-.451c-.135-.601-.564-1.261-1.063-1.637-.494-.371-.835-.501-1.694-.646-.775-.131-1.243-.249-2.082-.526-.643-.212-.706-.225-1.167-.242-.579-.022-.934.043-1.369.252-.43.206-.618.347-1.13.85l-.467.458-.413-.282a15.322 15.322 0 0 1-3.923-3.94l-.238-.354.456-.466c.506-.519.651-.712.853-1.139.202-.425.269-.791.248-1.368-.016-.454-.029-.517-.242-1.16-.276-.835-.394-1.302-.525-2.082a7.619 7.619 0 0 0-.177-.821 2.967 2.967 0 0 0-1.503-1.714c-.614-.301-.571-.296-2.763-.308-1.541-.009-2.012.001-2.205.044m10.245-.013a1.082 1.082 0 0 0-.56.48.996.996 0 0 0 .58 1.425c.077.023.239.054.36.068 1.423.164 2.961.835 4.1 1.788 1.529 1.278 2.486 2.984 2.799 4.988.075.482.124.617.296.814.181.206.431.311.735.31.566-.002.987-.412.989-.964.001-.273-.122-.998-.258-1.52A10.02 10.02 0 0 0 15.86 1.34c-.863-.248-1.873-.387-2.12-.294m-6.16 2.06c.354.192.477.413.583 1.047.147.886.344 1.669.619 2.464.156.448.178.757.074 1.008-.042.101-.34.433-.857.956-.754.764-.795.813-.861 1.04-.124.424-.007.718.714 1.799a17.01 17.01 0 0 0 4.628 4.657c1.178.794 1.464.912 1.899.785.227-.066.276-.106 1.043-.865.493-.488.861-.819.95-.856.255-.107.559-.078 1.088.103.646.22 1.58.455 2.279.574.603.102.812.18.986.368.286.308.323.628.307 2.614-.013 1.608-.007 1.569-.275 1.837-.293.293-.57.344-1.313.239-4.998-.703-9.518-3.351-12.534-7.343-1.974-2.614-3.242-5.625-3.709-8.806-.093-.634-.099-.835-.032-1.062.06-.204.394-.55.591-.614.096-.03.69-.042 1.9-.038 1.72.007 1.764.009 1.92.093m6.16 1.94c-.42.159-.676.52-.676.954 0 .212.021.3.116.474.158.289.362.421.842.546a4.096 4.096 0 0 1 1.943 1.127c.497.515.817 1.106 1.018 1.882.113.433.203.606.394.751.708.54 1.702-.013 1.61-.896-.03-.284-.191-.845-.37-1.284a6.077 6.077 0 0 0-2.407-2.812c-.89-.538-2.071-.892-2.47-.742" fill-rule="evenodd" fill="#000" stroke="none"/></svg>