<svg xmlns="http://www.w3.org/2000/svg" width="24" height="24" fill="none" stroke="currentColor" stroke-width="2" stroke-linecap="round" stroke-linejoin="round"><path d="M11.643 1.066c-.097.036-.251.14-.343.232-.321.321-.3-.082-.3 5.702 0 5.783-.021 5.381.299 5.701.32.32-.082.299 5.701.299 5.784 0 5.381.021 5.702-.3.266-.266.315-.472.283-1.179-.104-2.312-.893-4.444-2.338-6.321-.388-.503-1.474-1.567-2.01-1.969-1.839-1.378-3.981-2.142-6.197-2.211-.51-.016-.651-.008-.797.046m-4.166.907c-1.777.776-3.5 2.235-4.617 3.91a11.133 11.133 0 0 0-1.746 4.523c-.072.47-.089.752-.091 1.554-.002.605.017 1.118.049 1.34.264 1.84.838 3.385 1.782 4.8A11.567 11.567 0 0 0 6.2 21.339a11.023 11.023 0 0 0 10.766.466c2.202-1.117 4.037-3.025 5.042-5.245.154-.341.172-.411.172-.683 0-.268-.014-.326-.121-.499-.244-.395-.679-.568-1.111-.442-.368.107-.503.26-.845.96-1.34 2.739-3.8 4.54-6.843 5.01-.548.085-1.837.096-2.38.021-4.443-.615-7.704-4.19-7.868-8.627-.107-2.897 1.252-5.753 3.551-7.465.585-.436.847-.597 1.547-.952.611-.309.733-.421.849-.779.102-.313-.016-.756-.265-.992-.318-.3-.737-.348-1.217-.139m6.517 1.252c1.933.429 3.763 1.576 5.021 3.146 1.002 1.251 1.698 2.856 1.899 4.379l.033.25H13V3.054l.27.035c.148.019.474.08.724.136" fill-rule="evenodd" fill="#000" stroke="none"/></svg>