<svg xmlns="http://www.w3.org/2000/svg" width="24" height="24" fill="none" stroke="currentColor" stroke-width="2" stroke-linecap="round" stroke-linejoin="round"><path d="M18.344 4.064c-.787.142-1.702.653-2.393 1.336l-.39.385-.365-.092c-1.54-.388-3.594-.377-5.316.03-3.132.74-5.198 2.528-5.739 4.967-.065.294-.075.31-.178.31-.207 0-.495-.13-.664-.299C3.045 10.447 3 10.266 3 9.5s-.045-.947-.299-1.201a.984.984 0 0 0-1.403.001c-.278.278-.311.439-.287 1.414.013.553.039.892.079 1.026.257.878.825 1.564 1.607 1.939.436.209.617.262 1.034.305.31.031.29-.002.33.536.088 1.155.618 2.214 1.556 3.111l.383.366v1.574c0 1.792.006 1.838.299 2.13.302.302.274.299 2.701.299s2.399.003 2.701-.299c.247-.247.299-.442.299-1.128V19h1v.573c0 .686.052.881.299 1.128.302.302.274.299 2.701.299s2.399.003 2.701-.299c.296-.296.299-.316.299-2.326v-1.77l.35-.227c.401-.26 1.008-.856 1.19-1.17l.12-.206.743-.001c.872-.001 1.038-.039 1.298-.3.302-.302.299-.274.299-2.701s.003-2.399-.299-2.701C22.447 9.045 22.266 9 21.493 9c-.482 0-.653-.013-.653-.048 0-.122-.379-.802-.597-1.072l-.242-.3V6.217c-.001-1.556-.013-1.631-.3-1.918-.292-.292-.675-.358-1.357-.235m-.257 4.344c.037.081.204.293.37.472.389.415.494.622.538 1.056.041.398.151.654.356.823.239.197.436.241 1.076.241H21v2h-.573c-.428 0-.622.017-.767.066-.262.089-.507.34-.615.63-.047.125-.12.296-.162.379-.129.252-.546.604-1.024.863-.241.13-.504.304-.584.386-.266.273-.275.339-.275 2.103V19h-2v-.573c0-.686-.052-.881-.299-1.128-.294-.294-.33-.299-2.201-.299s-1.907.005-2.201.299c-.247.247-.299.442-.299 1.128V19H8.004l-.012-1.39c-.014-1.607-.005-1.569-.421-1.917a13.687 13.687 0 0 1-.655-.615c-.359-.357-.449-.474-.589-.76-.257-.528-.306-.844-.306-1.978.001-1.052.025-1.222.262-1.814.357-.893 1.2-1.715 2.298-2.245 1.213-.585 2.493-.855 4.059-.857 1.191-.002 2.077.137 2.811.439.137.056.341.112.454.125.391.042.805-.178.971-.518.177-.361.457-.679.864-.981l.24-.177.02.974c.016.795.032 1.001.087 1.122m-2.444 1.661c-.352.124-.643.545-.643.931 0 .527.473 1 1 1 .242 0 .521-.119.701-.299.753-.753-.048-1.989-1.058-1.632" fill-rule="evenodd" fill="#000" stroke="none"/></svg>