<svg xmlns="http://www.w3.org/2000/svg" width="24" height="24" fill="none" stroke="currentColor" stroke-width="2" stroke-linecap="round" stroke-linejoin="round"><path d="M6.643 2.069C6.291 2.193 6 2.614 6 3c0 .242.119.521.299.701.247.247.442.299 1.128.299H8v3.758l-.99 1.983-.99 1.983-.012 1.202c-.013 1.388.003 1.487.29 1.774.302.302.282.3 2.629.3H11v3.073c0 3.463-.012 3.317.299 3.628a.984.984 0 0 0 1.402 0c.311-.311.299-.165.299-3.628V15h2.073c2.347 0 2.327.002 2.629-.3.287-.287.303-.386.29-1.774l-.012-1.202-.99-1.983L16 7.758V4h.573c.686 0 .881-.052 1.128-.299a.984.984 0 0 0 0-1.402c-.32-.32.085-.299-5.718-.296-4.569.003-5.183.01-5.34.066m7.366 4.069.011 2.138.99 1.983.99 1.983V13H8v-.758l.99-1.983.99-1.983.011-2.138L10.002 4h3.996l.011 2.138" fill-rule="evenodd" fill="#000" stroke="none"/></svg>