<svg xmlns="http://www.w3.org/2000/svg" width="24" height="24" fill="none" stroke="currentColor" stroke-width="2" stroke-linecap="round" stroke-linejoin="round"><path d="M18.375 1.897c-.31.071-.672.216-.966.389-.164.096-.827.728-2.329 2.222l-2.1 2.088-.26-.128c-.247-.122-.283-.128-.721-.128-.443 0-.471.005-.74.137-.231.113-.383.24-.883.74-.505.505-.627.65-.746.89-.26.527-.286 1.154-.068 1.646l.081.183-3.257 3.262c-2.972 2.978-3.262 3.279-3.321 3.459-.055.166-.065.41-.065 1.558v1.361l-.934.942c-.81.816-.943.968-1 1.139-.13.388-.046.765.233 1.044s.656.363 1.044.233c.171-.057.323-.19 1.139-1L4.424 21h1.361c1.148 0 1.392-.01 1.558-.065.18-.059.481-.349 3.459-3.321l3.262-3.257.183.081c.493.218 1.12.192 1.646-.069.238-.118.391-.246.895-.746.506-.502.628-.647.729-.863a1.763 1.763 0 0 0 .007-1.499l-.114-.241 2.07-2.08c2.268-2.279 2.314-2.333 2.548-3.04.094-.281.107-.385.108-.86.002-.399-.017-.608-.069-.8-.288-1.05-1.252-2.019-2.287-2.301-.331-.09-1.093-.113-1.405-.042m1.06 2.04c.194.101.475.371.592.571.064.109.108.259.122.412.043.474.124.375-2.347 2.86-2.039 2.051-2.237 2.261-2.336 2.487-.226.517-.224.977.008 1.472l.117.252-.296.294-.296.294-1.789-1.789-1.789-1.789.294-.296.294-.296.211.111c.309.163.714.226 1.049.164.57-.105.511-.055 2.931-2.467 1.654-1.649 2.266-2.235 2.4-2.297.217-.101.623-.092.835.017M11.8 12.22l.78.78-3 3-3 3H5v-1.58l2.99-2.99A322.113 322.113 0 0 1 11 11.44c.012 0 .371.351.8.78" fill-rule="evenodd" fill="#000" stroke="none"/></svg>