<svg xmlns="http://www.w3.org/2000/svg" width="24" height="24" fill="none" stroke="currentColor" stroke-width="2" stroke-linecap="round" stroke-linejoin="round"><path d="M19.618 1.842c-1.137.128-2.346.684-3.378 1.552-.209.176-1.097 1.038-1.973 1.916l-1.593 1.596-.767-.17a3039.92 3039.92 0 0 0-5.787-1.27 38.999 38.999 0 0 0-1.372-.281c-.505-.064-1.166.163-1.539.527-.215.21-.682.96-.791 1.268-.091.261-.123.886-.059 1.176.08.362.301.74.577.986.134.12 1.216.858 2.404 1.641a148.11 148.11 0 0 1 2.209 1.471c.039.037-.073.231-.516.897L6.468 14H5.161c-1.112 0-1.336.01-1.504.066-.164.056-.303.171-.827.688-.407.401-.661.684-.716.799-.108.223-.138.51-.074.712.113.359.174.41 1.741 1.455l1.499 1 1 1.499c1.045 1.567 1.096 1.628 1.455 1.741.202.064.489.034.712-.074.115-.055.398-.309.799-.716.517-.524.632-.663.688-.827.056-.168.066-.392.066-1.504v-1.307l.849-.565c.666-.443.86-.555.897-.516.026.027.688 1.021 1.471 2.209.782 1.188 1.521 2.27 1.64 2.404.247.276.626.497.987.577.323.071.915.033 1.236-.08.733-.257 1.092-.507 1.392-.97.248-.383.339-.696.335-1.151-.004-.341-.092-.778-.859-4.24l-.855-3.86 1.747-1.76c1.984-2 2.243-2.311 2.731-3.282.659-1.313.792-2.733.344-3.685a1.25 1.25 0 0 0-.246-.356c-.389-.329-1.255-.504-2.051-.415m.566 2.015c.032.082-.058.635-.152.942-.107.349-.377.888-.637 1.269-.152.225-.779.883-2.238 2.352-1.821 1.833-2.032 2.06-2.091 2.237a1.321 1.321 0 0 0-.066.326c0 .071.405 1.971.899 4.223s.904 4.138.91 4.192c.009.08-.019.113-.142.172-.083.04-.202.083-.263.095-.108.022-.158-.05-1.885-2.665-1.037-1.571-1.826-2.727-1.9-2.783a1.005 1.005 0 0 0-.929-.16c-.232.081-3.384 2.194-3.484 2.335-.178.25-.185.303-.206 1.563l-.02 1.216-.63-.945-.63-.946-.946-.63-.945-.63L6.045 16c1.26-.021 1.313-.028 1.563-.206.141-.1 2.254-3.252 2.335-3.484a1.007 1.007 0 0 0-.161-.931c-.057-.075-1.189-.848-2.779-1.897C5.527 8.508 4.32 7.687 4.32 7.656c0-.096.244-.456.31-.456.035 0 1.908.405 4.162.9s4.156.9 4.226.9c.07 0 .216-.03.325-.066.177-.059.404-.27 2.237-2.091 1.44-1.43 2.129-2.087 2.343-2.233.561-.38 1.182-.652 1.71-.747.406-.074.525-.075.551-.006" fill-rule="evenodd" fill="#000" stroke="none"/></svg>