<svg xmlns="http://www.w3.org/2000/svg" width="24" height="24" fill="none" stroke="currentColor" stroke-width="2" stroke-linecap="round" stroke-linejoin="round"><path d="M12.76 1.027c-.355.124-.389.16-1.516 1.569-.608.761-1.133 1.447-1.165 1.524-.089.211-.073.626.03.824.102.193.329.402.528.486.09.038.349.069.697.085l.554.025-.384.48c-.222.279-.409.554-.444.657-.289.849.582 1.599 1.399 1.204.166-.081.328-.264 1.297-1.477.608-.761 1.133-1.447 1.165-1.524.033-.077.058-.257.057-.4a.9.9 0 0 0-.304-.708c-.226-.216-.366-.252-.993-.252-.308 0-.561-.016-.561-.035 0-.019.171-.248.38-.51.386-.484.5-.705.5-.975 0-.396-.291-.808-.66-.934-.188-.064-.456-.082-.58-.039M9.78 9.516a1.157 1.157 0 0 0-.691.538c-.059.108-.071.271-.081 1.129l-.013 1.003-.147.051c-.251.088-.697.385-.943.63a3.076 3.076 0 0 0-.829 1.453c-.08.315-.081 3.043 0 3.357.281 1.096 1.078 1.911 2.184 2.233.129.038.472.066.97.079l.77.02v1.069c0 1.229.021 1.345.299 1.623a.984.984 0 0 0 1.402 0c.278-.278.299-.393.299-1.628V20h.61c.335 0 .725-.019.866-.042 1.179-.191 2.146-1.092 2.448-2.278.08-.316.081-3.044 0-3.357-.237-.925-.904-1.723-1.739-2.081l-.18-.077-.012-.972c-.012-.908-.019-.984-.099-1.133-.194-.359-.495-.54-.894-.54-.285 0-.45.061-.655.241-.303.266-.323.348-.338 1.349l-.012.89h-1.99l-.012-.91c-.014-.998-.022-1.032-.276-1.287-.242-.242-.641-.364-.937-.287m4.56 4.55c.253.087.507.341.594.594.055.163.066.378.066 1.34 0 1.316-.018 1.421-.299 1.701-.302.302-.274.299-2.701.299-2.429 0-2.399.003-2.702-.3-.288-.288-.304-.387-.29-1.787L9.02 14.7l.111-.189c.125-.213.318-.375.539-.454.118-.042.611-.054 2.313-.055 1.911-.002 2.185.006 2.357.064" fill-rule="evenodd" fill="#000" stroke="none"/></svg>