<svg xmlns="http://www.w3.org/2000/svg" width="24" height="24" fill="none" stroke="currentColor" stroke-width="2" stroke-linecap="round" stroke-linejoin="round"><path d="m11.26 1.026-.5.057C8.543 1.335 6.355 2.437 4.767 4.1a10.01 10.01 0 0 0-2.341 9.777A10.05 10.05 0 0 0 6.14 19.1c.408.295.592.378.835.379.315.002.505-.076.727-.298.236-.234.318-.461.29-.799-.029-.343-.178-.543-.672-.899a9.587 9.587 0 0 1-1.531-1.442 7.999 7.999 0 0 1-.988-8.515 7.632 7.632 0 0 1 1.645-2.267A7.375 7.375 0 0 1 8.529 3.8a7.94 7.94 0 0 1 6.971.017 7.3 7.3 0 0 1 2.036 1.422c1.269 1.221 2.062 2.74 2.37 4.541.095.556.095 1.884 0 2.44-.367 2.144-1.442 3.92-3.146 5.197a5.802 5.802 0 0 0-.493.399c-.227.263-.295.73-.152 1.045.093.205.299.411.504.504.199.09.596.098.795.015.455-.19 1.773-1.361 2.364-2.1 1.506-1.883 2.304-4.282 2.209-6.642a10 10 0 0 0-8.947-9.58c-.484-.051-1.463-.069-1.78-.032m.08 3.999c-1.076.163-1.861.45-2.64.965a5.988 5.988 0 0 0-2.605 3.95c-.111.591-.101 1.65.021 2.22a6.13 6.13 0 0 0 .924 2.197c.316.461.495.622.788.707a.74.74 0 0 0 .452.022.978.978 0 0 0 .792-.885c.022-.306-.038-.477-.3-.85a4.713 4.713 0 0 1-.659-1.413c-.127-.508-.128-1.366-.001-1.872a3.872 3.872 0 0 1 1.047-1.871c.753-.762 1.621-1.142 2.701-1.183.42-.016.593-.005.9.059 1.818.379 3.114 1.86 3.227 3.689.055.885-.181 1.701-.749 2.596-.117.183-.139.258-.151.502-.012.232.002.321.074.475.19.404.653.642 1.079.553.297-.062.503-.215.733-.548.408-.587.742-1.391.915-2.195.126-.591.125-1.709-.003-2.303-.522-2.434-2.281-4.209-4.68-4.723-.375-.08-1.557-.139-1.865-.092m.194 4.032C10.657 9.269 10 10.102 10 11c0 1.08.92 2 2 2s2-.92 2-2c0-1.096-.934-2.013-2.032-1.997a2.342 2.342 0 0 0-.434.054m.064 5.958a1.924 1.924 0 0 0-1.306 1.048c-.229.483-.226.588.089 3.438.194 1.751.292 2.497.346 2.645.34.923 1.534 1.18 2.236.483.344-.342.341-.332.646-3.029.326-2.878.331-3.049.098-3.539a1.916 1.916 0 0 0-1.364-1.058 1.63 1.63 0 0 0-.745.012" fill-rule="evenodd" fill="#000" stroke="none"/></svg>