<svg xmlns="http://www.w3.org/2000/svg" width="24" height="24" fill="none" stroke="currentColor" stroke-width="2" stroke-linecap="round" stroke-linejoin="round"><path d="M7.62 1.025c-.408.08-.533.114-.75.202-.706.287-1.342.91-1.62 1.588-.242.589-.226.269-.24 4.879-.012 3.984-.017 4.232-.081 4.207-.297-.116-.588-.158-1.069-.156-.452.002-.562.016-.84.108a2.91 2.91 0 0 0-1.24.764c-.366.373-.546.655-.706 1.106-.23.65-.23 1.344 0 1.994.214.605.251.648 2.446 2.856 1.133 1.14 2.237 2.22 2.453 2.4 1.448 1.206 2.982 1.814 4.999 1.984.653.055 3.428.056 3.94.002 3.96-.422 7.152-3.33 7.922-7.219.151-.76.173-1.227.156-3.3-.017-2.111-.012-2.061-.227-2.595-.291-.726-1.008-1.408-1.753-1.667-.735-.255-1.455-.228-2.225.083-.249.101-.278.105-.312.046a2.26 2.26 0 0 0-.194-.248A2.975 2.975 0 0 0 15.8 7.015c-.383.028-.615.084-1.015.246-.249.101-.278.105-.312.046-.144-.259-.6-.677-.984-.903a3.05 3.05 0 0 0-2.249-.305l-.227.061c-.003 0-.014-.607-.024-1.35-.017-1.421-.022-1.457-.226-1.965-.367-.916-1.287-1.641-2.283-1.802-.252-.041-.697-.05-.86-.018m.72 2.041c.115.039.263.135.361.233C9.013 3.61 9 3.456 9 7s-.013 3.39.299 3.701a.984.984 0 0 0 1.402 0c.254-.254.299-.434.301-1.218.001-.448.019-.712.055-.813a.998.998 0 0 1 1.643-.372c.257.257.3.432.301 1.239.001.6.011.705.082.863.11.242.257.391.497.505a1.002 1.002 0 0 0 1.421-.885c.012-.906 1.067-1.354 1.699-.722.257.257.3.432.301 1.239.001.6.011.705.082.863.11.242.257.391.497.505a1.002 1.002 0 0 0 1.421-.885c.012-.906 1.067-1.354 1.699-.722.296.296.3.326.3 2.245 0 .929-.019 1.875-.042 2.103-.322 3.176-2.63 5.674-5.772 6.246-.455.082-.601.088-2.306.088-1.536 0-1.892-.011-2.284-.071-1.258-.191-2.16-.563-3.116-1.285-.31-.234-4.38-4.276-4.463-4.432-.214-.404-.14-.846.198-1.174.316-.308.742-.383 1.113-.196.073.037.582.512 1.132 1.057.869.86 1.026.998 1.197 1.055.25.084.438.083.683 0 .369-.126.66-.538.66-.934 0-.324-.11-.516-.568-.984l-.433-.444.01-4.936L7.02 3.7l.111-.189a.987.987 0 0 1 1.209-.445" fill-rule="evenodd" fill="#000" stroke="none"/></svg>