<svg width="24" height="24" xmlns="http://www.w3.org/2000/svg" fill="none" stroke="currentColor" stroke-width="2" stroke-linecap="round" stroke-linejoin="round"><path d="M13.18 2.061c-2.29.373-3.863 1.991-4.139 4.258C9.017 6.521 9 7.741 9 9.329V12H7.427c-1.789 0-1.836.006-2.128.299a.984.984 0 0 0 0 1.402c.292.293.339.299 2.128.299H9v6H7.427c-1.789 0-1.836.006-2.128.299a.984.984 0 0 0 0 1.402c.322.322-.202.299 6.701.299s6.379.023 6.701-.299a.984.984 0 0 0 0-1.402c-.314-.314-.106-.299-4.128-.299H11v-6h2.573c2.904 0 2.821.008 3.128-.299a.984.984 0 0 0 0-1.402c-.307-.307-.224-.299-3.13-.299h-2.575l.014-2.81c.015-3.156.002-3.011.323-3.67.281-.579.841-1.068 1.497-1.309 1.501-.551 3.217.035 3.838 1.309.2.413.291.769.318 1.254.028.49.105.719.312.926a.983.983 0 0 0 1.404 0c.249-.249.316-.487.285-1.017-.136-2.354-1.601-4.077-3.887-4.57-.488-.105-1.436-.131-1.92-.052" fill-rule="evenodd" fill="#000" stroke="none"/></svg>