<svg xmlns="http://www.w3.org/2000/svg" width="24" height="24" fill="none" stroke="currentColor" stroke-width="2" stroke-linecap="round" stroke-linejoin="round"><path d="M1.643 1.069C1.291 1.193 1 1.614 1 2c0 .08.029.234.065.343.059.177.249.382 1.858 1.997l1.792 1.8-.179.2c-.099.11-.33.398-.513.64-1.012 1.333-1.663 2.893-1.93 4.62-.1.645-.1 2.154 0 2.8.342 2.217 1.293 4.11 2.845 5.662 1.6 1.6 3.511 2.538 5.842 2.866.474.067 1.972.066 2.46-.002 1.971-.274 3.758-1.061 5.22-2.3l.4-.339 1.3 1.291c1.149 1.141 1.323 1.299 1.497 1.356.389.13.766.046 1.045-.234a.986.986 0 0 0 .185-1.144c-.063-.13-2.761-2.85-10.216-10.301C3.299 1.888 2.525 1.125 2.343 1.065a1.038 1.038 0 0 0-.7.004m10 0a1.118 1.118 0 0 0-.343.229c-.303.303-.3.274-.3 2.702 0 2.427-.003 2.399.299 2.701a.984.984 0 0 0 1.402 0C13.003 6.399 13 6.427 13 4s.003-2.399-.299-2.701a.998.998 0 0 0-1.058-.23m6.36 4.64a1.066 1.066 0 0 0-.577.591c-.15.442-.059.729.383 1.21a8.039 8.039 0 0 1 2.03 7.05c-.094.479-.081.647.074.934a.977.977 0 0 0 .948.494.979.979 0 0 0 .795-.538c.075-.147.192-.692.269-1.25.076-.552.066-1.948-.018-2.52-.276-1.874-.994-3.543-2.131-4.956-.469-.582-.85-.944-1.073-1.018a1.026 1.026 0 0 0-.7.003m-6.209 7.505 5.653 5.653-.317.265c-2.886 2.407-7.028 2.487-10.03.194-.339-.259-1.025-.932-1.311-1.286-2.201-2.723-2.383-6.567-.45-9.46.235-.351.755-1.02.793-1.02.004 0 2.552 2.544 5.662 5.654" fill-rule="evenodd" fill="#000" stroke="none"/></svg>