<svg xmlns="http://www.w3.org/2000/svg" width="24" height="24" fill="none" stroke="currentColor" stroke-width="2" stroke-linecap="round" stroke-linejoin="round"><path d="M11.643 1.069a1.118 1.118 0 0 0-.343.229c-.321.321-.3-.082-.3 5.702 0 5.783-.021 5.381.299 5.701a.984.984 0 0 0 1.402 0c.32-.32.299.082.299-5.701 0-5.783.021-5.381-.299-5.701a.998.998 0 0 0-1.058-.23M5.36 5.677c-.221.068-.364.175-.679.511C3.313 7.647 2.412 9.531 2.093 11.6c-.1.644-.1 2.155-.001 2.8.271 1.753.9 3.258 1.953 4.668.371.497 1.378 1.505 1.879 1.88a10.218 10.218 0 0 0 3.726 1.768 8.93 8.93 0 0 0 2.05.27c3.565.114 6.885-1.668 8.8-4.726 1.467-2.342 1.874-5.326 1.097-8.04-.436-1.522-1.311-3.036-2.394-4.14-.321-.327-.538-.44-.843-.44-.396 0-.808.291-.934.66-.15.442-.059.729.383 1.21a8.265 8.265 0 0 1 1.474 2.206c1.488 3.339.566 7.215-2.258 9.5a7.995 7.995 0 0 1-7.81 1.281c-2.578-.962-4.521-3.223-5.051-5.877-.512-2.571.218-5.177 1.979-7.061.38-.406.471-.583.472-.919a.794.794 0 0 0-.115-.474c-.221-.405-.717-.617-1.14-.489" fill-rule="evenodd" fill="#000" stroke="none"/></svg>