<svg xmlns="http://www.w3.org/2000/svg" width="24" height="24" fill="none" stroke="currentColor" stroke-width="2" stroke-linecap="round" stroke-linejoin="round"><path d="M5.643 1.069a1.118 1.118 0 0 0-.343.229c-.312.312-.3.166-.3 3.624v3.069l-.77.02c-.507.014-.838.041-.97.08-1.125.333-1.901 1.125-2.184 2.229-.082.322-.083 6.035 0 6.357.283 1.105 1.061 1.899 2.184 2.232.132.039.463.066.97.08l.77.02v1.569c0 1.784.007 1.831.299 2.123.322.322-.202.299 6.701.299s6.379.023 6.701-.299c.293-.292.299-.339.299-2.128V19h.61c.673-.001.995-.04 1.364-.168a3.069 3.069 0 0 0 1.95-2.152c.082-.323.083-6.037 0-6.357-.307-1.197-1.264-2.09-2.444-2.28A7.59 7.59 0 0 0 19.61 8H19V4.927c0-3.463.012-3.317-.299-3.628-.323-.323.205-.299-6.718-.296-5.475.003-6.183.01-6.34.066M17 5.5V8H7V3h10v2.5m3.34 4.566c.253.087.507.341.594.594.059.173.066.482.066 2.84 0 2.986.009 2.894-.299 3.201-.247.247-.442.299-1.128.299H19v-1.573c0-1.789-.006-1.836-.299-2.128-.322-.322.202-.299-6.701-.299s-6.379-.023-6.701.299c-.293.292-.299.339-.299 2.128V17h-.573c-.687 0-.881-.051-1.129-.3-.31-.31-.302-.21-.289-3.284L3.02 10.7l.111-.189c.125-.213.318-.375.539-.454.123-.044 1.598-.054 8.313-.055 7.496-.002 8.179.003 8.357.064M17 18v3H7v-6h10v3" fill-rule="evenodd" fill="#000" stroke="none"/></svg>