<svg xmlns="http://www.w3.org/2000/svg" width="24" height="24" fill="none" stroke="currentColor" stroke-width="2" stroke-linecap="round" stroke-linejoin="round"><path d="M1.643 1.069a1.118 1.118 0 0 0-.343.229C.982 1.616 1 1.336 1 6c0 4.663-.018 4.384.299 4.701.317.317.038.299 4.701.299 4.663 0 4.384.018 4.701-.299.317-.317.299-.038.299-4.701 0-4.663.018-4.384-.299-4.701-.317-.317-.035-.299-4.718-.296-3.663.003-4.184.011-4.34.066m12 0a1.118 1.118 0 0 0-.343.229c-.318.318-.3.038-.3 4.702 0 4.663-.018 4.384.299 4.701.317.317.038.299 4.701.299 4.663 0 4.384.018 4.701-.299.317-.317.299-.038.299-4.701 0-4.663.018-4.384-.299-4.701-.317-.317-.035-.299-4.718-.296-3.663.003-4.184.011-4.34.066M9 6v3H3V3h6v3m12 0v3h-6V3h6v3M5.643 5.066C5.288 5.197 5 5.615 5 6c0 .729.814 1.222 1.465.887.711-.365.708-1.41-.004-1.776-.211-.109-.588-.129-.818-.045m12 0C17.288 5.197 17 5.615 17 6c0 .729.814 1.222 1.465.887.711-.365.708-1.41-.004-1.776-.211-.109-.588-.129-.818-.045m-16 8.003a1.118 1.118 0 0 0-.343.229c-.318.318-.3.038-.3 4.702 0 4.663-.018 4.384.299 4.701.317.317.038.299 4.701.299 4.663 0 4.384.018 4.701-.299.317-.317.299-.038.299-4.701 0-4.663.018-4.384-.299-4.701-.317-.317-.035-.299-4.718-.296-3.663.003-4.184.011-4.34.066m12-.003c-.355.131-.643.549-.643.934 0 .729.814 1.222 1.465.887.711-.365.708-1.41-.004-1.776-.211-.109-.588-.129-.818-.045m4 .003c-.352.124-.643.545-.643.931 0 .242.119.521.299.701.302.302.274.299 2.701.299s2.399.003 2.701-.299c.18-.18.299-.459.299-.701 0-.242-.119-.521-.299-.701-.303-.303-.271-.299-2.718-.296-1.851.003-2.188.012-2.34.066M9 18v3H3v-6h6v3m-3.357-.934C5.288 17.197 5 17.615 5 18c0 .729.814 1.222 1.465.887.711-.365.708-1.41-.004-1.776-.211-.109-.588-.129-.818-.045m8 .003a1.118 1.118 0 0 0-.343.229c-.303.303-.3.274-.3 2.702 0 2.427-.003 2.399.299 2.701a.984.984 0 0 0 1.402 0c.302-.302.299-.274.299-2.701s.003-2.399-.299-2.701a.998.998 0 0 0-1.058-.23m4-.003c-.355.131-.643.549-.643.934 0 .729.814 1.222 1.465.887.711-.365.708-1.41-.004-1.776-.211-.109-.588-.129-.818-.045m4 .003a1.066 1.066 0 0 0-.577.591c-.057.168-.066.408-.066 1.767V21h-1.573c-1.789 0-1.836.006-2.128.299a.984.984 0 0 0 0 1.402c.302.302.274.299 2.701.299s2.399.003 2.701-.299c.302-.302.299-.274.299-2.701s.003-2.399-.299-2.701a.998.998 0 0 0-1.058-.23" fill-rule="evenodd" fill="#000" stroke="none"/></svg>