<svg xmlns="http://www.w3.org/2000/svg" width="24" height="24" fill="none" stroke="currentColor" stroke-width="2" stroke-linecap="round" stroke-linejoin="round"><path d="M3.432 2.042a3.347 3.347 0 0 0-1.137.421c-.672.417-1.118 1.122-1.253 1.977-.055.344-.055 6.719-.001 7.094.197 1.364 1.165 2.282 2.569 2.439l.39.043-.001.562c-.001.654-.042.787-.332 1.077-.284.284-.376.316-.987.349-.649.035-.902.116-1.196.38-.236.212-.384.496-.445.856-.029.171-.04.843-.031 1.94l.012 1.68.104.246c.126.3.24.446.476.608.309.212.482.253 1.16.275 1.292.043 2.607-.151 3.64-.537 2.27-.847 3.773-2.754 4.318-5.479.261-1.306.256-1.202.272-6.413.01-3.13 0-4.846-.027-5.051-.16-1.2-.948-2.113-2.083-2.415-.231-.062-.533-.07-2.74-.078-1.364-.004-2.583.007-2.708.026m12 0a3.347 3.347 0 0 0-1.137.421c-.672.417-1.118 1.122-1.253 1.977-.055.344-.055 6.719-.001 7.094.123.847.581 1.582 1.251 2.005.358.226.736.352 1.324.443l.155.024-.027.465c-.057.951-.191 1.234-.656 1.385a3.575 3.575 0 0 1-.971.144c-.355 0-.614.095-.819.3-.305.304-.304.298-.29 2.567l.012 1.993.104.246c.126.3.24.446.476.608.309.212.482.253 1.16.275 1.292.043 2.607-.151 3.64-.537 2.27-.847 3.773-2.754 4.318-5.479.261-1.306.256-1.202.272-6.413.01-3.13 0-4.846-.027-5.051-.16-1.2-.948-2.113-2.083-2.415-.231-.062-.533-.07-2.74-.078-1.364-.004-2.583.007-2.708.026M8.606 4.129a.65.65 0 0 1 .28.3l.094.191v4.72c0 3.681-.012 4.821-.053 5.18-.422 3.631-2.063 5.288-5.412 5.465L3 20.012V18h.13c.234-.001.804-.16 1.09-.305.861-.435 1.489-1.215 1.702-2.113.077-.327.083-.448.071-1.4-.014-1.014-.017-1.049-.118-1.288-.167-.401-.372-.606-.764-.764-.205-.082-.339-.102-.873-.126-.559-.026-.652-.041-.823-.128a.587.587 0 0 1-.293-.296l-.102-.198-.011-3.298c-.012-3.641-.015-3.592.234-3.841.238-.237.262-.239 2.837-.231l2.34.008.186.109m12 0a.65.65 0 0 1 .28.3l.094.191v4.72c0 3.681-.012 4.821-.053 5.18-.422 3.631-2.063 5.288-5.412 5.465l-.515.027v-2.085l.17-.028c.764-.126 1.489-.536 1.894-1.071.535-.706.719-1.584.69-3.29l-.014-.798-.118-.214a1.13 1.13 0 0 0-.522-.467c-.044-.019-.396-.044-.781-.057-.649-.02-.716-.03-.899-.124a.578.578 0 0 1-.298-.298l-.102-.198-.011-3.298c-.012-3.641-.015-3.592.234-3.841.238-.238.262-.24 2.837-.231l2.34.008.186.109" fill-rule="evenodd" fill="#000" stroke="none"/></svg>