<svg xmlns="http://www.w3.org/2000/svg" width="24" height="24" fill="none" stroke="currentColor" stroke-width="2" stroke-linecap="round" stroke-linejoin="round"><path d="M3.62 7.025c-.408.08-.533.114-.75.202-.881.358-1.549 1.137-1.794 2.093-.082.321-.082 5.037 0 5.357.326 1.273 1.369 2.18 2.651 2.306L4 17.01v.568c0 .681.052.876.299 1.123.18.18.459.299.701.299.242 0 .521-.119.701-.299.247-.247.299-.442.299-1.128V17h12v.573c0 .686.052.881.299 1.128a.984.984 0 0 0 1.402 0c.247-.247.299-.443.299-1.12v-.565l.35-.044a3.038 3.038 0 0 0 2.574-2.292c.082-.322.082-5.038 0-5.357-.307-1.197-1.264-2.09-2.444-2.28-.246-.04-16.66-.057-16.86-.018m16.72 2.041c.253.087.507.341.594.594.058.171.066.448.066 2.34 0 2.427.003 2.399-.299 2.701-.325.325.443.299-8.701.299-9.146 0-8.376.027-8.702-.3-.306-.306-.302-.27-.289-2.784L3.02 9.7l.111-.189c.125-.213.318-.375.539-.454.123-.044 1.598-.054 8.313-.055 7.496-.002 8.179.003 8.357.064m-2.697 2.003c-.352.124-.643.545-.643.931 0 .527.473 1 1 1 .242 0 .521-.119.701-.299.753-.753-.048-1.989-1.058-1.632" fill-rule="evenodd" fill="#000" stroke="none"/></svg>