<svg xmlns="http://www.w3.org/2000/svg" width="24" height="24" fill="none" stroke="currentColor" stroke-width="2" stroke-linecap="round" stroke-linejoin="round"><path d="M4.6 3.998c-.185.064-.281.139-.6.469-1.69 1.748-2.738 4.105-2.959 6.653-.266 3.062.87 6.277 2.979 8.427.364.372.421.414.64.476.201.058.275.062.46.023a.985.985 0 0 0 .792-.868c.031-.38-.039-.53-.482-1.029a15.871 15.871 0 0 1-.629-.755c-1.996-2.645-2.356-6.255-.924-9.254.404-.847.843-1.495 1.55-2.287.263-.296.415-.501.446-.605.164-.549-.124-1.112-.65-1.269-.255-.076-.355-.073-.623.019m14.16-.019c-.513.166-.795.73-.633 1.269.031.103.183.31.444.605.482.542.787.942 1.081 1.417a9.017 9.017 0 0 1 0 9.46c-.295.476-.599.875-1.082 1.419-.443.499-.513.649-.482 1.029a.985.985 0 0 0 .792.868c.185.039.258.035.457-.023.194-.057.288-.118.516-.336.929-.892 1.954-2.491 2.442-3.811 1.348-3.647.714-7.69-1.681-10.712-.423-.533-.932-1.046-1.124-1.132a1.072 1.072 0 0 0-.73-.053M7.338 6.855c-.237.11-.641.532-1.039 1.085-.31.43-.77 1.336-.94 1.85a7.034 7.034 0 0 0 .566 5.673 7.518 7.518 0 0 0 1.029 1.375c.282.286.515.402.806.402.396 0 .808-.291.934-.66.143-.419.056-.728-.323-1.149-.672-.747-1.078-1.533-1.278-2.471-.1-.471-.1-1.45 0-1.92a5.071 5.071 0 0 1 1.264-2.463c.312-.333.383-.491.381-.837-.001-.206-.024-.322-.086-.44a1.004 1.004 0 0 0-1.314-.445m8.545-.026a1.066 1.066 0 0 0-.577.591c-.143.419-.056.728.323 1.149.544.605.899 1.212 1.128 1.928a4.974 4.974 0 0 1-1.073 4.878c-.15.166-.307.37-.349.453-.107.217-.101.657.013.872.253.477.828.672 1.314.445.237-.11.641-.532 1.039-1.085.31-.43.77-1.336.94-1.85a7.037 7.037 0 0 0-1.085-6.455c-.397-.522-.742-.851-.973-.929a1.026 1.026 0 0 0-.7.003M11.62 9.025c-.408.08-.533.114-.75.202-.881.358-1.551 1.139-1.793 2.093-.073.285-.073 1.074-.001 1.357.193.759.661 1.422 1.284 1.822.476.305.893.446 1.44.486 1.441.105 2.761-.869 3.124-2.305.072-.285.072-1.075 0-1.357-.304-1.194-1.264-2.09-2.444-2.28-.252-.041-.697-.05-.86-.018m.72 2.041c.369.126.66.538.66.934 0 .527-.473 1-1 1a1.03 1.03 0 0 1-.94-.679.99.99 0 0 1 1.28-1.255" fill-rule="evenodd" fill="#000" stroke="none"/></svg>