<svg xmlns="http://www.w3.org/2000/svg" width="24" height="24" fill="none" stroke="currentColor" stroke-width="2" stroke-linecap="round" stroke-linejoin="round"><path d="M20.643 6.069a1.066 1.066 0 0 0-.577.591c-.058.17-.066.433-.066 2.132 0 1.899-.002 1.937-.076 1.883-.042-.03-.416-.36-.83-.732-.88-.79-1.362-1.159-2.03-1.554A9.989 9.989 0 0 0 6.54 8.63c-.22.143-.553.38-.74.524-.439.34-1.308 1.21-1.649 1.651-1.323 1.708-2.035 3.631-2.137 5.775-.031.642.024.86.284 1.12a.984.984 0 0 0 1.403.001c.206-.206.299-.465.299-.83 0-1.058.311-2.342.816-3.371a7.975 7.975 0 0 1 9.256-4.218 7.883 7.883 0 0 1 2.663 1.282c.173.127.613.497.978.823l.663.593-1.818.02c-1.806.02-1.819.021-2.008.114-.601.296-.73 1.108-.251 1.587.312.312.152.299 3.738.299l3.183-.001.2-.094a.951.951 0 0 0 .497-.505c.08-.176.081-.247.082-3.363.001-3.586.014-3.426-.298-3.738a.998.998 0 0 0-1.058-.23" fill-rule="evenodd" fill="#000" stroke="none"/></svg>