<svg xmlns="http://www.w3.org/2000/svg" width="24" height="24" fill="none" stroke="currentColor" stroke-width="2" stroke-linecap="round" stroke-linejoin="round"><path d="M2.643 1.069a1.118 1.118 0 0 0-.343.229c-.313.313-.3.152-.299 3.739.001 3.116.002 3.187.082 3.363.11.242.257.391.497.505l.2.094L5.963 9c3.586 0 3.426.013 3.738-.299.479-.479.35-1.291-.251-1.587-.189-.093-.202-.094-2.006-.114l-1.816-.02.616-.554c.339-.305.778-.675.976-.824a7.987 7.987 0 0 1 9.204-.249 7.948 7.948 0 0 1 3.56 6.287c.029.62.094.84.314 1.06a.983.983 0 0 0 1.404 0c.261-.261.315-.477.284-1.132a10.01 10.01 0 0 0-4.991-8.22c-1.119-.649-2.465-1.096-3.835-1.274-.49-.064-1.83-.064-2.32 0-1.614.21-3.106.762-4.4 1.628-.514.345-.802.579-1.663 1.356a19.35 19.35 0 0 1-.755.662C4.01 5.72 4 4.85 4 3.787c0-2.19 0-2.189-.299-2.488a.998.998 0 0 0-1.058-.23m0 10a1.118 1.118 0 0 0-.343.229c-.295.295-.348.612-.259 1.562.269 2.882 1.696 5.439 3.989 7.148a9.99 9.99 0 0 0 10.41.936c.995-.495 1.649-.967 2.847-2.057.367-.334.678-.607.69-.607.013 0 .023.87.023 1.933 0 2.19 0 2.189.299 2.488a.984.984 0 0 0 1.402 0c.312-.312.299-.152.298-3.738-.001-3.116-.002-3.187-.082-3.363a.951.951 0 0 0-.497-.505l-.2-.094L18.037 15c-3.586 0-3.426-.013-3.738.299-.479.479-.35 1.291.251 1.587.189.093.202.094 2.006.114l1.816.02-.536.482c-.746.671-.995.872-1.465 1.182-1.427.941-3.251 1.418-4.913 1.283a7.997 7.997 0 0 1-1.96-.385 7.976 7.976 0 0 1-5.482-7.222c-.029-.62-.094-.84-.314-1.06a.999.999 0 0 0-1.059-.231" fill-rule="evenodd" fill="#000" stroke="none"/></svg>