<svg xmlns="http://www.w3.org/2000/svg" width="24" height="24" fill="none" stroke="currentColor" stroke-width="2" stroke-linecap="round" stroke-linejoin="round"><path d="M20.643 1.069a1.066 1.066 0 0 0-.577.591c-.058.17-.066.433-.066 2.127 0 1.063-.01 1.933-.022 1.933-.012 0-.35-.296-.75-.658-.866-.783-1.162-1.024-1.668-1.36a10.162 10.162 0 0 0-4.4-1.628c-.49-.064-1.83-.064-2.32 0-1.307.17-2.578.579-3.66 1.177-2.934 1.624-4.825 4.526-5.139 7.889-.088.949-.036 1.267.258 1.561a.984.984 0 0 0 1.403-.001c.22-.22.285-.44.314-1.06A7.978 7.978 0 0 1 9.42 4.442c2.454-.847 5.199-.425 7.315 1.122.173.127.613.497.978.823l.663.593-1.818.02c-1.806.02-1.819.021-2.008.114-.601.296-.73 1.108-.251 1.587.312.312.152.299 3.738.299l3.183-.001.2-.094a.951.951 0 0 0 .497-.505c.08-.176.081-.247.082-3.363.001-3.586.014-3.426-.298-3.738a.998.998 0 0 0-1.058-.23m0 10c-.242.085-.497.35-.574.595-.034.108-.072.421-.085.696a7.981 7.981 0 0 1-5.482 7.222 7.956 7.956 0 0 1-6.862-.893c-.48-.314-.725-.511-1.474-1.187l-.535-.482L7.446 17c1.801-.02 1.815-.021 2.004-.114.601-.296.73-1.108.251-1.587-.312-.312-.152-.299-3.738-.299l-3.183.001-.2.094a.951.951 0 0 0-.497.505c-.08.176-.081.247-.082 3.363-.001 3.586-.014 3.426.298 3.738a.984.984 0 0 0 1.402 0C4 22.402 4 22.403 4 20.213c0-1.063.01-1.933.022-1.933.011 0 .351.298.755.662.865.78 1.152 1.014 1.663 1.355 1.311.874 2.782 1.418 4.4 1.63.485.063 1.825.062 2.32-.001 2.807-.361 5.197-1.747 6.869-3.982a10.039 10.039 0 0 0 1.957-5.512c.022-.454.015-.569-.046-.751a1.002 1.002 0 0 0-1.297-.612" fill-rule="evenodd" fill="#000" stroke="none"/></svg>