<svg xmlns="http://www.w3.org/2000/svg" width="24" height="24" fill="none" stroke="currentColor" stroke-width="2" stroke-linecap="round" stroke-linejoin="round"><path d="M16.643 2.069a1.066 1.066 0 0 0-.577.591c-.057.169-.066.416-.066 1.887 0 .931-.011 1.693-.024 1.693-.013 0-.616-.343-1.34-.762-1.695-.981-1.649-.958-1.962-.957-.299.001-.516.087-.711.282-.377.377-.382 1.012-.01 1.384.068.068.773.499 1.566.957.792.458 1.441.843 1.441.856 0 .013-.649.398-1.441.856-.793.458-1.498.889-1.566.957a.921.921 0 0 0-.271.687c0 .569.414.977.992.979.313.001.267.024 1.962-.957a52.05 52.05 0 0 1 1.34-.762c.013 0 .024.762.024 1.693 0 1.923.004 1.953.299 2.248a.984.984 0 0 0 1.402 0c.295-.295.299-.325.299-2.252 0-1.411.009-1.694.054-1.677.03.012.637.359 1.35.771 1.666.964 1.61.937 1.922.936.297-.001.516-.087.706-.277.186-.187.256-.343.279-.63.025-.317-.057-.55-.27-.76-.09-.089-.743-.491-1.577-.971-.783-.45-1.424-.829-1.424-.841 0-.012.64-.391 1.423-.841.783-.45 1.485-.878 1.56-.951.192-.185.264-.345.288-.636.048-.598-.375-1.049-.985-1.051-.312-.001-.256-.028-1.922.936-.713.412-1.32.759-1.35.771-.045.017-.054-.266-.054-1.677 0-1.927-.004-1.957-.299-2.252a.998.998 0 0 0-1.058-.23M4.62 14.025c-.408.08-.533.114-.75.202-.881.358-1.549 1.137-1.794 2.093-.08.315-.081 3.043 0 3.357.281 1.096 1.063 1.897 2.184 2.235.26.079 2.747.118 3.182.05a3.052 3.052 0 0 0 2.482-2.282c.08-.316.081-3.044 0-3.357-.307-1.197-1.264-2.09-2.444-2.28-.241-.039-2.676-.054-2.86-.018m2.72 2.041c.253.087.507.341.594.594.055.163.066.378.066 1.34 0 1.316-.018 1.421-.299 1.701-.28.281-.385.299-1.701.299-1.317 0-1.42-.018-1.702-.3-.288-.288-.304-.387-.29-1.787L4.02 16.7l.111-.189c.061-.103.173-.236.25-.294.264-.202.352-.213 1.602-.215.981-.002 1.193.008 1.357.064" fill-rule="evenodd" fill="#000" stroke="none"/></svg>