<svg xmlns="http://www.w3.org/2000/svg" width="24" height="24" fill="none" stroke="currentColor" stroke-width="2" stroke-linecap="round" stroke-linejoin="round"><path d="M16.643 1.069C16.291 1.193 16 1.614 16 2c0 .08.03.234.066.343.057.174.209.342 1.287 1.426l1.222 1.229-6.137.013c-5.729.011-6.158.017-6.438.084-1.051.25-1.8.661-2.522 1.383C2.75 7.206 2.327 7.98 2.099 9c-.046.21-.073.573-.087 1.206-.025 1.062.004 1.212.286 1.494a.984.984 0 0 0 1.403.001c.259-.259.299-.429.299-1.27 0-.494.019-.809.063-1.023a3 3 0 0 1 2.345-2.344C6.682 7.007 7.386 7 12.647 7h5.93l-1.223 1.23c-1.078 1.085-1.231 1.253-1.288 1.427-.13.389-.045.766.233 1.044s.654.363 1.044.234c.178-.059.405-.273 2.331-2.19C21.999 6.431 21.999 6.43 21.999 6c0-.43 0-.431-2.325-2.745-1.926-1.917-2.153-2.131-2.331-2.19a1.032 1.032 0 0 0-.7.004m-6 8c-.352.124-.643.545-.643.931 0 .396.291.808.66.934.107.036.227.066.267.066.069 0 .073.078.073 1.573 0 1.789.006 1.836.299 2.128a.984.984 0 0 0 1.402 0c.302-.302.299-.274.299-2.701s.003-2.399-.299-2.701c-.256-.257-.434-.3-1.218-.296-.492.002-.709.019-.84.066m10 3a1.066 1.066 0 0 0-.577.591c-.052.152-.066.349-.066.909 0 .793-.054 1.157-.235 1.592a3.124 3.124 0 0 1-1.604 1.604c-.586.245-.31.235-6.808.235h-5.93l1.223-1.23c1.078-1.085 1.231-1.253 1.288-1.427.13-.389.045-.766-.233-1.044s-.654-.363-1.044-.234c-.178.059-.405.273-2.331 2.19C2.001 17.569 2.001 17.57 2.001 18c0 .43 0 .431 2.325 2.745 1.926 1.917 2.153 2.131 2.331 2.19.39.129.766.044 1.044-.234s.363-.655.233-1.044c-.057-.174-.209-.342-1.287-1.426l-1.222-1.229 6.137-.013c5.729-.011 6.158-.017 6.438-.084.983-.234 1.749-.638 2.429-1.281.448-.423.77-.865 1.053-1.444.398-.812.517-1.41.518-2.583 0-.872-.038-1.037-.299-1.298a.998.998 0 0 0-1.058-.23" fill-rule="evenodd" fill="#000" stroke="none"/></svg>