<svg xmlns="http://www.w3.org/2000/svg" width="24" height="24" fill="none" stroke="currentColor" stroke-width="2" stroke-linecap="round" stroke-linejoin="round"><path d="M6.64 6.068c-.155.053-.545.426-2.811 2.687-1.887 1.882-2.655 2.675-2.716 2.801a1.013 1.013 0 0 0-.053.77c.066.202.214.359 2.695 2.845 1.882 1.887 2.675 2.655 2.801 2.716a.986.986 0 0 0 1.144-.185c.279-.279.364-.655.235-1.045-.059-.178-.278-.41-2.289-2.427L3.422 12l2.224-2.23c2.011-2.017 2.23-2.249 2.289-2.427A1.004 1.004 0 0 0 6.64 6.068m5 0c-.155.053-.547.428-2.814 2.687C5.962 11.609 6.001 11.564 6.001 12c0 .436-.039.391 2.825 3.245 2.391 2.383 2.652 2.631 2.831 2.69.39.129.766.044 1.044-.234s.363-.655.234-1.044c-.059-.177-.244-.376-1.789-1.927L9.422 13h4.431c4.848 0 4.732-.005 5.308.235.692.29 1.314.912 1.604 1.604.204.49.235.762.235 2.092 0 1.392.016 1.487.299 1.77a.984.984 0 0 0 1.403-.001c.297-.297.308-.371.287-1.991-.015-1.139-.031-1.467-.087-1.709-.234-1.027-.653-1.792-1.381-2.522-.723-.725-1.467-1.133-2.521-1.383-.277-.066-.659-.072-4.938-.084l-4.637-.014 1.722-1.728c1.544-1.55 1.729-1.749 1.788-1.926a1.004 1.004 0 0 0-1.295-1.275" fill-rule="evenodd" fill="#000" stroke="none"/></svg>