<svg xmlns="http://www.w3.org/2000/svg" width="24" height="24" fill="none" stroke="currentColor" stroke-width="2" stroke-linecap="round" stroke-linejoin="round"><path d="M8.64 6.068c-.155.053-.547.428-2.814 2.687C2.962 11.609 3.001 11.564 3.001 12c0 .436-.039.391 2.825 3.245 2.391 2.383 2.652 2.631 2.831 2.69.39.129.766.044 1.044-.234s.363-.655.234-1.044c-.059-.177-.244-.376-1.789-1.927L6.422 13h4.931c5.398 0 5.228-.007 5.808.235.692.29 1.314.912 1.604 1.604.204.49.235.762.235 2.092 0 1.392.016 1.487.299 1.77a.984.984 0 0 0 1.403-.001c.297-.297.308-.371.287-1.991-.015-1.139-.031-1.467-.087-1.709-.234-1.027-.653-1.792-1.381-2.522-.723-.725-1.466-1.132-2.521-1.383-.278-.066-.676-.072-5.438-.084l-5.138-.013 1.723-1.729c1.544-1.55 1.729-1.749 1.788-1.926A1.004 1.004 0 0 0 8.64 6.068" fill-rule="evenodd" fill="#000" stroke="none"/></svg>