<svg xmlns="http://www.w3.org/2000/svg" width="24" height="24" fill="none" stroke="currentColor" stroke-width="2" stroke-linecap="round" stroke-linejoin="round"><path d="M10.66 4.064c-.097.035-1.98 1.474-4.798 3.667C.659 11.78 1.02 11.462 1.02 12c0 .538-.361.22 4.842 4.269 3.246 2.526 4.691 3.628 4.815 3.67a.977.977 0 0 0 1.024-.238c.313-.313.299-.118.302-4.038.003-3.111.01-3.465.062-3.318.032.091.116.229.187.306.17.187 9.124 7.145 9.322 7.244a.987.987 0 0 0 1.126-.193c.325-.325.3.323.3-7.702s.025-7.377-.3-7.702a.987.987 0 0 0-1.126-.193c-.198.099-9.152 7.057-9.322 7.244a1.064 1.064 0 0 0-.187.306c-.052.147-.059-.207-.062-3.318-.003-3.92.011-3.725-.302-4.038a.998.998 0 0 0-1.041-.235M10 12.003c0 2.84-.015 4.918-.035 4.91-.056-.021-6.32-4.891-6.32-4.913 0-.027 6.287-4.914 6.325-4.917.016-.002.03 2.213.03 4.92m11 0c0 2.84-.015 4.918-.035 4.91-.056-.021-6.32-4.891-6.32-4.913 0-.027 6.287-4.914 6.325-4.917.017-.002.03 2.213.03 4.92" fill="#000" fill-rule="evenodd" stroke="none"/></svg>