<svg xmlns="http://www.w3.org/2000/svg" width="24" height="24" fill="none" stroke="currentColor" stroke-width="2" stroke-linecap="round" stroke-linejoin="round"><path d="M3.24 1.035c-.297.097-.552.32-.658.574-.142.34-.156.282 1.458 5.931 1.116 3.903 1.55 5.367 1.631 5.499.135.218.396.386.684.44.119.023.494.041.834.041.382 0 .613.015.604.039-.046.134-2.699 5.078-2.726 5.08-.068.003-.823-.608-1.272-1.029-.256-.24-.535-.471-.62-.513-.22-.109-.659-.104-.875.011a1.004 1.004 0 0 0-.539.892c0 .323.13.562.505.924 2.23 2.158 5.098 3.502 8.234 3.86.796.09 2.19.09 3 0a13.991 13.991 0 0 0 7.376-3.098c.674-.551 1.164-1.04 1.27-1.266.226-.484.03-1.06-.446-1.312-.217-.115-.655-.12-.876-.01-.086.042-.363.271-.614.508-.252.238-.634.567-.85.732l-.391.3-1.162-2.489a431.979 431.979 0 0 1-1.187-2.555c-.022-.058.058-.066.788-.082.897-.019 1.018-.046 1.266-.284.222-.213.304-.409.304-.728s-.082-.515-.304-.728c-.285-.273.14-.254-5.917-.255l-5.48-.001-.038-.088c-.021-.048-.633-2.176-1.36-4.728-.728-2.552-1.359-4.763-1.404-4.913-.091-.31-.275-.545-.529-.674-.175-.089-.547-.13-.706-.078m12.569 15.556 1.43 3.069-.33.153c-1.201.556-2.741.931-4.22 1.028-1.86.121-3.912-.258-5.62-1.039l-.271-.124.096-.169c.053-.093.793-1.479 1.645-3.079l1.549-2.91 2.146.001 2.146.002 1.429 3.068" fill-rule="evenodd" fill="#000" stroke="none"/></svg>