<svg xmlns="http://www.w3.org/2000/svg" width="24" height="24" fill="none" stroke="currentColor" stroke-width="2" stroke-linecap="round" stroke-linejoin="round"><path d="M2.643 1.069a1.118 1.118 0 0 0-.343.229c-.313.313-.3.152-.299 3.739.001 3.116.002 3.187.082 3.363.11.242.257.391.497.505l.2.094L5.963 9c3.586 0 3.426.013 3.738-.299.479-.479.35-1.291-.251-1.587-.189-.093-.202-.094-2.005-.114l-1.816-.02.596-.536c.663-.598 1.144-.967 1.664-1.279 1.351-.81 3.088-1.217 4.645-1.088 2.863.237 5.293 1.869 6.57 4.411.636 1.266.939 2.799.821 4.157-.24 2.766-1.745 5.098-4.145 6.423-2.212 1.22-4.938 1.301-7.241.215a8.016 8.016 0 0 1-2.677-2.045 8.02 8.02 0 0 1-1.817-3.994c-.091-.597-.182-.826-.396-1.003a.999.999 0 0 0-1.35.058c-.172.172-.299.458-.299.673 0 .224.125.97.244 1.459.959 3.934 4.176 6.87 8.236 7.515.361.058.684.073 1.5.073.91-.001 1.105-.013 1.56-.094 1.705-.304 3.118-.908 4.42-1.889 2.965-2.233 4.46-5.953 3.855-9.596A10.172 10.172 0 0 0 19.907 6c-.375-.496-1.183-1.326-1.687-1.732a9.99 9.99 0 0 0-10.7-1.172c-.993.494-1.582.914-2.734 1.954-.409.369-.753.67-.764.67C4.01 5.72 4 4.85 4 3.787c0-2.19 0-2.189-.299-2.488a.998.998 0 0 0-1.058-.23" fill-rule="evenodd" fill="#000" stroke="none"/></svg>