<svg xmlns="http://www.w3.org/2000/svg" width="24" height="24" fill="none" stroke="currentColor" stroke-width="2" stroke-linecap="round" stroke-linejoin="round"><path d="M20.643 1.069a1.066 1.066 0 0 0-.577.591c-.058.17-.066.433-.066 2.127 0 1.063-.009 1.933-.02 1.933-.011 0-.355-.301-.764-.67-.848-.765-1.437-1.221-2.026-1.571a9.999 9.999 0 0 0-11.428.805 9.996 9.996 0 0 0-3.198 10.912 10.027 10.027 0 0 0 7.416 6.64c.901.196 2.251.258 3.195.149 4.173-.485 7.592-3.495 8.581-7.554.119-.489.244-1.235.244-1.459 0-.215-.127-.501-.299-.673a.999.999 0 0 0-1.35-.058c-.21.173-.305.408-.391.965a7.605 7.605 0 0 1-.72 2.337c-1.179 2.446-3.533 4.116-6.279 4.455-.748.093-1.93.031-2.661-.14A8.242 8.242 0 0 1 7 18.251a9.848 9.848 0 0 1-1.35-1.4c-2.389-3.223-2.065-7.648.769-10.471 1.621-1.615 3.928-2.474 6.183-2.302 1.583.12 3.056.671 4.271 1.596.169.129.576.476.905.77l.597.536-1.817.02c-1.806.02-1.819.021-2.008.114-.601.296-.73 1.108-.251 1.587.312.312.152.299 3.738.299l3.183-.001.2-.094a.951.951 0 0 0 .497-.505c.08-.176.081-.247.082-3.363.001-3.586.014-3.426-.298-3.738a.998.998 0 0 0-1.058-.23" fill-rule="evenodd" fill="#000" stroke="none"/></svg>