<svg xmlns="http://www.w3.org/2000/svg" width="24" height="24" fill="none" stroke="currentColor" stroke-width="2" stroke-linecap="round" stroke-linejoin="round"><path d="M3.643 3.066C3.288 3.198 3 3.615 3 4c0 .242.119.521.299.701.225.225.457.299.938.299 1.323.001 3.127.307 4.49.762A14.993 14.993 0 0 1 18.984 19.48c.028.79.078.984.314 1.22a.983.983 0 0 0 1.404 0c.275-.274.315-.46.283-1.298-.094-2.486-.675-4.778-1.768-6.966a14.691 14.691 0 0 0-1.14-1.956C15.521 6.683 11.455 4.043 6.96 3.262a15.63 15.63 0 0 0-2.4-.242c-.621-.017-.768-.009-.917.046m0 7C3.288 10.197 3 10.615 3 11c0 .396.291.808.66.934.107.036.318.066.469.066 1.058 0 2.342.311 3.371.816a7.988 7.988 0 0 1 4.459 6.418c.023.228.041.526.041.663 0 .34.098.603.299.804a.984.984 0 0 0 1.403-.001c.26-.26.315-.478.284-1.12a9.897 9.897 0 0 0-.413-2.46c-1.238-4.095-4.946-6.96-9.193-7.101-.454-.015-.594-.006-.737.047m.891 6.991C3.657 17.269 3 18.102 3 19c0 1.08.92 2 2 2s2-.92 2-2c0-1.096-.934-2.013-2.032-1.997a2.342 2.342 0 0 0-.434.054" fill-rule="evenodd" fill="#000" stroke="none"/></svg>