<svg xmlns="http://www.w3.org/2000/svg" width="24" height="24" fill="none" stroke="currentColor" stroke-width="2" stroke-linecap="round" stroke-linejoin="round"><path d="M15.64 1.065c-.156.056-1.124 1.007-7.311 7.189-5.227 5.224-7.154 7.173-7.216 7.302a1.013 1.013 0 0 0-.053.77c.066.203.23.375 3.195 3.345 2.253 2.258 3.174 3.155 3.301 3.216.244.119.509.137.77.053.205-.066.508-.362 7.345-7.194 5.227-5.224 7.154-7.173 7.216-7.302.119-.244.137-.509.053-.77-.066-.203-.23-.375-3.195-3.345-2.289-2.293-3.173-3.154-3.304-3.218a1.147 1.147 0 0 0-.801-.046M18.3 5.72 20.58 8l-6.29 6.29L8 20.58l-2.29-2.29-2.289-2.289.538-.54.539-.54.701.697c.78.776.907.86 1.301.861.574.001.98-.409.98-.99 0-.378-.109-.54-.879-1.309l-.681-.679.789-.79.789-.79.701.697c.78.776.907.86 1.301.861.574.001.98-.409.98-.99 0-.378-.109-.54-.879-1.309l-.681-.679.789-.79.789-.79.701.697c.78.776.907.86 1.301.861.574.001.981-.41.979-.988-.001-.384-.09-.516-.861-1.292l-.697-.701.79-.789.79-.789.679.681c.774.775.93.879 1.318.879.577-.001.982-.409.982-.991 0-.378-.109-.54-.879-1.309l-.681-.679.529-.531c.292-.291.539-.53.551-.53.011 0 1.046 1.026 2.3 2.28" fill-rule="evenodd" fill="#000" stroke="none"/></svg>