<svg width="24" height="24" xmlns="http://www.w3.org/2000/svg" fill="none" stroke="currentColor" stroke-width="2" stroke-linecap="round" stroke-linejoin="round"><path d="M8.58 2.094a.953.953 0 0 0-.497.506c-.08.177-.081.245-.082 3.79L8 10H6.927c-1.235 0-1.35.021-1.628.299a.984.984 0 0 0 0 1.402c.278.278.393.299 1.628.299H8v2H6.927c-1.235 0-1.35.021-1.628.299a.984.984 0 0 0 0 1.402c.278.278.393.299 1.628.299H8v2.573c0 2.904-.008 2.821.299 3.128a.984.984 0 0 0 1.402 0c.307-.307.299-.224.299-3.128V16h2.073c2.346 0 2.327.002 2.628-.299a.984.984 0 0 0 0-1.402c-.301-.301-.282-.299-2.628-.299H10v-1.995l2.39-.016c2.028-.014 2.435-.027 2.69-.083 1.047-.229 1.82-.64 2.504-1.328 1.46-1.47 1.833-3.916.894-5.878-.656-1.372-1.807-2.255-3.398-2.607-.261-.058-.688-.068-3.3-.08l-3-.014-.2.095m6.3 2.002c.492.135.911.373 1.24.703.331.332.519.622.669 1.031.34.927.251 2.014-.234 2.84a2.85 2.85 0 0 1-1.075.997c-.646.314-.575.307-3.17.323l-2.31.014V3.996l2.31.014c2.069.013 2.337.022 2.57.086" fill-rule="evenodd" fill="#000" stroke="none"/></svg>