<svg xmlns="http://www.w3.org/2000/svg" width="24" height="24" fill="none" stroke="currentColor" stroke-width="2" stroke-linecap="round" stroke-linejoin="round"><path d="M4.62 2.025c-.408.08-.533.114-.75.202-.881.358-1.549 1.137-1.794 2.093-.083.327-.084 15.031 0 15.357.281 1.099 1.041 1.876 2.184 2.238.179.056.983.064 7.56.075 4.998.008 7.448-.001 7.633-.03a3.034 3.034 0 0 0 2.306-1.8c.234-.554.218-.106.231-6.457.011-5.311.006-5.855-.054-6.04-.06-.188-.26-.399-2.73-2.868-2.427-2.426-2.684-2.671-2.863-2.73-.178-.059-.744-.065-5.92-.06-3.148.002-5.759.011-5.803.02M6 6.073c0 2.346-.002 2.327.299 2.628C6.616 9.018 6.337 9 11 9c4.663 0 4.384.018 4.701-.299a.984.984 0 0 0 0-1.402C15.387 6.985 15.595 7 11.573 7H8V4h7.58l2.21 2.21L20 8.42v5.363c0 6.026.022 5.597-.299 5.918-.247.247-.442.299-1.128.299H18v-3.573c0-4.022.015-3.814-.299-4.128-.32-.32.082-.299-5.701-.299-5.783 0-5.381-.021-5.701.299-.314.314-.299.106-.299 4.128V20h-.573c-.687 0-.881-.051-1.129-.3-.324-.324-.3.328-.288-7.782L4.02 4.7l.111-.189c.125-.213.318-.375.539-.454.098-.035.353-.054.74-.055L6 4v2.073M16 17v3H8v-6h8v3" fill-rule="evenodd" fill="#000" stroke="none"/></svg>