<svg xmlns="http://www.w3.org/2000/svg" width="24" height="24" fill="none" stroke="currentColor" stroke-width="2" stroke-linecap="round" stroke-linejoin="round"><path d="M11.643 2.069a1.066 1.066 0 0 0-.577.591c-.052.154-.066.351-.066.946v.752l-.15.076c-.595.3-2.273.897-3.21 1.143C6.291 5.931 5.706 6 4.077 6c-1.401 0-1.495.016-1.778.299a.984.984 0 0 0 0 1.402c.244.244.445.299 1.092.299.413 0 .533.012.519.05l-1.454 3.87c-1.348 3.588-1.435 3.836-1.436 4.081 0 .524.287.833 1.219 1.315.528.273.997.44 1.601.569.606.13 1.714.13 2.32 0a5.984 5.984 0 0 0 1.599-.568c.607-.315.964-.58 1.108-.824.099-.168.112-.231.109-.493-.005-.293-.04-.393-1.467-4.18L6.047 7.94l.547-.09c1.218-.2 3.024-.729 4.336-1.27.067-.027.07.307.07 6.696V20H8.927c-2.346 0-2.327-.002-2.628.299a.984.984 0 0 0 0 1.402c.32.32-.082.299 5.701.299 5.783 0 5.381.021 5.701-.299a.984.984 0 0 0 0-1.402c-.301-.301-.282-.299-2.628-.299H13v-6.72c0-3.696.009-6.72.019-6.72s.159.056.33.124c1.291.517 2.873.971 4.057 1.166l.546.09-1.466 3.9c-1.377 3.665-1.465 3.916-1.466 4.161 0 .524.287.833 1.219 1.315.528.273.997.44 1.601.569.35.075.544.09 1.16.09.817 0 1.234-.064 1.939-.3.444-.148 1.192-.532 1.548-.793.369-.272.493-.489.493-.862 0-.271-.049-.409-1.436-4.1L20.09 8.05c-.014-.038.106-.05.519-.05.647 0 .848-.055 1.092-.299a.984.984 0 0 0 0-1.402C21.418 6.016 21.324 6 19.923 6c-1.405 0-1.933-.048-2.891-.262A22.098 22.098 0 0 1 13.4 4.544l-.38-.166-.02-.819c-.018-.755-.027-.834-.114-1.009-.221-.449-.752-.655-1.243-.481M5.898 13.242c.499 1.325.859 2.336.838 2.354-.07.063-.561.236-.876.309-.426.1-1.318.1-1.72.002-.295-.073-.816-.257-.874-.308-.034-.031 1.687-4.679 1.733-4.679.014 0 .418 1.045.899 2.322m14 0c.499 1.325.859 2.336.838 2.354-.07.063-.561.236-.876.309-.426.1-1.318.1-1.72.002-.295-.073-.816-.257-.874-.308-.034-.031 1.687-4.679 1.733-4.679.014 0 .418 1.045.899 2.322" fill-rule="evenodd" fill="#000" stroke="none"/></svg>