<svg xmlns="http://www.w3.org/2000/svg" width="24" height="24" fill="none" stroke="currentColor" stroke-width="2" stroke-linecap="round" stroke-linejoin="round"><path d="M4.62 2.025c-.408.08-.533.114-.75.202-.706.287-1.342.91-1.62 1.588-.217.529-.221.562-.239 1.975-.02 1.531-.007 1.616.287 1.91a.984.984 0 0 0 1.403.001c.281-.281.299-.384.301-1.718.002-1.25.013-1.338.215-1.602.058-.077.191-.189.294-.25L4.7 4.02 5.98 4c1.241-.019 1.286-.023 1.47-.114.601-.296.73-1.108.251-1.587-.284-.284-.376-.3-1.778-.294-.673.002-1.259.011-1.303.02m12.023.044C16.291 2.193 16 2.614 16 3c0 .396.291.808.66.934.163.055.378.066 1.34.066 1.316 0 1.421.018 1.701.299.281.28.299.385.299 1.701s.018 1.421.299 1.701a.984.984 0 0 0 1.403-.001c.294-.294.307-.379.287-1.91-.018-1.399-.022-1.438-.226-1.945-.292-.728-1-1.401-1.751-1.663-.448-.157-.721-.182-1.992-.179-.979.003-1.232.015-1.377.066m-10 9C6.291 11.193 6 11.614 6 12c0 .242.119.521.299.701.32.32-.082.299 5.701.299 5.783 0 5.381.021 5.701-.299a.984.984 0 0 0 0-1.402c-.32-.32.085-.299-5.718-.296-4.569.003-5.183.01-5.34.066m-4 5c-.243.086-.496.349-.581.605-.061.183-.067.357-.051 1.536.013 1.043.03 1.373.078 1.53.343 1.118 1.053 1.828 2.171 2.171.157.048.487.065 1.53.078 1.531.02 1.616.007 1.91-.287a.984.984 0 0 0 .001-1.403C7.421 20.018 7.316 20 6 20s-1.421-.018-1.701-.299C4.018 19.421 4 19.316 4 18s-.018-1.421-.299-1.701a.998.998 0 0 0-1.058-.23m18 0a1.066 1.066 0 0 0-.577.591c-.055.163-.066.378-.066 1.34 0 1.316-.018 1.421-.299 1.701-.28.281-.385.299-1.701.299s-1.421.018-1.701.299a.984.984 0 0 0 0 1.402c.282.282.381.299 1.738.299.651 0 1.297-.019 1.437-.042 1.168-.189 2.075-1.015 2.438-2.218.047-.155.064-.499.077-1.53.02-1.531.007-1.616-.287-1.91a.999.999 0 0 0-1.059-.231" fill-rule="evenodd" fill="#000" stroke="none"/></svg>