<svg xmlns="http://www.w3.org/2000/svg" width="24" height="24" fill="none" stroke="currentColor" stroke-width="2" stroke-linecap="round" stroke-linejoin="round"><path d="M5.31 2.063A4.022 4.022 0 0 0 2.402 4.26a4.026 4.026 0 0 0 .162 3.782 4.007 4.007 0 0 0 5.202 1.542l.267-.132 1.273 1.274L10.58 12l-1.274 1.274-1.273 1.274-.267-.132a4.02 4.02 0 0 0-3.808.148 4.033 4.033 0 0 0-1.863 2.576c-.103.441-.103 1.279 0 1.72a4.017 4.017 0 0 0 3.045 3.045c.464.109 1.319.102 1.78-.014 1.481-.373 2.602-1.489 2.964-2.951.218-.879.101-1.921-.303-2.71l-.129-.25 5.709-5.72c5.254-5.264 5.715-5.736 5.774-5.917.128-.39.044-.766-.234-1.044s-.654-.362-1.044-.234c-.18.059-.514.381-3.927 3.79L12 10.579l-1.274-1.273-1.274-1.273.132-.267a4.02 4.02 0 0 0-.151-3.814C8.596 2.543 6.915 1.773 5.31 2.063m1.098 1.981C7.31 4.232 8 5.08 8 6c0 1.08-.92 2-2 2s-2-.92-2-2c0-.898.657-1.731 1.534-1.943.263-.064.604-.069.874-.013m7.792 9.471c-.442.144-.718.515-.719.965-.001.438-.061.369 3.085 3.505 2.633 2.625 2.912 2.891 3.091 2.95.39.129.766.044 1.045-.235a.986.986 0 0 0 .185-1.144c-.117-.242-5.755-5.871-5.987-5.977-.176-.081-.544-.115-.7-.064m-7.792 2.529C7.31 16.232 8 17.08 8 18c0 1.08-.92 2-2 2s-2-.92-2-2c0-.898.657-1.731 1.534-1.943.263-.064.604-.069.874-.013" fill="#000" fill-rule="evenodd" stroke="none"/></svg>