<svg xmlns="http://www.w3.org/2000/svg" width="24" height="24" fill="none" stroke="currentColor" stroke-width="2" stroke-linecap="round" stroke-linejoin="round"><path d="M3.62 2.025c-.408.08-.533.114-.75.202-.881.358-1.549 1.137-1.794 2.093-.083.326-.084 11.032 0 11.357.281 1.096 1.048 1.882 2.184 2.237.174.055.687.065 3.97.076l3.77.013V20H9.427c-1.789 0-1.836.006-2.128.299a.984.984 0 0 0 0 1.402c.317.317.038.299 4.701.299 4.663 0 4.384.018 4.701-.299a.984.984 0 0 0 0-1.402c-.292-.293-.339-.299-2.128-.299H13v-2h3.61c2.304 0 3.703-.016 3.866-.042a3.042 3.042 0 0 0 2.283-1.798c.215-.51.214-.497.231-2.452.017-2.09.016-2.105-.288-2.408a.984.984 0 0 0-1.403-.001c-.294.294-.299.33-.299 2.201s-.005 1.907-.299 2.201c-.325.325.443.299-8.701.299s-8.376.026-8.701-.299c-.32-.32-.299.084-.297-5.718.001-4.209.011-5.191.055-5.313.079-.221.241-.414.454-.539L3.7 4.02 8.48 4l4.78-.02.19-.094c.601-.296.73-1.108.251-1.587-.319-.319.033-.3-5.278-.294-2.598.002-4.759.011-4.803.02m13.023.044C16.291 2.193 16 2.614 16 3c0 .396.291.808.66.934.166.056.393.066 1.556.066h1.362l-1.724 1.73c-1.545 1.551-1.73 1.75-1.789 1.927-.129.389-.044.766.234 1.044s.655.363 1.044.234c.177-.059.376-.244 1.927-1.789L21 5.422v1.362c0 1.555.012 1.63.299 1.917a.984.984 0 0 0 1.402 0c.308-.308.299-.211.299-3.238l-.001-2.683-.094-.2a.951.951 0 0 0-.505-.497c-.176-.079-.247-.081-2.88-.079-2.339.002-2.724.011-2.877.065" fill-rule="evenodd" fill="#000" stroke="none"/></svg>