<svg xmlns="http://www.w3.org/2000/svg" width="24" height="24" fill="none" stroke="currentColor" stroke-width="2" stroke-linecap="round" stroke-linejoin="round"><path d="M3.62 2.025c-.408.08-.533.114-.75.202-.881.358-1.549 1.137-1.794 2.093-.083.326-.084 11.032 0 11.357.281 1.096 1.048 1.882 2.184 2.237.174.055.687.065 3.97.076l3.77.013V20H9.427c-1.789 0-1.836.006-2.128.299a.984.984 0 0 0 0 1.402c.317.317.038.299 4.701.299 4.663 0 4.384.018 4.701-.299a.984.984 0 0 0 0-1.402c-.292-.293-.339-.299-2.128-.299H13v-2h3.61c2.304 0 3.703-.016 3.866-.042a3.042 3.042 0 0 0 2.283-1.798c.215-.51.214-.497.231-2.452.017-2.09.016-2.105-.288-2.408a.984.984 0 0 0-1.403-.001c-.294.294-.299.33-.299 2.201s-.005 1.907-.299 2.201c-.325.325.443.299-8.701.299s-8.376.026-8.701-.299c-.32-.32-.299.084-.297-5.718.001-4.209.011-5.191.055-5.313.079-.221.241-.414.454-.539L3.7 4.02 8.48 4l4.78-.02.19-.094c.601-.296.73-1.108.251-1.587-.319-.319.033-.3-5.278-.294-2.598.002-4.759.011-4.803.02m13.023.044c-.386.136-.674.594-.634 1.009.034.353.142.495 1.129 1.481l.941.939-.974.981c-.846.853-.982 1.007-1.039 1.178a.962.962 0 0 0 0 .683c.137.403.587.692 1.012.651.353-.034.495-.142 1.481-1.129l.939-.941.981.974c.853.846 1.007.982 1.178 1.039.388.13.765.046 1.044-.233s.363-.656.233-1.044c-.057-.171-.193-.325-1.039-1.178l-.974-.981.941-.939c.623-.622.969-.998 1.025-1.115.418-.858-.473-1.749-1.331-1.331-.117.056-.493.402-1.115 1.025l-.939.941-.981-.974c-.853-.846-1.007-.982-1.178-1.039a1.026 1.026 0 0 0-.7.003" fill-rule="evenodd" fill="#000" stroke="none"/></svg>