<svg xmlns="http://www.w3.org/2000/svg" width="24" height="24" fill="none" stroke="currentColor" stroke-width="2" stroke-linecap="round" stroke-linejoin="round"><path d="M11.647 4.559C3.646 7.363 1.484 8.135 1.368 8.229c-.463.375-.467 1.168-.008 1.534.077.061 2.093.978 4.48 2.037 2.387 1.06 4.361 1.948 4.387 1.973.025.026.913 2 1.973 4.387 1.059 2.387 1.976 4.403 2.037 4.48.365.459 1.159.455 1.534-.007.178-.221 7.228-20.363 7.228-20.653A.99.99 0 0 0 22 1.005c-.185.002-1.848.573-10.353 3.554m2.831 3.542-3.701 3.702-2.978-1.323A171.748 171.748 0 0 1 4.79 9.126c-.022-.022 13.218-4.699 13.37-4.723a563.6 563.6 0 0 1-3.682 3.698m4.947-1.771c-.095.27-1.151 3.284-2.346 6.7-1.195 3.416-2.183 6.21-2.196 6.209-.013-.001-.623-1.354-1.356-3.007l-1.333-3.006 3.693-3.693c2.031-2.031 3.697-3.693 3.702-3.693.005 0-.069.22-.164.49" fill="#000" fill-rule="evenodd" stroke="none"/></svg>