<svg xmlns="http://www.w3.org/2000/svg" width="24" height="24" fill="none" stroke="currentColor" stroke-width="2" stroke-linecap="round" stroke-linejoin="round"><path d="M11.643 2.069a1.066 1.066 0 0 0-.577.591C11.005 2.839 11 3.592 11 12c0 10.264-.027 9.375.299 9.701a.984.984 0 0 0 1.402 0c.326-.326.299.563.299-9.701 0-10.264.027-9.375-.299-9.701a.998.998 0 0 0-1.058-.23M7.64 7.068c-.154.053-.488.369-2.311 2.187-1.516 1.511-2.156 2.176-2.217 2.301a1.018 1.018 0 0 0-.052.77c.065.201.198.342 2.195 2.345 1.511 1.516 2.176 2.156 2.301 2.217a.99.99 0 0 0 1.144-.186c.279-.279.364-.655.235-1.045-.059-.177-.244-.376-1.789-1.927L5.422 12l1.724-1.73c1.545-1.551 1.73-1.75 1.789-1.927.129-.389.044-.766-.234-1.044a1.005 1.005 0 0 0-1.061-.231m8.003.001C15.291 7.193 15 7.614 15 8c0 .08.029.234.065.343.059.177.244.376 1.789 1.927L18.578 12l-1.724 1.73c-1.545 1.551-1.73 1.75-1.789 1.927-.129.39-.044.766.235 1.045a.99.99 0 0 0 1.144.186c.125-.061.79-.701 2.301-2.217 1.997-2.003 2.13-2.144 2.195-2.345a1.018 1.018 0 0 0-.052-.77c-.061-.125-.701-.79-2.217-2.301-1.924-1.919-2.15-2.131-2.328-2.19a1.032 1.032 0 0 0-.7.004" fill="#000" fill-rule="evenodd" stroke="none"/></svg>