<svg xmlns="http://www.w3.org/2000/svg" width="24" height="24" fill="none" stroke="currentColor" stroke-width="2" stroke-linecap="round" stroke-linejoin="round"><path d="M11.64 3.068c-.154.053-.488.369-2.311 2.187-1.516 1.511-2.156 2.176-2.217 2.301A.99.99 0 0 0 7.298 8.7c.279.279.655.364 1.045.235.177-.059.376-.244 1.927-1.789L12 5.422l1.73 1.724c1.551 1.545 1.75 1.73 1.927 1.789.39.129.766.044 1.045-.235a.99.99 0 0 0 .186-1.144c-.061-.125-.701-.79-2.217-2.301-1.924-1.919-2.15-2.131-2.328-2.19a1.053 1.053 0 0 0-.703.003m-8.997 8.001C2.291 11.193 2 11.614 2 12c0 .242.119.521.299.701.326.326-.563.299 9.701.299 10.264 0 9.375.027 9.701-.299a.984.984 0 0 0 0-1.402c-.326-.327.567-.299-9.718-.296-8.192.003-9.182.01-9.34.066m5 4C7.291 15.193 7 15.614 7 16c0 .08.029.234.065.343.059.178.271.404 2.19 2.328 1.511 1.516 2.176 2.156 2.301 2.217.244.118.509.136.77.052.201-.065.342-.198 2.345-2.195 1.516-1.511 2.156-2.176 2.217-2.301a.99.99 0 0 0-.186-1.144c-.279-.279-.655-.364-1.045-.235-.177.059-.376.244-1.927 1.789L12 18.578l-1.73-1.724c-1.551-1.545-1.75-1.73-1.927-1.789a1.032 1.032 0 0 0-.7.004" fill="#000" fill-rule="evenodd" stroke="none"/></svg>