<svg xmlns="http://www.w3.org/2000/svg" width="24" height="24" fill="none" stroke="currentColor" stroke-width="2" stroke-linecap="round" stroke-linejoin="round"><path d="M1.643 1.069c-.401.142-.683.606-.622 1.025.016.113.023.386.014.606-.008.22-.015 1.606-.015 3.08 0 2.875-.003 2.834.21 3.357.285.701.932 1.352 1.615 1.626.555.223.379.212 3.675.226l3.06.013.99.989.991.989-4.051.022c-3.55.018-4.075.029-4.25.085-1.156.367-1.901 1.129-2.184 2.233-.082.321-.082 5.037 0 5.357a3.075 3.075 0 0 0 2.247 2.247c.182.047 1.601.056 8.837.056h8.62l.254-.133c.229-.119.261-.126.321-.072.135.123.425.223.645.224a.997.997 0 0 0 .904-1.419c-.078-.163-1.959-2.062-10.23-10.325C3.3 1.889 2.525 1.125 2.343 1.065a1.038 1.038 0 0 0-.7.004m5 0C6.291 1.193 6 1.614 6 2c0 .242.119.521.299.701.323.323-.262.299 7.201.299 7.463 0 6.878-.024 7.201.299.302.302.299.274.299 2.701s.003 2.399-.299 2.701c-.307.308-.215.299-3.201.299s-2.894-.009-3.201.299a.984.984 0 0 0 0 1.402c.308.308.211.299 3.238.299 1.652 0 2.781-.016 2.937-.042 1.186-.192 2.147-1.086 2.45-2.278.082-.322.082-5.038 0-5.357-.307-1.197-1.264-2.089-2.448-2.281-.17-.027-2.501-.04-6.956-.039-5.962.003-6.719.01-6.877.066M5.712 8.99c-2.103.012-2.113.011-2.412-.288-.299-.299-.3-.306-.3-2.419V4.42L5.28 6.7l2.28 2.28-1.848.01m12.931 4.079c-.352.124-.643.545-.643.931 0 .242.119.521.299.701.254.254.435.299 1.201.299s.947.045 1.201.299c.254.254.299.435.299 1.201s.045.947.299 1.201a.984.984 0 0 0 1.403-.001c.278-.278.311-.439.287-1.414-.021-.847-.042-.983-.226-1.441-.367-.915-1.287-1.641-2.287-1.803-.407-.066-1.62-.048-1.833.027M16.58 18l3 3h-7.863c-8.829 0-8.093.026-8.419-.3-.306-.306-.302-.27-.289-2.784L3.02 15.7l.111-.189c.125-.213.318-.375.539-.454.122-.044 1.058-.054 5.03-.055L13.58 15l3 3m-10.937-.934C5.288 17.197 5 17.615 5 18c0 .729.814 1.222 1.465.887.711-.365.708-1.41-.004-1.776-.211-.109-.588-.129-.818-.045" fill-rule="evenodd" fill="#000" stroke="none"/></svg>