<svg xmlns="http://www.w3.org/2000/svg" width="24" height="24" fill="none" stroke="currentColor" stroke-width="2" stroke-linecap="round" stroke-linejoin="round"><path d="M3.62 1.025c-.408.08-.533.114-.75.202-.881.358-1.549 1.137-1.794 2.093-.082.321-.082 5.037 0 5.357.283 1.105 1.046 1.885 2.184 2.234.157.048.487.065 1.53.078 1.531.02 1.616.007 1.91-.287a.984.984 0 0 0 .001-1.403C6.421 9.018 6.316 9 5 9c-1.317 0-1.42-.018-1.702-.3-.306-.306-.302-.27-.289-2.784L3.02 3.7l.111-.189c.125-.213.318-.375.539-.454.123-.044 1.598-.054 8.313-.055 9.163-.002 8.393-.028 8.718.297.302.302.299.274.299 2.701s.003 2.399-.299 2.701C20.421 8.982 20.316 9 19 9s-1.421.018-1.701.299a.984.984 0 0 0 0 1.402c.282.282.381.299 1.738.299.651 0 1.297-.019 1.437-.042 1.186-.192 2.147-1.086 2.45-2.278.082-.322.082-5.038 0-5.357-.307-1.197-1.264-2.09-2.444-2.28-.246-.04-16.66-.057-16.86-.018m2.023 4.041C5.288 5.197 5 5.615 5 6c0 .729.814 1.222 1.465.887.711-.365.708-1.41-.004-1.776-.211-.109-.588-.129-.818-.045m7.025-.005a1.412 1.412 0 0 0-.273.143c-.145.103-4.254 6.246-4.339 6.486a.992.992 0 0 0 .494 1.196l.19.094 2.19.02 2.19.02-1.504 2.255c-.827 1.241-1.529 2.327-1.56 2.415-.267.758.5 1.519 1.262 1.251.092-.033.222-.098.288-.145.144-.103 4.253-6.248 4.338-6.486a.992.992 0 0 0-.494-1.196l-.19-.094-2.19-.02-2.19-.02 1.504-2.255c.827-1.241 1.529-2.327 1.56-2.415.268-.762-.515-1.528-1.276-1.249M3.62 13.025c-.408.08-.533.114-.75.202-.881.358-1.549 1.137-1.794 2.093-.082.321-.082 5.037 0 5.357.281 1.096 1.042 1.877 2.184 2.238.179.057 1.066.065 8.56.075 5.689.008 8.447-.001 8.633-.03 1.19-.182 2.167-1.084 2.471-2.28.082-.322.082-5.038 0-5.357-.307-1.197-1.264-2.089-2.448-2.281-.141-.023-.788-.042-1.439-.042-1.357 0-1.456.017-1.738.299a.984.984 0 0 0 0 1.402c.28.281.385.299 1.701.299s1.421.018 1.701.299c.302.302.299.274.299 2.701s.003 2.399-.299 2.701c-.325.325.443.299-8.701.299s-8.376.026-8.701-.299c-.303-.303-.299-.271-.297-2.718.001-1.702.013-2.195.055-2.313.079-.221.241-.414.454-.539l.189-.111L4.98 15c1.241-.019 1.286-.023 1.47-.114.601-.296.73-1.108.251-1.587-.284-.284-.376-.3-1.778-.294-.673.002-1.259.011-1.303.02m2.023 4.041C5.288 17.197 5 17.615 5 18c0 .729.814 1.222 1.465.887.711-.365.708-1.41-.004-1.776-.211-.109-.588-.129-.818-.045" fill-rule="evenodd" fill="#000" stroke="none"/></svg>