<svg xmlns="http://www.w3.org/2000/svg" width="24" height="24" fill="none" stroke="currentColor" stroke-width="2" stroke-linecap="round" stroke-linejoin="round"><path d="M3.62 1.025c-.408.08-.533.114-.75.202-.881.358-1.549 1.137-1.794 2.093-.082.321-.082 5.037 0 5.357.281 1.099 1.04 1.876 2.184 2.238.179.057 1.066.065 8.56.075 5.689.008 8.447-.001 8.633-.03 1.19-.182 2.167-1.084 2.471-2.28.082-.322.082-5.038 0-5.357-.307-1.197-1.264-2.09-2.444-2.28-.246-.04-16.66-.057-16.86-.018m16.72 2.041c.253.087.507.341.594.594.058.171.066.448.066 2.34 0 2.427.003 2.399-.299 2.701-.325.325.443.299-8.701.299-9.146 0-8.376.027-8.702-.3-.306-.306-.302-.27-.289-2.784L3.02 3.7l.111-.189c.125-.213.318-.375.539-.454.123-.044 1.598-.054 8.313-.055 7.496-.002 8.179.003 8.357.064m-14.697 2C5.288 5.197 5 5.615 5 6c0 .729.814 1.222 1.465.887.711-.365.708-1.41-.004-1.776-.211-.109-.588-.129-.818-.045M3.62 13.025c-.408.08-.533.114-.75.202-.881.358-1.549 1.137-1.794 2.093-.082.321-.082 5.037 0 5.357.281 1.099 1.04 1.876 2.184 2.238.179.057 1.066.065 8.56.075 5.689.008 8.447-.001 8.633-.03 1.19-.182 2.167-1.084 2.471-2.28.082-.322.082-5.038 0-5.357-.307-1.197-1.264-2.09-2.444-2.28-.246-.04-16.66-.057-16.86-.018m16.72 2.041c.253.087.507.341.594.594.058.171.066.448.066 2.34 0 2.427.003 2.399-.299 2.701-.325.325.443.299-8.701.299-9.146 0-8.376.027-8.702-.3-.306-.306-.302-.27-.289-2.784L3.02 15.7l.111-.189c.125-.213.318-.375.539-.454.123-.044 1.598-.054 8.313-.055 7.496-.002 8.179.003 8.357.064m-14.697 2C5.288 17.197 5 17.615 5 18c0 .729.814 1.222 1.465.887.711-.365.708-1.41-.004-1.776-.211-.109-.588-.129-.818-.045" fill="#000" fill-rule="evenodd" stroke="none"/></svg>