<svg xmlns="http://www.w3.org/2000/svg" width="24" height="24" fill="none" stroke="currentColor" stroke-width="2" stroke-linecap="round" stroke-linejoin="round"><path d="M11.18 1.066a3.019 3.019 0 0 0-2.3 2.174 6.355 6.355 0 0 0-.098.725c-.06.674-.137.836-.512 1.079-.717.463-.93.482-1.63.145-.583-.281-.9-.36-1.44-.361a2.905 2.905 0 0 0-2.215.977c-.294.325-.686.992-.837 1.427a3.134 3.134 0 0 0-.072 1.65c.207.818.604 1.368 1.349 1.869.606.406.695.567.695 1.254 0 .677-.083.842-.6 1.182-.671.443-.966.764-1.242 1.353-.219.467-.291.846-.27 1.414.015.386.039.526.14.814.186.535.57 1.152.952 1.532.365.363.649.545 1.099.704.846.3 1.624.228 2.539-.234.582-.294.836-.263 1.532.186.375.243.452.405.512 1.079.027.3.071.626.098.725a3.006 3.006 0 0 0 2.328 2.177c.389.079 1.166.082 1.567.005a3.019 3.019 0 0 0 2.345-2.182c.027-.099.071-.425.098-.725.06-.674.137-.836.512-1.079.696-.449.95-.48 1.532-.186.915.462 1.693.534 2.539.234.398-.14.701-.323 1.023-.617.394-.36.88-1.148 1.065-1.727.1-.314.14-1.086.073-1.429a3.104 3.104 0 0 0-1.425-2.011c-.558-.327-.655-.507-.655-1.22 0-.723.063-.839.678-1.244.753-.495 1.155-1.048 1.364-1.874a3.137 3.137 0 0 0-.073-1.656c-.154-.44-.555-1.113-.867-1.453a2.883 2.883 0 0 0-2.184-.945c-.54.001-.857.08-1.44.361-.7.337-.913.318-1.63-.145-.375-.243-.452-.405-.512-1.079a6.355 6.355 0 0 0-.098-.725 3.019 3.019 0 0 0-2.345-2.182c-.387-.074-1.229-.07-1.595.008m1.483 2.043c.216.113.443.37.493.559.023.083.06.379.082.657.07.86.306 1.387.878 1.957.801.797 1.939 1.243 2.86 1.121.459-.061.694-.137 1.163-.374.359-.182.428-.203.661-.203.449-.001.754.235 1.052.815.124.241.148.327.147.533-.001.252-.094.527-.231.681a3.256 3.256 0 0 1-.404.294c-.78.504-1.254 1.161-1.425 1.974-.079.377-.079 1.377 0 1.754.17.808.713 1.556 1.436 1.979.457.267.625.522.626.953 0 .211-.024.298-.15.55-.213.423-.487.696-.782.781-.309.089-.477.056-.964-.188-1.093-.548-2.063-.504-3.161.143-.679.4-1.042.743-1.332 1.257-.229.408-.328.76-.374 1.323-.051.638-.088.772-.268.97-.259.287-.398.335-.97.335-.558 0-.697-.045-.948-.306-.185-.194-.24-.362-.271-.834-.039-.594-.12-.924-.332-1.36-.159-.328-.237-.432-.567-.76a3.25 3.25 0 0 0-.822-.629c-1.15-.651-2.076-.687-3.185-.127-.373.189-.441.21-.675.21-.441.001-.692-.18-1.002-.722-.209-.366-.255-.69-.14-.991.099-.261.197-.364.572-.606.577-.373.911-.733 1.186-1.281.227-.452.303-.847.304-1.566 0-.706-.058-1.033-.264-1.482-.269-.588-.579-.938-1.204-1.358-.402-.27-.495-.369-.594-.629-.115-.301-.069-.625.14-.991.31-.542.561-.723 1.002-.722.233 0 .302.021.661.203.469.237.704.313 1.163.374.653.087 1.278-.065 2.036-.494a3.25 3.25 0 0 0 .822-.629c.33-.328.408-.432.567-.76.212-.436.293-.766.332-1.36.031-.473.086-.64.271-.833.257-.268.446-.327 1.008-.314.358.009.47.026.603.096M11.31 8.063a3.918 3.918 0 0 0-2.131 1.116 3.903 3.903 0 0 0-1.165 3.001c.096 1.833 1.332 3.307 3.126 3.725.464.109 1.319.102 1.78-.014a4.03 4.03 0 0 0 2.971-2.971c.116-.461.123-1.316.014-1.78-.49-2.102-2.51-3.454-4.595-3.077m1.098 1.981C13.31 10.232 14 11.08 14 12c0 1.08-.92 2-2 2s-2-.92-2-2c0-.898.657-1.731 1.534-1.943.263-.064.604-.069.874-.013" fill-rule="evenodd" fill="#000" stroke="none"/></svg>