<svg xmlns="http://www.w3.org/2000/svg" width="24" height="24" fill="none" stroke="currentColor" stroke-width="2" stroke-linecap="round" stroke-linejoin="round"><path d="M6.31 3.063a3.918 3.918 0 0 0-2.131 1.116A3.903 3.903 0 0 0 3.014 7.18c.096 1.833 1.332 3.307 3.126 3.725.464.109 1.319.102 1.78-.014 1.431-.36 2.482-1.37 2.936-2.821.02-.066.277-.07 4.656-.07 5.209 0 4.871.02 5.189-.299a.984.984 0 0 0 0-1.402c-.318-.319.02-.299-5.189-.299-4.379 0-4.636-.004-4.656-.07-.263-.851-.714-1.529-1.365-2.052a4.027 4.027 0 0 0-3.181-.815m1.098 1.981C8.31 5.232 9 6.08 9 7c0 1.08-.92 2-2 2s-2-.92-2-2c0-.898.657-1.731 1.534-1.943.263-.064.604-.069.874-.013m8.902 8.019a3.918 3.918 0 0 0-2.131 1.116c-.458.457-.771.96-.973 1.561l-.08.24-4.193.02-4.193.02-.19.094c-.601.296-.73 1.108-.251 1.587.317.317.039.299 4.689.299 3.903 0 4.136.004 4.156.07.455 1.473 1.534 2.494 2.996 2.835.464.109 1.319.102 1.78-.014a4.03 4.03 0 0 0 2.971-2.971c.116-.461.123-1.316.014-1.78-.49-2.102-2.51-3.454-4.595-3.077m1.098 1.981C18.31 15.232 19 16.08 19 17c0 1.08-.92 2-2 2s-2-.92-2-2c0-.898.657-1.731 1.534-1.943.263-.064.604-.069.874-.013" fill-rule="evenodd" fill="#000" stroke="none"/></svg>