<svg xmlns="http://www.w3.org/2000/svg" width="24" height="24" fill="none" stroke="currentColor" stroke-width="2" stroke-linecap="round" stroke-linejoin="round"><path d="M17.31 1.063a3.918 3.918 0 0 0-2.131 1.116c-.616.616-.968 1.301-1.123 2.188-.074.424-.057 1.095.038 1.485.055.224.054.234-.029.286-.22.139-5.182 3.022-5.2 3.022-.012 0-.174-.123-.361-.272a3.944 3.944 0 0 0-2.684-.874c-1.834.096-3.306 1.331-3.725 3.126-.103.441-.103 1.279 0 1.72a4.017 4.017 0 0 0 3.045 3.045c.441.103 1.279.103 1.72 0a4.204 4.204 0 0 0 1.744-.871c.128-.107.244-.194.257-.194.026 0 5.169 2.987 5.244 3.046.032.025.027.103-.018.284-.092.371-.088 1.279.008 1.69a4.017 4.017 0 0 0 3.045 3.045c.464.109 1.319.102 1.78-.014a4.03 4.03 0 0 0 2.971-2.971c.116-.461.123-1.316.014-1.78-.447-1.919-2.157-3.227-4.085-3.126-.917.048-1.65.33-2.373.915-.161.13-.314.228-.34.217-.235-.101-5.245-3.069-5.237-3.102.145-.638.159-1.39.036-1.894l-.056-.231.325-.194c.645-.387 4.946-2.885 4.966-2.885.011 0 .15.106.31.235a4.072 4.072 0 0 0 1.689.83c.464.109 1.319.102 1.78-.014a4.03 4.03 0 0 0 2.971-2.971c.116-.461.123-1.316.014-1.78-.49-2.102-2.51-3.454-4.595-3.077m1.098 1.981C19.31 3.232 20 4.08 20 5c0 1.08-.92 2-2 2-1.077 0-2-.923-2-2 0-.898.657-1.731 1.534-1.943.263-.064.604-.069.874-.013m-12 7C7.307 10.232 8 11.083 8 12c0 1.077-.923 2-2 2-1.08 0-2-.92-2-2 0-.898.657-1.731 1.534-1.943.263-.064.604-.069.874-.013m12 7C19.31 17.232 20 18.08 20 19c0 1.08-.92 2-2 2s-2-.92-2-2c0-.892.663-1.732 1.534-1.943.263-.064.604-.069.874-.013" fill="#000" fill-rule="evenodd" stroke="none"/></svg>