<svg xmlns="http://www.w3.org/2000/svg" width="24" height="24" fill="none" stroke="currentColor" stroke-width="2" stroke-linecap="round" stroke-linejoin="round"><path d="M11.58 1.096c-.158.076-.641.539-2.325 2.23-1.917 1.926-2.131 2.153-2.19 2.331-.129.39-.044.766.234 1.044s.655.363 1.044.233c.174-.057.342-.21 1.427-1.288L11 4.423v5.361c0 6.025-.022 5.596.299 5.917a.984.984 0 0 0 1.402 0c.321-.321.299.108.299-5.917V4.423l1.23 1.223c1.085 1.078 1.253 1.231 1.427 1.288.389.13.766.045 1.044-.233s.363-.654.234-1.044c-.059-.178-.273-.405-2.19-2.331-1.684-1.691-2.167-2.154-2.325-2.23a.967.967 0 0 0-.84 0m-7.937 9.973a1.06 1.06 0 0 0-.579.599c-.061.182-.065.578-.054 4.536.011 3.834.02 4.359.077 4.536.359 1.129 1.05 1.82 2.173 2.175.178.056.9.064 6.56.075 4.306.008 6.448-.001 6.633-.03a3.034 3.034 0 0 0 2.306-1.8c.231-.547.217-.253.231-4.956.014-4.887.032-4.584-.288-4.904a.984.984 0 0 0-1.403-.001c-.317.317-.299.038-.299 4.701 0 4.663.018 4.384-.299 4.701-.322.322.202.299-6.701.299s-6.379.023-6.701-.299C4.982 20.384 5 20.663 5 16c0-4.663.018-4.384-.299-4.701a.998.998 0 0 0-1.058-.23" fill-rule="evenodd" fill="#000" stroke="none"/></svg>