<svg xmlns="http://www.w3.org/2000/svg" width="24" height="24" fill="none" stroke="currentColor" stroke-width="2" stroke-linecap="round" stroke-linejoin="round"><path d="m11.72 1.037-4.16 1.56c-2.851 1.071-4.101 1.559-4.2 1.638a1.151 1.151 0 0 0-.24.308l-.1.195v4.041c0 3.99.001 4.047.088 4.521.303 1.657 1.011 3.119 2.266 4.68.388.482 1.369 1.49 1.946 1.998 1.134 1 2.843 2.186 4.068 2.824.402.209.654.243.953.129.512-.195 2.037-1.15 3.048-1.908a17.333 17.333 0 0 0 2.044-1.762c1.975-1.94 3.067-3.821 3.459-5.961.087-.474.088-.531.088-4.521V4.738l-.1-.195a1.178 1.178 0 0 0-.245-.312c-.105-.084-1.283-.545-4.24-1.656C12.144.977 12.014.934 11.72 1.037m3.801 3.349 3.483 1.306-.014 3.544c-.016 3.955-.001 3.725-.311 4.675-.685 2.094-2.658 4.334-5.459 6.195-.586.39-1.156.734-1.215.734-.064 0-.796-.444-1.344-.815-3.118-2.112-4.994-4.434-5.552-6.874-.082-.36-.085-.473-.099-3.913l-.014-3.542 3.472-1.305c1.91-.718 3.494-1.306 3.521-1.308.027-.002 1.616.585 3.532 1.303m-.881 4.682c-.153.053-.442.323-1.909 1.785l-1.73 1.724-.73-.723c-.619-.611-.761-.732-.928-.788-.388-.13-.765-.046-1.044.233-.279.278-.363.655-.233 1.044.057.173.203.336 1.189 1.328.771.775 1.179 1.158 1.3 1.216.246.119.51.137.771.053.201-.065.342-.198 2.345-2.195 1.516-1.511 2.156-2.176 2.217-2.301.396-.818-.38-1.674-1.248-1.376" fill-rule="evenodd" fill="#000" stroke="none"/></svg>