<svg xmlns="http://www.w3.org/2000/svg" width="24" height="24" fill="none" stroke="currentColor" stroke-width="2" stroke-linecap="round" stroke-linejoin="round"><path d="M.643.069C.291.193 0 .614 0 1c0 .08.029.234.065.343.059.175.23.362 1.556 1.697l1.491 1.5-.058.16c-.049.136-.055.765-.043 4.18.015 3.902.017 4.033.1 4.46.32 1.655 1.023 3.097 2.263 4.64.388.482 1.369 1.49 1.946 1.998 1.137 1.002 2.843 2.186 4.075 2.828.299.155.364.174.606.174s.308-.019.605-.173c1.473-.764 3.086-1.925 4.506-3.243l.534-.496 2.407 2.401c2.181 2.176 2.425 2.407 2.604 2.466.39.129.766.044 1.045-.235a.986.986 0 0 0 .185-1.144c-.063-.13-3.018-3.107-11.216-11.301C2.368.957 1.525.125 1.343.065a1.038 1.038 0 0 0-.7.004M11.62 1.073C8.657 2.179 8.35 2.301 8.197 2.432c-.242.207-.335.414-.335.748 0 .329.09.534.323.739.205.18.37.241.652.241.21 0 .422-.068 1.702-.546l1.462-.546 3.5 1.311L19 5.69v3.306c0 2.022-.016 3.438-.041 3.645a9.042 9.042 0 0 1-.163.835c-.137.56-.132.705.037 1.018.297.552 1.07.668 1.541.231.157-.146.251-.344.365-.769.244-.913.241-.843.241-5.217V4.738l-.1-.195a1.178 1.178 0 0 0-.245-.312c-.105-.084-1.283-.545-4.24-1.656C11.941.9 12.017.924 11.62 1.073m4.23 16.928a19.21 19.21 0 0 1-2.63 2.105c-.582.387-1.156.734-1.214.734-.121 0-1.389-.818-2.166-1.396-2.635-1.963-4.225-4.078-4.73-6.293-.082-.358-.086-.482-.099-3.551l-.014-3.18 5.612 5.612 5.611 5.612-.37.357" fill-rule="evenodd" fill="#000" stroke="none"/></svg>