<svg xmlns="http://www.w3.org/2000/svg" width="24" height="24" fill="none" stroke="currentColor" stroke-width="2" stroke-linecap="round" stroke-linejoin="round"><path d="m11.72 1.037-4.16 1.56c-2.851 1.071-4.101 1.559-4.2 1.638a1.151 1.151 0 0 0-.24.308l-.1.195v4.041c0 3.99.001 4.047.088 4.521.303 1.657 1.011 3.119 2.266 4.68.388.482 1.369 1.49 1.946 1.998 1.134 1 2.843 2.186 4.068 2.824.402.209.654.243.953.129.512-.195 2.037-1.15 3.048-1.908a17.333 17.333 0 0 0 2.044-1.762c1.975-1.94 3.067-3.821 3.459-5.961.087-.474.088-.531.088-4.521V4.738l-.1-.195a1.178 1.178 0 0 0-.245-.312c-.105-.084-1.283-.545-4.24-1.656C12.144.977 12.014.934 11.72 1.037m3.801 3.349 3.483 1.306-.014 3.544c-.016 3.955-.001 3.725-.311 4.675-.685 2.094-2.658 4.334-5.459 6.195-.586.39-1.156.734-1.215.734-.064 0-.796-.444-1.344-.815-3.118-2.112-4.994-4.434-5.552-6.874-.082-.36-.085-.473-.099-3.913l-.014-3.542 3.472-1.305c1.91-.718 3.494-1.306 3.521-1.308.027-.002 1.616.585 3.532 1.303M9.24 8.035c-.297.097-.552.32-.658.574-.086.206-.079.612.015.811.047.101.422.505 1.019 1.1.519.517.944.958.944.98 0 .022-.425.463-.944.98-.597.595-.972.999-1.019 1.1-.094.199-.101.605-.015.811.079.189.272.392.478.501.211.113.656.119.86.013.077-.04.577-.507 1.11-1.039l.97-.965.97.965c.533.532 1.033.999 1.11 1.039.204.106.649.1.86-.013.206-.109.399-.312.478-.501.086-.206.079-.612-.015-.811-.047-.101-.422-.505-1.019-1.1-.519-.517-.944-.958-.944-.98 0-.022.425-.463.944-.98.597-.595.972-.999 1.019-1.1.094-.199.101-.605.015-.811a1.113 1.113 0 0 0-.478-.501c-.211-.113-.656-.119-.86-.013-.077.04-.577.507-1.11 1.039l-.97.965-.97-.965c-.533-.532-1.031-.997-1.106-1.034-.156-.078-.535-.114-.684-.065" fill-rule="evenodd" fill="#000" stroke="none"/></svg>