<svg xmlns="http://www.w3.org/2000/svg" width="24" height="24" fill="none" stroke="currentColor" stroke-width="2" stroke-linecap="round" stroke-linejoin="round"><path d="M5.495 1.776c-1.519.506-2.438.834-2.65.944-.734.382-1.313 1.13-1.511 1.951-.128.528-.096.896.259 2.986.299 1.764.336 1.941.465 2.212.188.396.517.725.91.911.391.186.605.22 1.376.22h.654l.012 4.77c.014 5.178-.001 4.839.231 5.39a3.09 3.09 0 0 0 1.414 1.502c.687.34.268.314 5.165.328 2.923.009 4.45-.001 4.633-.03a3.032 3.032 0 0 0 2.306-1.8c.232-.549.217-.211.231-5.386l.012-4.766.789-.017c.705-.015.814-.027 1.029-.11.525-.203.894-.538 1.127-1.024.123-.258.164-.454.46-2.2.354-2.086.386-2.451.259-2.986a3.03 3.03 0 0 0-1.826-2.1C20.201 2.311 16.174 1 16.015 1 15.441 1 15 1.465 15 2.069c0 .501-.207 1.151-.507 1.592a2.998 2.998 0 0 1-4.986 0C9.207 3.22 9 2.57 9 2.069 9 1.464 8.558 1 7.983 1c-.105 0-.993.277-2.488.776M7.274 3.63c.121.349.366.837.598 1.19.235.357.945 1.066 1.308 1.306.908.6 1.745.853 2.82.853.665 0 1.037-.057 1.595-.243a5.127 5.127 0 0 0 2.41-1.752c.261-.35.627-1.044.74-1.402.038-.122.089-.222.113-.222.024 0 .793.25 1.71.556 1.099.366 1.713.591 1.803.66.155.118.327.415.365.63.018.098-.071.727-.275 1.948a225.98 225.98 0 0 0-.301 1.824c0 .012-.519.022-1.153.022-1.323 0-1.427.018-1.708.299-.32.32-.299-.082-.299 5.701 0 5.783.021 5.381-.299 5.701-.317.317-.038.299-4.701.299-4.663 0-4.384.018-4.701-.299C6.979 20.381 7 20.783 7 15c0-5.783.021-5.381-.299-5.701C6.42 9.018 6.316 9 4.993 9c-.634 0-1.153-.01-1.153-.022 0-.012-.135-.832-.301-1.824-.204-1.221-.293-1.85-.275-1.948.038-.215.21-.512.365-.63.089-.068.705-.295 1.784-.657a54.494 54.494 0 0 1 1.707-.556c.039-.002.093.09.154.267" fill-rule="evenodd" fill="#000" stroke="none"/></svg>