<svg xmlns="http://www.w3.org/2000/svg" width="24" height="24" fill="none" stroke="currentColor" stroke-width="2" stroke-linecap="round" stroke-linejoin="round"><path d="M5.674 1.059c-.081.03-.196.087-.256.126-.134.088-3.201 4.155-3.328 4.413L2 5.78l.011 7.38c.01 6.648.017 7.4.075 7.58.364 1.133 1.05 1.82 2.174 2.175.179.056.983.064 7.56.075 4.998.008 7.448-.001 7.633-.03a3.034 3.034 0 0 0 2.306-1.8c.236-.558.218.042.231-7.98.011-6.544.005-7.378-.049-7.52-.034-.088-.786-1.123-1.671-2.299-1.486-1.974-1.625-2.147-1.809-2.24l-.199-.101-6.221-.007c-5.136-.006-6.247.002-6.367.046M18.25 4 19 5H5l.75-1 .749-1h11.002l.749 1M20 13.573c0 7.381.024 6.805-.299 7.128-.324.324.322.299-7.701.299s-7.377.025-7.701-.299c-.323-.323-.299.253-.299-7.128V7h16v6.573M7.643 9.069c-.246.087-.496.349-.583.612-.057.171-.067.29-.048.597.056.915.337 1.745.86 2.542.235.357.945 1.066 1.308 1.306.908.6 1.745.853 2.82.853.446 0 .715-.02.96-.072.969-.206 1.772-.623 2.464-1.277.453-.43.774-.869 1.058-1.45.259-.528.371-.885.459-1.46.117-.761.056-1.126-.24-1.421-.648-.648-1.701-.171-1.701.77 0 .501-.207 1.151-.507 1.592a2.998 2.998 0 0 1-4.986 0C9.207 11.22 9 10.57 9 10.069c0-.754-.666-1.244-1.357-1" fill-rule="evenodd" fill="#000" stroke="none"/></svg>