<svg xmlns="http://www.w3.org/2000/svg" width="24" height="24" fill="none" stroke="currentColor" stroke-width="2" stroke-linecap="round" stroke-linejoin="round"><path d="M16.64 1.068c-.139.048-.29.173-.662.547-.53.533-.771.848-1.015 1.325-.337.659-.48 1.272-.48 2.06 0 .801.145 1.414.495 2.085l.174.335-2.825 2.829-2.825 2.829-.981-.973c-.89-.884-1.001-.981-1.195-1.044a1.009 1.009 0 0 0-.77.052c-.126.061-.919.829-2.801 2.716-2.384 2.39-2.631 2.649-2.69 2.828-.057.174-.065.507-.065 2.843 0 2.986-.009 2.894.299 3.201.307.308.215.299 3.201.299 2.336 0 2.669-.008 2.843-.065.179-.059.438-.306 2.828-2.69 1.887-1.882 2.655-2.675 2.716-2.801.119-.245.137-.51.052-.77-.063-.194-.16-.305-1.044-1.195l-.973-.981 2.829-2.824 2.829-2.825.38.193c.652.332 1.274.477 2.045.478 1.344.001 2.401-.478 3.459-1.567.329-.338.417-.455.475-.629a1 1 0 0 0-.052-.768c-.061-.126-.829-.919-2.716-2.801-2.39-2.384-2.649-2.631-2.828-2.69a1.047 1.047 0 0 0-.703.003m3.855 5.977c-.092.102-.601.342-.873.413-.308.08-.936.08-1.244 0a2.607 2.607 0 0 1-1.836-1.836c-.079-.306-.08-.935-.001-1.244.068-.266.253-.669.385-.836l.086-.11 1.773 1.773c1.637 1.637 1.767 1.777 1.71 1.84M8.8 15.22 10.58 17l-2 2-2 2H3v-3.58l1.99-1.99A143.621 143.621 0 0 1 7 13.44c.011 0 .821.801 1.8 1.78" fill-rule="evenodd" fill="#000" stroke="none"/></svg>