<svg xmlns="http://www.w3.org/2000/svg" width="24" height="24" fill="none" stroke="currentColor" stroke-width="2" stroke-linecap="round" stroke-linejoin="round"><path d="M2.643 2.069C2.291 2.193 2 2.614 2 3c0 .08.029.234.065.343.059.178.278.41 2.289 2.427L6.578 8H5.316c-1.444 0-1.533.015-1.817.299a.984.984 0 0 0 0 1.402c.307.307.227.299 3.101.299s2.794.008 3.101-.299c.307-.307.299-.227.299-3.101s.008-2.794-.299-3.101a.984.984 0 0 0-1.402 0C8.015 3.783 8 3.872 8 5.316v1.262L5.77 4.354c-2.017-2.011-2.249-2.23-2.427-2.289a1.032 1.032 0 0 0-.7.004m17.997-.001c-.154.053-.499.38-2.41 2.286L16 6.578V5.316c0-1.444-.015-1.533-.299-1.817a.984.984 0 0 0-1.402 0C13.992 3.806 14 3.726 14 6.6s-.008 2.794.299 3.101c.307.307.227.299 3.101.299s2.794.008 3.101-.299a.984.984 0 0 0 0-1.402C20.217 8.015 20.128 8 18.684 8h-1.262l2.224-2.23c2.011-2.017 2.23-2.249 2.289-2.427a1.004 1.004 0 0 0-1.295-1.275M3.843 14.069c-.352.124-.643.545-.643.931 0 .396.291.808.66.934.165.056.387.066 1.456.066h1.262l-2.224 2.23c-2.011 2.017-2.23 2.249-2.289 2.427-.129.39-.044.766.234 1.044s.654.363 1.044.234c.178-.059.41-.278 2.427-2.289L8 17.422v1.262c0 1.444.015 1.533.299 1.817a.984.984 0 0 0 1.402 0c.307-.307.299-.227.299-3.101s.008-2.794-.299-3.101c-.307-.307-.224-.299-3.118-.296-2.214.003-2.587.012-2.74.066m10.8 0a1.118 1.118 0 0 0-.343.229c-.308.308-.3.227-.3 3.102 0 2.874-.008 2.794.299 3.101.18.18.459.299.701.299.396 0 .808-.291.934-.66.056-.165.066-.387.066-1.456v-1.262l2.23 2.224c2.017 2.011 2.249 2.23 2.427 2.289.39.129.766.044 1.044-.234s.363-.654.234-1.044c-.059-.178-.278-.41-2.289-2.427L17.422 16h1.262c1.444 0 1.533-.015 1.817-.299a.984.984 0 0 0 0-1.402c-.307-.307-.224-.299-3.118-.296-2.214.003-2.587.012-2.74.066" fill-rule="evenodd" fill="#000" stroke="none"/></svg>