<svg xmlns="http://www.w3.org/2000/svg" width="24" height="24" fill="none" stroke="currentColor" stroke-width="2" stroke-linecap="round" stroke-linejoin="round"><path d="M15.643 2.069C15.291 2.193 15 2.614 15 3c0 .396.291.808.66.934.166.056.393.066 1.557.066h1.363l-7.725 7.73c-7.133 7.137-7.73 7.745-7.79 7.927-.128.39-.044.766.234 1.044s.654.362 1.044.234c.182-.06.79-.657 7.927-7.79L20 5.42v1.363c0 1.556.012 1.631.299 1.918a.984.984 0 0 0 1.402 0c.308-.308.299-.211.299-3.238l-.001-2.683-.094-.2a.951.951 0 0 0-.505-.497c-.176-.079-.247-.081-2.88-.079-2.339.002-2.724.011-2.877.065m-12 1c-.53.187-.786.849-.53 1.375.061.126.829.919 2.716 2.801 2.39 2.384 2.649 2.631 2.828 2.69.39.129.766.044 1.045-.235a.986.986 0 0 0 .185-1.144c-.061-.126-.829-.919-2.716-2.801-2.39-2.384-2.649-2.631-2.828-2.69a1.032 1.032 0 0 0-.7.004m11 11c-.352.124-.643.545-.643.931 0 .08.029.234.065.343.059.178.278.41 2.289 2.427L18.578 20h-1.362c-1.163 0-1.39.01-1.556.066-.369.126-.66.538-.66.934 0 .242.119.521.299.701.308.308.211.299 3.238.299l2.683-.001.2-.094a.951.951 0 0 0 .497-.505c.079-.175.081-.25.082-2.863.001-3.027.01-2.93-.298-3.238a.984.984 0 0 0-1.402 0c-.287.287-.299.362-.299 1.917v1.362l-2.23-2.224c-2.017-2.011-2.249-2.23-2.427-2.289a1.032 1.032 0 0 0-.7.004" fill="#000" fill-rule="evenodd" stroke="none"/></svg>