<svg xmlns="http://www.w3.org/2000/svg" width="24" height="24" fill="none" stroke="currentColor" stroke-width="2" stroke-linecap="round" stroke-linejoin="round"><path d="M4.62 2.025c-.408.08-.533.114-.75.202-.881.358-1.549 1.137-1.794 2.093-.083.327-.084 15.031 0 15.357.281 1.099 1.041 1.876 2.184 2.238.179.056.983.064 7.56.075 4.998.008 7.448-.001 7.633-.03 1.19-.183 2.167-1.084 2.471-2.28.083-.328.084-15.032 0-15.357-.307-1.197-1.264-2.09-2.444-2.28-.246-.04-14.661-.057-14.86-.018M8 12v8H6.427c-1.79 0-1.835-.006-2.129-.3-.324-.324-.3.328-.288-7.782L4.02 4.7l.111-.189c.061-.103.173-.236.25-.294.273-.208.319-.213 2.029-.215L8 4v8m11.34-7.934c.115.039.263.135.361.233.324.324.299-.322.299 7.701s.025 7.377-.299 7.701c-.318.318.013.299-5.128.299H10V4h4.573c4.151 0 4.591.006 4.767.066m-6.697 3.003C12.291 7.193 12 7.614 12 8c0 .08.029.234.065.343.059.177.244.376 1.789 1.927L15.578 12l-1.724 1.73c-1.545 1.551-1.73 1.75-1.789 1.927-.129.39-.044.766.235 1.045a.99.99 0 0 0 1.144.186c.125-.061.79-.701 2.301-2.217 1.997-2.003 2.13-2.144 2.195-2.345a1.018 1.018 0 0 0-.052-.77c-.061-.125-.701-.79-2.217-2.301-1.924-1.919-2.15-2.131-2.328-2.19a1.032 1.032 0 0 0-.7.004" fill-rule="evenodd" fill="#000" stroke="none"/></svg>