<svg xmlns="http://www.w3.org/2000/svg" width="24" height="24" fill="none" stroke="currentColor" stroke-width="2" stroke-linecap="round" stroke-linejoin="round"><path d="M5.643 3.069a1.066 1.066 0 0 0-.577.591.963.963 0 0 0-.017.635c.033.114.923 1.332 2.86 3.915 1.546 2.063 2.811 3.768 2.811 3.79 0 .022-1.265 1.727-2.811 3.79-1.937 2.583-2.827 3.801-2.86 3.915a.984.984 0 0 0 .25.996c.322.322-.202.299 6.701.299s6.379.023 6.701-.299c.294-.294.299-.33.299-2.201s-.005-1.907-.299-2.201a.984.984 0 0 0-1.402 0c-.278.278-.299.393-.299 1.628V19H8l2.451-3.27c1.681-2.242 2.467-3.322 2.5-3.435a.959.959 0 0 0 0-.59c-.033-.113-.819-1.193-2.5-3.435L8 5h9v1.073c0 1.235.021 1.35.299 1.628a.984.984 0 0 0 1.402 0c.294-.294.299-.33.299-2.201s-.005-1.907-.299-2.201c-.323-.323.205-.299-6.718-.296-5.475.003-6.183.01-6.34.066" fill-rule="evenodd" fill="#000" stroke="none"/></svg>