<svg xmlns="http://www.w3.org/2000/svg" width="24" height="24" fill="none" stroke="currentColor" stroke-width="2" stroke-linecap="round" stroke-linejoin="round"><path d="M16.643 7.069a1.118 1.118 0 0 0-.343.229c-.324.323-.3-.202-.3 6.702 0 6.903-.023 6.379.299 6.701a.984.984 0 0 0 1.402 0c.322-.322.299.202.299-6.701s.023-6.379-.299-6.701a.998.998 0 0 0-1.058-.23m-5 4a1.118 1.118 0 0 0-.343.229c-.318.318-.3.038-.3 4.702 0 4.663-.018 4.384.299 4.701a.984.984 0 0 0 1.402 0c.317-.317.299-.038.299-4.701 0-4.663.018-4.384-.299-4.701a.998.998 0 0 0-1.058-.23m-5 4a1.118 1.118 0 0 0-.343.229c-.303.303-.3.274-.3 2.702 0 2.427-.003 2.399.299 2.701a.984.984 0 0 0 1.402 0C8.003 20.399 8 20.427 8 18s.003-2.399-.299-2.701a.998.998 0 0 0-1.058-.23m-5 3.997C1.288 19.197 1 19.615 1 20c0 .729.814 1.222 1.465.887.711-.365.708-1.41-.004-1.776-.211-.109-.588-.129-.818-.045" fill-rule="evenodd" fill="#000" stroke="none"/></svg>