<svg xmlns="http://www.w3.org/2000/svg" width="24" height="24" fill="none" stroke="currentColor" stroke-width="2" stroke-linecap="round" stroke-linejoin="round"><path d="M18.66 3.063c-.103.037-1.995 1.525-5.304 4.173C7.603 11.837 8.02 11.465 8.02 12c0 .534-.412.166 5.296 4.734 2.807 2.246 5.173 4.119 5.258 4.161a.988.988 0 0 0 1.126-.193c.327-.326.3.444.3-8.702 0-9.144.026-8.376-.299-8.701a1 1 0 0 0-1.041-.236M4.643 4.069a1.118 1.118 0 0 0-.343.229C3.975 4.623 4 3.975 4 12c0 8.023-.025 7.377.299 7.701a.984.984 0 0 0 1.402 0C6.025 19.377 6 20.023 6 12s.025-7.377-.299-7.701a.998.998 0 0 0-1.058-.23M18 12v5.92l-3.682-2.945c-2.024-1.62-3.675-2.964-3.668-2.986.01-.03 7.296-5.893 7.34-5.906.005-.002.01 2.661.01 5.917" fill="#000" fill-rule="evenodd" stroke="none"/></svg>