<svg xmlns="http://www.w3.org/2000/svg" width="24" height="24" fill="none" stroke="currentColor" stroke-width="2" stroke-linecap="round" stroke-linejoin="round"><path d="M4.643 3.067a1.145 1.145 0 0 0-.343.231C3.973 3.624 4 2.855 4 12c0 9.146-.027 8.376.3 8.702a.988.988 0 0 0 1.126.193c.085-.042 2.451-1.915 5.258-4.161 5.708-4.568 5.296-4.2 5.296-4.734 0-.534.412-.166-5.296-4.734-2.807-2.246-5.175-4.12-5.262-4.163a1.12 1.12 0 0 0-.779-.036m14 1.002a1.118 1.118 0 0 0-.343.229c-.325.325-.3-.323-.3 7.702 0 8.023-.025 7.377.299 7.701a.984.984 0 0 0 1.402 0c.324-.324.299.322.299-7.701s.025-7.377-.299-7.701a.998.998 0 0 0-1.058-.23M13.36 12c0 .018-1.656 1.357-3.68 2.976L6 17.92V6.08l3.68 2.944c2.024 1.619 3.68 2.958 3.68 2.976" fill="#000" fill-rule="evenodd" stroke="none"/></svg>