<svg xmlns="http://www.w3.org/2000/svg" width="24" height="24" fill="none" stroke="currentColor" stroke-width="2" stroke-linecap="round" stroke-linejoin="round"><path d="M11.06 2.047c-3.036.306-5.803 2.248-7.14 5.011-.646 1.335-.897 2.437-.898 3.942 0 .945.049 1.366.262 2.216a9.406 9.406 0 0 0 1.738 3.469l.183.226-.091.294c-.111.355-.13 1.114-.038 1.472.142.553.431 1.062.829 1.456.248.246.693.543.945.631l.15.052v.665c0 .786.044.965.299 1.22.317.317.038.299 4.701.299 4.663 0 4.384.018 4.701-.299.255-.255.299-.434.299-1.222v-.666l.169-.056c.417-.138 1.069-.692 1.364-1.16.445-.705.58-1.652.346-2.411l-.085-.274.183-.226a9.445 9.445 0 0 0 1.74-3.47c.206-.822.263-1.303.261-2.236-.003-1.483-.26-2.606-.898-3.92a9.002 9.002 0 0 0-9.02-5.013m2.14 2.054a6.86 6.86 0 0 1 1.9.639c.768.383 1.24.721 1.84 1.32 1.073 1.071 1.706 2.315 1.986 3.9.069.392.069 1.684 0 2.08-.261 1.501-.876 2.745-1.888 3.815-.356.378-.437.516-.466.804-.026.246.032.452.195.691.064.093.143.244.175.335.226.641-.273 1.312-.979 1.316-.361.002-.702.23-.868.579-.086.183-.094.252-.095.81V21H9v-.61c-.001-.558-.009-.627-.095-.81-.166-.349-.507-.577-.868-.579-.706-.004-1.205-.675-.979-1.316.032-.091.111-.242.175-.335.163-.239.221-.445.195-.691-.029-.284-.11-.429-.425-.759-1.245-1.305-1.911-2.851-1.989-4.62-.054-1.212.18-2.283.746-3.42a6.227 6.227 0 0 1 1.3-1.8 6.26 6.26 0 0 1 1.8-1.3c.798-.399 1.527-.616 2.46-.735.305-.038 1.513.01 1.88.076m-4.666 5.956C7.657 10.269 7 11.102 7 12c0 1.08.92 2 2 2s2-.92 2-2c0-1.096-.934-2.013-2.032-1.997a2.342 2.342 0 0 0-.434.054m6 0C13.657 10.269 13 11.102 13 12c0 1.08.92 2 2 2s2-.92 2-2c0-1.096-.934-2.013-2.032-1.997a2.342 2.342 0 0 0-.434.054m-2.875 5.007c-.321.113-.436.255-.799.981-.322.643-.34.693-.34.938 0 .417.176.714.54.911.148.08.216.086.94.086s.792-.006.94-.086c.364-.197.54-.494.54-.911 0-.245-.018-.295-.34-.938-.368-.736-.479-.869-.815-.984a1.007 1.007 0 0 0-.666.003" fill-rule="evenodd" fill="#000" stroke="none"/></svg>