<svg xmlns="http://www.w3.org/2000/svg" width="24" height="24" fill="none" stroke="currentColor" stroke-width="2" stroke-linecap="round" stroke-linejoin="round"><path d="M7.96 1.062c-.927.199-1.705.984-1.9 1.918a2.487 2.487 0 0 0 1.3 2.732c.498.249.737.286 1.843.287 1.092.001 1.226-.026 1.498-.298.272-.272.299-.406.298-1.498-.001-1.098-.038-1.341-.281-1.834-.492-1-1.645-1.546-2.758-1.307m6 0c-.927.199-1.705.984-1.9 1.918-.087.413-.087 5.627 0 6.04.279 1.332 1.618 2.201 2.96 1.92.935-.196 1.726-.987 1.92-1.92.087-.414.086-5.628 0-6.04-.28-1.341-1.628-2.208-2.98-1.918m-5.236 2c.201.104.276.274.276.628V4h-.302c-.35 0-.504-.063-.62-.252a.478.478 0 0 1 .174-.67.453.453 0 0 1 .472-.016m6 0c.066.034.155.12.198.19.075.124.078.22.078 2.748s-.003 2.624-.078 2.748A.54.54 0 0 1 14.5 9a.54.54 0 0 1-.422-.252c-.075-.123-.078-.22-.078-2.74 0-2.883-.01-2.77.252-2.93a.453.453 0 0 1 .472-.016m5.236 3c-.927.199-1.705.984-1.9 1.918-.088.423-.084 2.095.006 2.36.087.253.341.507.594.594.265.09 1.937.094 2.36.006 1.331-.278 2.201-1.619 1.92-2.96-.28-1.339-1.63-2.208-2.98-1.918m-17 1a2.518 2.518 0 0 0-1.675 1.3c-.376.762-.375 1.514.001 2.277.315.639.985 1.154 1.694 1.301.414.087 5.628.086 6.04 0 1.331-.278 2.201-1.619 1.92-2.96a2.527 2.527 0 0 0-1.92-1.92c-.402-.084-5.667-.082-6.06.002m17.764 1A.56.56 0 0 1 21 8.5a.56.56 0 0 1-.276.438c-.077.04-.228.062-.422.062H20v-.302c0-.35.063-.504.252-.62a.453.453 0 0 1 .472-.016M8.748 9.078c.328.2.328.644 0 .844-.123.075-.22.078-2.74.078-2.883 0-2.77.01-2.93-.252a.478.478 0 0 1 .174-.67C3.376 9.003 3.472 9 6 9s2.624.003 2.748.078m6.212 2.984a2.518 2.518 0 0 0-1.675 1.3c-.376.762-.375 1.514.001 2.277.315.639.985 1.154 1.694 1.301.414.087 5.628.086 6.04 0 1.331-.278 2.201-1.619 1.92-2.96a2.527 2.527 0 0 0-1.92-1.92c-.402-.084-5.667-.082-6.06.002m-12 1c-.927.199-1.705.984-1.9 1.918-.369 1.765 1.195 3.329 2.96 2.96.935-.196 1.726-.987 1.92-1.92.088-.424.084-2.096-.006-2.36a1.046 1.046 0 0 0-.594-.594c-.258-.088-1.976-.091-2.38-.004m6 0c-.927.199-1.705.984-1.9 1.918-.087.413-.087 5.627 0 6.04.279 1.332 1.618 2.201 2.96 1.92.935-.196 1.726-.987 1.92-1.92.087-.414.086-5.628 0-6.04-.28-1.341-1.628-2.208-2.98-1.918m11.788 1.016A.54.54 0 0 1 21 14.5a.54.54 0 0 1-.252.422c-.123.075-.22.078-2.74.078-2.883 0-2.77.01-2.93-.252a.478.478 0 0 1 .174-.67c.124-.075.22-.078 2.748-.078s2.624.003 2.748.078M4 15.31c0 .354-.075.524-.276.628a.483.483 0 0 1-.646-.19.478.478 0 0 1 .174-.67c.098-.059.201-.078.438-.078H4v.31m5.724-.248c.066.034.155.12.198.19.075.124.078.22.078 2.748s-.003 2.624-.078 2.748A.54.54 0 0 1 9.5 21a.54.54 0 0 1-.422-.252c-.075-.123-.078-.22-.078-2.74 0-2.883-.01-2.77.252-2.93a.453.453 0 0 1 .472-.016m3.919 3.007a1.066 1.066 0 0 0-.577.591c-.09.265-.094 1.937-.006 2.36.279 1.333 1.617 2.201 2.96 1.92 1.126-.235 1.979-1.287 1.979-2.44 0-1.157-.849-2.204-1.979-2.44-.407-.085-2.129-.079-2.377.009m2.105 2.009A.54.54 0 0 1 16 20.5c0 .244-.252.5-.492.5a.537.537 0 0 1-.43-.252c-.059-.098-.078-.201-.078-.438V20h.31c.237 0 .34.019.438.078" fill-rule="evenodd" fill="#000" stroke="none"/></svg>