<svg xmlns="http://www.w3.org/2000/svg" width="24" height="24" fill="none" stroke="currentColor" stroke-width="2" stroke-linecap="round" stroke-linejoin="round"><path d="M11.16 1.025c-1.561.147-2.998.563-4.271 1.236C4.029 3.775 1.954 6.483 1.265 9.6c-.195.887-.242 1.348-.242 2.4 0 .727.018 1.104.07 1.46.366 2.489 1.384 4.537 3.126 6.282.686.689 1.053.991 1.781 1.469 1.357.891 2.852 1.449 4.54 1.695.671.098 2.249.098 2.92 0 1.939-.283 3.66-.992 5.157-2.125a11.036 11.036 0 0 0 4.118-6.387c.194-.871.241-1.341.241-2.394 0-.724-.018-1.105-.07-1.46-.292-2-1.028-3.742-2.259-5.34-.388-.503-1.474-1.567-2.01-1.969A10.98 10.98 0 0 0 13.6 1.118c-.525-.079-1.991-.135-2.44-.093m1.703 2.018a9.005 9.005 0 0 1 7.22 5.017 8.958 8.958 0 0 1 0 7.882c-.26.533-.825 1.438-.99 1.587-.073.066-.303-.159-6.386-6.242l-6.31-6.31.091-.085c.226-.209 1.048-.72 1.566-.973a8.99 8.99 0 0 1 4.809-.876m4.666 16.05c-.149.165-1.054.73-1.587.99-4.458 2.18-9.837.327-12.025-4.143a8.961 8.961 0 0 1-.454-6.78c.293-.881.879-1.992 1.368-2.594l.141-.174 6.312 6.312c6.086 6.086 6.311 6.316 6.245 6.389" fill="#000" fill-rule="evenodd" stroke="none"/></svg>