<svg xmlns="http://www.w3.org/2000/svg" width="24" height="24" fill="none" stroke="currentColor" stroke-width="2" stroke-linecap="round" stroke-linejoin="round"><path d="M6.62 1.025c-.408.08-.533.114-.75.202-.881.358-1.549 1.137-1.794 2.093-.083.327-.084 17.03 0 17.357.281 1.099 1.043 1.878 2.184 2.238.177.055.818.064 5.56.075 3.614.008 5.449-.001 5.633-.03 1.19-.183 2.167-1.084 2.471-2.28.083-.328.084-17.032 0-17.357-.307-1.197-1.264-2.09-2.444-2.28-.246-.04-10.662-.057-10.86-.018m10.72 2.041c.253.087.507.341.594.594.061.178.066.863.066 8.34 0 9.144.026 8.376-.299 8.701-.32.32.082.299-5.701.299-5.784 0-5.381.021-5.702-.3-.325-.325-.3.449-.288-8.781L6.02 3.7l.111-.189c.125-.213.318-.375.539-.454.122-.044 1.104-.054 5.313-.055 4.703-.002 5.18.004 5.357.064M12.4 7.037a1.041 1.041 0 0 0-.445.269c-.182.196-2.839 4.216-2.899 4.384a.992.992 0 0 0 .494 1.196c.183.091.234.095 1.38.114l1.19.02-.802 1.2c-.442.66-.84 1.272-.887 1.36-.178.337-.084.844.209 1.128.211.205.384.272.7.27.312-.001.522-.086.705-.284.182-.197 2.839-4.216 2.899-4.384a.992.992 0 0 0-.494-1.196c-.183-.091-.234-.095-1.38-.114l-1.19-.02.841-1.26c.936-1.402 1.003-1.541.922-1.901-.13-.583-.707-.945-1.243-.782" fill-rule="evenodd" fill="#000" stroke="none"/></svg>