<svg xmlns="http://www.w3.org/2000/svg" width="24" height="24" fill="none" stroke="currentColor" stroke-width="2" stroke-linecap="round" stroke-linejoin="round"><path d="M11.643 1.069a1.066 1.066 0 0 0-.577.591c-.058.17-.066.428-.066 2.056v1.861L9.77 4.354C8.685 3.276 8.517 3.123 8.343 3.066c-.389-.13-.766-.045-1.044.233s-.363.655-.234 1.044c.059.177.258.391 2 2.138L11 8.422V11H8.422L6.481 9.065c-1.747-1.742-1.961-1.941-2.138-2-.389-.129-.766-.044-1.044.234s-.363.655-.233 1.044c.057.174.21.342 1.288 1.427L5.577 11H3.716c-2.111 0-2.119.001-2.417.299a.984.984 0 0 0 0 1.402c.298.298.306.299 2.417.299h1.861l-1.223 1.23c-1.078 1.085-1.231 1.253-1.288 1.427-.13.389-.045.766.233 1.044s.655.363 1.044.234c.177-.059.391-.258 2.138-2L8.422 13H11v2.578l-1.935 1.941c-1.742 1.747-1.941 1.961-2 2.138-.129.389-.044.766.234 1.044s.655.363 1.044.233c.174-.057.342-.21 1.427-1.288L11 18.423v1.861c0 2.111.001 2.119.299 2.417a.984.984 0 0 0 1.402 0c.298-.298.299-.306.299-2.417v-1.861l1.23 1.223c1.085 1.078 1.253 1.231 1.427 1.288.389.13.766.045 1.044-.233s.363-.655.234-1.044c-.059-.177-.258-.391-2-2.138L13 15.578V13h2.578l1.941 1.935c1.747 1.742 1.961 1.941 2.138 2 .389.129.766.044 1.044-.234s.363-.655.233-1.044c-.057-.174-.21-.342-1.288-1.427L18.423 13h1.861c2.111 0 2.119-.001 2.417-.299a.984.984 0 0 0 0-1.402c-.298-.298-.306-.299-2.417-.299h-1.861l1.223-1.23c1.078-1.085 1.231-1.253 1.288-1.427.13-.389.045-.766-.233-1.044s-.655-.363-1.044-.234c-.177.059-.391.258-2.138 2L15.578 11H13V8.422l1.935-1.941c1.742-1.747 1.941-1.961 2-2.138.129-.389.044-.766-.234-1.044s-.655-.363-1.044-.233c-.174.057-.342.21-1.427 1.288L13 5.577V3.716c0-2.111-.001-2.119-.299-2.417a.998.998 0 0 0-1.058-.23" fill-rule="evenodd" fill="#000" stroke="none"/></svg>