<svg xmlns="http://www.w3.org/2000/svg" width="24" height="24" fill="none" stroke="currentColor" stroke-width="2" stroke-linecap="round" stroke-linejoin="round"><path d="M5.643 3.069a1.118 1.118 0 0 0-.343.229c-.325.325-.3-.288-.3 7.417v6.86l-.73-.721C3.496 16.088 3.364 16 3 16c-.563 0-1.044.523-.991 1.078.036.376.109.463 1.82 2.167 1.459 1.453 1.652 1.631 1.828 1.69.109.036.263.065.343.065.08 0 .234-.029.343-.065.176-.059.369-.237 1.828-1.69 1.711-1.704 1.784-1.791 1.82-2.167C10.044 16.523 9.563 16 9 16c-.364 0-.496.088-1.27.854l-.73.721v-6.86c0-7.704.025-7.092-.299-7.416a.998.998 0 0 0-1.058-.23m5 1C10.291 4.193 10 4.614 10 5c0 .242.119.521.299.701.302.302.274.299 2.701.299s2.399.003 2.701-.299a.984.984 0 0 0 0-1.402c-.303-.303-.271-.299-2.718-.296-1.851.003-2.188.012-2.34.066m0 4C10.291 8.193 10 8.614 10 9c0 .242.119.521.299.701.314.314.097.299 4.201.299 4.104 0 3.887.015 4.201-.299a.984.984 0 0 0 0-1.402c-.315-.315-.094-.299-4.218-.296-3.21.003-3.685.011-3.84.066m0 4c-.352.124-.643.545-.643.931 0 .242.119.521.299.701.32.32-.082.299 5.701.299 5.783 0 5.381.021 5.701-.299a.984.984 0 0 0 0-1.402c-.32-.32.085-.299-5.718-.296-4.569.003-5.183.01-5.34.066" fill-rule="evenodd" fill="#000" stroke="none"/></svg>