<svg xmlns="http://www.w3.org/2000/svg" width="24" height="24" fill="none" stroke="currentColor" stroke-width="2" stroke-linecap="round" stroke-linejoin="round"><path d="M5.62 1.025c-.408.08-.533.114-.75.202-.881.358-1.549 1.137-1.794 2.093-.083.327-.084 17.03 0 17.357.281 1.099 1.042 1.877 2.184 2.238.178.056.9.064 6.56.075 4.306.008 6.448-.001 6.633-.03 1.19-.183 2.167-1.084 2.471-2.28.083-.328.084-17.032 0-17.357-.307-1.197-1.264-2.09-2.444-2.28-.246-.04-12.661-.057-12.86-.018m12.72 2.041c.253.087.507.341.594.594.061.178.066.863.066 8.34 0 9.144.026 8.376-.299 8.701-.322.322.202.299-6.701.299-6.905 0-6.379.024-6.702-.3-.325-.325-.3.449-.288-8.781L5.02 3.7l.111-.189c.125-.213.318-.375.539-.454.123-.044 1.269-.054 6.313-.055 5.634-.002 6.179.004 6.357.064m-6.697 2C11.288 5.197 11 5.615 11 6c0 .729.814 1.222 1.465.887.711-.365.708-1.41-.004-1.776-.211-.109-.588-.129-.818-.045m-.383 3.99c-1.663.279-3.001 1.257-3.737 2.729-.359.719-.502 1.35-.502 2.215 0 .446.02.715.072.96.22 1.035.648 1.826 1.385 2.561.744.741 1.529 1.166 2.562 1.386.471.1 1.449.1 1.92 0 .969-.206 1.772-.623 2.464-1.277a4.811 4.811 0 0 0 1.059-1.45c.794-1.62.664-3.448-.355-5-.248-.377-.955-1.077-1.348-1.335a5.128 5.128 0 0 0-1.8-.746c-.426-.09-1.31-.111-1.72-.043m1.332 2.007c1.621.333 2.675 1.918 2.345 3.529-.333 1.621-1.92 2.676-3.529 2.344-1.852-.381-2.9-2.357-2.173-4.097a3.015 3.015 0 0 1 3.357-1.776" fill="#000" fill-rule="evenodd" stroke="none"/></svg>