<svg width="24" height="24" xmlns="http://www.w3.org/2000/svg" fill="none" stroke="currentColor" stroke-width="2" stroke-linecap="round" stroke-linejoin="round"><path d="M18.283 3.044c-1.247.111-2.467.471-3.352.989-.738.432-1.511 1.142-1.822 1.671-.658 1.124-1.107 2.659-1.109 3.798 0 .147-.042.297-.154.55l-.154.348-.193-.29c-.803-1.212-1.842-1.988-3.223-2.405-1.1-.332-2.448-.387-3.995-.163-.231.034-.509.09-.617.125-.411.133-.699.586-.653 1.028.012.113.106.439.21.725.784 2.167 1.867 3.536 3.399 4.299.531.265.914.399 1.517.53.564.124 2.105.125 2.863.002.275-.044.511-.069.525-.056.052.051.241 1.444.262 1.925.026.607-.038.963-.253 1.398-.241.49-.809.996-1.524 1.357L9.762 19H8.308c-1.657 0-1.719.009-2.009.299a.984.984 0 0 0 0 1.402c.32.32-.082.299 5.701.299 5.783 0 5.381.021 5.701-.299a.984.984 0 0 0 0-1.402c-.301-.301-.282-.299-2.628-.299-1.14 0-2.073-.01-2.073-.023 0-.012.052-.098.115-.19.301-.44.529-1.063.632-1.727.08-.52.049-1.332-.084-2.22l-.179-1.186c-.112-.745-.141-1.328-.088-1.761.047-.381.178-.872.244-.913a5.7 5.7 0 0 1 .581-.103c1.684-.247 3.14-.898 3.972-1.777 1.073-1.134 1.653-2.684 1.79-4.784.034-.532-.031-.766-.281-1.016-.289-.289-.538-.334-1.419-.256M17.88 5.19c-.001.103-.149.71-.247 1.01a5.39 5.39 0 0 1-.517 1.065c-.411.599-.837.914-1.702 1.257-.342.136-1.287.378-1.325.34-.041-.041.15-.82.29-1.183.193-.502.443-.979.612-1.167.513-.571 1.319-1.023 2.269-1.273.523-.138.62-.145.62-.049M6.92 9.458c1.566.212 2.578.964 3.324 2.47.095.192.159.362.143.378-.016.016-.33.037-.698.046-.5.012-.763 0-1.04-.048-1.369-.238-2.354-1.028-3.095-2.483-.148-.291-.165-.349-.114-.381.09-.058 1.001-.046 1.48.018" fill-rule="evenodd" fill="#000" stroke="none"/></svg>