<svg xmlns="http://www.w3.org/2000/svg" width="24" height="24" fill="none" stroke="currentColor" stroke-width="2" stroke-linecap="round" stroke-linejoin="round"><path d="M11.643 1.067c-.372.136-.391.168-1.943 3.329-.792 1.613-1.458 2.94-1.48 2.948-.022.008-1.471.223-3.22.477-1.749.253-3.258.49-3.354.525a.987.987 0 0 0-.47 1.476c.046.067 1.133 1.144 2.414 2.394a219.472 219.472 0 0 1 2.33 2.288c0 .01-.245 1.444-.544 3.187-.602 3.51-.602 3.515-.393 3.854.173.28.432.429.782.448.344.02.124.124 3.527-1.667 1.469-.773 2.689-1.406 2.71-1.406.021 0 1.347.688 2.947 1.529 2.877 1.513 2.912 1.53 3.177 1.545.591.033 1.034-.379 1.034-.963 0-.116-.243-1.628-.54-3.36a859.59 859.59 0 0 1-.54-3.167c0-.009 1.049-1.039 2.33-2.288 1.282-1.249 2.368-2.326 2.414-2.393.267-.39.21-.948-.13-1.271-.236-.224-.343-.245-3.694-.733-1.771-.257-3.232-.48-3.246-.494-.015-.014-.669-1.33-1.453-2.925-.785-1.595-1.477-2.963-1.538-3.04-.239-.3-.741-.432-1.12-.293m1.499 5.509c1.212 2.449 1.236 2.488 1.584 2.613.074.027 1.249.211 2.611.41 1.362.199 2.482.367 2.488.373.007.006-.807.809-1.807 1.783-1.153 1.122-1.85 1.83-1.901 1.931-.155.305-.147.392.301 2.99.233 1.351.415 2.464.406 2.474-.01.01-.924-.459-2.031-1.041a320.77 320.77 0 0 0-2.253-1.179c-.292-.146-.509-.186-.733-.136-.093.021-1.169.564-2.391 1.206-1.221.643-2.229 1.16-2.24 1.15-.01-.011.172-1.124.406-2.475.448-2.598.457-2.684.301-2.989-.052-.102-.746-.808-1.9-1.932a111.576 111.576 0 0 1-1.809-1.781c.005-.005 1.125-.173 2.488-.373 1.363-.199 2.541-.384 2.618-.411.077-.027.221-.131.32-.231.153-.154.345-.518 1.28-2.428a150.217 150.217 0 0 1 1.113-2.248c.007-.001.524 1.031 1.149 2.294" fill="#000" fill-rule="evenodd" stroke="none"/></svg>