<svg xmlns="http://www.w3.org/2000/svg" width="24" height="24" fill="none" stroke="currentColor" stroke-width="2" stroke-linecap="round" stroke-linejoin="round"><path d="M11.644 1.069c-.375.132-.385.149-1.907 3.351L8.33 7.38l-3.255.467c-1.79.257-3.319.486-3.397.509-.189.056-.46.294-.568.498-.123.233-.123.66 0 .893.059.11.884.931 2.449 2.434a287.602 287.602 0 0 1 2.361 2.28c0 .006-.252 1.459-.56 3.229-.308 1.77-.56 3.271-.56 3.337 0 .635.705 1.13 1.305.918.252-.089 6.382-3.263 6.535-3.383.177-.14.327-.429.351-.679.066-.694-.646-1.259-1.296-1.028-.085.031-1.134.562-2.33 1.18a124.45 124.45 0 0 1-2.203 1.125c-.014 0 .168-1.111.407-2.47.46-2.625.472-2.735.315-3.043-.055-.108-.695-.75-1.887-1.895-1.74-1.671-1.799-1.733-1.69-1.762a136.85 136.85 0 0 1 2.533-.373c1.612-.228 2.473-.367 2.58-.415.088-.039.219-.134.291-.21.091-.096.597-1.116 1.663-3.355a224.727 224.727 0 0 0 1.579-3.353c.112-.323.009-.724-.252-.985a.996.996 0 0 0-1.057-.23" fill-rule="evenodd" fill="#000" stroke="none"/></svg>