<svg xmlns="http://www.w3.org/2000/svg" width="24" height="24" fill="none" stroke="currentColor" stroke-width="2" stroke-linecap="round" stroke-linejoin="round"><path d="M8.31 3.063a4.014 4.014 0 0 0-3.179 2.929c-.089.333-.104.473-.106.988-.003.676.086 1.145.284 1.51a.982.982 0 0 0 .952.498.965.965 0 0 0 .816-.588c.103-.228.104-.465.003-.86a1.982 1.982 0 0 1-.036-.948 2.062 2.062 0 0 1 1.548-1.548C8.738 5.014 9.949 5 12.475 5c4.132 0 3.912.016 4.226-.299a.984.984 0 0 0 0-1.402c-.315-.315-.082-.299-4.318-.295-3.043.002-3.822.014-4.073.059m-4.667 8.006C3.291 11.193 3 11.614 3 12c0 .242.119.521.299.701.32.32-.09.299 5.77.299 4.596 0 5.251.007 5.523.063a3.01 3.01 0 0 1 2.345 2.345c.33 1.611-.724 3.196-2.345 3.529-.27.055-.839.063-4.523.063-4.74 0-4.453-.018-4.77.299a.984.984 0 0 0 .001 1.403c.32.32.008.302 4.984.287 4.064-.012 4.44-.019 4.716-.084.98-.232 1.749-.638 2.429-1.281.448-.423.77-.865 1.054-1.444a4.964 4.964 0 0 0-.324-4.95l-.153-.23h1.07c1.232 0 1.347-.021 1.625-.299a.984.984 0 0 0 0-1.402c-.325-.326.446-.299-8.718-.296-7.286.003-8.182.01-8.34.066" fill-rule="evenodd" fill="#000" stroke="none"/></svg>