<svg xmlns="http://www.w3.org/2000/svg" width="24" height="24" fill="none" stroke="currentColor" stroke-width="2" stroke-linecap="round" stroke-linejoin="round"><path d="M3.643 4.069C3.291 4.193 3 4.614 3 5c0 .08.029.234.065.343.059.177.244.376 1.789 1.927L6.578 9l-1.724 1.73c-1.545 1.551-1.73 1.75-1.789 1.927-.129.389-.044.766.234 1.044s.655.363 1.044.234c.177-.059.376-.244 1.927-1.789L8 10.422l1.73 1.724c1.551 1.545 1.75 1.73 1.927 1.789.389.129.766.044 1.044-.234s.363-.655.234-1.044c-.059-.177-.244-.376-1.789-1.927L9.422 9l1.724-1.73c1.545-1.551 1.73-1.75 1.789-1.927.129-.389.044-.766-.234-1.044s-.655-.363-1.044-.234c-.177.059-.376.244-1.927 1.789L8 7.578 6.27 5.854c-1.551-1.545-1.75-1.73-1.927-1.789a1.032 1.032 0 0 0-.7.004m13.677 6.99c-.985.22-1.752.831-2.169 1.727-.162.348-.179.739-.043.994.19.357.492.54.892.54.431 0 .71-.186.928-.62.143-.286.314-.476.532-.593.228-.122.732-.122.963.001.474.252.694.773.502 1.192-.086.187-.423.516-.729.711-.119.076-.558.31-.976.521-.419.21-.88.472-1.025.582-.743.563-1.119 1.36-1.18 2.502-.032.603.026.827.283 1.084.303.303.273.3 2.702.3 2.427 0 2.399.003 2.701-.299a.984.984 0 0 0 0-1.402c-.291-.291-.348-.299-2.048-.299-.876 0-1.493-.015-1.493-.037 0-.104.427-.385 1.087-.713.949-.471 1.403-.771 1.853-1.226.405-.41.613-.735.768-1.204.092-.276.107-.389.109-.82.002-.415-.014-.551-.091-.8-.325-1.046-1.113-1.816-2.147-2.098-.341-.093-1.094-.116-1.419-.043" fill-rule="evenodd" fill="#000" stroke="none"/></svg>