<svg xmlns="http://www.w3.org/2000/svg" width="24" height="24" fill="none" stroke="currentColor" stroke-width="2" stroke-linecap="round" stroke-linejoin="round"><path d="M11.643 1.069a1.066 1.066 0 0 0-.577.591c-.098.288-.098 2.392 0 2.68.126.369.538.66.934.66s.808-.291.934-.66c.098-.288.098-2.392 0-2.68-.173-.508-.762-.778-1.291-.591m-7 3C4.291 4.193 4 4.614 4 5c0 .08.03.234.066.343.057.17.186.318.929 1.068.97.979 1.097 1.069 1.503 1.069.577-.001.982-.409.982-.991 0-.396-.096-.53-1.069-1.494-.75-.743-.898-.872-1.068-.929a1.026 1.026 0 0 0-.7.003m13.997 0c-.146.05-.344.225-1.052.926-1.015 1.007-1.087 1.112-1.062 1.559.031.533.384.889.912.919.461.026.543-.029 1.551-1.046.758-.765.888-.914.945-1.084.13-.388.046-.765-.233-1.044a1.003 1.003 0 0 0-1.061-.23m-7.38 2.987c-1.663.279-3.001 1.257-3.737 2.729-.359.719-.502 1.35-.502 2.215 0 .446.02.715.072.96.22 1.035.648 1.826 1.385 2.561.744.741 1.529 1.166 2.562 1.386.471.1 1.449.1 1.92 0 .969-.206 1.772-.623 2.464-1.277a4.811 4.811 0 0 0 1.059-1.45c.794-1.62.664-3.448-.355-5-.248-.377-.955-1.077-1.348-1.335a5.128 5.128 0 0 0-1.8-.746c-.426-.09-1.31-.111-1.72-.043m1.332 2.007c1.621.333 2.675 1.918 2.345 3.529-.333 1.621-1.92 2.676-3.529 2.344-1.852-.381-2.9-2.357-2.173-4.097a3.015 3.015 0 0 1 3.357-1.776M1.643 11.069C1.291 11.193 1 11.614 1 12c0 .396.291.808.66.934.163.055.378.066 1.34.066 1.316 0 1.421-.018 1.701-.299a.984.984 0 0 0 0-1.402c-.282-.282-.383-.299-1.718-.296-.945.003-1.196.015-1.34.066m18 0c-.352.124-.643.545-.643.931 0 .396.291.808.66.934.163.055.378.066 1.34.066 1.316 0 1.421-.018 1.701-.299a.984.984 0 0 0 0-1.402c-.282-.282-.383-.299-1.718-.296-.945.003-1.196.015-1.34.066m-13.586 5.55c-.143.071-.445.347-1.062.97-.743.75-.872.898-.929 1.068-.13.388-.046.765.233 1.044s.656.363 1.044.233c.17-.057.318-.186 1.068-.929.973-.964 1.069-1.098 1.069-1.494 0-.582-.405-.99-.982-.991a.884.884 0 0 0-.441.099m10.99.005c-.342.17-.527.482-.527.887 0 .396.096.53 1.069 1.494.75.743.898.872 1.068.929.388.13.765.046 1.044-.233s.363-.656.233-1.044c-.057-.169-.187-.32-.93-1.072-.968-.98-1.087-1.064-1.506-1.065a.89.89 0 0 0-.451.104m-5.404 2.445a1.066 1.066 0 0 0-.577.591c-.098.288-.098 2.392 0 2.68.126.369.538.66.934.66s.808-.291.934-.66c.098-.288.098-2.392 0-2.68-.173-.508-.762-.778-1.291-.591" fill-rule="evenodd" fill="#000" stroke="none"/></svg>