<svg xmlns="http://www.w3.org/2000/svg" width="24" height="24" fill="none" stroke="currentColor" stroke-width="2" stroke-linecap="round" stroke-linejoin="round"><path d="M17.54 4.026c-.386.079-.66.156-.852.241a3.076 3.076 0 0 0-1.597 1.66c-.279.689.18 1.393.909 1.393.423 0 .719-.201.939-.639.241-.478.627-.713 1.099-.67.291.026.511.139.71.365.355.403.329.875-.07 1.261-.257.25-.63.48-1.398.863-.385.193-.832.441-.993.552-.798.551-1.209 1.379-1.272 2.564-.032.603.026.827.283 1.084.303.303.273.3 2.702.3 2.427 0 2.399.003 2.701-.299a.984.984 0 0 0 0-1.402c-.291-.291-.348-.299-2.048-.299-.876 0-1.493-.015-1.493-.037 0-.104.427-.385 1.087-.713 1.159-.575 1.798-1.047 2.218-1.635 1.065-1.493.445-3.587-1.291-4.36-.428-.191-1.255-.307-1.634-.229M3.643 10.069C3.291 10.193 3 10.614 3 11c0 .08.029.234.065.343.059.177.244.376 1.789 1.927L6.578 15l-1.724 1.73c-1.545 1.551-1.73 1.75-1.789 1.927-.129.389-.044.766.234 1.044s.655.363 1.044.234c.177-.059.376-.244 1.927-1.789L8 16.422l1.73 1.724c1.551 1.545 1.75 1.73 1.927 1.789.389.129.766.044 1.044-.234s.363-.655.234-1.044c-.059-.177-.244-.376-1.789-1.927L9.422 15l1.724-1.73c1.545-1.551 1.73-1.75 1.789-1.927.129-.389.044-.766-.234-1.044s-.655-.363-1.044-.234c-.177.059-.376.244-1.927 1.789L8 13.578l-1.73-1.724c-1.551-1.545-1.75-1.73-1.927-1.789a1.032 1.032 0 0 0-.7.004" fill-rule="evenodd" fill="#000" stroke="none"/></svg>