<svg width="24" height="24" xmlns="http://www.w3.org/2000/svg" fill="none" stroke="currentColor" stroke-width="2" stroke-linecap="round" stroke-linejoin="round"><path d="M9.643 2.069a1.118 1.118 0 0 0-.343.229c-.323.323-.3-.193-.3 6.629V15H7.427c-1.789 0-1.836.006-2.128.299a.984.984 0 0 0 0 1.402c.292.293.339.299 2.128.299H9v2.073c0 2.346-.002 2.327.299 2.628a.984.984 0 0 0 1.402 0c.301-.301.299-.282.299-2.628V17h2.073c2.346 0 2.327.002 2.628-.299a.984.984 0 0 0 0-1.402c-.301-.301-.282-.299-2.628-.299H11v-4.477l3.11-.011c3.457-.013 3.265.002 3.564-.284.222-.213.304-.409.304-.728s-.082-.515-.304-.728c-.276-.264-.111-.252-3.553-.252H11V4h3.573c4.022 0 3.814.015 4.128-.299a.984.984 0 0 0 0-1.402c-.317-.317-.035-.299-4.718-.296-3.663.003-4.184.011-4.34.066" fill-rule="evenodd" fill="#000" stroke="none"/></svg>