<svg xmlns="http://www.w3.org/2000/svg" width="24" height="24" fill="none" stroke="currentColor" stroke-width="2" stroke-linecap="round" stroke-linejoin="round"><path d="M5.643 1.069C5.291 1.193 5 1.614 5 2c0 .364.089.496.851 1.267l.719.727-1.555.016c-1.254.014-1.594.029-1.755.079-1.143.352-1.901 1.127-2.184 2.231-.083.326-.084 11.032 0 11.357.241.939.927 1.749 1.769 2.086.562.226.303.213 4.451.227 4.327.014 4.086.03 4.404-.288a.984.984 0 0 0 .001-1.403C11.387 17.985 11.604 18 7.5 18c-4.104 0-3.887.015-4.201-.299-.32-.32-.299.084-.297-5.718.001-4.209.011-5.191.055-5.313.079-.221.241-.414.454-.539L3.7 6.02l1.44-.012 1.439-.012-.723.732c-.613.62-.734.762-.79.929-.13.388-.046.765.233 1.044.278.278.655.363 1.044.234.176-.059.371-.239 1.831-1.69C9.959 5.47 9.999 5.421 9.999 5c0-.421-.04-.47-1.825-2.245-1.46-1.451-1.655-1.631-1.831-1.69a1.032 1.032 0 0 0-.7.004m7 3C12.291 4.193 12 4.614 12 5c0 .242.119.521.299.701.314.314.097.299 4.201.299 4.104 0 3.887-.015 4.201.299.32.32.299-.082.299 5.701 0 5.783.021 5.381-.299 5.701-.287.287-.362.299-1.916.299h-1.36l.721-.73c.611-.618.732-.76.788-.927.13-.388.046-.765-.233-1.044-.278-.278-.655-.363-1.044-.234-.176.059-.371.239-1.831 1.69-1.785 1.775-1.825 1.824-1.825 2.245 0 .421.04.47 1.825 2.245 1.46 1.451 1.655 1.631 1.831 1.69.389.129.766.044 1.044-.234.279-.279.363-.656.233-1.044-.056-.167-.177-.309-.788-.927l-.721-.73h1.397c.769 0 1.512-.019 1.652-.042 1.186-.192 2.147-1.086 2.45-2.278.083-.327.083-11.033 0-11.357-.307-1.197-1.264-2.089-2.448-2.281-.165-.027-1.575-.04-3.956-.039-3.244.003-3.722.011-3.877.066M11.31 8.063a3.918 3.918 0 0 0-2.131 1.116 3.903 3.903 0 0 0-1.165 3.001c.096 1.833 1.332 3.307 3.126 3.725.464.109 1.319.102 1.78-.014a4.03 4.03 0 0 0 2.971-2.971c.116-.461.123-1.316.014-1.78-.49-2.102-2.51-3.454-4.595-3.077m1.098 1.981C13.31 10.232 14 11.08 14 12c0 1.08-.92 2-2 2s-2-.92-2-2c0-.898.657-1.731 1.534-1.943.263-.064.604-.069.874-.013" fill-rule="evenodd" fill="#000" stroke="none"/></svg>