<svg xmlns="http://www.w3.org/2000/svg" width="24" height="24" fill="none" stroke="currentColor" stroke-width="2" stroke-linecap="round" stroke-linejoin="round"><path d="M4.62 2.025c-.408.08-.533.114-.75.202-.881.358-1.549 1.137-1.794 2.093-.083.327-.084 15.031 0 15.357.281 1.099 1.041 1.876 2.184 2.238.179.056.983.064 7.56.075 4.998.008 7.448-.001 7.633-.03 1.19-.183 2.167-1.084 2.471-2.28.083-.328.084-15.032 0-15.357-.307-1.197-1.264-2.09-2.444-2.28-.246-.04-14.661-.057-14.86-.018M11 6v2H3.997l.011-1.65.012-1.65.111-.189c.125-.213.318-.375.539-.454.12-.043.763-.054 3.24-.055L11 4v2m8.34-1.934c.253.087.507.341.594.594.057.168.066.408.066 1.767V8h-7V4h3.073c2.755 0 3.093.007 3.267.066M11 12v2H4v-4h7v2m9 0v2h-7v-4h7v2m-9 6v2H7.927c-3.463 0-3.317.012-3.628-.299-.293-.292-.299-.339-.299-2.128V16h7v2m9-.427c0 1.789-.006 1.836-.299 2.128-.311.311-.165.299-3.628.299H13v-4h7v1.573" fill="#000" fill-rule="evenodd" stroke="none"/></svg>