<svg xmlns="http://www.w3.org/2000/svg" width="24" height="24" fill="none" stroke="currentColor" stroke-width="2" stroke-linecap="round" stroke-linejoin="round"><path d="M1.643 1.069a1.118 1.118 0 0 0-.343.229C.979 1.619 1 1.216 1 7c0 4.639.006 5.165.065 5.343.059.181.418.551 4.31 4.451 2.335 2.34 4.406 4.397 4.603 4.57.39.343.817.581 1.262.702.409.112 1.211.102 1.599-.02a3.05 3.05 0 0 0 .981-.499c.132-.1 1.932-1.879 4.001-3.954 2.796-2.805 3.795-3.832 3.894-4.002.335-.574.462-1.084.433-1.731-.03-.657-.213-1.169-.601-1.68-.1-.132-2.168-2.222-4.594-4.645-4.048-4.041-4.429-4.411-4.61-4.47-.178-.059-.701-.065-5.36-.062-4.569.003-5.183.01-5.34.066M15.788 7.21c3.28 3.28 4.227 4.25 4.29 4.39.112.251.107.566-.014.82-.077.161-.822.924-3.81 3.905-4.104 4.095-3.848 3.868-4.328 3.825a1.284 1.284 0 0 1-.37-.09c-.075-.037-2.031-1.961-4.346-4.274L3 11.581V3h8.58l4.208 4.21M6.643 6.066C6.288 6.197 6 6.615 6 7c0 .729.814 1.222 1.465.887.711-.365.708-1.41-.004-1.776-.211-.109-.588-.129-.818-.045" fill-rule="evenodd" fill="#000" stroke="none"/></svg>