<svg xmlns="http://www.w3.org/2000/svg" width="24" height="24" fill="none" stroke="currentColor" stroke-width="2" stroke-linecap="round" stroke-linejoin="round"><path d="M11.16 1.025c-1.859.175-3.545.734-5.012 1.662a11.748 11.748 0 0 0-3.461 3.461C1.869 7.442 1.33 8.925 1.093 10.54c-.052.356-.07.733-.07 1.46s.018 1.104.07 1.46c.366 2.489 1.384 4.537 3.126 6.282.686.689 1.053.991 1.781 1.469 1.357.891 2.852 1.449 4.54 1.695.671.098 2.249.098 2.92 0 1.945-.283 3.631-.98 5.177-2.136.533-.4 1.615-1.46 2.009-1.97a11.152 11.152 0 0 0 2.26-5.34c.052-.355.07-.736.07-1.46s-.018-1.105-.07-1.46c-.292-2-1.028-3.742-2.259-5.34-.388-.503-1.474-1.567-2.01-1.969A10.98 10.98 0 0 0 13.6 1.118c-.525-.079-1.991-.135-2.44-.093m1.703 2.018a9.005 9.005 0 0 1 7.22 5.017c2.183 4.452.329 9.831-4.143 12.023-4.45 2.182-9.836.326-12.023-4.143a8.973 8.973 0 0 1 1.07-9.571 9.028 9.028 0 0 1 7.876-3.326M11.1 5.062c-2.376.321-4.375 1.768-5.402 3.911a6.917 6.917 0 0 0 0 6.054c1.39 2.899 4.544 4.462 7.722 3.828.749-.149 1.727-.552 2.391-.986A7.04 7.04 0 0 0 18.999 12c0-2.25-1.097-4.373-2.951-5.71-.44-.317-1.342-.769-1.888-.946a7.01 7.01 0 0 0-3.06-.282m1.88 2.037c1.016.213 1.806.642 2.542 1.378.738.739 1.165 1.529 1.385 2.563.1.471.1 1.449 0 1.92-.22 1.033-.645 1.818-1.386 2.562-.735.737-1.526 1.165-2.561 1.385-.471.1-1.449.1-1.92 0-1.033-.22-1.818-.645-2.562-1.386-.74-.738-1.164-1.522-1.385-2.561-.052-.245-.072-.514-.072-.96 0-.666.057-1.036.245-1.6.512-1.539 1.863-2.813 3.414-3.222.712-.187 1.634-.219 2.3-.079m-1.36 1.926c-.408.08-.533.114-.75.202-.881.358-1.551 1.139-1.793 2.093-.073.285-.073 1.074-.001 1.357.193.759.661 1.422 1.284 1.822.476.305.893.446 1.44.486 1.441.105 2.761-.869 3.124-2.305.072-.285.072-1.075 0-1.357-.304-1.194-1.264-2.09-2.444-2.28-.252-.041-.697-.05-.86-.018m.72 2.041c.369.126.66.538.66.934 0 .527-.473 1-1 1a1.03 1.03 0 0 1-.94-.679.99.99 0 0 1 1.28-1.255" fill="#000" fill-rule="evenodd" stroke="none"/></svg>