<svg xmlns="http://www.w3.org/2000/svg" width="24" height="24" fill="none" stroke="currentColor" stroke-width="2" stroke-linecap="round" stroke-linejoin="round"><path d="M9.643 3.069c-.474.167-.756.761-.588 1.236.041.117 1.237 2.28 1.737 3.142.061.105.029.165-3.155 5.829L4.42 18.998l-.783.001c-.915.001-1.075.037-1.338.3a.984.984 0 0 0 0 1.402c.326.326-.563.299 9.701.299 10.264 0 9.375.027 9.701-.299a.984.984 0 0 0 0-1.402c-.263-.263-.423-.299-1.338-.3l-.783-.001-3.217-5.722c-3.184-5.664-3.216-5.724-3.155-5.829.5-.862 1.696-3.025 1.737-3.142C15.162 3.692 14.661 3 14 3c-.227 0-.513.116-.676.275-.091.088-.376.549-.727 1.175-.317.566-.586 1.03-.597 1.03-.011 0-.28-.464-.597-1.03-.351-.626-.636-1.087-.727-1.175a1.003 1.003 0 0 0-1.033-.206M14.55 14.13l2.631 4.68.106.19h-1.724l-1.384-2.31c-.761-1.27-1.424-2.353-1.472-2.405-.144-.157-.46-.284-.707-.284-.247 0-.563.127-.707.284-.048.052-.711 1.135-1.472 2.405L8.437 19H6.713l.106-.19C8.021 16.649 11.982 9.64 12 9.64c.014 0 1.161 2.02 2.55 4.49m-1.922 3.851L13.236 19h-2.472l.608-1.019c.334-.56.617-1.018.628-1.018.011 0 .294.458.628 1.018" fill-rule="evenodd" fill="#000" stroke="none"/></svg>