<svg xmlns="http://www.w3.org/2000/svg" width="24" height="24" fill="none" stroke="currentColor" stroke-width="2" stroke-linecap="round" stroke-linejoin="round"><path d="M3.643 4.069C3.291 4.193 3 4.614 3 5c0 .08.029.234.065.343.059.179.312.445 2.789 2.927L8.579 11l-2.725 2.73c-2.477 2.482-2.73 2.748-2.789 2.927-.129.39-.044.766.235 1.045a.986.986 0 0 0 1.144.185c.127-.061 1.048-.958 3.301-3.216 2.965-2.97 3.129-3.142 3.195-3.345a1.013 1.013 0 0 0-.053-.77c-.061-.127-.958-1.047-3.216-3.301-2.855-2.85-3.148-3.131-3.328-3.19a1.038 1.038 0 0 0-.7.004m8 14c-.352.124-.643.545-.643.931 0 .242.119.521.299.701.317.317.038.299 4.701.299 4.663 0 4.384.018 4.701-.299a.984.984 0 0 0 0-1.402c-.317-.317-.035-.299-4.718-.296-3.663.003-4.184.011-4.34.066" fill="#000" fill-rule="evenodd" stroke="none"/></svg>