<svg xmlns="http://www.w3.org/2000/svg" width="24" height="24" fill="none" stroke="currentColor" stroke-width="2" stroke-linecap="round" stroke-linejoin="round"><path d="M17.62 1.025c-.408.08-.533.114-.75.202-.706.287-1.342.91-1.62 1.588-.244.594-.226.168-.24 5.877l-.012 5.233-.454.447c-.505.498-.779.879-1.068 1.484-.756 1.585-.585 3.545.434 4.979.753 1.059 1.845 1.761 3.19 2.052.371.08 1.485.068 1.892-.021a4.91 4.91 0 0 0 2.471-1.314c.751-.725 1.22-1.579 1.444-2.632.099-.465.1-1.451.002-1.908-.228-1.063-.671-1.868-1.453-2.64l-.454-.447-.012-5.233c-.013-5.68.002-5.277-.227-5.847-.367-.916-1.287-1.641-2.283-1.802-.252-.041-.697-.05-.86-.018M8.643 3.069a1.066 1.066 0 0 0-.577.591C8.01 3.826 8 4.053 8 5.215v1.36l-.73-.721c-.618-.611-.76-.732-.927-.788-.388-.13-.765-.046-1.044.233-.278.278-.363.655-.234 1.044.059.175.225.356 1.5 1.638L8 9.422V11H6.422L4.981 9.565c-1.282-1.275-1.463-1.441-1.638-1.5-.389-.129-.766-.044-1.044.234-.279.279-.363.656-.233 1.044.056.167.177.309.788.927l.721.73h-.86c-1.001 0-1.148.031-1.416.299a.984.984 0 0 0 0 1.402c.268.268.415.299 1.416.299h.86l-.721.73c-.611.618-.732.76-.788.927-.13.388-.046.765.233 1.044.278.278.655.363 1.044.234.175-.059.356-.225 1.638-1.5L6.422 13H8v1.578l-1.435 1.441c-1.275 1.282-1.441 1.463-1.5 1.638-.129.389-.044.766.234 1.044.279.279.656.363 1.044.233.167-.056.309-.177.927-.788l.73-.721v1.36c0 1.162.01 1.389.066 1.555.126.369.538.66.934.66s.808-.291.934-.66c.056-.166.066-.395.066-1.585v-1.391l.148.062a.956.956 0 0 0 .415.047c.518-.029.877-.385.91-.899.028-.44-.032-.539-.799-1.316L10 14.575V13h1.073c1.235 0 1.35-.021 1.628-.299a.984.984 0 0 0 0-1.402c-.278-.278-.393-.299-1.628-.299H10V9.422l1.435-1.441c1.275-1.282 1.441-1.463 1.5-1.638.129-.389.044-.766-.234-1.044-.279-.279-.656-.363-1.044-.233-.167.056-.309.177-.927.788l-.73.721v-1.36c0-1.554-.012-1.629-.299-1.916a.998.998 0 0 0-1.058-.23m9.682-.008a.982.982 0 0 1 .561.489l.094.19.02 5.52.02 5.52.086.16c.104.191.281.361.557.533.266.166.725.645.908.949.08.133.203.412.275.62.119.348.129.419.13.898.002.588-.054.856-.278 1.324a3.079 3.079 0 0 1-1.939 1.604c-.357.097-1.161.097-1.518 0a3.082 3.082 0 0 1-1.939-1.604 3.004 3.004 0 0 1 .165-2.901c.18-.286.616-.731.873-.892.274-.171.451-.341.554-.531l.086-.16.02-5.54.02-5.54.111-.189a.987.987 0 0 1 1.194-.45" fill-rule="evenodd" fill="#000" stroke="none"/></svg>