<svg xmlns="http://www.w3.org/2000/svg" width="24" height="24" fill="none" stroke="currentColor" stroke-width="2" stroke-linecap="round" stroke-linejoin="round"><path d="M11.62 1.025c-.408.08-.533.114-.75.202-.706.287-1.342.91-1.62 1.588-.244.594-.226.168-.24 5.877l-.012 5.233-.454.447c-.505.498-.779.879-1.068 1.484-.756 1.585-.585 3.545.434 4.979.753 1.059 1.845 1.761 3.19 2.052.371.08 1.485.068 1.892-.021a4.91 4.91 0 0 0 2.471-1.314c.751-.725 1.22-1.579 1.444-2.632.099-.465.1-1.451.002-1.908-.228-1.063-.671-1.868-1.453-2.64l-.454-.447-.012-5.233c-.013-5.68.002-5.277-.227-5.847-.367-.916-1.287-1.641-2.283-1.802-.252-.041-.697-.05-.86-.018m.705 2.036a.982.982 0 0 1 .561.489l.094.19.02 5.52.02 5.52.086.16c.104.191.281.361.557.533.266.166.725.645.908.949.08.133.203.412.275.62.119.348.129.419.13.898.002.588-.054.856-.278 1.324a3.079 3.079 0 0 1-1.939 1.604c-.357.097-1.161.097-1.518 0a3.082 3.082 0 0 1-1.939-1.604 3.004 3.004 0 0 1 .165-2.901c.18-.286.616-.731.873-.892.274-.171.451-.341.554-.531l.086-.16.02-5.54.02-5.54.111-.189a.987.987 0 0 1 1.194-.45" fill-rule="evenodd" fill="#000" stroke="none"/></svg>