<svg xmlns="http://www.w3.org/2000/svg" width="24" height="24" fill="none" stroke="currentColor" stroke-width="2" stroke-linecap="round" stroke-linejoin="round"><path d="M17.503 1.042c-.961.161-1.881.893-2.262 1.798-.233.553-.218.167-.231 5.852l-.012 5.233-.454.447c-.505.498-.779.879-1.068 1.484-.756 1.585-.585 3.545.434 4.979.753 1.059 1.845 1.761 3.19 2.052.371.08 1.485.068 1.892-.021a4.91 4.91 0 0 0 2.471-1.314c.751-.725 1.22-1.579 1.444-2.632.099-.465.1-1.451.002-1.908-.228-1.063-.671-1.868-1.453-2.64l-.454-.447-.012-5.233c-.011-4.662-.019-5.254-.076-5.432-.191-.598-.439-1.019-.818-1.393a3.018 3.018 0 0 0-2.593-.825m-5.86 1.027a1.066 1.066 0 0 0-.577.591c-.098.288-.098 2.392 0 2.68.126.369.538.66.934.66s.808-.291.934-.66c.098-.288.098-2.392 0-2.68-.173-.508-.762-.778-1.291-.591m6.682.992a.982.982 0 0 1 .561.489l.094.19.02 5.52.02 5.52.086.16c.104.191.281.361.557.533.266.166.725.645.908.949.08.133.203.412.275.62.119.348.129.419.13.898.002.588-.054.856-.278 1.324a3.079 3.079 0 0 1-1.939 1.604c-.357.097-1.161.097-1.518 0a3.082 3.082 0 0 1-1.939-1.604 3.004 3.004 0 0 1 .165-2.901c.18-.286.616-.731.873-.892.274-.171.451-.341.554-.531l.086-.16.02-5.52.02-5.52.094-.19a.988.988 0 0 1 1.211-.489M4.843 5.269c-.386.136-.674.594-.634 1.009.034.351.145.501 1.02 1.368.712.705.859.831 1.028.888.25.084.437.083.683 0 .403-.137.692-.587.651-1.012-.034-.351-.145-.501-1.02-1.368-.712-.705-.859-.831-1.028-.888a1.026 1.026 0 0 0-.7.003m6.307 2.793a5.423 5.423 0 0 0-2.126.875 5.014 5.014 0 0 0-1.925 2.812c-.55 2.109.372 4.391 2.229 5.513.287.174.355.198.594.211.333.019.52-.039.726-.225.242-.219.33-.417.33-.748 0-.445-.153-.664-.71-1.018a3.318 3.318 0 0 1-.905-.941 3.04 3.04 0 0 1-.249-2.538c.163-.46.343-.739.726-1.124a2.836 2.836 0 0 1 1.92-.864c.505-.029.732-.105.94-.313a.984.984 0 0 0 .001-1.403c-.297-.297-.736-.364-1.551-.237m-9.507 4.007C1.291 12.193 1 12.614 1 13c0 .396.291.808.66.934.163.055.378.066 1.34.066 1.316 0 1.421-.018 1.701-.299a.984.984 0 0 0 0-1.402c-.282-.282-.383-.299-1.718-.296-.945.003-1.196.015-1.34.066m4.597 5.4c-.145.05-.34.221-1.011.885-.875.867-.986 1.017-1.02 1.368-.041.425.248.875.651 1.012a.962.962 0 0 0 .683 0c.169-.057.316-.183 1.028-.888.554-.549.859-.882.916-1 .397-.82-.38-1.678-1.247-1.377" fill-rule="evenodd" fill="#000" stroke="none"/></svg>