<svg xmlns="http://www.w3.org/2000/svg" width="24" height="24" fill="none" stroke="currentColor" stroke-width="2" stroke-linecap="round" stroke-linejoin="round"><path d="M5.114 1.06c-.976.196-1.842.914-2.19 1.816-.155.403-.138.299-.927 5.444-.636 4.144-.683 4.487-.661 4.84.025.412.078.645.234 1.025.368.898 1.286 1.612 2.276 1.773C4 15.983 5.058 16 6.547 16h2.448l.015 1.81c.015 1.691.021 1.831.101 2.13.462 1.742 1.874 2.925 3.632 3.046.29.02.406.011.576-.046.443-.147.338.055 2.434-4.668l1.893-4.265 1.307-.017c1.438-.019 1.553-.034 2.11-.289a3.32 3.32 0 0 0 1.872-2.29c.057-.254.065-.706.065-3.911 0-3.967.006-3.863-.239-4.463-.219-.538-.704-1.13-1.198-1.463a4.187 4.187 0 0 0-1.043-.479c-.249-.071-.58-.074-7.7-.081-6.06-.006-7.489.003-7.706.046m10.887 6.83.001 4.89-1.791 4.035c-.985 2.219-1.814 4.043-1.841 4.054-.104.04-.514-.207-.774-.466a1.976 1.976 0 0 1-.552-.995c-.029-.14-.044-.952-.044-2.383 0-2.382 0-2.381-.241-2.674a1.094 1.094 0 0 0-.309-.237l-.19-.094L7.137 14l-3.123-.02-.197-.121c-.243-.149-.443-.436-.481-.689-.021-.146.13-1.217.68-4.806.39-2.54.736-4.682.768-4.761.085-.202.283-.397.516-.508l.2-.094L10.75 3H16l.001 4.89m4.312-4.733c.253.137.45.338.592.603.072.134.075.297.075 3.74s-.003 3.606-.075 3.74a1.336 1.336 0 0 1-.615.608l-.268.132-1.011.012-1.011.013v-9.01l1.03.013 1.03.012.253.137" fill-rule="evenodd" fill="#000" stroke="none"/></svg>