<svg xmlns="http://www.w3.org/2000/svg" width="24" height="24" fill="none" stroke="currentColor" stroke-width="2" stroke-linecap="round" stroke-linejoin="round"><path d="M10.643 1.066c-.404.149-.328.001-2.396 4.662L6.354 9.994l-1.447.017c-1.153.013-1.488.029-1.647.078-1.141.351-1.901 1.127-2.184 2.231-.083.324-.083 8.033 0 8.357.241.939.927 1.749 1.769 2.086.577.232-.057.214 8.155.227 8.179.012 7.845.02 8.398-.203a3.032 3.032 0 0 0 1.838-2.187c.024-.121.353-2.218.73-4.66.824-5.339.819-5.264.471-6.107-.342-.83-1.065-1.464-1.983-1.738-.21-.063-.499-.072-2.841-.085l-2.608-.014-.015-1.808c-.015-1.689-.021-1.829-.101-2.128-.399-1.502-1.48-2.581-2.949-2.943-.45-.111-1.068-.136-1.297-.051m1.391 2.226c.44.262.816.793.922 1.3.029.14.044.952.044 2.383 0 2.382 0 2.381.241 2.674.065.079.204.186.309.237l.19.094 3.123.02 3.123.02.197.121c.243.149.443.436.481.689.021.145-.131 1.219-.681 4.806-.389 2.54-.735 4.683-.768 4.761-.075.182-.271.386-.475.497l-.16.086-5.29.011-5.29.01V11.21l1.784-4.015c.981-2.208 1.793-4.03 1.804-4.048.032-.053.213.006.446.145M6 16.5V21H4.927c-1.236 0-1.35-.021-1.629-.3-.316-.316-.301-.091-.289-4.283L3.02 12.7l.111-.189c.061-.103.173-.236.25-.294.262-.2.357-.213 1.529-.215L6 12v4.5" fill-rule="evenodd" fill="#000" stroke="none"/></svg>