<svg xmlns="http://www.w3.org/2000/svg" width="24" height="24" fill="none" stroke="currentColor" stroke-width="2" stroke-linecap="round" stroke-linejoin="round"><path d="M4.62 4.025c-.408.08-.533.114-.75.202-.706.287-1.342.91-1.62 1.588-.218.531-.221.559-.24 2.001-.015 1.207-.009 1.375.052 1.534.147.384.524.649.926.65C4.082 10.002 5 10.915 5 12s-.918 1.998-2.012 2a1.014 1.014 0 0 0-.926.65c-.061.159-.067.327-.052 1.534.014 1.067.031 1.399.079 1.556.341 1.112 1.048 1.82 2.171 2.175.179.056.983.064 7.56.075 4.998.008 7.448-.001 7.633-.03a3.034 3.034 0 0 0 2.306-1.8c.206-.489.212-.542.231-1.976.015-1.207.009-1.375-.052-1.534a1.014 1.014 0 0 0-.926-.65C19.918 13.998 19 13.085 19 12s.918-1.998 2.012-2c.402-.001.779-.266.926-.65.061-.159.067-.327.052-1.534-.018-1.427-.023-1.462-.227-1.971-.367-.916-1.287-1.641-2.283-1.802-.246-.04-14.661-.057-14.86-.018M12 6.573c0 .686.052.881.299 1.128a.984.984 0 0 0 1.402 0c.247-.247.299-.442.299-1.128V6h2.573c2.904 0 2.821-.008 3.128.299.253.253.299.436.299 1.189 0 .569-.007.637-.07.656-1.474.456-2.494 1.533-2.835 2.996-.054.229-.075.474-.075.86s.021.631.075.86c.341 1.462 1.362 2.541 2.835 2.996.063.019.07.087.07.656 0 .753-.046.936-.299 1.189-.307.307-.224.299-3.128.299H14v-.573c0-.686-.052-.881-.299-1.128a.984.984 0 0 0-1.402 0c-.247.247-.299.442-.299 1.128V18H8.427c-4.022 0-3.814.015-4.128-.299-.253-.253-.299-.436-.299-1.189 0-.569.007-.637.07-.656 1.451-.454 2.461-1.505 2.821-2.936.116-.461.123-1.316.014-1.78A4.017 4.017 0 0 0 4.3 8.221l-.28-.098v-.711c0-.706.001-.714.111-.901.125-.213.318-.375.539-.454.121-.043.846-.054 3.74-.055L12 6v.573m.643 3.496a1.066 1.066 0 0 0-.577.591c-.098.288-.098 2.392 0 2.68.126.369.538.66.934.66s.808-.291.934-.66c.098-.288.098-2.392 0-2.68-.173-.508-.762-.778-1.291-.591" fill-rule="evenodd" fill="#000" stroke="none"/></svg>