<svg xmlns="http://www.w3.org/2000/svg" width="24" height="24" fill="none" stroke="currentColor" stroke-width="2" stroke-linecap="round" stroke-linejoin="round"><path d="M1.643 1.069C1.291 1.193 1 1.614 1 2c0 .08.029.234.065.343.06.182.823.956 10.19 10.328 7.451 7.455 10.171 10.153 10.301 10.216a.986.986 0 0 0 1.144-.185c.279-.279.364-.655.235-1.045-.059-.175-.231-.364-1.576-1.717l-1.509-1.52.234-.479a9.2 9.2 0 0 0 .822-2.641c.098-.606.099-1.981.001-2.6a9.02 9.02 0 0 0-.785-2.56 8.916 8.916 0 0 0-4.182-4.224 8.969 8.969 0 0 0-7.881 0l-.479.235L5.06 3.64C2.775 1.364 2.522 1.124 2.343 1.065a1.032 1.032 0 0 0-.7.004m8 0C9.291 1.193 9 1.614 9 2c0 .242.119.521.299.701C9.601 3.003 9.573 3 12 3s2.399.003 2.701-.299a.984.984 0 0 0 0-1.402c-.303-.303-.271-.299-2.718-.296-1.851.003-2.188.012-2.34.066M13.2 7.101a7.688 7.688 0 0 1 2.88 1.209c.487.346 1.264 1.124 1.61 1.61.32.45.781 1.355.947 1.86.537 1.632.467 3.425-.195 4.958l-.086.198-2.678-2.678L13 11.58v-.863c0-1.003-.031-1.15-.299-1.418a.99.99 0 0 0-1.539.164l-.108.171-.993-.993c-.871-.871-.983-.997-.916-1.032.375-.197 1.296-.46 1.926-.55.498-.072 1.608-.05 2.129.042m-8.938 2.956c-.389.145-.553.37-.792 1.091a8.923 8.923 0 0 0 .473 6.849 8.835 8.835 0 0 0 4.06 4.06 8.992 8.992 0 0 0 6.443.601c.736-.211 1.077-.357 1.241-.528.228-.237.291-.392.291-.71 0-.319-.083-.515-.304-.728-.323-.309-.678-.335-1.334-.099a6.74 6.74 0 0 1-2.64.393 6.965 6.965 0 0 1-5.963-3.864c-.849-1.703-.965-3.616-.332-5.456.237-.689.213-1.016-.097-1.34-.267-.278-.713-.392-1.046-.269" fill-rule="evenodd" fill="#000" stroke="none"/></svg>