<svg xmlns="http://www.w3.org/2000/svg" width="24" height="24" fill="none" stroke="currentColor" stroke-width="2" stroke-linecap="round" stroke-linejoin="round"><path d="M9.643 1.069C9.291 1.193 9 1.614 9 2c0 .242.119.521.299.701C9.601 3.003 9.573 3 12 3s2.399.003 2.701-.299a.984.984 0 0 0 0-1.402c-.303-.303-.271-.299-2.718-.296-1.851.003-2.188.012-2.34.066M11.1 5.045c-3.05.288-5.812 2.217-7.183 5.015a8.988 8.988 0 0 0 1.724 10.299c1.348 1.348 3.011 2.196 4.959 2.53.674.115 2.033.123 2.72.016a8.892 8.892 0 0 0 2.62-.823 8.907 8.907 0 0 0 4.14-4.142c.427-.88.662-1.632.826-2.64.1-.614.1-1.986 0-2.6-.164-1.008-.399-1.76-.826-2.64-1.64-3.382-5.203-5.372-8.98-5.015m1.64 1.997c2.449.28 4.51 1.737 5.562 3.931a6.974 6.974 0 0 1-1.802 8.38 6.976 6.976 0 0 1-8.38.464c-3.169-2.11-4.066-6.394-2.01-9.597 1.42-2.212 4.05-3.473 6.63-3.178m1.9 3.026c-.152.053-.431.312-1.811 1.687-1.145 1.14-1.657 1.677-1.717 1.801-.416.859.473 1.748 1.332 1.332.124-.06.66-.572 1.801-1.717 1.453-1.459 1.631-1.652 1.69-1.828.129-.389.044-.766-.234-1.044a1.005 1.005 0 0 0-1.061-.231" fill="#000" fill-rule="evenodd" stroke="none"/></svg>