<svg xmlns="http://www.w3.org/2000/svg" width="24" height="24" fill="none" stroke="currentColor" stroke-width="2" stroke-linecap="round" stroke-linejoin="round"><path d="M9.643 1.069C9.291 1.193 9 1.614 9 2c0 .242.119.521.299.701C9.601 3.003 9.573 3 12 3s2.399.003 2.701-.299a.984.984 0 0 0 0-1.402c-.303-.303-.271-.299-2.718-.296-1.851.003-2.188.012-2.34.066m1.397 3.973c-2.142.236-4.078 1.174-5.542 2.684a8.94 8.94 0 0 0-2.434 4.791c-.08.473-.08.582.002.823.126.369.538.66.934.66.243 0 .521-.119.704-.302.191-.191.245-.342.374-1.045.188-1.029.669-2.086 1.342-2.953 1.033-1.327 2.463-2.207 4.176-2.568.447-.095.596-.107 1.324-.109.866-.003 1.116.025 1.82.206a6.971 6.971 0 0 1 4.879 4.54 6.929 6.929 0 0 1 0 4.462c-.978 2.923-3.792 4.874-6.859 4.756-1.334-.052-2.493-.417-3.597-1.134-.391-.254-.514-.354-1.494-1.223L5.957 18h1.595c1.813 0 1.856-.006 2.149-.299a.984.984 0 0 0 0-1.402C9.394 15.991 9.486 16 6.5 16s-2.894-.009-3.201.299C2.991 16.606 3 16.514 3 19.5s-.009 2.894.299 3.201c.479.479 1.291.35 1.587-.251.091-.183.095-.233.114-1.397l.02-1.207.52.462c1.084.963 1.567 1.304 2.48 1.752 1.339.658 2.466.917 3.98.917.946 0 1.366-.049 2.22-.263a9.024 9.024 0 0 0 5.218-3.671c.78-1.162 1.248-2.374 1.467-3.803.096-.627.096-1.849.001-2.48a9.131 9.131 0 0 0-1.72-4.16 11.394 11.394 0 0 0-1.526-1.587 9.066 9.066 0 0 0-4.24-1.896c-.557-.094-1.84-.134-2.38-.075m.603 4.027a1.118 1.118 0 0 0-.343.229c-.303.303-.3.274-.3 2.702 0 2.427-.003 2.399.299 2.701a.984.984 0 0 0 1.402 0c.302-.302.299-.274.299-2.701s.003-2.399-.299-2.701a.998.998 0 0 0-1.058-.23" fill-rule="evenodd" fill="#000" stroke="none"/></svg>