<svg xmlns="http://www.w3.org/2000/svg" width="24" height="24" fill="none" stroke="currentColor" stroke-width="2" stroke-linecap="round" stroke-linejoin="round"><path d="M7.04 4.061A8.053 8.053 0 0 0 1.281 7.66 9.233 9.233 0 0 0 .405 9.5a7.975 7.975 0 0 0 0 5c.969 2.979 3.678 5.149 6.812 5.457.593.058 8.979.059 9.549.001a8.34 8.34 0 0 0 1.732-.361 8.024 8.024 0 0 0 4.681-4.089 7.938 7.938 0 0 0 .004-7.008c-1.23-2.51-3.597-4.16-6.391-4.459-.606-.064-9.213-.047-9.752.02m10.124 2.048a6.306 6.306 0 0 1 1.597.575c1.64.848 2.781 2.391 3.146 4.256.108.55.097 1.663-.022 2.22a5.963 5.963 0 0 1-.569 1.599 6.023 6.023 0 0 1-4.256 3.146c-.376.071-.678.075-5.06.075s-4.684-.004-5.06-.075a6.036 6.036 0 0 1-4.845-4.845c-.101-.538-.101-1.606-.002-2.12a6.156 6.156 0 0 1 .569-1.653 5.897 5.897 0 0 1 2.584-2.606c.672-.348 1.343-.551 2.174-.655.066-.009 2.199-.012 4.74-.008 4.535.007 4.627.008 5.004.091M15.31 8.063a3.918 3.918 0 0 0-2.131 1.116 3.903 3.903 0 0 0-1.165 3.001c.096 1.833 1.332 3.307 3.126 3.725.464.109 1.319.102 1.78-.014a4.03 4.03 0 0 0 2.971-2.971c.116-.461.123-1.316.014-1.78-.49-2.102-2.51-3.454-4.595-3.077m1.098 1.981C17.31 10.232 18 11.08 18 12c0 1.08-.92 2-2 2s-2-.92-2-2c0-.898.657-1.731 1.534-1.943.263-.064.604-.069.874-.013" fill="#000" fill-rule="evenodd" stroke="none"/></svg>