<svg xmlns="http://www.w3.org/2000/svg" width="24" height="24" fill="none" stroke="currentColor" stroke-width="2" stroke-linecap="round" stroke-linejoin="round"><path d="M2.643 3.069C2.291 3.193 2 3.614 2 4c0 .242.119.521.299.701C2.625 5.027 1.736 5 12 5c10.264 0 9.375.027 9.701-.299a.984.984 0 0 0 0-1.402c-.326-.327.567-.299-9.718-.296-8.192.003-9.182.01-9.34.066m3 4C5.291 7.193 5 7.614 5 8c0 .242.119.521.299.701C5.621 9.023 5.097 9 12 9s6.379.023 6.701-.299c.18-.18.299-.459.299-.701 0-.242-.119-.521-.299-.701-.323-.323.205-.299-6.718-.296-5.475.003-6.183.01-6.34.066m3 4C8.291 11.193 8 11.614 8 12c0 .242.119.521.299.701.32.32-.082.299 5.701.299 5.783 0 5.381.021 5.701-.299a.984.984 0 0 0 0-1.402c-.32-.32.085-.299-5.718-.296-4.569.003-5.183.01-5.34.066m1 4C9.291 15.193 9 15.614 9 16c0 .242.119.521.299.701.311.312.157.299 3.701.299s3.39.013 3.701-.299a.984.984 0 0 0 0-1.402c-.312-.312-.154-.299-3.718-.296-2.757.003-3.186.011-3.34.066m-1 4C8.291 19.193 8 19.614 8 20c0 .396.291.808.66.934.288.098 2.392.098 2.68 0 .369-.126.66-.538.66-.934s-.291-.808-.66-.934c-.278-.094-2.427-.092-2.697.003" fill-rule="evenodd" fill="#000" stroke="none"/></svg>