<svg xmlns="http://www.w3.org/2000/svg" width="24" height="24" fill="none" stroke="currentColor" stroke-width="2" stroke-linecap="round" stroke-linejoin="round"><path d="M9.62 1.025c-.408.08-.533.114-.75.202-.706.287-1.342.91-1.62 1.588-.193.469-.217.616-.239 1.415l-.02.77H4.922c-2.341 0-2.322-.002-2.623.299a.984.984 0 0 0 0 1.402c.247.247.442.299 1.127.299h.572l.012 6.77c.011 6.083.018 6.79.076 6.97.364 1.135 1.05 1.821 2.174 2.175.177.055.818.064 5.56.075 3.614.008 5.449-.001 5.633-.03a3.034 3.034 0 0 0 2.306-1.8c.235-.557.218-.015.231-7.39L20.002 7h.572c.685 0 .88-.052 1.127-.299a.984.984 0 0 0 0-1.402C21.4 4.998 21.419 5 19.078 5h-2.069l-.02-.77c-.014-.507-.041-.838-.08-.97-.354-1.196-1.268-2.03-2.429-2.217-.244-.04-4.668-.056-4.86-.018m4.72 2.041c.253.087.507.341.594.594.049.145.066.339.066.767V5H8.993l.014-.65c.013-.627.017-.657.124-.839.125-.213.318-.375.539-.454.118-.042.611-.054 2.313-.055 1.911-.002 2.185.006 2.357.064M18 13.573c0 7.381.024 6.805-.299 7.128-.32.32.082.299-5.701.299-5.783 0-5.381.021-5.701-.299-.323-.323-.299.253-.299-7.128V7h12v6.573m-8.357-3.504a1.118 1.118 0 0 0-.343.229c-.313.313-.3.157-.3 3.702 0 3.544-.013 3.39.299 3.701.18.18.459.299.701.299.242 0 .521-.119.701-.299.312-.311.299-.157.299-3.701s.013-3.39-.299-3.701a.998.998 0 0 0-1.058-.23m4 0a1.118 1.118 0 0 0-.343.229c-.313.313-.3.157-.3 3.702 0 3.544-.013 3.39.299 3.701.18.18.459.299.701.299.242 0 .521-.119.701-.299.312-.311.299-.157.299-3.701s.013-3.39-.299-3.701a.998.998 0 0 0-1.058-.23" fill-rule="evenodd" fill="#000" stroke="none"/></svg>