<svg width="24" height="24" xmlns="http://www.w3.org/2000/svg" fill="none" stroke="currentColor" stroke-width="2" stroke-linecap="round" stroke-linejoin="round"><path d="M4.62 2.025c-.408.08-.533.114-.75.202-.881.358-1.549 1.137-1.794 2.093-.083.327-.084 15.031 0 15.357.281 1.099 1.041 1.876 2.184 2.238.179.056.983.064 7.56.075 4.998.008 7.448-.001 7.633-.03 1.19-.183 2.167-1.084 2.471-2.28.083-.328.084-15.032 0-15.357-.307-1.197-1.264-2.09-2.444-2.28-.246-.04-14.661-.057-14.86-.018m14.72 2.041c.115.039.263.135.361.233.324.324.299-.322.299 7.701s.025 7.377-.299 7.701c-.324.324.322.299-7.701.299-8.025 0-7.377.025-7.702-.3-.324-.324-.3.328-.288-7.782L4.02 4.7l.111-.189c.125-.213.318-.375.539-.454.123-.044 1.434-.054 7.313-.055 6.565-.002 7.179.004 7.357.064M6.643 6.069a1.118 1.118 0 0 0-.343.229c-.32.32-.3-.022-.3 5.202 0 5.223-.02 4.883.299 5.201.294.294.33.299 2.201.299s1.907-.005 2.201-.299c.319-.318.299.022.299-5.201s.02-4.883-.299-5.201c-.295-.295-.328-.299-2.218-.296-1.398.003-1.691.013-1.84.066m7 0a1.118 1.118 0 0 0-.343.229c-.309.309-.3.215-.3 3.202 0 2.986-.009 2.894.299 3.201.294.294.33.299 2.201.299s1.907-.005 2.201-.299c.308-.307.299-.215.299-3.201s.009-2.894-.299-3.201c-.295-.295-.328-.299-2.218-.296-1.398.003-1.691.013-1.84.066M9 11.5V15H8V8h1v3.5m7-2V11h-1V8h1v1.5" fill="#000" fill-rule="evenodd" stroke="none"/></svg>