<svg xmlns="http://www.w3.org/2000/svg" width="24" height="24" fill="none" stroke="currentColor" stroke-width="2" stroke-linecap="round" stroke-linejoin="round"><path d="M.643 5.069C.291 5.193 0 5.614 0 6c0 .08.029.234.065.343.059.18.391.524 3.93 4.068 2.994 2.999 3.91 3.893 4.063 3.97.253.127.601.133.862.016.137-.061.7-.6 2.38-2.279l2.2-2.198 3.54 3.54L20.58 17h-1.863c-2.112 0-2.12.001-2.418.299a.984.984 0 0 0 0 1.402c.312.312.152.299 3.738.298 3.116-.001 3.187-.002 3.363-.082a.951.951 0 0 0 .505-.497l.094-.2.001-3.183c0-3.586.013-3.426-.299-3.738a.984.984 0 0 0-1.402 0c-.298.298-.299.306-.299 2.418v1.863l-3.95-3.948c-3.073-3.072-3.99-3.967-4.13-4.03a1.065 1.065 0 0 0-.862.017c-.15.075-.728.629-2.378 2.28L8.501 12.08 5.02 8.605c-3.181-3.176-3.497-3.481-3.677-3.54a1.038 1.038 0 0 0-.7.004" fill="#000" fill-rule="evenodd" stroke="none"/></svg>