<svg xmlns="http://www.w3.org/2000/svg" width="24" height="24" fill="none" stroke="currentColor" stroke-width="2" stroke-linecap="round" stroke-linejoin="round"><path d="M16.643 5.069C16.291 5.193 16 5.614 16 6c0 .242.119.521.299.701.298.298.306.299 2.418.299h1.863l-3.54 3.54-3.54 3.54-2.2-2.198c-1.68-1.679-2.243-2.218-2.38-2.279a1.06 1.06 0 0 0-.862.016c-.153.077-1.069.971-4.063 3.97C.456 17.133.124 17.477.065 17.657c-.128.39-.044.766.234 1.044s.654.362 1.044.234c.18-.059.496-.364 3.677-3.54l3.481-3.475 2.179 2.181c1.65 1.651 2.228 2.205 2.378 2.28.253.127.601.133.862.017.14-.063 1.057-.958 4.13-4.03L22 8.42v1.863c0 2.112.001 2.12.299 2.418a.984.984 0 0 0 1.402 0c.312-.312.299-.152.299-3.738l-.001-3.183-.094-.2a.951.951 0 0 0-.505-.497c-.176-.08-.244-.081-3.38-.079-2.792.002-3.222.01-3.377.065" fill="#000" fill-rule="evenodd" stroke="none"/></svg>