<svg xmlns="http://www.w3.org/2000/svg" width="24" height="24" fill="none" stroke="currentColor" stroke-width="2" stroke-linecap="round" stroke-linejoin="round"><path d="M1.643 4.069a1.118 1.118 0 0 0-.343.229C.976 4.621 1 4.096 1 11c0 6.903-.023 6.379.299 6.701.278.278.392.299 1.641.299h1.085l.069.29c.244 1.027.925 1.877 1.894 2.364.542.273 1.395.406 2 .311 1.419-.222 2.567-1.258 2.899-2.615l.086-.35h3.052l.069.29c.244 1.027.925 1.877 1.894 2.364.542.273 1.395.406 2 .311 1.419-.222 2.567-1.258 2.899-2.615l.086-.35h.586c.702 0 .893-.05 1.143-.3.308-.308.306-.289.287-2.669-.018-2.293-.021-2.321-.29-3.071-.32-.89-.69-1.381-2.086-2.764-.937-.93-1.098-1.073-1.27-1.13-.173-.058-.454-.066-2.27-.066H15V6.427c0-1.789-.006-1.836-.299-2.128-.323-.323.205-.299-6.718-.296-5.475.003-6.183.01-6.34.066M13 11v5h-2.347l-.05-.11c-.094-.207-.372-.59-.598-.823A3.463 3.463 0 0 0 7.7 14.013a3.47 3.47 0 0 0-1.94.456c-.446.25-1.03.825-1.26 1.24l-.16.289-.67.001L3 16V6h10v5m6.503-.07c.934.948 1.085 1.139 1.283 1.63.186.459.214.745.214 2.144V16h-.174c-.15 0-.18-.015-.223-.11-.094-.207-.372-.59-.598-.823a3.486 3.486 0 0 0-4.233-.603c-.18.103-.428.275-.55.384l-.222.198V10h3.585l.918.93m-11.38 5.217c.325.154.573.401.732.733.111.232.125.299.125.62s-.014.388-.125.62a1.528 1.528 0 0 1-.735.736c-.231.11-.3.124-.62.124-.31 0-.393-.015-.6-.112a1.698 1.698 0 0 1-.767-.764c-.098-.21-.113-.293-.113-.604 0-.31.015-.393.112-.6.36-.773 1.243-1.106 1.991-.753m10 0c.325.154.573.401.732.733.111.232.125.299.125.62s-.014.388-.125.62a1.528 1.528 0 0 1-.735.736c-.231.11-.3.124-.62.124-.31 0-.393-.015-.6-.112a1.698 1.698 0 0 1-.767-.764c-.098-.21-.113-.293-.113-.604 0-.31.015-.393.112-.6.36-.773 1.243-1.106 1.991-.753" fill-rule="evenodd" fill="#000" stroke="none"/></svg>