<svg xmlns="http://www.w3.org/2000/svg" width="24" height="24" fill="none" stroke="currentColor" stroke-width="2" stroke-linecap="round" stroke-linejoin="round"><path d="M3.62 2.025c-.408.08-.533.114-.75.202-.881.358-1.549 1.137-1.794 2.093-.083.326-.084 11.032 0 11.357.281 1.099 1.04 1.876 2.184 2.238.179.057 1.066.065 8.56.075 5.689.008 8.447-.001 8.633-.03 1.19-.182 2.167-1.084 2.471-2.28.083-.327.083-11.033 0-11.357-.307-1.197-1.264-2.09-2.444-2.28-.246-.04-16.66-.057-16.86-.018m16.72 2.041c.115.039.263.135.361.233.32.32.299-.082.299 5.701 0 5.783.021 5.381-.299 5.701-.325.325.443.299-8.701.299-9.146 0-8.376.027-8.702-.3-.321-.321-.3.088-.289-5.782L3.02 4.7l.111-.189c.125-.213.318-.375.539-.454.123-.044 1.598-.054 8.313-.055 7.496-.002 8.179.003 8.357.064M6.643 20.069C6.291 20.193 6 20.614 6 21c0 .242.119.521.299.701.32.32-.082.299 5.701.299 5.783 0 5.381.021 5.701-.299a.984.984 0 0 0 0-1.402c-.32-.32.085-.299-5.718-.296-4.569.003-5.183.01-5.34.066" fill-rule="evenodd" fill="#000" stroke="none"/></svg>