<svg xmlns="http://www.w3.org/2000/svg" width="24" height="24" fill="none" stroke="currentColor" stroke-width="2" stroke-linecap="round" stroke-linejoin="round"><path d="M6.643 1.069C6.291 1.193 6 1.614 6 2c0 .08.029.234.065.343.059.177.244.376 1.788 1.925l1.722 1.729-3.058.013c-2.65.012-3.084.022-3.257.077-1.153.365-1.901 1.129-2.184 2.233-.083.326-.084 12.032 0 12.357.281 1.099 1.04 1.876 2.184 2.238.179.057 1.066.065 8.56.075 5.689.008 8.447-.001 8.633-.03 1.19-.182 2.167-1.084 2.471-2.28.083-.327.083-12.033 0-12.357-.307-1.197-1.264-2.09-2.444-2.28C20.316 6.016 19.152 6 17.321 6h-2.899l1.724-1.73c1.545-1.551 1.73-1.75 1.789-1.927.129-.389.044-.766-.234-1.044s-.654-.363-1.044-.234c-.178.059-.41.278-2.427 2.289L12 5.578 9.77 3.354c-2.017-2.011-2.249-2.23-2.427-2.289a1.032 1.032 0 0 0-.7.004M20.34 8.066c.115.039.263.135.361.233.321.321.299-.142.299 6.201s.022 5.88-.299 6.201c-.325.325.443.299-8.701.299-9.146 0-8.376.027-8.702-.3-.322-.322-.3.148-.289-6.282L3.02 8.7l.111-.189c.125-.213.318-.375.539-.454.123-.044 1.598-.054 8.313-.055 7.496-.002 8.179.003 8.357.064" fill="#000" fill-rule="evenodd" stroke="none"/></svg>