<svg xmlns="http://www.w3.org/2000/svg" width="24" height="24" fill="none" stroke="currentColor" stroke-width="2" stroke-linecap="round" stroke-linejoin="round"><path d="M2.643 1.069a1.118 1.118 0 0 0-.343.229C1.973 1.624 2 .855 2 10c0 9.144-.026 8.376.299 8.701.301.301.282.299 2.628.299H7v1.573c0 1.789.006 1.836.299 2.128.278.278.655.363 1.044.234.177-.059.391-.258 2.138-2L12.422 19h2.362c2.071 0 2.386-.008 2.559-.065.178-.059.401-.269 2.362-2.23 1.961-1.961 2.171-2.184 2.23-2.362.059-.178.065-.782.065-6.343 0-6.903.023-6.379-.299-6.701-.326-.327.567-.299-9.718-.296-8.192.003-9.182.01-9.34.066M20 8.29v5.29l-1.71 1.71L16.58 17h-2.363c-2.083 0-2.386.008-2.56.066-.174.057-.342.21-1.427 1.288L9 19.577v-.861c0-1.002-.031-1.149-.299-1.417C8.4 16.998 8.419 17 6.073 17H4V3h16v5.29m-9.357-2.221a1.118 1.118 0 0 0-.343.229c-.303.303-.3.274-.3 2.702 0 2.427-.003 2.399.299 2.701a.984.984 0 0 0 1.402 0c.302-.302.299-.274.299-2.701s.003-2.399-.299-2.701a.998.998 0 0 0-1.058-.23m5 0a1.118 1.118 0 0 0-.343.229c-.303.303-.3.274-.3 2.702 0 2.427-.003 2.399.299 2.701a.984.984 0 0 0 1.402 0c.302-.302.299-.274.299-2.701s.003-2.399-.299-2.701a.998.998 0 0 0-1.058-.23" fill-rule="evenodd" fill="#000" stroke="none"/></svg>