<svg xmlns="http://www.w3.org/2000/svg" width="24" height="24" fill="none" stroke="currentColor" stroke-width="2" stroke-linecap="round" stroke-linejoin="round"><path d="M15.88 2.021c-.033.007-.195.033-.36.06-.732.117-1.676.52-2.28.974-1.313.987-2.122 2.462-2.225 4.056-.023.35-.036.408-.091.393-.035-.01-.19-.03-.344-.044-.985-.093-2.164-.449-3.186-.961-1.386-.695-2.471-1.608-3.463-2.917-.207-.273-.318-.382-.47-.46-.417-.214-.968-.097-1.244.265-.217.284-.607 1.466-.812 2.46a12.429 12.429 0 0 0-.274 2.334c-.075 2.525.615 4.688 2.073 6.499.584.725 1.504 1.556 2.325 2.1.192.127.34.245.329.262-.03.049-.994.417-1.398.534-.956.276-1.678.384-2.74.409-1.007.025-1.167.06-1.42.313a.987.987 0 0 0-.025 1.379c.296.305 1.757.995 3.025 1.428.937.32 2.103.587 3.16.723.804.103 2.816.102 3.58-.001 1.679-.228 3.107-.659 4.509-1.362 3.849-1.928 6.443-5.537 7.206-10.025.141-.826.208-1.57.228-2.532l.02-.912.308-.388a8.756 8.756 0 0 0 1.587-3.102c.056-.195.102-.422.102-.503 0-.664-.69-1.166-1.305-.948-.085.03-.353.184-.595.342-.449.294-1.398.782-1.763.907l-.203.07-.317-.244a5.524 5.524 0 0 0-2.596-1.087c-.272-.038-1.183-.053-1.341-.022m1.183 2.021c.747.132 1.362.46 1.937 1.032.343.342.533.444.828.445.17.001.609-.108.927-.23.089-.034-.061.165-.388.516-.403.432-.431.497-.409.955.093 1.983-.13 3.735-.686 5.379-1.379 4.082-4.687 6.898-8.952 7.62-1.604.271-3.716.188-5.179-.204l-.159-.043.459-.151c1.062-.349 2.463-1.042 3.14-1.554.35-.264.496-.714.363-1.114-.113-.341-.255-.468-.838-.748-2.844-1.369-4.44-3.336-4.886-6.025-.168-1.012-.11-2.495.143-3.678l.045-.209.346.336c2.019 1.956 5.001 3.154 7.846 3.15.68-.001.854-.044 1.094-.271.262-.249.281-.335.309-1.388.021-.786.041-1.015.108-1.264.353-1.304 1.345-2.241 2.689-2.539.279-.062.953-.07 1.263-.015" fill-rule="evenodd" fill="#000" stroke="none"/></svg>