<svg xmlns="http://www.w3.org/2000/svg" width="24" height="24" fill="none" stroke="currentColor" stroke-width="2" stroke-linecap="round" stroke-linejoin="round"><path d="M3.643 3.069a1.066 1.066 0 0 0-.577.591C3.009 3.828 3 4.073 3 5.5c0 1.871.005 1.907.299 2.201a.984.984 0 0 0 1.402 0C4.979 7.423 5 7.308 5 6.073V5h6v14H9.927c-1.235 0-1.35.021-1.628.299a.984.984 0 0 0 0 1.402c.311.312.157.299 3.701.299s3.39.013 3.701-.299a.984.984 0 0 0 0-1.402c-.278-.278-.393-.299-1.628-.299H13V5h6v1.073c0 1.235.021 1.35.299 1.628a.984.984 0 0 0 1.402 0c.294-.294.299-.33.299-2.201s-.005-1.907-.299-2.201c-.325-.326.446-.299-8.718-.296-7.286.003-8.182.01-8.34.066" fill="#000" fill-rule="evenodd" stroke="none"/></svg>