<svg xmlns="http://www.w3.org/2000/svg" width="24" height="24" fill="none" stroke="currentColor" stroke-width="2" stroke-linecap="round" stroke-linejoin="round"><path d="M10.96 1.044c-3.062.267-5.903 1.7-7.984 4.027C1.373 6.865.309 9.245.035 11.65c-.044.387-.042.453.021.655a.943.943 0 0 0 .24.393c.323.323-.075.302 5.63.302h5.071l.013 3.31c.013 3.242.015 3.317.099 3.63.413 1.53 1.519 2.612 3.031 2.965.464.109 1.319.102 1.78-.014 1.481-.373 2.607-1.495 2.963-2.951.121-.494.144-.999.057-1.259A1.029 1.029 0 0 0 18 18c-.539 0-1 .472-1 1.025C17 20.079 16.067 21 15 21c-.92 0-1.768-.69-1.956-1.592-.03-.144-.044-1.203-.044-3.31V13h5.073c5.706 0 5.308.021 5.631-.302a.943.943 0 0 0 .24-.393c.063-.202.065-.268.021-.655a12.038 12.038 0 0 0-1.195-3.99C20.565 3.253 15.861.617 10.96 1.044m2.082 2.014A10.08 10.08 0 0 1 18.3 5.227c1.596 1.287 2.804 3.104 3.358 5.051.072.254.142.52.156.592l.024.13H2.162l.024-.13c.052-.273.294-1.071.435-1.432.353-.902.98-1.989 1.558-2.701a13.404 13.404 0 0 1 1.48-1.477 10.215 10.215 0 0 1 5.401-2.217 11.546 11.546 0 0 1 1.982.015" fill-rule="evenodd" fill="#000" stroke="none"/></svg>