<svg xmlns="http://www.w3.org/2000/svg" width="24" height="24" fill="none" stroke="currentColor" stroke-width="2" stroke-linecap="round" stroke-linejoin="round"><path d="M5.643 3.069a1.118 1.118 0 0 0-.343.229c-.313.313-.3.143-.3 3.819.001 1.974.017 3.405.042 3.623.207 1.815 1.086 3.472 2.438 4.599 1.888 1.574 4.383 2.065 6.68 1.315 2.628-.857 4.481-3.142 4.798-5.914.025-.218.041-1.649.042-3.623 0-3.675.013-3.506-.299-3.818-.479-.479-1.291-.35-1.587.251l-.094.19-.023 3.48c-.02 3.132-.029 3.51-.093 3.78-.244 1.041-.657 1.793-1.383 2.522-.735.737-1.526 1.165-2.561 1.385-.471.1-1.449.1-1.92 0-1.033-.22-1.818-.645-2.562-1.386-.725-.723-1.136-1.473-1.382-2.521-.064-.27-.073-.648-.093-3.78L6.98 3.74l-.094-.19c-.221-.449-.752-.655-1.243-.481m-2 16C3.291 19.193 3 19.614 3 20c0 .242.119.521.299.701.325.325-.443.299 8.701.299s8.376.026 8.701-.299a.984.984 0 0 0 0-1.402c-.325-.326.446-.299-8.718-.296-7.286.003-8.182.01-8.34.066" fill-rule="evenodd" fill="#000" stroke="none"/></svg>