<svg xmlns="http://www.w3.org/2000/svg" width="24" height="24" fill="none" stroke="currentColor" stroke-width="2" stroke-linecap="round" stroke-linejoin="round"><path d="M2.643 6.069a1.118 1.118 0 0 0-.343.229c-.313.313-.3.152-.299 3.739.001 3.116.002 3.187.082 3.363.11.242.257.391.497.505l.2.094L5.963 14c3.586 0 3.426.013 3.738-.299.479-.479.35-1.291-.251-1.587-.189-.093-.203-.094-2.004-.114l-1.815-.02.535-.482c.704-.636.971-.854 1.395-1.138a7.97 7.97 0 0 1 7.939-.544 7.988 7.988 0 0 1 4.459 6.418c.023.228.041.526.041.663 0 .34.098.603.299.804a.984.984 0 0 0 1.403-.001c.26-.26.315-.478.284-1.12-.09-1.897-.643-3.579-1.687-5.14-1.623-2.427-4.089-3.948-7.079-4.368-.552-.078-2.015-.064-2.6.024a10.474 10.474 0 0 0-3.572 1.228c-.797.457-1.236.796-2.415 1.864-.322.293-.597.532-.61.532C4.01 10.72 4 9.85 4 8.787c0-2.19 0-2.189-.299-2.488a.998.998 0 0 0-1.058-.23" fill-rule="evenodd" fill="#000" stroke="none"/></svg>