<svg xmlns="http://www.w3.org/2000/svg" width="24" height="24" fill="none" stroke="currentColor" stroke-width="2" stroke-linecap="round" stroke-linejoin="round"><path d="M6.42 6.026a6.246 6.246 0 0 0-2.176.655c-1.645.851-2.787 2.394-3.151 4.259-.097.499-.097 1.621 0 2.12.115.591.296 1.116.569 1.653.833 1.641 2.304 2.763 4.158 3.17.359.079.547.09 1.848.106 1.665.021 1.734.012 2.032-.287a.984.984 0 0 0 .001-1.403C9.418 16.016 9.324 16 7.918 16c-.919 0-1.315-.015-1.577-.061a3.883 3.883 0 0 1-2.162-1.119 3.924 3.924 0 0 1-1.05-1.818c-.089-.332-.103-.463-.103-1.002 0-.539.014-.67.103-1.002A3.926 3.926 0 0 1 4.18 9.179a3.929 3.929 0 0 1 1.818-1.05c.366-.098.441-.104 1.822-.126 1.405-.022 1.445-.025 1.63-.117.601-.296.73-1.108.251-1.587-.287-.287-.367-.3-1.858-.293-.717.003-1.357.012-1.423.02m8.223.041a1.145 1.145 0 0 0-.343.231c-.48.48-.352 1.292.25 1.588.185.092.225.095 1.63.117 1.381.022 1.456.028 1.822.126 1.441.386 2.519 1.488 2.889 2.951.122.483.122 1.357 0 1.84-.374 1.482-1.468 2.581-2.951 2.968-.285.075-.477.086-1.76.108-1.405.023-1.445.026-1.63.118-.602.296-.73 1.108-.25 1.588.298.299.367.308 2.032.287 1.301-.016 1.489-.027 1.848-.106 1.831-.402 3.3-1.512 4.136-3.124.273-.525.44-.994.569-1.599.13-.606.13-1.714 0-2.32-.521-2.433-2.299-4.214-4.721-4.728-.338-.072-.561-.083-1.864-.096-1.283-.012-1.504-.005-1.657.051" fill-rule="evenodd" fill="#000" stroke="none"/></svg>