<svg xmlns="http://www.w3.org/2000/svg" width="24" height="24" fill="none" stroke="currentColor" stroke-width="2" stroke-linecap="round" stroke-linejoin="round"><path d="M11.36 1.025c-2.661.335-4.688 2.193-5.249 4.811-.075.349-.084.557-.1 2.269l-.017 1.886-.767.02c-.505.014-.835.041-.967.08-1.125.333-1.901 1.125-2.184 2.229-.083.324-.083 8.033 0 8.357.281 1.099 1.041 1.876 2.184 2.238.179.056.983.064 7.56.075 4.998.008 7.448-.001 7.633-.03 1.19-.183 2.167-1.084 2.471-2.28.083-.325.083-8.035 0-8.357-.307-1.197-1.264-2.09-2.444-2.28-.173-.028-2.146-.042-5.873-.043H7.995l.014-1.81.015-1.81.107-.395c.386-1.424 1.446-2.474 2.902-2.874.445-.123 1.489-.123 1.934 0 1.46.401 2.52 1.454 2.898 2.878.123.462.165.55.342.717.222.209.382.272.693.272.209 0 .321-.022.443-.086.209-.111.434-.36.497-.553.166-.501-.231-1.737-.86-2.679a6.019 6.019 0 0 0-3.772-2.542c-.379-.081-1.495-.137-1.848-.093m7.98 11.041c.115.039.263.135.361.233.314.314.299.097.299 4.201 0 4.104.015 3.887-.299 4.201-.324.324.322.299-7.701.299-8.025 0-7.377.025-7.702-.3-.316-.316-.301-.091-.289-4.283L4.02 12.7l.111-.189c.125-.213.318-.375.539-.454.123-.044 1.434-.054 7.313-.055 6.565-.002 7.179.004 7.357.064" fill-rule="evenodd" fill="#000" stroke="none"/></svg>