<svg xmlns="http://www.w3.org/2000/svg" width="24" height="24" fill="none" stroke="currentColor" stroke-width="2" stroke-linecap="round" stroke-linejoin="round"><path d="M7.96 2.025c-2.247.286-3.959 1.887-4.377 4.092-.083.437-.083 1.329 0 1.766.384 2.022 1.849 3.537 3.877 4.007.493.115 1.523.122 2.02.014 2.043-.441 3.55-1.98 3.937-4.021.083-.437.083-1.329 0-1.766-.382-2.014-1.859-3.547-3.857-4.001-.334-.076-1.291-.13-1.6-.091m1.38 2.097a3.03 3.03 0 0 1 2.007 1.938c.104.297.112.364.112.94s-.008.643-.112.94a2.948 2.948 0 0 1-.745 1.18c-.728.715-1.679 1.009-2.657.822a2.872 2.872 0 0 1-1.547-.822 2.948 2.948 0 0 1-.745-1.18c-.104-.297-.112-.364-.112-.94s.008-.643.112-.94a3.056 3.056 0 0 1 2.338-2.021c.321-.059 1.035-.015 1.349.083m10.303 2.947a1.066 1.066 0 0 0-.577.591c-.055.162-.066.373-.066 1.267V10h-1.073c-1.235 0-1.35.021-1.628.299a.984.984 0 0 0 0 1.402c.278.278.393.299 1.628.299H19v1.073c0 .894.011 1.105.066 1.267.126.369.538.66.934.66s.808-.291.934-.66c.055-.162.066-.373.066-1.267V12h1.073c1.235 0 1.35-.021 1.628-.299a.984.984 0 0 0 0-1.402c-.278-.278-.393-.299-1.628-.299H21V8.927c0-1.235-.021-1.35-.299-1.628a.998.998 0 0 0-1.058-.23M4.26 14.058c-1.875.303-3.409 1.587-3.994 3.343-.22.659-.236.802-.255 2.308-.021 1.62-.01 1.694.287 1.991a.984.984 0 0 0 1.403.001c.283-.283.299-.378.299-1.77 0-.95.014-1.281.063-1.523a3.006 3.006 0 0 1 2.345-2.344C4.677 16.008 5.2 16 8.5 16c4.137 0 4.092-.002 4.661.235.692.29 1.314.912 1.604 1.604.204.49.235.762.235 2.092 0 1.392.016 1.487.299 1.77a.984.984 0 0 0 1.403-.001c.297-.297.308-.371.287-1.991-.015-1.139-.031-1.467-.087-1.709-.234-1.026-.653-1.791-1.381-2.523-.723-.725-1.465-1.132-2.521-1.382-.276-.065-.63-.072-4.36-.08-3.165-.007-4.131.003-4.38.043" fill-rule="evenodd" fill="#000" stroke="none"/></svg>