<svg xmlns="http://www.w3.org/2000/svg" width="24" height="24" fill="none" stroke="currentColor" stroke-width="2" stroke-linecap="round" stroke-linejoin="round"><path d="M11.26 2.056c-1.663.279-3.001 1.257-3.737 2.729-.359.719-.502 1.35-.502 2.215 0 .446.02.715.072.96.22 1.035.648 1.826 1.385 2.561.744.741 1.529 1.166 2.562 1.386.471.1 1.449.1 1.92 0 .969-.206 1.772-.623 2.464-1.277a4.811 4.811 0 0 0 1.059-1.45c.794-1.62.664-3.448-.355-5-.248-.377-.955-1.077-1.348-1.335a5.128 5.128 0 0 0-1.8-.746c-.426-.09-1.31-.111-1.72-.043m1.332 2.007c1.621.333 2.675 1.918 2.345 3.529-.333 1.621-1.92 2.676-3.529 2.344a3.008 3.008 0 0 1-2.345-2.344c-.427-2.085 1.444-3.956 3.529-3.529M7.26 14.058c-1.875.303-3.409 1.587-3.994 3.343-.22.659-.236.802-.255 2.308-.021 1.62-.01 1.694.287 1.991a.984.984 0 0 0 1.403.001c.283-.283.299-.378.299-1.77 0-.95.014-1.281.063-1.523a3.006 3.006 0 0 1 2.345-2.344C7.679 16.008 8.243 16 12 16c4.687 0 4.587-.005 5.161.235.692.29 1.314.912 1.604 1.604.204.49.235.762.235 2.092 0 1.392.016 1.487.299 1.77a.984.984 0 0 0 1.403-.001c.297-.297.308-.371.287-1.991-.015-1.139-.031-1.467-.087-1.709-.234-1.026-.653-1.791-1.381-2.523-.723-.725-1.463-1.131-2.521-1.382-.277-.066-.647-.072-4.86-.08-3.569-.007-4.63.003-4.88.043" fill-rule="evenodd" fill="#000" stroke="none"/></svg>