<svg xmlns="http://www.w3.org/2000/svg" width="24" height="24" fill="none" stroke="currentColor" stroke-width="2" stroke-linecap="round" stroke-linejoin="round"><path d="M7.96 2.025c-2.247.286-3.959 1.887-4.377 4.092-.083.437-.083 1.329 0 1.766.384 2.022 1.849 3.537 3.877 4.007.493.115 1.523.122 2.02.014 2.043-.441 3.55-1.98 3.937-4.021.083-.437.083-1.329 0-1.766-.382-2.014-1.859-3.547-3.857-4.001-.334-.076-1.291-.13-1.6-.091m1.38 2.097a3.03 3.03 0 0 1 2.007 1.938c.104.297.112.364.112.94s-.008.643-.112.94a2.948 2.948 0 0 1-.745 1.18c-.728.715-1.679 1.009-2.657.822a2.872 2.872 0 0 1-1.547-.822 2.948 2.948 0 0 1-.745-1.18c-.104-.297-.112-.364-.112-.94s.008-.643.112-.94a3.056 3.056 0 0 1 2.338-2.021c.321-.059 1.035-.015 1.349.083m8.303 2.947c-.386.136-.674.594-.634 1.009.034.353.142.495 1.129 1.481l.941.939-.974.981c-.846.853-.982 1.007-1.039 1.178a.962.962 0 0 0 0 .683c.137.403.587.692 1.012.651.353-.034.495-.142 1.481-1.129l.939-.941.981.974c.853.846 1.007.982 1.178 1.039.388.13.765.046 1.044-.233s.363-.656.233-1.044c-.057-.171-.193-.325-1.039-1.178l-.974-.981.941-.939c.623-.622.969-.998 1.025-1.115.418-.858-.473-1.749-1.331-1.331-.117.056-.493.402-1.115 1.025l-.939.941-.981-.974c-.853-.846-1.007-.982-1.178-1.039a1.026 1.026 0 0 0-.7.003M4.26 14.058c-1.875.303-3.409 1.587-3.994 3.343-.22.659-.236.802-.255 2.308-.021 1.62-.01 1.694.287 1.991a.984.984 0 0 0 1.403.001c.283-.283.299-.378.299-1.77 0-.95.014-1.281.063-1.523a3.006 3.006 0 0 1 2.345-2.344C4.677 16.008 5.2 16 8.5 16c4.137 0 4.092-.002 4.661.235.692.29 1.314.912 1.604 1.604.204.49.235.762.235 2.092 0 1.392.016 1.487.299 1.77a.984.984 0 0 0 1.403-.001c.297-.297.308-.371.287-1.991-.015-1.139-.031-1.467-.087-1.709-.234-1.026-.653-1.791-1.381-2.523-.723-.725-1.465-1.132-2.521-1.382-.276-.065-.63-.072-4.36-.08-3.165-.007-4.131.003-4.38.043" fill-rule="evenodd" fill="#000" stroke="none"/></svg>