<svg xmlns="http://www.w3.org/2000/svg" width="24" height="24" fill="none" stroke="currentColor" stroke-width="2" stroke-linecap="round" stroke-linejoin="round"><path d="M11.271 2.062a4.734 4.734 0 0 0-2.55 1.313l-.218.225h-.427c-1.658 0-3.221.983-3.992 2.511A4.936 4.936 0 0 0 3.6 8.16l-.001.34-.3.315c-1.191 1.248-1.598 3.023-1.061 4.626A4.6 4.6 0 0 0 3.305 15.2l.295.309v.315c.002 1.738.996 3.351 2.535 4.108a4.26 4.26 0 0 0 1.981.468h.415l.326.313a4.482 4.482 0 0 0 2.503 1.229c.484.073.84.073 1.332-.002a4.66 4.66 0 0 0 2.587-1.317l.218-.223h.415c2.025 0 3.853-1.447 4.367-3.456.095-.37.178-1.105.147-1.297-.022-.131-.004-.161.248-.426 1.037-1.092 1.484-2.472 1.266-3.913a4.68 4.68 0 0 0-1.317-2.587l-.223-.218v-.415c0-1.218-.532-2.413-1.459-3.277a4.597 4.597 0 0 0-3.012-1.23l-.451-.013-.295-.28a4.611 4.611 0 0 0-3.912-1.226M12.54 4.06c.602.126 1.209.532 1.603 1.073.323.443.53.534 1.094.483.604-.055.987-.032 1.347.081.794.251 1.404.84 1.687 1.63.093.259.105.351.104.793-.001.275-.009.635-.017.8-.014.271-.004.32.102.514.083.152.189.265.365.391 1.541 1.1 1.562 3.21.042 4.318-.443.323-.534.53-.483 1.094.102 1.108-.102 1.779-.732 2.414a2.453 2.453 0 0 1-.979.62c-.259.093-.351.105-.793.104a22.622 22.622 0 0 1-.8-.017c-.271-.014-.32-.004-.514.102a1.124 1.124 0 0 0-.391.365c-.704.987-1.873 1.4-2.944 1.04a2.513 2.513 0 0 1-1.29-.925c-.282-.376-.416-.485-.691-.565-.193-.056-.264-.058-.5-.016-.938.168-1.74-.068-2.372-.698-.657-.654-.837-1.271-.723-2.481.033-.351.03-.366-.083-.58-.088-.166-.189-.275-.416-.445-.417-.314-.687-.625-.876-1.007a2.559 2.559 0 0 1 .822-3.251c.46-.328.605-.593.563-1.026-.07-.724-.071-.937-.01-1.231.199-.943.963-1.747 1.883-1.98.288-.072.798-.078 1.182-.012.503.087.785-.047 1.162-.55.289-.387.571-.623.979-.823a2.55 2.55 0 0 1 1.679-.215m2.1 5.008c-.153.053-.442.323-1.909 1.785l-1.73 1.724-.73-.723c-.619-.611-.761-.732-.928-.788-.388-.13-.765-.046-1.044.233-.279.278-.363.655-.233 1.044.057.173.204.337 1.19 1.332 1.235 1.247 1.337 1.324 1.744 1.324.43 0 .431 0 2.745-2.325 1.917-1.926 2.131-2.153 2.19-2.331.129-.39.044-.766-.234-1.044a1.005 1.005 0 0 0-1.061-.231" fill-rule="evenodd" fill="#000" stroke="none"/></svg>