<svg xmlns="http://www.w3.org/2000/svg" width="24" height="24" fill="none" stroke="currentColor" stroke-width="2" stroke-linecap="round" stroke-linejoin="round"><path d="M8.534 4.057a2.063 2.063 0 0 0-1.49 1.535c-.062.299-.062 12.517 0 12.816.157.75.798 1.391 1.548 1.548.295.061 6.521.061 6.816 0a2.062 2.062 0 0 0 1.548-1.548c.062-.299.062-12.517 0-12.816a2.062 2.062 0 0 0-1.548-1.548c-.318-.066-6.596-.055-6.874.013M15 12v6H9V6h6v6M1.643 7.069C1.291 7.193 1 7.614 1 8c0 .364.088.496.854 1.27l.721.73-.721.73C1.088 11.504 1 11.636 1 12s.088.496.854 1.27l.721.73-.721.73c-.611.618-.732.76-.788.927-.13.388-.046.765.233 1.044.278.279.655.363 1.044.233.173-.057.336-.203 1.328-1.189.775-.771 1.158-1.179 1.216-1.3.12-.247.137-.511.052-.771-.062-.189-.153-.298-.792-.944L3.425 12l.722-.73c.639-.646.73-.755.792-.944.085-.26.068-.524-.052-.771-.058-.121-.441-.529-1.216-1.3-.992-.986-1.155-1.132-1.328-1.189a1.026 1.026 0 0 0-.7.003m19.997-.001c-.149.052-.373.255-1.311 1.187-.775.77-1.158 1.179-1.216 1.3-.12.247-.137.511-.052.771.062.189.153.298.792.944l.722.73-.722.73c-.639.646-.73.755-.792.944-.085.26-.068.524.052.771.058.121.441.529 1.216 1.3.992.986 1.155 1.132 1.328 1.189.389.13.766.046 1.044-.233.279-.279.363-.656.233-1.044-.056-.167-.177-.309-.788-.927l-.721-.73.721-.73c.766-.774.854-.906.854-1.27s-.088-.496-.854-1.27l-.721-.73.721-.73C22.912 8.496 23 8.364 23 8c0-.686-.694-1.161-1.36-.932" fill-rule="evenodd" fill="#000" stroke="none"/></svg>