<svg xmlns="http://www.w3.org/2000/svg" width="24" height="24" fill="none" stroke="currentColor" stroke-width="2" stroke-linecap="round" stroke-linejoin="round"><path d="M.643.069C.291.193 0 .614 0 1c0 .08.029.234.066.343.057.174.21.343 1.3 1.439l1.235 1.242-.234.048C1.268 4.299.368 5.183.076 6.32c-.083.326-.084 11.032 0 11.357.281 1.099 1.042 1.878 2.184 2.238.178.056.859.064 6.06.075 3.96.008 5.949-.001 6.133-.03a3.029 3.029 0 0 0 2.053-1.327c.096-.147.174-.282.175-.3.004-.218.104-.126 2.928 2.692 2.595 2.589 2.869 2.851 3.048 2.91.39.129.766.044 1.045-.235a.986.986 0 0 0 .185-1.144c-.063-.13-3.018-3.107-11.216-11.301C2.368.957 1.525.125 1.343.065a1.038 1.038 0 0 0-.7.004M10.4 4.037a1.075 1.075 0 0 0-.658.572A1.256 1.256 0 0 0 9.68 5c0 .399.181.7.54.894.156.084.207.086 2.1.106 1.931.02 1.941.02 2.129.113.104.051.237.15.296.22.238.282.233.238.255 2.347.02 1.895.022 1.944.107 2.1.121.223 1.319 1.401 1.503 1.478.184.077.589.08.767.006.118-.049.856-.576 3.903-2.784l.7-.507.02 4.143.02 4.144.094.19c.296.601 1.108.73 1.587.251.32-.32.299.082.299-5.701 0-5.784.021-5.381-.3-5.702a.997.997 0 0 0-1.1-.208c-.077.034-1.346.935-2.82 2.002-1.896 1.373-2.694 1.93-2.727 1.902-.035-.029-.052-.506-.063-1.787-.017-1.856-.015-1.835-.227-2.362-.367-.915-1.287-1.641-2.287-1.803-.295-.048-3.921-.052-4.076-.005m-.61 7.173L15 16.42v.363c0 .459-.077.696-.299.918-.321.321.142.299-6.201.299-6.344 0-5.88.022-6.202-.3-.321-.321-.3.088-.289-5.782L2.02 6.7l.111-.189c.061-.103.173-.236.25-.294.254-.194.372-.213 1.319-.215L4.58 6l5.21 5.21" fill-rule="evenodd" fill="#000" stroke="none"/></svg>