<svg xmlns="http://www.w3.org/2000/svg" width="24" height="24" fill="none" stroke="currentColor" stroke-width="2" stroke-linecap="round" stroke-linejoin="round"><path d="M2.62 4.025c-.408.08-.533.114-.75.202C.989 4.585.321 5.364.076 6.32c-.083.326-.084 11.032 0 11.357.281 1.099 1.042 1.878 2.184 2.238.178.056.859.064 6.06.075 3.96.008 5.949-.001 6.133-.03a3.034 3.034 0 0 0 2.306-1.8c.213-.505.213-.506.238-2.413l.023-1.794 2.762 1.975c1.73 1.237 2.823 1.993 2.925 2.023.359.108.73.015.994-.25.32-.32.299.082.299-5.701 0-5.783.021-5.381-.299-5.701a.985.985 0 0 0-.996-.25c-.105.031-1.173.769-2.925 2.02l-2.76 1.971-.023-1.79c-.025-1.897-.023-1.88-.234-2.405-.367-.916-1.287-1.641-2.283-1.802-.246-.04-11.662-.057-11.86-.018m11.72 2.041c.115.039.263.135.361.233.32.32.299-.082.299 5.701 0 5.783.021 5.381-.299 5.701-.321.321.142.299-6.201.299-6.344 0-5.88.022-6.202-.3-.321-.321-.3.088-.289-5.782L2.02 6.7l.111-.189c.125-.213.318-.375.539-.454.123-.044 1.187-.054 5.813-.055 5.169-.002 5.68.004 5.857.064m7.65 7.454-.01 1.52-2.1-1.5c-1.155-.825-2.1-1.518-2.1-1.54 0-.022.945-.715 2.1-1.54l2.1-1.5.01 1.52c.006.836.006 2.204 0 3.04" fill="#000" fill-rule="evenodd" stroke="none"/></svg>