<svg xmlns="http://www.w3.org/2000/svg" width="24" height="24" fill="none" stroke="currentColor" stroke-width="2" stroke-linecap="round" stroke-linejoin="round"><path d="M4.785 6.043a5.525 5.525 0 0 0-3.166 1.576C.832 8.405.334 9.34.093 10.48c-.1.475-.1 1.565 0 2.04.241 1.14.739 2.075 1.526 2.861.786.786 1.715 1.282 2.861 1.527.321.068.74.072 7.52.072 6.78 0 7.199-.004 7.52-.072 1.146-.245 2.075-.741 2.861-1.527.787-.786 1.285-1.721 1.526-2.861.1-.475.1-1.565 0-2.04-.241-1.14-.739-2.075-1.526-2.861-.786-.787-1.721-1.285-2.861-1.526-.475-.1-1.565-.1-2.04 0-1.14.241-2.075.739-2.861 1.526-.787.786-1.285 1.721-1.526 2.861-.1.475-.1 1.565 0 2.04a5.67 5.67 0 0 0 .885 2.099l.259.381H9.763l.259-.381a5.67 5.67 0 0 0 .885-2.099c.1-.475.1-1.565 0-2.04-.241-1.14-.739-2.075-1.526-2.861a5.507 5.507 0 0 0-2.841-1.52c-.38-.079-1.364-.11-1.755-.056m1.667 2.094c1.191.351 2.047 1.205 2.415 2.411.095.315.107.415.107.952 0 .537-.012.637-.107.952-.368 1.204-1.211 2.047-2.415 2.415-.315.095-.415.107-.952.107-.537 0-.637-.012-.952-.107-1.202-.367-2.048-1.213-2.415-2.415-.095-.315-.107-.415-.107-.952 0-.537.012-.637.107-.952.408-1.336 1.443-2.26 2.813-2.509.361-.065 1.117-.016 1.506.098m13 0c1.191.351 2.047 1.205 2.415 2.411.095.315.107.415.107.952 0 .537-.012.637-.107.952-.368 1.204-1.211 2.047-2.415 2.415-.315.095-.415.107-.952.107-.537 0-.637-.012-.952-.107-1.202-.367-2.048-1.213-2.415-2.415-.095-.315-.107-.415-.107-.952 0-.537.012-.637.107-.952.408-1.336 1.443-2.26 2.813-2.509.361-.065 1.117-.016 1.506.098" fill="#000" fill-rule="evenodd" stroke="none"/></svg>