<svg xmlns="http://www.w3.org/2000/svg" width="24" height="24" fill="none" stroke="currentColor" stroke-width="2" stroke-linecap="round" stroke-linejoin="round"><path d="M10.647 4.072c-.107.042-1.094.805-2.586 1.998L5.65 8H3.752c-2.151 0-2.155 0-2.453.299C.987 8.61 1 8.456 1 12s-.013 3.39.299 3.701c.298.299.302.299 2.453.299H5.65l2.385 1.909c1.312 1.05 2.454 1.944 2.539 1.986a.988.988 0 0 0 1.126-.193c.325-.325.3.323.3-7.702 0-8.023.025-7.377-.299-7.701a.984.984 0 0 0-1.054-.227M10 12v4.921l-1.749-1.4c-1.228-.983-1.802-1.418-1.927-1.46-.147-.051-.45-.061-1.751-.061H3v-4h1.573c1.301 0 1.604-.01 1.751-.061.125-.042.691-.473 1.917-1.457.956-.768 1.744-1.397 1.749-1.399.005-.002.01 2.211.01 4.917" fill="#000" fill-rule="evenodd" stroke="none"/></svg>