<svg xmlns="http://www.w3.org/2000/svg" width="24" height="24" fill="none" stroke="currentColor" stroke-width="2" stroke-linecap="round" stroke-linejoin="round"><path d="M5.62 3.025c-.417.082-.549.118-.758.207A3.126 3.126 0 0 0 3.076 5.32c-.083.328-.083 13.032 0 13.36.217.854.815 1.604 1.579 1.982.701.347-.106.315 8.142.328 8.247.013 7.578.037 7.903-.288.294-.294.3-.339.3-2.129V17h.573c.686 0 .881-.052 1.128-.299.302-.302.299-.274.299-2.701s.003-2.399-.299-2.701c-.247-.247-.442-.299-1.128-.299H21V9.427c0-1.789-.006-1.836-.299-2.128-.247-.247-.442-.299-1.128-.299H19V5.427c0-1.789-.006-1.836-.299-2.128-.323-.323.213-.3-6.778-.294-3.423.002-6.259.011-6.303.02M17 6v1h-5.573c-6.261 0-5.807.022-6.128-.299A.984.984 0 0 1 5.3 5.298c.313-.313-.143-.291 6.11-.295L17 5v1M5.24 8.91c.203.063.729.069 6.99.08l6.77.012V10.991l-.77.02c-.507.014-.838.041-.97.08-1.125.333-1.903 1.128-2.183 2.229-.073.285-.073 1.073-.001 1.36.215.851.815 1.604 1.579 1.982.55.273.699.303 1.575.327l.77.02V19h-6.573c-7.381 0-6.805.024-7.128-.299-.319-.318-.299.023-.299-5.208 0-2.559.005-4.653.01-4.653.006.001.109.032.23.07M21 14v1h-1.573c-1.79 0-1.835-.006-2.129-.3a.998.998 0 0 1 .372-1.643c.115-.041.517-.054 1.74-.055L21 13v1" fill-rule="evenodd" fill="#000" stroke="none"/></svg>