<svg xmlns="http://www.w3.org/2000/svg" width="24" height="24" fill="none" stroke="currentColor" stroke-width="2" stroke-linecap="round" stroke-linejoin="round"><path d="M14.643 1.069a1.066 1.066 0 0 0-.577.591c-.098.288-.098 2.392 0 2.68.126.369.538.66.934.66s.808-.291.934-.66c.098-.288.098-2.392 0-2.68-.173-.508-.762-.778-1.291-.591m-4 3c-.386.136-.674.594-.634 1.009.033.345.15.506.921 1.268.775.766.906.854 1.27.854.563 0 1.044-.523.991-1.078-.033-.345-.15-.506-.921-1.268-.618-.611-.76-.732-.927-.788a1.026 1.026 0 0 0-.7.003m7.997 0c-.143.05-.329.21-.91.785-.771.762-.888.923-.921 1.268-.053.555.428 1.078.991 1.078.364 0 .495-.088 1.27-.854.481-.475.76-.783.817-.9.397-.82-.381-1.679-1.247-1.377m-10.997 4C7.291 8.193 7 8.614 7 9c0 .396.291.808.66.934.288.098 2.392.098 2.68 0 .369-.126.66-.538.66-.934s-.291-.808-.66-.934c-.278-.094-2.427-.092-2.697.003m7 0C14.291 8.193 14 8.614 14 9c0 .527.473 1 1 1 .242 0 .521-.119.701-.299.753-.753-.048-1.989-1.058-1.632m5 0C19.291 8.193 19 8.614 19 9c0 .396.291.808.66.934.288.098 2.392.098 2.68 0 .369-.126.66-.538.66-.934s-.291-.808-.66-.934c-.278-.094-2.427-.092-2.697.003m-2.2 2.8c-.386.136-.674.594-.634 1.009.033.345.15.506.921 1.268.775.766.906.854 1.27.854.563 0 1.044-.523.991-1.078-.033-.345-.15-.506-.921-1.268-.618-.611-.76-.732-.927-.788a1.026 1.026 0 0 0-.7.003m-5.803.199c-.157.053-.776.656-4.811 4.687-3.371 3.367-4.654 4.673-4.716 4.801a.986.986 0 0 0 .185 1.144c.279.279.654.364 1.045.235.181-.059.576-.443 4.828-4.69 3.371-3.367 4.654-4.673 4.716-4.801.397-.817-.378-1.673-1.247-1.376m3.003 2.001a1.066 1.066 0 0 0-.577.591c-.098.288-.098 2.392 0 2.68.126.369.538.66.934.66s.808-.291.934-.66c.098-.288.098-2.392 0-2.68-.173-.508-.762-.778-1.291-.591" fill-rule="evenodd" fill="#000" stroke="none"/></svg>