<svg xmlns="http://www.w3.org/2000/svg" width="24" height="24" fill="none" stroke="currentColor" stroke-width="2" stroke-linecap="round" stroke-linejoin="round"><path d="M11.1 1.045c-1.658.157-3.389.867-4.729 1.94A9.02 9.02 0 0 0 3.04 10.82c.374 4.071 3.492 7.415 7.514 8.057l.426.068.011 1.027.01 1.028H8.928c-2.347 0-2.328-.002-2.629.299a.984.984 0 0 0 0 1.402c.32.32-.082.299 5.701.299 5.783 0 5.381.021 5.701-.299a.984.984 0 0 0 0-1.402c-.301-.301-.282-.299-2.629-.299h-2.073l.01-1.029.011-1.029.36-.051a8.745 8.745 0 0 0 2.56-.809 8.911 8.911 0 0 0 4.14-4.142c.427-.88.662-1.632.826-2.64.1-.614.1-1.986 0-2.6-.164-1.008-.399-1.76-.826-2.64-1.64-3.382-5.203-5.372-8.98-5.015m1.64 1.997c2.449.28 4.51 1.737 5.562 3.931a6.974 6.974 0 0 1-1.802 8.38 6.976 6.976 0 0 1-8.38.464c-3.169-2.11-4.066-6.394-2.01-9.597 1.42-2.212 4.05-3.473 6.63-3.178m-1.43 3.021a3.918 3.918 0 0 0-2.131 1.116 3.903 3.903 0 0 0-1.165 3.001c.096 1.833 1.332 3.307 3.126 3.725.464.109 1.319.102 1.78-.014a4.03 4.03 0 0 0 2.971-2.971c.116-.461.123-1.316.014-1.78-.49-2.102-2.51-3.454-4.595-3.077m1.098 1.981C13.31 8.232 14 9.08 14 10c0 1.08-.92 2-2 2-.92 0-1.768-.69-1.956-1.592a1.95 1.95 0 0 1 .552-1.811 1.956 1.956 0 0 1 1.812-.553" fill-rule="evenodd" fill="#000" stroke="none"/></svg>