<svg xmlns="http://www.w3.org/2000/svg" width="24" height="24" fill="none" stroke="currentColor" stroke-width="2" stroke-linecap="round" stroke-linejoin="round"><path d="M11.08 4.026c-.077.007-.365.033-.64.056-2.944.254-6.009 1.495-8.407 3.405-.88.701-1.011.873-1.011 1.333 0 .21.022.321.087.444.1.19.328.402.517.481.173.072.58.07.757-.004.077-.032.351-.235.609-.451 2.162-1.812 4.665-2.878 7.548-3.216.573-.068 2.347-.068 2.92 0 2.9.34 5.469 1.441 7.6 3.259.456.389.612.467.934.467a.953.953 0 0 0 .898-.54c.12-.224.12-.657 0-.88-.237-.444-1.822-1.642-3.145-2.379a15.998 15.998 0 0 0-7.845-1.995 20.37 20.37 0 0 0-.822.02m-.385 5.197c-2.348.284-4.651 1.366-6.259 2.94-.322.315-.436.533-.436.837 0 .396.291.808.66.934.439.15.726.06 1.209-.38 1.335-1.214 2.848-1.964 4.596-2.279.594-.107 1.945-.148 2.528-.077 1.997.244 3.658 1.009 5.158 2.374.461.42.755.51 1.189.362.369-.126.66-.538.66-.934 0-.08-.03-.234-.066-.343-.079-.235-.422-.591-1.058-1.099a10.984 10.984 0 0 0-5.756-2.357c-.53-.055-1.892-.043-2.425.022m.405 4.915a6.719 6.719 0 0 0-1.848.596 7.575 7.575 0 0 0-1.221.84c-.406.354-.527.589-.505.98.03.527.382.886.9.919.341.022.554-.062.868-.343.494-.442.977-.71 1.65-.916.33-.101.408-.109 1.056-.109.647 0 .727.008 1.06.109a4.137 4.137 0 0 1 1.639.908c.31.272.499.356.801.357.574.001.98-.409.98-.99 0-.331-.136-.585-.473-.88a6.035 6.035 0 0 0-3.22-1.486 7.99 7.99 0 0 0-1.687.015m.543 4.928c-.355.131-.643.549-.643.934 0 .729.814 1.222 1.465.887.711-.365.708-1.41-.004-1.776-.211-.109-.588-.129-.818-.045" fill-rule="evenodd" fill="#000" stroke="none"/></svg>