<svg xmlns="http://www.w3.org/2000/svg" width="24" height="24" fill="none" stroke="currentColor" stroke-width="2" stroke-linecap="round" stroke-linejoin="round"><path d="M1.643 1.069C1.291 1.193 1 1.614 1 2c0 .08.029.234.065.343.059.176.242.374 1.73 1.872.916.921 1.644 1.682 1.618 1.692-.115.043-1.001.588-1.435.883-.527.357-1.291.955-1.591 1.244-.283.272-.365.448-.365.786 0 .329.09.534.323.739.207.182.371.241.664.24.315-.001.493-.082.822-.373a14.653 14.653 0 0 1 2.846-1.925l.269-.135 1.175 1.175c.647.647 1.167 1.184 1.157 1.194-.01.01-.161.075-.336.144-1.205.479-2.576 1.368-3.485 2.261-.345.339-.457.55-.457.86 0 .396.291.808.66.934.431.147.739.055 1.174-.349 1.123-1.046 2.42-1.791 3.791-2.176l.285-.08 1.385 1.386L12.68 14.1l-.544-.013a5.407 5.407 0 0 0-1.636.181 6.015 6.015 0 0 0-2.469 1.306c-.406.354-.527.589-.505.98.03.527.382.886.9.919.341.022.554-.062.868-.343.494-.442.977-.71 1.65-.916.33-.101.408-.109 1.056-.109.647 0 .727.008 1.06.109a4.137 4.137 0 0 1 1.639.908c.132.116.312.243.4.283.184.084.543.098.739.03l.13-.046 2.746 2.741c2.497 2.492 2.764 2.746 2.943 2.805.39.129.766.044 1.045-.235a.986.986 0 0 0 .185-1.144c-.063-.13-2.761-2.85-10.216-10.301C3.299 1.888 2.525 1.125 2.343 1.065a1.038 1.038 0 0 0-.7.004m8.993 2.932c-.599.07-.956.444-.956.999 0 .4.182.701.54.893.155.082.198.085 1.38.073.706-.007 1.414.007 1.68.033 3.014.295 5.636 1.427 7.995 3.452.347.298.681.374 1.065.243.403-.137.692-.587.651-1.012-.033-.349-.16-.532-.657-.953A16.106 16.106 0 0 0 13.4 4.002c-.52-.047-2.363-.048-2.764-.001m5.885 6.317a.996.996 0 0 0-.647 1.122c.07.34.209.498.706.811.641.402.98.656 1.53 1.144.541.481.682.549 1.068.517a.985.985 0 0 0 .868-.792c.039-.184.035-.259-.022-.46-.063-.22-.104-.275-.498-.662a10.757 10.757 0 0 0-1.793-1.386c-.627-.384-.817-.43-1.212-.294m-4.878 8.748c-.355.131-.643.549-.643.934 0 .729.814 1.222 1.465.887.711-.365.708-1.41-.004-1.776-.211-.109-.588-.129-.818-.045" fill-rule="evenodd" fill="#000" stroke="none"/></svg>