<svg xmlns="http://www.w3.org/2000/svg" width="24" height="24" fill="none" stroke="currentColor" stroke-width="2" stroke-linecap="round" stroke-linejoin="round"><path d="M10.62 3.026c-.783.125-1.65.631-1.894 1.105A.987.987 0 0 0 8.898 5.3c.384.384.968.393 1.39.023.275-.242.416-.3.732-.302.315-.001.49.066.698.269a.907.907 0 0 1 .296.71.99.99 0 0 1-.57.908c-.135.068-.428.073-4.924.092l-4.78.02-.19.094C.948 7.41.82 8.222 1.3 8.702c.321.321-.043.301 5.403.288 5.444-.012 4.981.015 5.681-.329.766-.376 1.335-1.092 1.558-1.961.092-.36.094-1.02.005-1.389-.257-1.057-1.12-1.939-2.167-2.213-.243-.064-.94-.107-1.16-.072M19 6.024c-.827.157-1.326.382-1.869.846-.302.257-.425.526-.405.884.031.534.384.889.914.919.317.018.52-.056.8-.293.553-.468 1.341-.497 1.897-.071.956.734.693 2.254-.451 2.612-.251.078-.391.079-9.143.079-9.976 0-9.118-.027-9.444.299a.984.984 0 0 0 .001 1.403c.327.327-.553.3 9.642.289l9.078-.011.351-.11c.708-.222 1.255-.57 1.697-1.079 1.468-1.688.983-4.328-.985-5.365a3.293 3.293 0 0 0-1.523-.406 5.01 5.01 0 0 0-.56.004M1.643 15.068a1.14 1.14 0 0 0-.343.23c-.48.48-.352 1.292.25 1.588l.19.094 6.28.02c6.065.019 6.285.023 6.433.096a.978.978 0 0 1 .561.904.907.907 0 0 1-.296.71c-.208.203-.383.27-.698.269-.316-.002-.457-.06-.732-.302-.85-.746-2.077.19-1.562 1.192.198.385.917.864 1.554 1.036.357.096 1.127.098 1.48.004a3.067 3.067 0 0 0 2.182-2.209c.096-.375.096-1.025 0-1.4-.223-.869-.792-1.585-1.558-1.961-.709-.348-.042-.318-7.204-.326-5.688-.007-6.379-.001-6.537.055" fill-rule="evenodd" fill="#000" stroke="none"/></svg>