<svg xmlns="http://www.w3.org/2000/svg" width="24" height="24" fill="none" stroke="currentColor" stroke-width="2" stroke-linecap="round" stroke-linejoin="round"><path d="M2.643 5.069C2.291 5.193 2 5.614 2 6c0 .242.119.521.299.701C2.625 7.027 1.736 7 12 7c10.264 0 9.375.027 9.701-.299a.984.984 0 0 0 0-1.402c-.326-.327.567-.299-9.718-.296-8.192.003-9.182.01-9.34.066m0 6C2.291 11.193 2 11.614 2 12c0 .242.119.521.299.701.325.325-.385.299 8.226.299 5.446 0 7.733.013 7.883.044C19.31 13.232 20 14.08 20 15c0 .92-.69 1.768-1.592 1.956-.118.024-.605.044-1.094.044h-.883l.22-.237c.443-.479.463-1.051.05-1.464-.278-.279-.655-.363-1.044-.233-.173.057-.337.204-1.332 1.19-1.247 1.235-1.324 1.337-1.324 1.744 0 .407.077.509 1.324 1.744.995.986 1.159 1.133 1.332 1.19.389.13.766.046 1.044-.233.412-.411.393-.985-.047-1.46l-.216-.233 1.091-.019c.937-.015 1.136-.029 1.411-.101a4.039 4.039 0 0 0 2.951-2.968c.116-.461.123-1.316.014-1.78-.377-1.615-1.621-2.796-3.246-3.079-.305-.053-1.33-.061-8.094-.058-6.908.003-7.764.01-7.922.066m0 6C2.291 17.193 2 17.614 2 18c0 .242.119.521.299.701.314.314.097.299 4.201.299 4.104 0 3.887.015 4.201-.299a.984.984 0 0 0 0-1.402c-.315-.315-.094-.299-4.218-.296-3.21.003-3.685.011-3.84.066" fill-rule="evenodd" fill="#000" stroke="none"/></svg>