<svg xmlns="http://www.w3.org/2000/svg" width="24" height="24" fill="none" stroke="currentColor" stroke-width="2" stroke-linecap="round" stroke-linejoin="round"><path d="M15.186 1.042c-.756.088-1.6.342-2.308.695-1.943.967-3.288 2.727-3.747 4.901-.094.446-.106.593-.107 1.322-.002.878.047 1.28.238 1.935l.095.325-3.333 3.34c-1.833 1.837-3.387 3.421-3.453 3.52a3.718 3.718 0 0 0-.46.988c-.128.446-.127 1.181.002 1.63a3.163 3.163 0 0 0 2.189 2.189c.412.119 1.179.129 1.578.021a4.127 4.127 0 0 0 1.03-.471c.104-.071 1.693-1.628 3.53-3.461l3.34-3.333.324.094c1.615.472 3.472.296 5.018-.474 3.246-1.616 4.71-5.425 3.39-8.821-.203-.521-.408-.756-.749-.858-.27-.08-.335-.08-.606 0-.209.061-.294.14-2.187 2.029l-1.971 1.966-.789-.789-.789-.789 1.966-1.971c1.889-1.893 1.968-1.978 2.029-2.187.079-.27.08-.336.002-.598a1.083 1.083 0 0 0-.507-.609c-.241-.124-.776-.312-1.185-.419a7.662 7.662 0 0 0-2.54-.175m1.308 1.986c.016.015-.582.64-1.327 1.39-.772.775-1.401 1.441-1.461 1.545-.378.657-.371 1.478.017 2.097.167.267 1.875 1.983 2.171 2.182.622.418 1.468.441 2.135.057.114-.066.741-.657 1.559-1.472 1.088-1.082 1.375-1.347 1.396-1.291.045.117-.012 1.143-.081 1.464a4.849 4.849 0 0 1-1.378 2.525c-.93.93-1.999 1.403-3.305 1.463-.747.035-1.368-.072-2.13-.366-.432-.167-.695-.183-.97-.059-.139.063-.999.898-3.8 3.696-3.522 3.516-3.626 3.616-3.837 3.678-.457.133-.827.044-1.146-.274-.318-.319-.407-.689-.274-1.146.062-.211.162-.315 3.678-3.837 2.798-2.801 3.633-3.661 3.696-3.8.124-.275.108-.538-.059-.97-.294-.762-.401-1.383-.366-2.13.057-1.244.514-2.324 1.357-3.206.808-.846 1.804-1.366 2.931-1.529.294-.043 1.156-.055 1.194-.017" fill-rule="evenodd" fill="#000" stroke="none"/></svg>