<svg xmlns="http://www.w3.org/2000/svg" width="24" height="24" fill="none" stroke="currentColor" stroke-width="2" stroke-linecap="round" stroke-linejoin="round"><path d="M4.314 4.15c-1.731 1.732-3.18 3.213-3.22 3.29-.071.134-.074.34-.074 4.56v4.42l.087.16c.11.201 6.14 6.224 6.333 6.326.134.071.34.074 4.56.074s4.426-.003 4.56-.074c.193-.102 6.223-6.125 6.333-6.326l.087-.16V12c0-4.22-.003-4.426-.074-4.56-.102-.193-6.125-6.223-6.326-6.333l-.16-.087-4.48-.01L7.46.999 4.314 4.15M18.37 5.63 21 8.26v7.48l-2.63 2.63L15.74 21H8.26l-2.63-2.63L3 15.74V8.26l2.63-2.63L8.26 3h7.48l2.63 2.63M8.643 8.069C8.291 8.193 8 8.614 8 9c0 .08.03.234.066.343.057.174.21.342 1.288 1.427L10.577 12l-1.223 1.23c-1.078 1.085-1.231 1.253-1.288 1.427-.13.389-.045.766.233 1.044s.655.363 1.044.233c.174-.057.342-.21 1.427-1.288L12 13.423l1.23 1.223c1.085 1.078 1.253 1.231 1.427 1.288.389.13.766.045 1.044-.233s.363-.655.233-1.044c-.057-.174-.21-.342-1.288-1.427L13.423 12l1.223-1.23c1.078-1.085 1.231-1.253 1.288-1.427.13-.389.045-.766-.233-1.044s-.655-.363-1.044-.233c-.174.057-.342.21-1.427 1.288L12 10.577l-1.23-1.223C9.685 8.276 9.517 8.123 9.343 8.066a1.026 1.026 0 0 0-.7.003" fill="#000" fill-rule="evenodd" stroke="none"/></svg>