<svg xmlns="http://www.w3.org/2000/svg" width="24" height="24" fill="none" stroke="currentColor" stroke-width="2" stroke-linecap="round" stroke-linejoin="round"><path d="M8.842 3.043c-2.715.069-4.667.216-5.556.42A3.775 3.775 0 0 0 .522 6.124c-.176.648-.405 2.56-.486 4.056-.136 2.538.168 6.468.584 7.52a3.781 3.781 0 0 0 2.268 2.18c.665.232 1.723.353 4.212.483 1.285.067 6.718.093 8.42.041 2.802-.086 4.503-.223 5.282-.425a3.916 3.916 0 0 0 2.103-1.445c.224-.313.509-.918.589-1.254.096-.404.256-1.501.344-2.36.209-2.048.216-4.223.02-6.24-.085-.88-.286-2.248-.38-2.596a3.79 3.79 0 0 0-2.521-2.597c-1.204-.367-6.915-.576-12.115-.444m7.678 2.036c2.418.094 3.703.225 4.099.419.488.238.843.701.958 1.246.075.358.203 1.283.28 2.017.202 1.947.179 4.478-.059 6.439-.122 1.009-.246 1.665-.361 1.906a1.912 1.912 0 0 1-.814.813c-.391.186-1.247.301-2.983.399-2.893.165-8.387.165-11.28 0-2.406-.136-2.991-.262-3.474-.746-.338-.339-.427-.553-.545-1.312-.257-1.658-.321-2.561-.319-4.52.001-1.927.065-2.823.319-4.48.082-.532.122-.688.239-.926a1.8 1.8 0 0 1 .798-.795c.505-.247 2.288-.409 5.483-.499 1.474-.041 6.218-.017 7.659.039M9.48 7.517a.986.986 0 0 0-.637.563c-.08.177-.081.244-.081 3.68 0 3.304.004 3.509.073 3.661.165.364.504.577.92.578.304.001.303.002 1.685-.787l2.794-1.59c.998-.568 1.873-1.084 1.946-1.147.398-.35.405-1.062.014-1.432-.144-.137-5.871-3.414-6.129-3.507a1.07 1.07 0 0 0-.585-.019m3.27 3.819c.38.217.69.405.689.419-.001.02-2.528 1.47-2.646 1.518-.018.008-.033-.68-.033-1.527v-1.541l.65.369 1.34.762" fill-rule="evenodd" fill="#000" stroke="none"/></svg>