<svg xmlns="http://www.w3.org/2000/svg" width="24" height="24" fill="none" stroke="currentColor" stroke-width="2" stroke-linecap="round" stroke-linejoin="round"><path d="M.643.069C.291.193 0 .614 0 1c0 .08.029.234.065.343.059.18.349.481 3.322 3.46l3.258 3.263-2.261 2.713C2.037 13.596 2 13.646 2 14c0 .242.119.521.299.701.316.316.055.299 4.56.299h4.006l-.442 3.535-.441 3.534.073.23a.997.997 0 0 0 1.023.692c.442-.042.373.029 2.772-2.852l2.21-2.655 3.2 3.193c2.919 2.913 3.217 3.199 3.397 3.258.39.129.766.044 1.045-.235a.986.986 0 0 0 .185-1.144c-.063-.13-3.018-3.107-11.216-11.301C2.368.957 1.525.125 1.343.065a1.038 1.038 0 0 0-.7.004m12.117.958c-.341.119-.391.171-1.687 1.725-.708.85-1.334 1.626-1.389 1.725-.079.141-.1.237-.1.442a.978.978 0 0 0 1.077.989c.289-.029.496-.146.727-.41l.198-.226-.096.764c-.092.733-.093.773-.029.994a.997.997 0 0 0 1.139.696.993.993 0 0 0 .657-.46c.116-.188.124-.238.44-2.763l.321-2.572-.072-.23a1.01 1.01 0 0 0-.606-.635c-.188-.064-.456-.082-.58-.039m2.64 8.01a1.075 1.075 0 0 0-.658.572 1.256 1.256 0 0 0-.062.391c0 .399.181.7.54.894.155.083.212.087 1.891.106l1.732.02-.583.7c-.716.86-.778 1.004-.636 1.483.131.439.635.768 1.071.7.398-.063.43-.093 1.848-1.794C21.922 10.454 22 10.341 22 10c0-.242-.119-.521-.299-.701-.309-.31-.194-.299-3.378-.296-1.553.002-2.868.018-2.923.034M9.96 12.99c-.88.006-2.322.006-3.205 0l-1.605-.01 1.455-1.748L8.06 9.484l1.75 1.748 1.75 1.748-1.6.01m4.648 3.111c-.112.186-2.15 2.576-2.159 2.532-.01-.049.427-3.658.495-4.088l.025-.155.833.832c.505.505.823.851.806.879" fill="#000" fill-rule="evenodd" stroke="none"/></svg>