<svg xmlns="http://www.w3.org/2000/svg" width="24" height="24" fill="none" stroke="currentColor" stroke-width="2" stroke-linecap="round" stroke-linejoin="round"><path d="M12.655 1.065a1.082 1.082 0 0 0-.307.187c-.229.208-10.159 12.153-10.244 12.322a.99.99 0 0 0 .194 1.126c.317.317.054.3 4.561.3h4.006l-.442 3.535-.441 3.534.073.23a.997.997 0 0 0 1.023.692c.457-.044.11.343 5.651-6.304 2.799-3.359 5.124-6.176 5.167-6.261a.99.99 0 0 0-.194-1.126c-.317-.317-.054-.3-4.561-.3h-4.006l.442-3.535.441-3.534-.073-.23a.998.998 0 0 0-1.29-.636m-1.379 6.648c-.293 2.355-.294 2.358-.226 2.572.087.275.26.483.5.601l.19.094 3.555.02 3.555.02-3.192 3.83c-1.755 2.107-3.199 3.822-3.21 3.812-.01-.01.114-1.079.276-2.375.293-2.355.294-2.358.226-2.572a.975.975 0 0 0-.5-.601l-.19-.094L8.705 13l-3.555-.02 3.192-3.83c1.755-2.107 3.199-3.822 3.21-3.812.01.01-.114 1.079-.276 2.375" fill="#000" fill-rule="evenodd" stroke="none"/></svg>